<?xml version="1.0" encoding="UTF-8"?>
<svg width="3840" height="2454" overflow="hidden" version="1.1" xml:space="preserve" xmlns="http://www.w3.org/2000/svg"><defs><clipPath id="b"><rect y="1e3" width="3840" height="2454"/></clipPath><clipPath id="a"><rect x="524" y="1032" width="1506" height="1908"/></clipPath></defs><g transform="matrix(.212 0 0 .212 0 -213)" clip-path="url(#b)"><path transform="matrix(1 0 0 1 -69.7 -368)" d="m0 0h4335v3902h-4335z" fill="#fff"/><path transform="matrix(1 0 0 1 -69.7 800)" d="m-433-273h5201v3280h-5201z" fill="#fff"/><g fill="#405070" fill-opacity=".498"><path transform="matrix(1 0 0 1 -69.7 800)" d="m1708 827c0 26.2-39.3 26.2-39.3 0 0-26.2 39.3-26.2 39.3 0"/><path transform="matrix(1 0 0 1 -69.7 800)" d="m1625 903c0 26.2-39.3 26.2-39.3 0 0-26.2 39.3-26.2 39.3 0"/><path transform="matrix(1 0 0 1 -69.7 800)" d="m1460 972c0 26.2-39.3 26.2-39.3 0 0-26.2 39.3-26.2 39.3 0"/><path transform="matrix(1 0 0 1 -69.7 800)" d="m1427 1237c0 26.2-39.3 26.2-39.3 0 0-26.2 39.3-26.2 39.3 0"/><path transform="matrix(1 0 0 1 -69.7 800)" d="m1365 1040c0 26.2-39.3 26.2-39.3 0 0-26.2 39.3-26.2 39.3 0"/><path transform="matrix(1 0 0 1 -69.7 800)" d="m1283 1153c0 26.2-39.3 26.2-39.3 0 0-26.2 39.3-26.2 39.3 0"/><path transform="matrix(1 0 0 1 -69.7 800)" d="m1133 1503c0 26.2-39.3 26.2-39.3 0 0-26.2 39.3-26.2 39.3 0"/><path transform="matrix(1 0 0 1 -69.7 800)" d="m1064 1628c0 26.2-39.3 26.2-39.3 0 0-26.2 39.3-26.2 39.3 0"/><path transform="matrix(1 0 0 1 -69.7 800)" d="m1060 1327c0 26.2-39.3 26.2-39.3 0 0-26.2 39.3-26.2 39.3 0"/><path transform="matrix(1 0 0 1 -69.7 800)" d="m1023 1478c0 26.2-39.3 26.2-39.3 0 0-26.2 39.3-26.2 39.3 0"/><path transform="matrix(1 0 0 1 -69.7 800)" d="m1014 1798c0 26.2-39.3 26.2-39.3 0 0-26.2 39.3-26.2 39.3 0"/><path transform="matrix(1 0 0 1 -69.7 800)" d="m1006 1856c0 26.2-39.3 26.2-39.3 0 0-26.2 39.3-26.2 39.3 0"/><path transform="matrix(1 0 0 1 -69.7 800)" d="m1e3 1582c0 26.2-39.3 26.2-39.3 0 0-26.2 39.3-26.2 39.3 0"/><path transform="matrix(1 0 0 1 -69.7 800)" d="m964 1756c0 26.2-39.3 26.2-39.3 0 0-26.2 39.3-26.2 39.3 0"/><path transform="matrix(1 0 0 1 -69.7 800)" d="m956 1780c0 26.2-39.3 26.2-39.3 0 0-26.2 39.3-26.2 39.3 0"/><path transform="matrix(1 0 0 1 -69.7 800)" d="m928 1702c0 26.2-39.3 26.2-39.3 0 0-26.2 39.3-26.2 39.3 0"/><path transform="matrix(1 0 0 1 -69.7 800)" d="m923 1669c0 26.2-39.3 26.2-39.3 0 0-26.2 39.3-26.2 39.3 0"/><path transform="matrix(1 0 0 1 -69.7 800)" d="m918 1875c0 26.2-39.3 26.2-39.3 0 0-26.2 39.3-26.2 39.3 0"/><path transform="matrix(1 0 0 1 -69.7 800)" d="m905 1748c0 26.2-39.3 26.2-39.3 0 0-26.2 39.3-26.2 39.3 0"/><path transform="matrix(1 0 0 1 -69.7 800)" d="m865 1941c0 26.2-39.3 26.2-39.3 0 0-26.2 39.3-26.2 39.3 0"/><path transform="matrix(1 0 0 1 -69.7 800)" d="m858 1965c0 26.2-39.3 26.2-39.3 0 0-26.2 39.3-26.2 39.3 0"/><path transform="matrix(1 0 0 1 -69.7 800)" d="m839 1935c0 26.2-39.3 26.2-39.3 0 0-26.2 39.3-26.2 39.3 0"/><path transform="matrix(1 0 0 1 -69.7 800)" d="m834 1828c0 26.2-39.3 26.2-39.3 0 0-26.2 39.3-26.2 39.3 0"/><path transform="matrix(1 0 0 1 -69.7 800)" d="m816 1967c0 26.2-39.3 26.2-39.3 0 0-26.2 39.3-26.2 39.3 0"/><path transform="matrix(1 0 0 1 -69.7 800)" d="m806 1901c0 26.2-39.3 26.2-39.3 0 0-26.2 39.3-26.2 39.3 0"/></g><g fill="none" stroke="#000" stroke-linecap="round" stroke-linejoin="round" stroke-miterlimit="10" stroke-width="6.06"><path transform="matrix(1 0 0 1 -69.7 800)" d="m650 2139h1392"/><path transform="matrix(1 0 0 1 -69.7 800)" d="m650 2139v58.2"/><path transform="matrix(1 0 0 1 -69.7 800)" d="m928 2139v58.2"/><path transform="matrix(1 0 0 1 -69.7 800)" d="m1206 2139v58.2"/><path transform="matrix(1 0 0 1 -69.7 800)" d="m1485 2139v58.2"/><path transform="matrix(1 0 0 1 -69.7 800)" d="m1763 2139v58.2"/><path transform="matrix(1 0 0 1 -69.7 800)" d="m2042 2139v58.2"/></g><path transform="matrix(1 0 0 1 553 3149)" d="m4.04-34.2c0-8.21 0.821-14.8 2.53-19.8 1.67-5.02 4.2-8.88 7.52-11.6 3.35-2.72 7.52-4.07 12.6-4.07 3.73 0 7.01 0.758 9.82 2.24 2.81 1.52 5.12 3.66 6.98 6.51 1.8 2.81 3.25 6.25 4.3 10.3 1.04 4.04 1.58 9.54 1.58 16.4 0 8.15-0.853 14.7-2.53 19.7-1.67 5.02-4.17 8.88-7.52 11.6-3.32 2.72-7.55 4.11-12.6 4.11-6.7 0-11.9-2.43-15.8-7.2-4.58-5.81-6.85-15.2-6.85-28.2m8.75 0c0 11.4 1.33 19 4.01 22.7 2.65 3.79 5.94 5.69 9.86 5.69 3.92 0 7.23-1.9 9.89-5.69 2.68-3.79 4.01-11.4 4.01-22.7 0-11.4-1.33-19-4.01-22.8-2.65-3.76-5.97-5.62-9.95-5.62-3.95 0-7.08 1.64-9.41 4.96-2.91 4.23-4.39 12.1-4.39 23.5z"/><path transform="matrix(1 0 0 1 805 3149)" d="m4.04-18.2 8.94-0.758c0.663 4.36 2.21 7.64 4.61 9.82 2.43 2.21 5.34 3.32 8.75 3.32 4.11 0 7.58-1.55 10.4-4.67 2.84-3.06 4.26-7.2 4.26-12.3 0-4.83-1.36-8.69-4.11-11.5-2.72-2.81-6.32-4.2-10.7-4.23-2.78 0.0315-5.24 0.632-7.45 1.9-2.21 1.23-3.95 2.84-5.21 4.86l-7.99-1.07 6.7-35.7h34.6v8.15h-27.7l-3.73 18.7c4.17-2.91 8.53-4.36 13.1-4.36 6.06 0 11.2 2.12 15.4 6.32 4.17 4.2 6.25 9.6 6.25 16.2 0 6.32-1.86 11.8-5.5 16.3-4.49 5.62-10.6 8.47-18.3 8.47-6.32 0-11.5-1.8-15.5-5.31-3.98-3.54-6.25-8.24-6.82-14.1z"/><path transform="matrix(1 0 0 1 859 3149)" d="m4.04-34.2c0-8.21 0.821-14.8 2.53-19.8 1.67-5.02 4.2-8.88 7.52-11.6 3.35-2.72 7.52-4.07 12.6-4.07 3.73 0 7.01 0.758 9.82 2.24 2.81 1.52 5.12 3.66 6.98 6.51 1.8 2.81 3.25 6.25 4.3 10.3 1.04 4.04 1.58 9.54 1.58 16.4 0 8.15-0.853 14.7-2.53 19.7-1.67 5.02-4.17 8.88-7.52 11.6-3.32 2.72-7.55 4.11-12.6 4.11-6.7 0-11.9-2.43-15.8-7.2-4.58-5.81-6.85-15.2-6.85-28.2m8.75 0c0 11.4 1.33 19 4.01 22.7 2.65 3.79 5.94 5.69 9.86 5.69 3.92 0 7.23-1.9 9.89-5.69 2.68-3.79 4.01-11.4 4.01-22.7 0-11.4-1.33-19-4.01-22.8-2.65-3.76-5.97-5.62-9.95-5.62-3.95 0-7.08 1.64-9.41 4.96-2.91 4.23-4.39 12.1-4.39 23.5z"/><path transform="matrix(1 0 0 1 1056 3149)" d="m36.1 0h-8.53v-54.3c-2.05 1.96-4.74 3.92-8.05 5.88-3.35 1.96-6.35 3.41-9 4.39v-8.24c4.77-2.24 8.94-4.96 12.5-8.15 3.57-3.19 6.1-6.29 7.58-9.29h5.5z"/><path transform="matrix(1 0 0 1 1110 3149)" d="m4.04-34.2c0-8.21 0.821-14.8 2.53-19.8 1.67-5.02 4.2-8.88 7.52-11.6 3.35-2.72 7.52-4.07 12.6-4.07 3.73 0 7.01 0.758 9.82 2.24 2.81 1.52 5.12 3.66 6.98 6.51 1.8 2.81 3.25 6.25 4.3 10.3 1.04 4.04 1.58 9.54 1.58 16.4 0 8.15-0.853 14.7-2.53 19.7-1.67 5.02-4.17 8.88-7.52 11.6-3.32 2.72-7.55 4.11-12.6 4.11-6.7 0-11.9-2.43-15.8-7.2-4.58-5.81-6.85-15.2-6.85-28.2m8.75 0c0 11.4 1.33 19 4.01 22.7 2.65 3.79 5.94 5.69 9.86 5.69 3.92 0 7.23-1.9 9.89-5.69 2.68-3.79 4.01-11.4 4.01-22.7 0-11.4-1.33-19-4.01-22.8-2.65-3.76-5.97-5.62-9.95-5.62-3.95 0-7.08 1.64-9.41 4.96-2.91 4.23-4.39 12.1-4.39 23.5z"/><path transform="matrix(1 0 0 1 1164 3149)" d="m4.04-34.2c0-8.21 0.821-14.8 2.53-19.8 1.67-5.02 4.2-8.88 7.52-11.6 3.35-2.72 7.52-4.07 12.6-4.07 3.73 0 7.01 0.758 9.82 2.24 2.81 1.52 5.12 3.66 6.98 6.51 1.8 2.81 3.25 6.25 4.3 10.3 1.04 4.04 1.58 9.54 1.58 16.4 0 8.15-0.853 14.7-2.53 19.7-1.67 5.02-4.17 8.88-7.52 11.6-3.32 2.72-7.55 4.11-12.6 4.11-6.7 0-11.9-2.43-15.8-7.2-4.58-5.81-6.85-15.2-6.85-28.2m8.75 0c0 11.4 1.33 19 4.01 22.7 2.65 3.79 5.94 5.69 9.86 5.69 3.92 0 7.23-1.9 9.89-5.69 2.68-3.79 4.01-11.4 4.01-22.7 0-11.4-1.33-19-4.01-22.8-2.65-3.76-5.97-5.62-9.95-5.62-3.95 0-7.08 1.64-9.41 4.96-2.91 4.23-4.39 12.1-4.39 23.5z"/><path transform="matrix(1 0 0 1 1335 3149)" d="m36.1 0h-8.53v-54.3c-2.05 1.96-4.74 3.92-8.05 5.88-3.35 1.96-6.35 3.41-9 4.39v-8.24c4.77-2.24 8.94-4.96 12.5-8.15 3.57-3.19 6.1-6.29 7.58-9.29h5.5z"/><path transform="matrix(1 0 0 1 1389 3149)" d="m4.04-18.2 8.94-0.758c0.663 4.36 2.21 7.64 4.61 9.82 2.43 2.21 5.34 3.32 8.75 3.32 4.11 0 7.58-1.55 10.4-4.67 2.84-3.06 4.26-7.2 4.26-12.3 0-4.83-1.36-8.69-4.11-11.5-2.72-2.81-6.32-4.2-10.7-4.23-2.78 0.0315-5.24 0.632-7.45 1.9-2.21 1.23-3.95 2.84-5.21 4.86l-7.99-1.07 6.7-35.7h34.6v8.15h-27.7l-3.73 18.7c4.17-2.91 8.53-4.36 13.1-4.36 6.06 0 11.2 2.12 15.4 6.32 4.17 4.2 6.25 9.6 6.25 16.2 0 6.32-1.86 11.8-5.5 16.3-4.49 5.62-10.6 8.47-18.3 8.47-6.32 0-11.5-1.8-15.5-5.31-3.98-3.54-6.25-8.24-6.82-14.1z"/><path transform="matrix(1 0 0 1 1443 3149)" d="m4.04-34.2c0-8.21 0.821-14.8 2.53-19.8 1.67-5.02 4.2-8.88 7.52-11.6 3.35-2.72 7.52-4.07 12.6-4.07 3.73 0 7.01 0.758 9.82 2.24 2.81 1.52 5.12 3.66 6.98 6.51 1.8 2.81 3.25 6.25 4.3 10.3 1.04 4.04 1.58 9.54 1.58 16.4 0 8.15-0.853 14.7-2.53 19.7-1.67 5.02-4.17 8.88-7.52 11.6-3.32 2.72-7.55 4.11-12.6 4.11-6.7 0-11.9-2.43-15.8-7.2-4.58-5.81-6.85-15.2-6.85-28.2m8.75 0c0 11.4 1.33 19 4.01 22.7 2.65 3.79 5.94 5.69 9.86 5.69 3.92 0 7.23-1.9 9.89-5.69 2.68-3.79 4.01-11.4 4.01-22.7 0-11.4-1.33-19-4.01-22.8-2.65-3.76-5.97-5.62-9.95-5.62-3.95 0-7.08 1.64-9.41 4.96-2.91 4.23-4.39 12.1-4.39 23.5z"/><path transform="matrix(1 0 0 1 1613 3149)" d="m48.8-8.21v8.21h-45.9c-0.0632-2.05 0.253-4.04 0.979-5.94 1.17-3.1 3.06-6.19 5.62-9.22 2.59-3.03 6.29-6.54 11.2-10.5 7.52-6.19 12.6-11.1 15.3-14.7 2.65-3.6 3.98-7.04 3.98-10.3 0-3.35-1.2-6.22-3.63-8.53-2.4-2.34-5.56-3.47-9.44-3.47-4.11 0-7.39 1.2-9.86 3.66-2.46 2.46-3.73 5.88-3.73 10.2l-8.78-0.884c0.6-6.54 2.87-11.5 6.76-14.9 3.92-3.44 9.19-5.15 15.8-5.15 6.66 0 11.9 1.83 15.8 5.56 3.89 3.66 5.84 8.28 5.84 13.7 0 2.81-0.6 5.53-1.71 8.21-1.17 2.68-3.03 5.53-5.69 8.47-2.62 3-7.01 7.08-13.1 12.3-5.12 4.3-8.4 7.2-9.86 8.72-1.45 1.55-2.65 3.1-3.6 4.61z"/><path transform="matrix(1 0 0 1 1667 3149)" d="m4.04-34.2c0-8.21 0.821-14.8 2.53-19.8 1.67-5.02 4.2-8.88 7.52-11.6 3.35-2.72 7.52-4.07 12.6-4.07 3.73 0 7.01 0.758 9.82 2.24 2.81 1.52 5.12 3.66 6.98 6.51 1.8 2.81 3.25 6.25 4.3 10.3 1.04 4.04 1.58 9.54 1.58 16.4 0 8.15-0.853 14.7-2.53 19.7-1.67 5.02-4.17 8.88-7.52 11.6-3.32 2.72-7.55 4.11-12.6 4.11-6.7 0-11.9-2.43-15.8-7.2-4.58-5.81-6.85-15.2-6.85-28.2m8.75 0c0 11.4 1.33 19 4.01 22.7 2.65 3.79 5.94 5.69 9.86 5.69 3.92 0 7.23-1.9 9.89-5.69 2.68-3.79 4.01-11.4 4.01-22.7 0-11.4-1.33-19-4.01-22.8-2.65-3.76-5.97-5.62-9.95-5.62-3.95 0-7.08 1.64-9.41 4.96-2.91 4.23-4.39 12.1-4.39 23.5z"/><path transform="matrix(1 0 0 1 1721 3149)" d="m4.04-34.2c0-8.21 0.821-14.8 2.53-19.8 1.67-5.02 4.2-8.88 7.52-11.6 3.35-2.72 7.52-4.07 12.6-4.07 3.73 0 7.01 0.758 9.82 2.24 2.81 1.52 5.12 3.66 6.98 6.51 1.8 2.81 3.25 6.25 4.3 10.3 1.04 4.04 1.58 9.54 1.58 16.4 0 8.15-0.853 14.7-2.53 19.7-1.67 5.02-4.17 8.88-7.52 11.6-3.32 2.72-7.55 4.11-12.6 4.11-6.7 0-11.9-2.43-15.8-7.2-4.58-5.81-6.85-15.2-6.85-28.2m8.75 0c0 11.4 1.33 19 4.01 22.7 2.65 3.79 5.94 5.69 9.86 5.69 3.92 0 7.23-1.9 9.89-5.69 2.68-3.79 4.01-11.4 4.01-22.7 0-11.4-1.33-19-4.01-22.8-2.65-3.76-5.97-5.62-9.95-5.62-3.95 0-7.08 1.64-9.41 4.96-2.91 4.23-4.39 12.1-4.39 23.5z"/><path transform="matrix(1 0 0 1 1892 3149)" d="m48.8-8.21v8.21h-45.9c-0.0632-2.05 0.253-4.04 0.979-5.94 1.17-3.1 3.06-6.19 5.62-9.22 2.59-3.03 6.29-6.54 11.2-10.5 7.52-6.19 12.6-11.1 15.3-14.7 2.65-3.6 3.98-7.04 3.98-10.3 0-3.35-1.2-6.22-3.63-8.53-2.4-2.34-5.56-3.47-9.44-3.47-4.11 0-7.39 1.2-9.86 3.66-2.46 2.46-3.73 5.88-3.73 10.2l-8.78-0.884c0.6-6.54 2.87-11.5 6.76-14.9 3.92-3.44 9.19-5.15 15.8-5.15 6.66 0 11.9 1.83 15.8 5.56 3.89 3.66 5.84 8.28 5.84 13.7 0 2.81-0.6 5.53-1.71 8.21-1.17 2.68-3.03 5.53-5.69 8.47-2.62 3-7.01 7.08-13.1 12.3-5.12 4.3-8.4 7.2-9.86 8.72-1.45 1.55-2.65 3.1-3.6 4.61z"/><path transform="matrix(1 0 0 1 1946 3149)" d="m4.04-18.2 8.94-0.758c0.663 4.36 2.21 7.64 4.61 9.82 2.43 2.21 5.34 3.32 8.75 3.32 4.11 0 7.58-1.55 10.4-4.67 2.84-3.06 4.26-7.2 4.26-12.3 0-4.83-1.36-8.69-4.11-11.5-2.72-2.81-6.32-4.2-10.7-4.23-2.78 0.0315-5.24 0.632-7.45 1.9-2.21 1.23-3.95 2.84-5.21 4.86l-7.99-1.07 6.7-35.7h34.6v8.15h-27.7l-3.73 18.7c4.17-2.91 8.53-4.36 13.1-4.36 6.06 0 11.2 2.12 15.4 6.32 4.17 4.2 6.25 9.6 6.25 16.2 0 6.32-1.86 11.8-5.5 16.3-4.49 5.62-10.6 8.47-18.3 8.47-6.32 0-11.5-1.8-15.5-5.31-3.98-3.54-6.25-8.24-6.82-14.1z"/><path transform="matrix(1 0 0 1 2e3 3149)" d="m4.04-34.2c0-8.21 0.821-14.8 2.53-19.8 1.67-5.02 4.2-8.88 7.52-11.6 3.35-2.72 7.52-4.07 12.6-4.07 3.73 0 7.01 0.758 9.82 2.24 2.81 1.52 5.12 3.66 6.98 6.51 1.8 2.81 3.25 6.25 4.3 10.3 1.04 4.04 1.58 9.54 1.58 16.4 0 8.15-0.853 14.7-2.53 19.7-1.67 5.02-4.17 8.88-7.52 11.6-3.32 2.72-7.55 4.11-12.6 4.11-6.7 0-11.9-2.43-15.8-7.2-4.58-5.81-6.85-15.2-6.85-28.2m8.75 0c0 11.4 1.33 19 4.01 22.7 2.65 3.79 5.94 5.69 9.86 5.69 3.92 0 7.23-1.9 9.89-5.69 2.68-3.79 4.01-11.4 4.01-22.7 0-11.4-1.33-19-4.01-22.8-2.65-3.76-5.97-5.62-9.95-5.62-3.95 0-7.08 1.64-9.41 4.96-2.91 4.23-4.39 12.1-4.39 23.5z"/><g fill="none" stroke="#000" stroke-linecap="round" stroke-linejoin="round" stroke-miterlimit="10" stroke-width="6.06"><path transform="matrix(1 0 0 1 -69.7 800)" d="m594 1908v-1605"/><path transform="matrix(1 0 0 1 -69.7 800)" d="m594 1908h-58.2"/><path transform="matrix(1 0 0 1 -69.7 800)" d="m594 1587h-58.2"/><path transform="matrix(1 0 0 1 -69.7 800)" d="m594 1266h-58.2"/><path transform="matrix(1 0 0 1 -69.7 800)" d="m594 945h-58.2"/><path transform="matrix(1 0 0 1 -69.7 800)" d="m594 624h-58.2"/><path transform="matrix(1 0 0 1 -69.7 800)" d="m594 303h-58.2"/></g><path transform="matrix(1 0 0 1 385 2776)" d="m-34.2-4.04c-8.21 0-14.8-0.821-19.8-2.53-5.02-1.67-8.88-4.2-11.6-7.52-2.72-3.35-4.07-7.52-4.07-12.6 0-3.7 0.758-6.98 2.24-9.79 1.52-2.81 3.66-5.12 6.51-6.98 2.81-1.8 6.25-3.25 10.3-4.3 4.04-1.04 9.54-1.58 16.4-1.58 8.15 0 14.7 0.853 19.7 2.53 5.02 1.67 8.88 4.17 11.6 7.52 2.72 3.32 4.11 7.55 4.11 12.6 0 6.7-2.43 11.9-7.2 15.8-5.81 4.58-15.2 6.85-28.2 6.85m0-8.75c11.4 0 19-1.33 22.7-4.01 3.79-2.65 5.69-5.94 5.69-9.86 0-3.92-1.9-7.23-5.69-9.89-3.79-2.68-11.4-4.01-22.7-4.01-11.4 0-19 1.33-22.8 4.01-3.76 2.65-5.62 5.97-5.62 9.95 0 3.95 1.64 7.08 4.96 9.38 4.23 2.94 12.1 4.42 23.5 4.42z"/><path transform="matrix(1 0 0 1 385 2722)" d="m0-8.81h-9.73l0.0315-9.7h9.7z"/><path transform="matrix(1 0 0 1 385 2695)" d="m-18.2-4.04-0.758-8.94c4.36-0.663 7.64-2.21 9.82-4.61 2.21-2.43 3.32-5.34 3.32-8.75 0-4.11-1.55-7.58-4.64-10.4-3.1-2.84-7.2-4.26-12.3-4.26-4.86 0-8.72 1.36-11.5 4.11-2.81 2.72-4.2 6.32-4.23 10.7 0.0315 2.75 0.632 5.24 1.9 7.45 1.23 2.21 2.84 3.95 4.86 5.21l-1.07 7.99-35.7-6.73v-34.5h8.15v27.7l18.7 3.76c-2.91-4.17-4.36-8.53-4.36-13.1 0-6.06 2.12-11.2 6.32-15.4 4.2-4.17 9.6-6.25 16.2-6.25 6.29 0 11.7 1.86 16.3 5.5 5.59 4.49 8.43 10.6 8.43 18.3 0 6.32-1.8 11.5-5.31 15.5-3.54 3.98-8.24 6.25-14.1 6.82z"/><path transform="matrix(1 0 0 1 385 2455)" d="m0-36.1v8.53l-54.3-0.0316c1.96 2.08 3.92 4.77 5.88 8.09 1.96 3.35 3.41 6.32 4.39 8.97h-8.24c-2.24-4.74-4.96-8.91-8.15-12.5-3.19-3.54-6.29-6.06-9.29-7.58v-5.5z"/><path transform="matrix(1 0 0 1 385 2401)" d="m0-8.81h-9.73l0.0315-9.7h9.7z"/><path transform="matrix(1 0 0 1 385 2374)" d="m-34.2-4.04c-8.21 0-14.8-0.821-19.8-2.53-5.02-1.67-8.88-4.2-11.6-7.52-2.72-3.35-4.07-7.52-4.07-12.6 0-3.7 0.758-6.98 2.24-9.79 1.52-2.81 3.66-5.12 6.51-6.98 2.81-1.8 6.25-3.25 10.3-4.3 4.04-1.04 9.54-1.58 16.4-1.58 8.15 0 14.7 0.853 19.7 2.53 5.02 1.67 8.88 4.17 11.6 7.52 2.72 3.32 4.11 7.55 4.11 12.6 0 6.7-2.43 11.9-7.2 15.8-5.81 4.58-15.2 6.85-28.2 6.85m0-8.75c11.4 0 19-1.33 22.7-4.01 3.79-2.65 5.69-5.94 5.69-9.86 0-3.92-1.9-7.23-5.69-9.89-3.79-2.68-11.4-4.01-22.7-4.01-11.4 0-19 1.33-22.8 4.01-3.76 2.65-5.62 5.97-5.62 9.95 0 3.95 1.64 7.08 4.96 9.38 4.23 2.94 12.1 4.42 23.5 4.42z"/><path transform="matrix(1 0 0 1 385 2134)" d="m0-36.1v8.53l-54.3-0.0316c1.96 2.08 3.92 4.77 5.88 8.09 1.96 3.35 3.41 6.32 4.39 8.97h-8.24c-2.24-4.74-4.96-8.91-8.15-12.5-3.19-3.54-6.29-6.06-9.29-7.58v-5.5z"/><path transform="matrix(1 0 0 1 385 2080)" d="m0-8.81h-9.73l0.0315-9.7h9.7z"/><path transform="matrix(1 0 0 1 385 2053)" d="m-18.2-4.04-0.758-8.94c4.36-0.663 7.64-2.21 9.82-4.61 2.21-2.43 3.32-5.34 3.32-8.75 0-4.11-1.55-7.58-4.64-10.4-3.1-2.84-7.2-4.26-12.3-4.26-4.86 0-8.72 1.36-11.5 4.11-2.81 2.72-4.2 6.32-4.23 10.7 0.0315 2.75 0.632 5.24 1.9 7.45 1.23 2.21 2.84 3.95 4.86 5.21l-1.07 7.99-35.7-6.73v-34.5h8.15v27.7l18.7 3.76c-2.91-4.17-4.36-8.53-4.36-13.1 0-6.06 2.12-11.2 6.32-15.4 4.2-4.17 9.6-6.25 16.2-6.25 6.29 0 11.7 1.86 16.3 5.5 5.59 4.49 8.43 10.6 8.43 18.3 0 6.32-1.8 11.5-5.31 15.5-3.54 3.98-8.24 6.25-14.1 6.82z"/><path transform="matrix(1 0 0 1 385 1813)" d="m-8.18-48.8h8.18v45.9c-2.05 0.0632-4.04-0.253-5.94-1.01-3.1-1.14-6.19-3.03-9.22-5.59-3.03-2.59-6.54-6.29-10.5-11.2-6.19-7.52-11.1-12.6-14.7-15.3-3.6-2.65-7.04-3.98-10.3-3.98-3.35 0-6.22 1.2-8.53 3.63-2.34 2.4-3.47 5.56-3.47 9.44 0 4.11 1.2 7.39 3.66 9.86 2.46 2.46 5.88 3.73 10.2 3.73l-0.884 8.78c-6.54-0.6-11.5-2.87-14.9-6.79-3.44-3.89-5.15-9.16-5.15-15.8 0-6.66 1.83-11.9 5.56-15.8 3.66-3.89 8.28-5.84 13.7-5.84 2.81 0 5.53 0.6 8.21 1.71 2.68 1.17 5.53 3.03 8.47 5.69 3 2.62 7.08 7.01 12.3 13.1 4.3 5.12 7.2 8.4 8.72 9.86 1.55 1.45 3.1 2.65 4.64 3.6z"/><path transform="matrix(1 0 0 1 385 1759)" d="m0-8.81h-9.73l0.0315-9.7h9.7z"/><path transform="matrix(1 0 0 1 385 1732)" d="m-34.2-4.04c-8.21 0-14.8-0.821-19.8-2.53-5.02-1.67-8.88-4.2-11.6-7.52-2.72-3.35-4.07-7.52-4.07-12.6 0-3.7 0.758-6.98 2.24-9.79 1.52-2.81 3.66-5.12 6.51-6.98 2.81-1.8 6.25-3.25 10.3-4.3 4.04-1.04 9.54-1.58 16.4-1.58 8.15 0 14.7 0.853 19.7 2.53 5.02 1.67 8.88 4.17 11.6 7.52 2.72 3.32 4.11 7.55 4.11 12.6 0 6.7-2.43 11.9-7.2 15.8-5.81 4.58-15.2 6.85-28.2 6.85m0-8.75c11.4 0 19-1.33 22.7-4.01 3.79-2.65 5.69-5.94 5.69-9.86 0-3.92-1.9-7.23-5.69-9.89-3.79-2.68-11.4-4.01-22.7-4.01-11.4 0-19 1.33-22.8 4.01-3.76 2.65-5.62 5.97-5.62 9.95 0 3.95 1.64 7.08 4.96 9.38 4.23 2.94 12.1 4.42 23.5 4.42z"/><path transform="matrix(1 0 0 1 385 1492)" d="m-8.18-48.8h8.18v45.9c-2.05 0.0632-4.04-0.253-5.94-1.01-3.1-1.14-6.19-3.03-9.22-5.59-3.03-2.59-6.54-6.29-10.5-11.2-6.19-7.52-11.1-12.6-14.7-15.3-3.6-2.65-7.04-3.98-10.3-3.98-3.35 0-6.22 1.2-8.53 3.63-2.34 2.4-3.47 5.56-3.47 9.44 0 4.11 1.2 7.39 3.66 9.86 2.46 2.46 5.88 3.73 10.2 3.73l-0.884 8.78c-6.54-0.6-11.5-2.87-14.9-6.79-3.44-3.89-5.15-9.16-5.15-15.8 0-6.66 1.83-11.9 5.56-15.8 3.66-3.89 8.28-5.84 13.7-5.84 2.81 0 5.53 0.6 8.21 1.71 2.68 1.17 5.53 3.03 8.47 5.69 3 2.62 7.08 7.01 12.3 13.1 4.3 5.12 7.2 8.4 8.72 9.86 1.55 1.45 3.1 2.65 4.64 3.6z"/><path transform="matrix(1 0 0 1 385 1438)" d="m0-8.81h-9.73l0.0315-9.7h9.7z"/><path transform="matrix(1 0 0 1 385 1411)" d="m-18.2-4.04-0.758-8.94c4.36-0.663 7.64-2.21 9.82-4.61 2.21-2.43 3.32-5.34 3.32-8.75 0-4.11-1.55-7.58-4.64-10.4-3.1-2.84-7.2-4.26-12.3-4.26-4.86 0-8.72 1.36-11.5 4.11-2.81 2.72-4.2 6.32-4.23 10.7 0.0315 2.75 0.632 5.24 1.9 7.45 1.23 2.21 2.84 3.95 4.86 5.21l-1.07 7.99-35.7-6.73v-34.5h8.15v27.7l18.7 3.76c-2.91-4.17-4.36-8.53-4.36-13.1 0-6.06 2.12-11.2 6.32-15.4 4.2-4.17 9.6-6.25 16.2-6.25 6.29 0 11.7 1.86 16.3 5.5 5.59 4.49 8.43 10.6 8.43 18.3 0 6.32-1.8 11.5-5.31 15.5-3.54 3.98-8.24 6.25-14.1 6.82z"/><path transform="matrix(1 0 0 1 385 1171)" d="m-18.3-4.07-1.14-8.53c4.8-0.979 8.31-2.65 10.4-4.99 2.15-2.37 3.22-5.21 3.22-8.62 0-3.98-1.39-7.39-4.17-10.1-2.78-2.78-6.22-4.14-10.3-4.14-3.92 0-7.17 1.26-9.7 3.82-2.56 2.56-3.82 5.81-3.82 9.76 0 1.61 0.316 3.63 0.948 6l-7.49-0.948c0.0632-0.569 0.0948-1.01 0.0948-1.36 0-3.63-0.948-6.89-2.84-9.82-1.9-2.87-4.8-4.33-8.75-4.36-3.16 0.0316-5.72 1.07-7.77 3.19s-3.1 4.86-3.1 8.18c0 3.35 1.04 6.1 3.13 8.31 2.08 2.21 5.21 3.63 9.38 4.26l-1.52 8.53c-5.72-1.04-10.1-3.41-13.3-7.11-3.13-3.7-4.71-8.31-4.71-13.8 0-3.79 0.821-7.26 2.43-10.5 1.64-3.19 3.85-5.62 6.66-7.33 2.81-1.67 5.81-2.53 8.97-2.53 3 0 5.72 0.79 8.18 2.43 2.46 1.58 4.42 3.98 5.88 7.14 0.948-4.11 2.91-7.3 5.91-9.57 2.97-2.27 6.73-3.41 11.2-3.41 6.06 0 11.2 2.21 15.4 6.63 4.2 4.42 6.32 10 6.32 16.8 0 6.1-1.83 11.2-5.43 15.2-3.63 4.01-8.37 6.32-14.1 6.89z"/><path transform="matrix(1 0 0 1 385 1117)" d="m0-8.81h-9.73l0.0315-9.7h9.7z"/><path transform="matrix(1 0 0 1 385 1090)" d="m-34.2-4.04c-8.21 0-14.8-0.821-19.8-2.53-5.02-1.67-8.88-4.2-11.6-7.52-2.72-3.35-4.07-7.52-4.07-12.6 0-3.7 0.758-6.98 2.24-9.79 1.52-2.81 3.66-5.12 6.51-6.98 2.81-1.8 6.25-3.25 10.3-4.3 4.04-1.04 9.54-1.58 16.4-1.58 8.15 0 14.7 0.853 19.7 2.53 5.02 1.67 8.88 4.17 11.6 7.52 2.72 3.32 4.11 7.55 4.11 12.6 0 6.7-2.43 11.9-7.2 15.8-5.81 4.58-15.2 6.85-28.2 6.85m0-8.75c11.4 0 19-1.33 22.7-4.01 3.79-2.65 5.69-5.94 5.69-9.86 0-3.92-1.9-7.23-5.69-9.89-3.79-2.68-11.4-4.01-22.7-4.01-11.4 0-19 1.33-22.8 4.01-3.76 2.65-5.62 5.97-5.62 9.95 0 3.95 1.64 7.08 4.96 9.38 4.23 2.94 12.1 4.42 23.5 4.42z"/><path transform="matrix(1 0 0 1 -69.7 800)" d="m594 2139h1503v-1906h-1503z" fill="none" stroke="#000" stroke-linecap="round" stroke-linejoin="round" stroke-miterlimit="10" stroke-width="6.06"/><g clip-path="url(#a)"><path transform="matrix(1 0 0 1 -69.7 800)" d="m594 2183 1503-2e3" fill="none" stroke="#405070" stroke-linecap="round" stroke-linejoin="round" stroke-miterlimit="10" stroke-width="9.1"/></g><g fill="#405070" fill-opacity=".498"><path transform="matrix(1 0 0 1 -69.7 800)" d="m3670 393c0 26.2-39.3 26.2-39.3 0 0-26.2 39.3-26.2 39.3 0"/><path transform="matrix(1 0 0 1 -69.7 800)" d="m3510 1193c0 26.2-39.3 26.2-39.3 0 0-26.2 39.3-26.2 39.3 0"/><path transform="matrix(1 0 0 1 -69.7 800)" d="m3469 1461c0 26.2-39.3 26.2-39.3 0s39.3-26.2 39.3 0"/><path transform="matrix(1 0 0 1 -69.7 800)" d="m3449 1160c0 26.2-39.3 26.2-39.3 0 0-26.2 39.3-26.2 39.3 0"/><path transform="matrix(1 0 0 1 -69.7 800)" d="m3418 1365c0 26.2-39.3 26.2-39.3 0 0-26.2 39.3-26.2 39.3 0"/><path transform="matrix(1 0 0 1 -69.7 800)" d="m3377 1202c0 26.2-39.3 26.2-39.3 0 0-26.2 39.3-26.2 39.3 0"/><path transform="matrix(1 0 0 1 -69.7 800)" d="m3283 1379c0 26.2-39.3 26.2-39.3 0 0-26.2 39.3-26.2 39.3 0"/><path transform="matrix(1 0 0 1 -69.7 800)" d="m3249 1571c0 26.2-39.3 26.2-39.3 0 0-26.2 39.3-26.2 39.3 0"/><path transform="matrix(1 0 0 1 -69.7 800)" d="m3154 1509c0 26.2-39.3 26.2-39.3 0 0-26.2 39.3-26.2 39.3 0"/><path transform="matrix(1 0 0 1 -69.7 800)" d="m3148 1277c0 26.2-39.3 26.2-39.3 0 0-26.2 39.3-26.2 39.3 0"/><path transform="matrix(1 0 0 1 -69.7 800)" d="m3131 1175c0 26.2-39.3 26.2-39.3 0 0-26.2 39.3-26.2 39.3 0"/><path transform="matrix(1 0 0 1 -69.7 800)" d="m3091 1623c0 26.2-39.3 26.2-39.3 0 0-26.2 39.3-26.2 39.3 0"/><path transform="matrix(1 0 0 1 -69.7 800)" d="m3049 1544c0 26.2-39.3 26.2-39.3 0 0-26.2 39.3-26.2 39.3 0"/><path transform="matrix(1 0 0 1 -69.7 800)" d="m3034 1415c0 26.2-39.3 26.2-39.3 0 0-26.2 39.3-26.2 39.3 0"/><path transform="matrix(1 0 0 1 -69.7 800)" d="m3030 1592c0 26.2-39.3 26.2-39.3 0 0-26.2 39.3-26.2 39.3 0"/><path transform="matrix(1 0 0 1 -69.7 800)" d="m2968 1318c0 26.2-39.3 26.2-39.3 0 0-26.2 39.3-26.2 39.3 0"/><path transform="matrix(1 0 0 1 -69.7 800)" d="m2946 1885c0 26.2-39.3 26.2-39.3 0 0-26.2 39.3-26.2 39.3 0"/><path transform="matrix(1 0 0 1 -69.7 800)" d="m2861 1561c0 26.2-39.3 26.2-39.3 0 0-26.2 39.3-26.2 39.3 0"/><path transform="matrix(1 0 0 1 -69.7 800)" d="m2858 1270c0 26.2-39.3 26.2-39.3 0 0-26.2 39.3-26.2 39.3 0"/><path transform="matrix(1 0 0 1 -69.7 800)" d="m2833 1944c0 26.2-39.3 26.2-39.3 0 0-26.2 39.3-26.2 39.3 0"/><path transform="matrix(1 0 0 1 -69.7 800)" d="m2756 1766c0 26.2-39.3 26.2-39.3 0 0-26.2 39.3-26.2 39.3 0"/><path transform="matrix(1 0 0 1 -69.7 800)" d="m2752 1105c0 26.2-39.3 26.2-39.3 0 0-26.2 39.3-26.2 39.3 0"/></g><g fill="none" stroke="#000" stroke-linecap="round" stroke-linejoin="round" stroke-miterlimit="10" stroke-width="6.06"><path transform="matrix(1 0 0 1 -69.7 800)" d="m2409 2139h1392"/><path transform="matrix(1 0 0 1 -69.7 800)" d="m2409 2139v58.2"/><path transform="matrix(1 0 0 1 -69.7 800)" d="m2688 2139v58.2"/><path transform="matrix(1 0 0 1 -69.7 800)" d="m2966 2139v58.2"/><path transform="matrix(1 0 0 1 -69.7 800)" d="m3244 2139v58.2"/><path transform="matrix(1 0 0 1 -69.7 800)" d="m3523 2139v58.2"/><path transform="matrix(1 0 0 1 -69.7 800)" d="m3801 2139v58.2"/></g><path transform="matrix(1 0 0 1 2313 3149)" d="m4.04-34.2c0-8.21 0.821-14.8 2.53-19.8 1.67-5.02 4.2-8.88 7.52-11.6 3.35-2.72 7.52-4.07 12.6-4.07 3.73 0 7.01 0.758 9.82 2.24 2.81 1.52 5.12 3.66 6.98 6.51 1.8 2.81 3.25 6.25 4.3 10.3 1.04 4.04 1.58 9.54 1.58 16.4 0 8.15-0.853 14.7-2.53 19.7-1.67 5.02-4.17 8.88-7.52 11.6-3.32 2.72-7.55 4.11-12.6 4.11-6.7 0-11.9-2.43-15.8-7.2-4.58-5.81-6.85-15.2-6.85-28.2m8.75 0c0 11.4 1.33 19 4.01 22.7 2.65 3.79 5.94 5.69 9.86 5.69 3.92 0 7.23-1.9 9.89-5.69 2.68-3.79 4.01-11.4 4.01-22.7 0-11.4-1.33-19-4.01-22.8-2.65-3.76-5.97-5.62-9.95-5.62-3.95 0-7.08 1.64-9.41 4.96-2.91 4.23-4.39 12.1-4.39 23.5z"/><path transform="matrix(1 0 0 1 2565 3149)" d="m4.04-18.2 8.94-0.758c0.663 4.36 2.21 7.64 4.61 9.82 2.43 2.21 5.34 3.32 8.75 3.32 4.11 0 7.58-1.55 10.4-4.67 2.84-3.06 4.26-7.2 4.26-12.3 0-4.83-1.36-8.69-4.11-11.5-2.72-2.81-6.32-4.2-10.7-4.23-2.78 0.0315-5.24 0.632-7.45 1.9-2.21 1.23-3.95 2.84-5.21 4.86l-7.99-1.07 6.7-35.7h34.6v8.15h-27.7l-3.73 18.7c4.17-2.91 8.53-4.36 13.1-4.36 6.06 0 11.2 2.12 15.4 6.32 4.17 4.2 6.25 9.6 6.25 16.2 0 6.32-1.86 11.8-5.5 16.3-4.49 5.62-10.6 8.47-18.3 8.47-6.32 0-11.5-1.8-15.5-5.31-3.98-3.54-6.25-8.24-6.82-14.1z"/><path transform="matrix(1 0 0 1 2619 3149)" d="m4.04-34.2c0-8.21 0.821-14.8 2.53-19.8 1.67-5.02 4.2-8.88 7.52-11.6 3.35-2.72 7.52-4.07 12.6-4.07 3.73 0 7.01 0.758 9.82 2.24 2.81 1.52 5.12 3.66 6.98 6.51 1.8 2.81 3.25 6.25 4.3 10.3 1.04 4.04 1.58 9.54 1.58 16.4 0 8.15-0.853 14.7-2.53 19.7-1.67 5.02-4.17 8.88-7.52 11.6-3.32 2.72-7.55 4.11-12.6 4.11-6.7 0-11.9-2.43-15.8-7.2-4.58-5.81-6.85-15.2-6.85-28.2m8.75 0c0 11.4 1.33 19 4.01 22.7 2.65 3.79 5.94 5.69 9.86 5.69 3.92 0 7.23-1.9 9.89-5.69 2.68-3.79 4.01-11.4 4.01-22.7 0-11.4-1.33-19-4.01-22.8-2.65-3.76-5.97-5.62-9.95-5.62-3.95 0-7.08 1.64-9.41 4.96-2.91 4.23-4.39 12.1-4.39 23.5z"/><path transform="matrix(1 0 0 1 2816 3149)" d="m36.1 0h-8.53v-54.3c-2.05 1.96-4.74 3.92-8.05 5.88-3.35 1.96-6.35 3.41-9 4.39v-8.24c4.77-2.24 8.94-4.96 12.5-8.15 3.57-3.19 6.1-6.29 7.58-9.29h5.5z"/><path transform="matrix(1 0 0 1 2870 3149)" d="m4.04-34.2c0-8.21 0.821-14.8 2.53-19.8 1.67-5.02 4.2-8.88 7.52-11.6 3.35-2.72 7.52-4.07 12.6-4.07 3.73 0 7.01 0.758 9.82 2.24 2.81 1.52 5.12 3.66 6.98 6.51 1.8 2.81 3.25 6.25 4.3 10.3 1.04 4.04 1.58 9.54 1.58 16.4 0 8.15-0.853 14.7-2.53 19.7-1.67 5.02-4.17 8.88-7.52 11.6-3.32 2.72-7.55 4.11-12.6 4.11-6.7 0-11.9-2.43-15.8-7.2-4.58-5.81-6.85-15.2-6.85-28.2m8.75 0c0 11.4 1.33 19 4.01 22.7 2.65 3.79 5.94 5.69 9.86 5.69 3.92 0 7.23-1.9 9.89-5.69 2.68-3.79 4.01-11.4 4.01-22.7 0-11.4-1.33-19-4.01-22.8-2.65-3.76-5.97-5.62-9.95-5.62-3.95 0-7.08 1.64-9.41 4.96-2.91 4.23-4.39 12.1-4.39 23.5z"/><path transform="matrix(1 0 0 1 2924 3149)" d="m4.04-34.2c0-8.21 0.821-14.8 2.53-19.8 1.67-5.02 4.2-8.88 7.52-11.6 3.35-2.72 7.52-4.07 12.6-4.07 3.73 0 7.01 0.758 9.82 2.24 2.81 1.52 5.12 3.66 6.98 6.51 1.8 2.81 3.25 6.25 4.3 10.3 1.04 4.04 1.58 9.54 1.58 16.4 0 8.15-0.853 14.7-2.53 19.7-1.67 5.02-4.17 8.88-7.52 11.6-3.32 2.72-7.55 4.11-12.6 4.11-6.7 0-11.9-2.43-15.8-7.2-4.58-5.81-6.85-15.2-6.85-28.2m8.75 0c0 11.4 1.33 19 4.01 22.7 2.65 3.79 5.94 5.69 9.86 5.69 3.92 0 7.23-1.9 9.89-5.69 2.68-3.79 4.01-11.4 4.01-22.7 0-11.4-1.33-19-4.01-22.8-2.65-3.76-5.97-5.62-9.95-5.62-3.95 0-7.08 1.64-9.41 4.96-2.91 4.23-4.39 12.1-4.39 23.5z"/><path transform="matrix(1 0 0 1 3095 3149)" d="m36.1 0h-8.53v-54.3c-2.05 1.96-4.74 3.92-8.05 5.88-3.35 1.96-6.35 3.41-9 4.39v-8.24c4.77-2.24 8.94-4.96 12.5-8.15 3.57-3.19 6.1-6.29 7.58-9.29h5.5z"/><path transform="matrix(1 0 0 1 3149 3149)" d="m4.04-18.2 8.94-0.758c0.663 4.36 2.21 7.64 4.61 9.82 2.43 2.21 5.34 3.32 8.75 3.32 4.11 0 7.58-1.55 10.4-4.67 2.84-3.06 4.26-7.2 4.26-12.3 0-4.83-1.36-8.69-4.11-11.5-2.72-2.81-6.32-4.2-10.7-4.23-2.78 0.0315-5.24 0.632-7.45 1.9-2.21 1.23-3.95 2.84-5.21 4.86l-7.99-1.07 6.7-35.7h34.6v8.15h-27.7l-3.73 18.7c4.17-2.91 8.53-4.36 13.1-4.36 6.06 0 11.2 2.12 15.4 6.32 4.17 4.2 6.25 9.6 6.25 16.2 0 6.32-1.86 11.8-5.5 16.3-4.49 5.62-10.6 8.47-18.3 8.47-6.32 0-11.5-1.8-15.5-5.31-3.98-3.54-6.25-8.24-6.82-14.1z"/><path transform="matrix(1 0 0 1 3203 3149)" d="m4.04-34.2c0-8.21 0.821-14.8 2.53-19.8 1.67-5.02 4.2-8.88 7.52-11.6 3.35-2.72 7.52-4.07 12.6-4.07 3.73 0 7.01 0.758 9.82 2.24 2.81 1.52 5.12 3.66 6.98 6.51 1.8 2.81 3.25 6.25 4.3 10.3 1.04 4.04 1.58 9.54 1.58 16.4 0 8.15-0.853 14.7-2.53 19.7-1.67 5.02-4.17 8.88-7.52 11.6-3.32 2.72-7.55 4.11-12.6 4.11-6.7 0-11.9-2.43-15.8-7.2-4.58-5.81-6.85-15.2-6.85-28.2m8.75 0c0 11.4 1.33 19 4.01 22.7 2.65 3.79 5.94 5.69 9.86 5.69 3.92 0 7.23-1.9 9.89-5.69 2.68-3.79 4.01-11.4 4.01-22.7 0-11.4-1.33-19-4.01-22.8-2.65-3.76-5.97-5.62-9.95-5.62-3.95 0-7.08 1.64-9.41 4.96-2.91 4.23-4.39 12.1-4.39 23.5z"/><path transform="matrix(1 0 0 1 3373 3149)" d="m48.8-8.21v8.21h-45.9c-0.0632-2.05 0.253-4.04 0.979-5.94 1.17-3.1 3.06-6.19 5.62-9.22 2.59-3.03 6.29-6.54 11.2-10.5 7.52-6.19 12.6-11.1 15.3-14.7 2.65-3.6 3.98-7.04 3.98-10.3 0-3.35-1.2-6.22-3.63-8.53-2.4-2.34-5.56-3.47-9.44-3.47-4.11 0-7.39 1.2-9.86 3.66-2.46 2.46-3.73 5.88-3.73 10.2l-8.78-0.884c0.6-6.54 2.87-11.5 6.76-14.9 3.92-3.44 9.19-5.15 15.8-5.15 6.66 0 11.9 1.83 15.8 5.56 3.89 3.66 5.84 8.28 5.84 13.7 0 2.81-0.6 5.53-1.71 8.21-1.17 2.68-3.03 5.53-5.69 8.47-2.62 3-7.01 7.08-13.1 12.3-5.12 4.3-8.4 7.2-9.86 8.72-1.45 1.55-2.65 3.1-3.6 4.61z"/><path transform="matrix(1 0 0 1 3427 3149)" d="m4.04-34.2c0-8.21 0.821-14.8 2.53-19.8 1.67-5.02 4.2-8.88 7.52-11.6 3.35-2.72 7.52-4.07 12.6-4.07 3.73 0 7.01 0.758 9.82 2.24 2.81 1.52 5.12 3.66 6.98 6.51 1.8 2.81 3.25 6.25 4.3 10.3 1.04 4.04 1.58 9.54 1.58 16.4 0 8.15-0.853 14.7-2.53 19.7-1.67 5.02-4.17 8.88-7.52 11.6-3.32 2.72-7.55 4.11-12.6 4.11-6.7 0-11.9-2.43-15.8-7.2-4.58-5.81-6.85-15.2-6.85-28.2m8.75 0c0 11.4 1.33 19 4.01 22.7 2.65 3.79 5.94 5.69 9.86 5.69 3.92 0 7.23-1.9 9.89-5.69 2.68-3.79 4.01-11.4 4.01-22.7 0-11.4-1.33-19-4.01-22.8-2.65-3.76-5.97-5.62-9.95-5.62-3.95 0-7.08 1.64-9.41 4.96-2.91 4.23-4.39 12.1-4.39 23.5z"/><path transform="matrix(1 0 0 1 3481 3149)" d="m4.04-34.2c0-8.21 0.821-14.8 2.53-19.8 1.67-5.02 4.2-8.88 7.52-11.6 3.35-2.72 7.52-4.07 12.6-4.07 3.73 0 7.01 0.758 9.82 2.24 2.81 1.52 5.12 3.66 6.98 6.51 1.8 2.81 3.25 6.25 4.3 10.3 1.04 4.04 1.58 9.54 1.58 16.4 0 8.15-0.853 14.7-2.53 19.7-1.67 5.02-4.17 8.88-7.52 11.6-3.32 2.72-7.55 4.11-12.6 4.11-6.7 0-11.9-2.43-15.8-7.2-4.58-5.81-6.85-15.2-6.85-28.2m8.75 0c0 11.4 1.33 19 4.01 22.7 2.65 3.79 5.94 5.69 9.86 5.69 3.92 0 7.23-1.9 9.89-5.69 2.68-3.79 4.01-11.4 4.01-22.7 0-11.4-1.33-19-4.01-22.8-2.65-3.76-5.97-5.62-9.95-5.62-3.95 0-7.08 1.64-9.41 4.96-2.91 4.23-4.39 12.1-4.39 23.5z"/><path transform="matrix(1 0 0 1 3652 3149)" d="m48.8-8.21v8.21h-45.9c-0.0632-2.05 0.253-4.04 0.979-5.94 1.17-3.1 3.06-6.19 5.62-9.22 2.59-3.03 6.29-6.54 11.2-10.5 7.52-6.19 12.6-11.1 15.3-14.7 2.65-3.6 3.98-7.04 3.98-10.3 0-3.35-1.2-6.22-3.63-8.53-2.4-2.34-5.56-3.47-9.44-3.47-4.11 0-7.39 1.2-9.86 3.66-2.46 2.46-3.73 5.88-3.73 10.2l-8.78-0.884c0.6-6.54 2.87-11.5 6.76-14.9 3.92-3.44 9.19-5.15 15.8-5.15 6.66 0 11.9 1.83 15.8 5.56 3.89 3.66 5.84 8.28 5.84 13.7 0 2.81-0.6 5.53-1.71 8.21-1.17 2.68-3.03 5.53-5.69 8.47-2.62 3-7.01 7.08-13.1 12.3-5.12 4.3-8.4 7.2-9.86 8.72-1.45 1.55-2.65 3.1-3.6 4.61z"/><path transform="matrix(1 0 0 1 3706 3149)" d="m4.04-18.2 8.94-0.758c0.663 4.36 2.21 7.64 4.61 9.82 2.43 2.21 5.34 3.32 8.75 3.32 4.11 0 7.58-1.55 10.4-4.67 2.84-3.06 4.26-7.2 4.26-12.3 0-4.83-1.36-8.69-4.11-11.5-2.72-2.81-6.32-4.2-10.7-4.23-2.78 0.0315-5.24 0.632-7.45 1.9-2.21 1.23-3.95 2.84-5.21 4.86l-7.99-1.07 6.7-35.7h34.6v8.15h-27.7l-3.73 18.7c4.17-2.91 8.53-4.36 13.1-4.36 6.06 0 11.2 2.12 15.4 6.32 4.17 4.2 6.25 9.6 6.25 16.2 0 6.32-1.86 11.8-5.5 16.3-4.49 5.62-10.6 8.47-18.3 8.47-6.32 0-11.5-1.8-15.5-5.31-3.98-3.54-6.25-8.24-6.82-14.1z"/><path transform="matrix(1 0 0 1 3760 3149)" d="m4.04-34.2c0-8.21 0.821-14.8 2.53-19.8 1.67-5.02 4.2-8.88 7.52-11.6 3.35-2.72 7.52-4.07 12.6-4.07 3.73 0 7.01 0.758 9.82 2.24 2.81 1.52 5.12 3.66 6.98 6.51 1.8 2.81 3.25 6.25 4.3 10.3 1.04 4.04 1.58 9.54 1.58 16.4 0 8.15-0.853 14.7-2.53 19.7-1.67 5.02-4.17 8.88-7.52 11.6-3.32 2.72-7.55 4.11-12.6 4.11-6.7 0-11.9-2.43-15.8-7.2-4.58-5.81-6.85-15.2-6.85-28.2m8.75 0c0 11.4 1.33 19 4.01 22.7 2.65 3.79 5.94 5.69 9.86 5.69 3.92 0 7.23-1.9 9.89-5.69 2.68-3.79 4.01-11.4 4.01-22.7 0-11.4-1.33-19-4.01-22.8-2.65-3.76-5.97-5.62-9.95-5.62-3.95 0-7.08 1.64-9.41 4.96-2.91 4.23-4.39 12.1-4.39 23.5z"/><path transform="matrix(1 0 0 1 -69.7 800)" d="m2353 2139h1503v-1906h-1503z" fill="none" stroke="#000" stroke-linecap="round" stroke-linejoin="round" stroke-miterlimit="10" stroke-width="6.06"/><path transform="matrix(1 0 0 1 -69.7 800)" d="m2353 1944 1503-1077" fill="none" stroke="#405070" stroke-linecap="round" stroke-linejoin="round" stroke-miterlimit="10" stroke-width="9.1"/><path transform="matrix(1 0 0 1 1512 3390)" d="m71.3-30.4 11.5 2.91c-2.4 9.44-6.73 16.6-13 21.6-6.25 4.93-13.9 7.42-23 7.42-9.35 0-17-1.9-22.8-5.72-5.84-3.82-10.3-9.32-13.4-16.6-3.06-7.23-4.61-15-4.61-23.3 0-9.03 1.74-16.9 5.18-23.7 3.47-6.73 8.37-11.8 14.8-15.4 6.38-3.47 13.4-5.24 21.1-5.24 8.69 0 16 2.21 21.9 6.63 5.94 4.42 10.1 10.6 12.4 18.7l-11.3 2.65c-2.02-6.32-4.93-10.9-8.75-13.8-3.85-2.87-8.65-4.3-14.5-4.3-6.66 0-12.3 1.58-16.7 4.8-4.49 3.19-7.64 7.49-9.48 12.9-1.8 5.4-2.72 11-2.72 16.7 0 7.39 1.07 13.8 3.22 19.3 2.18 5.53 5.5 9.63 10 12.4 4.55 2.72 9.48 4.11 14.8 4.11 6.44 0 11.9-1.86 16.4-5.59 4.45-3.7 7.45-9.19 9.07-16.5z"/><path transform="matrix(1 0 0 1 1599 3390)" d="m7.99 0v-86.8h10.7v31.2c4.96-5.78 11.2-8.65 18.8-8.65 4.64 0 8.69 0.916 12.1 2.75 3.44 1.83 5.91 4.36 7.39 7.61 1.48 3.22 2.21 7.93 2.21 14.1v39.9h-10.6v-39.9c0-5.34-1.17-9.19-3.47-11.6-2.31-2.43-5.59-3.66-9.79-3.66-3.19 0-6.16 0.821-8.94 2.46s-4.77 3.85-5.94 6.66c-1.2 2.81-1.77 6.66-1.77 11.6v34.4z"/><path transform="matrix(1 0 0 1 1667 3390)" d="m7.87 0v-62.9h9.6v9.54c2.46-4.49 4.71-7.42 6.79-8.84 2.05-1.42 4.36-2.12 6.82-2.12 3.6 0 7.27 1.14 11 3.41l-3.66 9.92c-2.62-1.55-5.21-2.31-7.8-2.34-2.34 0.0316-4.45 0.726-6.29 2.12-1.86 1.39-3.19 3.35-3.98 5.84-1.17 3.79-1.77 7.93-1.77 12.4v32.9z"/><path transform="matrix(1 0 0 1 1707 3390)" d="m4.04-31.5c0-11.6 3.22-20.2 9.7-25.9 5.4-4.64 12-6.98 19.8-6.98 8.65 0 15.7 2.81 21.2 8.5 5.5 5.65 8.24 13.5 8.24 23.5 0 8.12-1.2 14.5-3.63 19.1-2.43 4.64-5.97 8.24-10.6 10.8-4.64 2.56-9.7 3.85-15.2 3.85-8.81 0-15.9-2.81-21.4-8.47-5.43-5.65-8.12-13.8-8.12-24.4m10.9 0c0 8.05 1.77 14.1 5.28 18.1 3.51 4.01 7.93 6.03 13.3 6.03 5.31 0 9.7-2.02 13.2-6.06 3.54-4.01 5.28-10.2 5.28-18.4 0-7.77-1.77-13.7-5.31-17.7-3.51-3.98-7.93-6-13.2-6-5.34 0-9.76 1.99-13.3 5.97-3.51 4.01-5.28 10-5.28 18.1z"/><path transform="matrix(1 0 0 1 1775 3390)" d="m7.99 0v-62.9h9.54v8.81c1.96-3.06 4.61-5.56 7.87-7.42 3.29-1.9 7.01-2.81 11.2-2.81 4.64 0 8.47 0.948 11.5 2.91 2.97 1.93 5.05 4.64 6.29 8.09 4.99-7.33 11.5-11 19.4-11 6.25 0 11.1 1.71 14.4 5.18 3.35 3.44 5.02 8.78 5.02 16v43.2h-10.6v-39.6c0-4.26-0.348-7.36-1.04-9.22-0.695-1.86-1.96-3.38-3.76-4.52-1.83-1.17-3.95-1.74-6.41-1.74-4.42 0-8.09 1.48-11 4.42-2.91 2.94-4.36 7.64-4.36 14.1v36.5h-10.7v-40.9c0-4.74-0.853-8.28-2.59-10.6-1.74-2.37-4.58-3.57-8.53-3.57-3 0-5.78 0.79-8.34 2.37-2.53 1.58-4.39 3.89-5.53 6.95-1.14 3.03-1.71 7.42-1.71 13.1v32.6z"/><path transform="matrix(1 0 0 1 1876 3390)" d="m4.04-31.5c0-11.6 3.22-20.2 9.7-25.9 5.4-4.64 12-6.98 19.8-6.98 8.65 0 15.7 2.81 21.2 8.5 5.5 5.65 8.24 13.5 8.24 23.5 0 8.12-1.2 14.5-3.63 19.1-2.43 4.64-5.97 8.24-10.6 10.8-4.64 2.56-9.7 3.85-15.2 3.85-8.81 0-15.9-2.81-21.4-8.47-5.43-5.65-8.12-13.8-8.12-24.4m10.9 0c0 8.05 1.77 14.1 5.28 18.1 3.51 4.01 7.93 6.03 13.3 6.03 5.31 0 9.7-2.02 13.2-6.06 3.54-4.01 5.28-10.2 5.28-18.4 0-7.77-1.77-13.7-5.31-17.7-3.51-3.98-7.93-6-13.2-6-5.34 0-9.76 1.99-13.3 5.97-3.51 4.01-5.28 10-5.28 18.1z"/><path transform="matrix(1 0 0 1 1943 3390)" d="m3.73-18.8 10.6-1.67c0.6 4.23 2.24 7.45 4.93 9.73 2.72 2.24 6.51 3.38 11.4 3.38 4.86 0 8.53-1.01 10.9-3 2.4-1.99 3.57-4.33 3.57-7.01 0-2.43-1.04-4.33-3.13-5.69-1.48-0.948-5.12-2.15-10.9-3.63-7.83-1.96-13.2-3.66-16.3-5.12-3.03-1.45-5.31-3.44-6.89-5.97-1.55-2.56-2.34-5.37-2.34-8.43 0-2.81 0.663-5.4 1.93-7.8 1.3-2.4 3.03-4.36 5.24-5.97 1.67-1.2 3.92-2.24 6.79-3.1 2.87-0.853 5.94-1.26 9.22-1.26 4.93 0 9.26 0.695 13 2.12 3.73 1.42 6.48 3.35 8.28 5.78 1.77 2.43 3 5.69 3.66 9.73l-10.4 1.45c-0.474-3.25-1.86-5.78-4.11-7.58-2.27-1.83-5.5-2.75-9.63-2.75-4.9 0-8.4 0.821-10.5 2.43-2.08 1.61-3.13 3.51-3.13 5.69 0 1.39 0.411 2.62 1.3 3.73 0.853 1.17 2.21 2.12 4.07 2.84 1.07 0.411 4.2 1.33 9.41 2.72 7.55 2.02 12.8 3.66 15.8 4.96 2.97 1.3 5.31 3.16 7.01 5.59 1.71 2.46 2.56 5.5 2.56 9.13 0 3.57-1.04 6.89-3.13 10-2.05 3.13-5.05 5.56-8.97 7.27-3.89 1.74-8.31 2.59-13.3 2.59-8.15 0-14.4-1.71-18.7-5.09-4.3-3.41-7.01-8.43-8.21-15.1z"/><path transform="matrix(1 0 0 1 2e3 3390)" d="m4.04-31.5c0-11.6 3.22-20.2 9.7-25.9 5.4-4.64 12-6.98 19.8-6.98 8.65 0 15.7 2.81 21.2 8.5 5.5 5.65 8.24 13.5 8.24 23.5 0 8.12-1.2 14.5-3.63 19.1-2.43 4.64-5.97 8.24-10.6 10.8-4.64 2.56-9.7 3.85-15.2 3.85-8.81 0-15.9-2.81-21.4-8.47-5.43-5.65-8.12-13.8-8.12-24.4m10.9 0c0 8.05 1.77 14.1 5.28 18.1 3.51 4.01 7.93 6.03 13.3 6.03 5.31 0 9.7-2.02 13.2-6.06 3.54-4.01 5.28-10.2 5.28-18.4 0-7.77-1.77-13.7-5.31-17.7-3.51-3.98-7.93-6-13.2-6-5.34 0-9.76 1.99-13.3 5.97-3.51 4.01-5.28 10-5.28 18.1z"/><path transform="matrix(1 0 0 1 2071 3390)" d="m7.99 0v-62.9h9.54v8.81c1.96-3.06 4.61-5.56 7.87-7.42 3.29-1.9 7.01-2.81 11.2-2.81 4.64 0 8.47 0.948 11.5 2.91 2.97 1.93 5.05 4.64 6.29 8.09 4.99-7.33 11.5-11 19.4-11 6.25 0 11.1 1.71 14.4 5.18 3.35 3.44 5.02 8.78 5.02 16v43.2h-10.6v-39.6c0-4.26-0.348-7.36-1.04-9.22-0.695-1.86-1.96-3.38-3.76-4.52-1.83-1.17-3.95-1.74-6.41-1.74-4.42 0-8.09 1.48-11 4.42-2.91 2.94-4.36 7.64-4.36 14.1v36.5h-10.7v-40.9c0-4.74-0.853-8.28-2.59-10.6-1.74-2.37-4.58-3.57-8.53-3.57-3 0-5.78 0.79-8.34 2.37-2.53 1.58-4.39 3.89-5.53 6.95-1.14 3.03-1.71 7.42-1.71 13.1v32.6z"/><path transform="matrix(1 0 0 1 2172 3390)" d="m51-20.2 11 1.36c-1.74 6.44-4.96 11.4-9.67 15-4.67 3.57-10.7 5.34-18 5.34-9.19 0-16.5-2.84-21.9-8.5-5.4-5.65-8.09-13.6-8.09-23.8 0-10.6 2.72-18.8 8.15-24.6 5.46-5.84 12.5-8.75 21.2-8.75 8.4 0 15.3 2.84 20.6 8.59 5.34 5.72 7.99 13.8 7.99 24.2 0 0.632 0 1.58-0.0632 2.84h-46.9c0.411 6.89 2.37 12.2 5.88 15.9 3.51 3.66 7.9 5.53 13.1 5.53 3.92 0 7.26-1.04 10-3.1 2.78-2.05 4.96-5.34 6.57-9.82m-35-17.2h35.1c-0.474-5.28-1.83-9.26-4.04-11.9-3.38-4.11-7.77-6.16-13.2-6.16-4.9 0-9 1.64-12.4 4.93-3.32 3.29-5.18 7.64-5.53 13.1z"/><path transform="matrix(1 0 0 1 2273 3390)" d="m3.73-18.8 10.6-1.67c0.6 4.23 2.24 7.45 4.93 9.73 2.72 2.24 6.51 3.38 11.4 3.38 4.86 0 8.53-1.01 10.9-3 2.4-1.99 3.57-4.33 3.57-7.01 0-2.43-1.04-4.33-3.13-5.69-1.48-0.948-5.12-2.15-10.9-3.63-7.83-1.96-13.2-3.66-16.3-5.12-3.03-1.45-5.31-3.44-6.89-5.97-1.55-2.56-2.34-5.37-2.34-8.43 0-2.81 0.663-5.4 1.93-7.8 1.3-2.4 3.03-4.36 5.24-5.97 1.67-1.2 3.92-2.24 6.79-3.1 2.87-0.853 5.94-1.26 9.22-1.26 4.93 0 9.26 0.695 13 2.12 3.73 1.42 6.48 3.35 8.28 5.78 1.77 2.43 3 5.69 3.66 9.73l-10.4 1.45c-0.474-3.25-1.86-5.78-4.11-7.58-2.27-1.83-5.5-2.75-9.63-2.75-4.9 0-8.4 0.821-10.5 2.43-2.08 1.61-3.13 3.51-3.13 5.69 0 1.39 0.411 2.62 1.3 3.73 0.853 1.17 2.21 2.12 4.07 2.84 1.07 0.411 4.2 1.33 9.41 2.72 7.55 2.02 12.8 3.66 15.8 4.96 2.97 1.3 5.31 3.16 7.01 5.59 1.71 2.46 2.56 5.5 2.56 9.13 0 3.57-1.04 6.89-3.13 10-2.05 3.13-5.05 5.56-8.97 7.27-3.89 1.74-8.31 2.59-13.3 2.59-8.15 0-14.4-1.71-18.7-5.09-4.3-3.41-7.01-8.43-8.21-15.1z"/><path transform="matrix(1 0 0 1 2334 3390)" d="m8.05-74.6v-12.3h10.6v12.3h-10.6m0 74.6v-62.9h10.6v62.9z"/><path transform="matrix(1 0 0 1 2361 3390)" d="m2.37 0v-8.65l40-46c-4.52 0.253-8.53 0.348-12 0.348h-25.6v-8.62h51.4v7.04l-34.1 39.9-6.57 7.27c4.77-0.347 9.25-0.537 13.5-0.537h29.1v9.19z"/><path transform="matrix(1 0 0 1 2422 3390)" d="m51-20.2 11 1.36c-1.74 6.44-4.96 11.4-9.67 15-4.67 3.57-10.7 5.34-18 5.34-9.19 0-16.5-2.84-21.9-8.5-5.4-5.65-8.09-13.6-8.09-23.8 0-10.6 2.72-18.8 8.15-24.6 5.46-5.84 12.5-8.75 21.2-8.75 8.4 0 15.3 2.84 20.6 8.59 5.34 5.72 7.99 13.8 7.99 24.2 0 0.632 0 1.58-0.0632 2.84h-46.9c0.411 6.89 2.37 12.2 5.88 15.9 3.51 3.66 7.9 5.53 13.1 5.53 3.92 0 7.26-1.04 10-3.1 2.78-2.05 4.96-5.34 6.57-9.82m-35-17.2h35.1c-0.474-5.28-1.83-9.26-4.04-11.9-3.38-4.11-7.77-6.16-13.2-6.16-4.9 0-9 1.64-12.4 4.93-3.32 3.29-5.18 7.64-5.53 13.1z"/><path transform="matrix(1 0 0 1 2523 3390)" d="m28.4 25.5c-5.88-7.42-10.9-16.1-14.9-26.1-4.07-9.95-6.13-20.2-6.13-30.9 0-9.38 1.55-18.4 4.58-27 3.54-9.98 9.03-19.9 16.5-29.8h7.64c-4.77 8.21-7.93 14.1-9.48 17.6-2.4 5.46-4.3 11.2-5.69 17.1-1.71 7.39-2.56 14.8-2.56 22.3 0 19 5.91 38 17.7 56.9z"/><path transform="matrix(1 0 0 1 2563 3390)" d="m9 0v-86.8h17.3l20.6 61.5c1.9 5.72 3.29 9.98 4.14 12.8 1.01-3.16 2.53-7.77 4.64-13.9l20.8-60.4h15.4v86.8h-11.1v-72.7l-25.2 72.7h-10.4l-25.1-73.9v73.9z"/><path transform="matrix(1 0 0 1 2664 3390)" d="m17.8 0h-9.89v-86.8h10.7v31c4.49-5.65 10.2-8.47 17.2-8.47 3.89 0 7.55 0.758 11 2.34 3.47 1.55 6.32 3.76 8.53 6.57 2.24 2.81 3.98 6.22 5.24 10.2 1.26 4.01 1.9 8.28 1.9 12.8 0 10.8-2.65 19.1-7.99 25-5.34 5.88-11.7 8.81-19.2 8.81-7.45 0-13.3-3.1-17.5-9.29v7.87m-0.0946-31.9c0 7.55 1.01 13 3.06 16.4 3.35 5.5 7.9 8.24 13.6 8.24 4.67 0 8.69-2.05 12.1-6.1 3.38-4.04 5.09-10.1 5.09-18.1 0-8.18-1.61-14.2-4.9-18.2-3.25-3.92-7.17-5.88-11.8-5.88s-8.69 2.02-12.1 6.06c-3.41 4.07-5.09 9.92-5.09 17.6z"/><path transform="matrix(1 0 0 1 2732 3390)" d="m15 25.5h-7.64c11.8-19 17.7-37.9 17.7-56.9 0-7.42-0.853-14.8-2.56-22.1-1.33-5.94-3.19-11.6-5.62-17.1-1.52-3.57-4.71-9.48-9.54-17.8h7.64c7.42 9.92 12.9 19.9 16.5 29.8 3.03 8.62 4.55 17.6 4.55 27 0 10.7-2.05 21-6.13 30.9-4.07 9.95-9.07 18.6-14.9 26.1z"/><path transform="matrix(1 0 0 1 132 2654)" d="m-34.1-50h-10.2l-0.0316-36.8h32.2c4.49 5.65 7.87 11.5 10.1 17.5 2.27 6 3.41 12.2 3.41 18.5 0 8.53-1.83 16.3-5.5 23.2-3.63 6.98-8.91 12.2-15.8 15.8-6.92 3.54-14.6 5.34-23.2 5.34-8.47 0-16.3-1.77-23.7-5.31-7.33-3.54-12.8-8.62-16.3-15.3-3.54-6.63-5.34-14.3-5.34-22.9 0-6.25 1.04-11.9 3.06-17 2.02-5.05 4.86-9.03 8.5-11.9 3.63-2.87 8.37-5.05 14.2-6.57l2.84 10.4c-4.42 1.33-7.9 2.94-10.4 4.86-2.53 1.96-4.55 4.71-6.06 8.31s-2.27 7.58-2.27 11.9c0 5.27 0.79 9.82 2.4 13.6 1.58 3.82 3.7 6.92 6.29 9.25 2.62 2.37 5.46 4.17 8.59 5.5 5.37 2.21 11.2 3.32 17.5 3.32 7.74 0 14.2-1.36 19.4-4.01 5.21-2.65 9.1-6.54 11.6-11.6 2.53-5.12 3.79-10.5 3.79-16.2 0-4.99-0.979-9.82-2.87-14.6-1.93-4.74-3.95-8.34-6.13-10.8h-16.2z"/><path transform="matrix(1 0 0 1 132 2559)" d="m-20.2-51 1.36-11c6.44 1.74 11.4 4.96 15 9.67 3.57 4.67 5.34 10.7 5.34 18 0 9.19-2.84 16.5-8.5 21.9-5.65 5.4-13.6 8.09-23.8 8.09-10.6 0-18.8-2.72-24.6-8.15-5.84-5.46-8.75-12.5-8.75-21.2 0-8.4 2.84-15.3 8.59-20.6 5.72-5.34 13.8-7.99 24.2-7.99 0.632 0 1.58 0 2.84 0.0632v46.9c6.89-0.411 12.2-2.37 15.9-5.88 3.66-3.51 5.53-7.9 5.53-13.1 0-3.92-1.04-7.26-3.1-10-2.05-2.78-5.34-4.96-9.82-6.57m-17.2 35v-35.1c-5.28 0.474-9.26 1.83-11.9 4.04-4.11 3.38-6.16 7.77-6.16 13.2 0 4.9 1.64 9 4.93 12.4 3.29 3.32 7.64 5.18 13.1 5.53z"/><path transform="matrix(1 0 0 1 132 2492)" d="m0-7.99h-62.9v-9.6h8.94c-6.92-4.61-10.4-11.3-10.4-20 0-3.79 0.663-7.27 2.02-10.5 1.39-3.16 3.16-5.53 5.37-7.14 2.21-1.55 4.83-2.65 7.9-3.29 1.96-0.411 5.4-0.6 10.4-0.6h38.7v10.6h-38.3c-4.36 0-7.61 0.411-9.76 1.26-2.15 0.821-3.85 2.27-5.15 4.39-1.26 2.12-1.93 4.61-1.93 7.45 0 4.52 1.45 8.43 4.33 11.8 2.87 3.28 8.37 4.93 16.4 4.93h34.4z"/><path transform="matrix(1 0 0 1 132 2424)" d="m-20.2-51 1.36-11c6.44 1.74 11.4 4.96 15 9.67 3.57 4.67 5.34 10.7 5.34 18 0 9.19-2.84 16.5-8.5 21.9-5.65 5.4-13.6 8.09-23.8 8.09-10.6 0-18.8-2.72-24.6-8.15-5.84-5.46-8.75-12.5-8.75-21.2 0-8.4 2.84-15.3 8.59-20.6 5.72-5.34 13.8-7.99 24.2-7.99 0.632 0 1.58 0 2.84 0.0632v46.9c6.89-0.411 12.2-2.37 15.9-5.88 3.66-3.51 5.53-7.9 5.53-13.1 0-3.92-1.04-7.26-3.1-10-2.05-2.78-5.34-4.96-9.82-6.57m-17.2 35v-35.1c-5.28 0.474-9.26 1.83-11.9 4.04-4.11 3.38-6.16 7.77-6.16 13.2 0 4.9 1.64 9 4.93 12.4 3.29 3.32 7.64 5.18 13.1 5.53z"/><path transform="matrix(1 0 0 1 132 2323)" d="m-23-49 1.36-10.5c7.23 1.14 12.9 4.07 17 8.78 4.07 4.71 6.13 10.5 6.13 17.4 0 8.62-2.81 15.5-8.43 20.8-5.62 5.21-13.7 7.83-24.2 7.83-6.79 0-12.7-1.14-17.8-3.38-5.12-2.24-8.94-5.69-11.5-10.3-2.56-4.61-3.82-9.6-3.82-15 0-6.82 1.71-12.4 5.18-16.7 3.44-4.36 8.37-7.14 14.7-8.34l1.58 10.4c-4.2 0.979-7.39 2.72-9.54 5.24-2.12 2.5-3.19 5.53-3.19 9.07 0 5.37 1.93 9.76 5.78 13.1 3.85 3.35 9.95 5.02 18.3 5.02 8.47 0 14.6-1.61 18.4-4.86 3.82-3.22 5.75-7.45 5.75-12.7 0-4.17-1.3-7.68-3.85-10.5-2.59-2.78-6.54-4.58-11.8-5.31z"/><path transform="matrix(1 0 0 1 132 2262)" d="m-31.5-4.04c-11.6 0-20.2-3.22-25.9-9.7-4.64-5.4-6.98-12-6.98-19.8 0-8.65 2.81-15.7 8.5-21.2 5.65-5.5 13.5-8.24 23.5-8.24 8.12 0 14.5 1.2 19.1 3.63 4.64 2.43 8.24 5.97 10.8 10.6 2.56 4.64 3.85 9.7 3.85 15.2 0 8.81-2.81 15.9-8.47 21.4-5.65 5.43-13.8 8.12-24.4 8.12m0-10.9c8.05 0 14.1-1.77 18.1-5.28 4.01-3.51 6.03-7.93 6.03-13.3 0-5.31-2.02-9.7-6.06-13.2-4.01-3.54-10.2-5.28-18.4-5.28-7.77 0-13.7 1.77-17.7 5.31-3.98 3.51-6 7.93-6 13.2 0 5.31 1.99 9.76 5.97 13.3 4.01 3.51 10 5.28 18.1 5.28z"/><path transform="matrix(1 0 0 1 132 2195)" d="m0-49.2h-9.22c7.11 4.9 10.6 11.6 10.6 20 0 3.7-0.726 7.17-2.12 10.4-1.42 3.22-3.22 5.59-5.37 7.17-2.15 1.55-4.8 2.65-7.9 3.29-2.12 0.442-5.43 0.632-9.98 0.632h-38.9v-10.6h34.9c5.56 0 9.32-0.221 11.2-0.663 2.81-0.663 5.02-2.08 6.6-4.26 1.61-2.15 2.4-4.83 2.4-8.05 0-3.19-0.821-6.19-2.43-9-1.64-2.78-3.89-4.77-6.7-5.94-2.84-1.17-6.92-1.74-12.3-1.74l-33.7-0.0316v-10.6h62.9z"/><path transform="matrix(1 0 0 1 132 2128)" d="m0-7.99h-62.9v-9.6h8.94c-6.92-4.61-10.4-11.3-10.4-20 0-3.79 0.663-7.27 2.02-10.5 1.39-3.16 3.16-5.53 5.37-7.14 2.21-1.55 4.83-2.65 7.9-3.29 1.96-0.411 5.4-0.6 10.4-0.6h38.7v10.6h-38.3c-4.36 0-7.61 0.411-9.76 1.26-2.15 0.821-3.85 2.27-5.15 4.39-1.26 2.12-1.93 4.61-1.93 7.45 0 4.52 1.45 8.43 4.33 11.8 2.87 3.28 8.37 4.93 16.4 4.93h34.4z"/><path transform="matrix(1 0 0 1 132 2060)" d="m-9.54-31.3 9.41-1.55c0.632 3 0.948 5.69 0.948 8.05 0 3.89-0.6 6.89-1.83 9-1.23 2.15-2.84 3.63-4.83 4.52-1.99 0.853-6.19 1.29-12.6 1.29h-36.2v7.8h-8.28v-7.8h-15.6l-6.41-10.6h22v-10.7h8.28v10.7h36.8c3.03 0 4.99-0.19 5.84-0.537 0.884-0.379 1.58-1.01 2.08-1.86 0.505-0.821 0.758-2.05 0.758-3.63 0-1.17-0.126-2.75-0.411-4.68z"/><path transform="matrix(1 0 0 1 132 1993)" d="m25.5-28.4c-7.42 5.88-16.1 10.9-26.1 14.9-9.95 4.07-20.2 6.1-30.9 6.1-9.38 0-18.4-1.52-27-4.55-9.98-3.54-19.9-9.03-29.8-16.5v-7.64c8.21 4.77 14.1 7.93 17.6 9.48 5.46 2.4 11.2 4.3 17.1 5.69 7.39 1.71 14.8 2.56 22.3 2.56 19 0 38-5.91 56.9-17.7z"/><path transform="matrix(1 0 0 1 132 1952)" d="m-9.54-31.3 9.41-1.55c0.632 3 0.948 5.69 0.948 8.05 0 3.89-0.6 6.89-1.83 9-1.23 2.15-2.84 3.63-4.83 4.52-1.99 0.853-6.19 1.29-12.6 1.29h-36.2v7.8h-8.28v-7.8h-15.6l-6.41-10.6h22v-10.7h8.28v10.7h36.8c3.03 0 4.99-0.19 5.84-0.537 0.884-0.379 1.58-1.01 2.08-1.86 0.505-0.821 0.758-2.05 0.758-3.63 0-1.17-0.126-2.75-0.411-4.68z"/><path transform="matrix(1 0 0 1 132 1919)" d="m0-7.99h-86.8v-10.7h31.2c-5.78-4.96-8.65-11.2-8.65-18.8 0-4.64 0.916-8.72 2.75-12.1 1.83-3.44 4.36-5.91 7.61-7.39 3.22-1.48 7.93-2.21 14.1-2.21h39.9v10.6h-39.9c-5.34 0-9.19 1.17-11.6 3.47-2.43 2.31-3.66 5.59-3.66 9.79 0 3.19 0.821 6.16 2.46 8.94s3.85 4.77 6.66 5.94c2.81 1.2 6.66 1.77 11.6 1.77h34.4z"/><path transform="matrix(1 0 0 1 132 1851)" d="m-31.5-4.04c-11.6 0-20.2-3.22-25.9-9.7-4.64-5.4-6.98-12-6.98-19.8 0-8.65 2.81-15.7 8.5-21.2 5.65-5.5 13.5-8.24 23.5-8.24 8.12 0 14.5 1.2 19.1 3.63 4.64 2.43 8.24 5.97 10.8 10.6 2.56 4.64 3.85 9.7 3.85 15.2 0 8.81-2.81 15.9-8.47 21.4-5.65 5.43-13.8 8.12-24.4 8.12m0-10.9c8.05 0 14.1-1.77 18.1-5.28 4.01-3.51 6.03-7.93 6.03-13.3 0-5.31-2.02-9.7-6.06-13.2-4.01-3.54-10.2-5.28-18.4-5.28-7.77 0-13.7 1.77-17.7 5.31-3.98 3.51-6 7.93-6 13.2 0 5.31 1.99 9.76 5.97 13.3 4.01 3.51 10 5.28 18.1 5.28z"/><path transform="matrix(1 0 0 1 132 1784)" d="m0-49.2h-9.22c7.11 4.9 10.6 11.6 10.6 20 0 3.7-0.726 7.17-2.12 10.4-1.42 3.22-3.22 5.59-5.37 7.17-2.15 1.55-4.8 2.65-7.9 3.29-2.12 0.442-5.43 0.632-9.98 0.632h-38.9v-10.6h34.9c5.56 0 9.32-0.221 11.2-0.663 2.81-0.663 5.02-2.08 6.6-4.26 1.61-2.15 2.4-4.83 2.4-8.05 0-3.19-0.821-6.19-2.43-9-1.64-2.78-3.89-4.77-6.7-5.94-2.84-1.17-6.92-1.74-12.3-1.74l-33.7-0.0316v-10.6h62.9z"/><path transform="matrix(1 0 0 1 132 1716)" d="m-18.8-3.73-1.67-10.6c4.23-0.6 7.45-2.24 9.73-4.93 2.24-2.72 3.38-6.51 3.38-11.4 0-4.86-1.01-8.53-3-10.9-1.99-2.4-4.33-3.57-7.01-3.57-2.43 0-4.33 1.04-5.69 3.13-0.948 1.48-2.15 5.12-3.63 10.9-1.96 7.83-3.66 13.2-5.12 16.3-1.45 3.03-3.44 5.31-5.97 6.89-2.56 1.55-5.37 2.34-8.43 2.34-2.81 0-5.4-0.663-7.8-1.93-2.4-1.3-4.36-3.03-5.97-5.24-1.2-1.67-2.24-3.92-3.1-6.79-0.853-2.87-1.26-5.94-1.26-9.22 0-4.93 0.695-9.26 2.12-13 1.42-3.73 3.35-6.48 5.78-8.28 2.43-1.77 5.69-3 9.73-3.66l1.45 10.4c-3.25 0.474-5.78 1.86-7.58 4.11-1.83 2.27-2.75 5.5-2.75 9.63 0 4.9 0.821 8.4 2.43 10.5 1.61 2.08 3.51 3.13 5.69 3.13 1.39 0 2.62-0.411 3.73-1.3 1.17-0.853 2.12-2.21 2.84-4.07 0.411-1.07 1.33-4.2 2.72-9.41 2.02-7.55 3.66-12.8 4.96-15.8 1.3-2.97 3.16-5.31 5.59-7.01 2.46-1.71 5.5-2.56 9.13-2.56 3.57 0 6.89 1.04 10 3.13 3.13 2.05 5.56 5.05 7.27 8.97 1.74 3.89 2.59 8.31 2.59 13.3 0 8.15-1.71 14.4-5.09 18.7-3.41 4.3-8.43 7.01-15.1 8.21z"/><path transform="matrix(1 0 0 1 132 1656)" d="m-7.77-49c3.38 3.95 5.75 7.74 7.11 11.4 1.39 3.66 2.08 7.58 2.08 11.8 0 6.89-1.67 12.2-5.05 15.9-3.38 3.73-7.71 5.56-13 5.56-3.06 0-5.91-0.695-8.43-2.08-2.56-1.42-4.61-3.25-6.13-5.53-1.55-2.27-2.72-4.83-3.51-7.68-0.537-2.08-1.07-5.24-1.61-9.48-1.01-8.59-2.24-14.9-3.66-19-1.45-0.0633-2.37-0.0633-2.78-0.0633-4.33 0-7.39 1.01-9.16 3-2.43 2.75-3.63 6.79-3.63 12.2 0 5.02 0.884 8.72 2.65 11.1 1.74 2.4 4.86 4.17 9.32 5.31l-1.42 10.4c-4.45-0.948-8.05-2.5-10.8-4.67-2.75-2.18-4.86-5.31-6.35-9.41-1.48-4.11-2.21-8.88-2.21-14.3 0-5.37 0.632-9.73 1.9-13.1 1.26-3.38 2.84-5.84 4.77-7.42 1.9-1.58 4.33-2.68 7.23-3.32 1.83-0.347 5.12-0.537 9.86-0.537h14.2c9.89 0 16.2-0.221 18.8-0.663 2.62-0.474 5.15-1.36 7.55-2.68v11.1c-2.21 1.11-4.8 1.83-7.77 2.15m-23.8 0.884c1.58 3.85 2.91 9.67 4.01 17.4 0.632 4.39 1.36 7.49 2.15 9.29 0.79 1.83 1.93 3.22 3.44 4.2 1.52 1.01 3.22 1.48 5.09 1.48 2.84 0 5.21-1.07 7.11-3.22 1.9-2.15 2.84-5.31 2.84-9.44 0-4.11-0.916-7.77-2.72-11-1.8-3.19-4.23-5.53-7.36-7.04-2.4-1.14-5.97-1.71-10.7-1.71z"/><path transform="matrix(1 0 0 1 132 1588)" d="m0-7.99h-62.9v-9.6h8.94c-6.92-4.61-10.4-11.3-10.4-20 0-3.79 0.663-7.27 2.02-10.5 1.39-3.16 3.16-5.53 5.37-7.14 2.21-1.55 4.83-2.65 7.9-3.29 1.96-0.411 5.4-0.6 10.4-0.6h38.7v10.6h-38.3c-4.36 0-7.61 0.411-9.76 1.26-2.15 0.821-3.85 2.27-5.15 4.39-1.26 2.12-1.93 4.61-1.93 7.45 0 4.52 1.45 8.43 4.33 11.8 2.87 3.28 8.37 4.93 16.4 4.93h34.4z"/><path transform="matrix(1 0 0 1 132 1521)" d="m0-48.8h-7.93c6.22 3.98 9.35 9.86 9.35 17.6 0 5.02-1.39 9.63-4.14 13.8-2.78 4.2-6.63 7.45-11.6 9.76-4.96 2.31-10.6 3.47-17.1 3.47-6.25 0-12-1.04-17.1-3.16-5.12-2.08-9.03-5.21-11.8-9.41-2.72-4.17-4.07-8.84-4.07-14 0-3.79 0.79-7.17 2.4-10.1 1.58-2.97 3.66-5.37 6.25-7.2l-31.2-0.0316v-10.6h86.8v9.89m-31.4 33.7c8.05 0 14.1-1.71 18.1-5.09 3.98-3.41 6-7.42 6-12 0-4.64-1.93-8.62-5.72-11.9-3.82-3.25-9.63-4.9-17.5-4.9-8.59 0-14.9 1.67-19 4.99-4.01 3.32-6.03 7.39-6.03 12.3 0 4.74 1.93 8.69 5.81 11.9 3.85 3.19 9.98 4.77 18.3 4.77z"/><path transform="matrix(1 0 0 1 132 1453)" d="m-18.8-3.73-1.67-10.6c4.23-0.6 7.45-2.24 9.73-4.93 2.24-2.72 3.38-6.51 3.38-11.4 0-4.86-1.01-8.53-3-10.9-1.99-2.4-4.33-3.57-7.01-3.57-2.43 0-4.33 1.04-5.69 3.13-0.948 1.48-2.15 5.12-3.63 10.9-1.96 7.83-3.66 13.2-5.12 16.3-1.45 3.03-3.44 5.31-5.97 6.89-2.56 1.55-5.37 2.34-8.43 2.34-2.81 0-5.4-0.663-7.8-1.93-2.4-1.3-4.36-3.03-5.97-5.24-1.2-1.67-2.24-3.92-3.1-6.79-0.853-2.87-1.26-5.94-1.26-9.22 0-4.93 0.695-9.26 2.12-13 1.42-3.73 3.35-6.48 5.78-8.28 2.43-1.77 5.69-3 9.73-3.66l1.45 10.4c-3.25 0.474-5.78 1.86-7.58 4.11-1.83 2.27-2.75 5.5-2.75 9.63 0 4.9 0.821 8.4 2.43 10.5 1.61 2.08 3.51 3.13 5.69 3.13 1.39 0 2.62-0.411 3.73-1.3 1.17-0.853 2.12-2.21 2.84-4.07 0.411-1.07 1.33-4.2 2.72-9.41 2.02-7.55 3.66-12.8 4.96-15.8 1.3-2.97 3.16-5.31 5.59-7.01 2.46-1.71 5.5-2.56 9.13-2.56 3.57 0 6.89 1.04 10 3.13 3.13 2.05 5.56 5.05 7.27 8.97 1.74 3.89 2.59 8.31 2.59 13.3 0 8.15-1.71 14.4-5.09 18.7-3.41 4.3-8.43 7.01-15.1 8.21z"/><path transform="matrix(1 0 0 1 132 1393)" d="m25.5-15v7.64c-19-11.8-37.9-17.7-56.9-17.7-7.42 0-14.8 0.853-22.1 2.53-5.94 1.36-11.6 3.22-17.1 5.65-3.57 1.52-9.48 4.71-17.8 9.51v-7.61c9.92-7.42 19.9-12.9 29.8-16.5 8.62-3.03 17.6-4.55 27-4.55 10.7 0 21 2.05 30.9 6.13 9.95 4.07 18.6 9.07 26.1 14.9z"/><path transform="matrix(1 0 0 -1 2704 1642)" d="m115 440c-0.388-0.124-1.55-0.601-2.59-1.04-1.04-0.46-1.99-0.83-2.12-0.83-0.141 0-0.318-0.07-0.406-0.158-0.37-0.317-4.69-1.55-6.63-1.89-0.723-0.123-1.02 0.141-0.67 0.583 0.459 0.546-0.159 0.687-2.28 0.546-1.64-0.123-2.15-0.247-3.32-0.759l-1.39-0.599-0.3 0.37c-0.265 0.37-0.3 0.37-0.97 0.106-1.69-0.723-6.24-2.12-6.53-1.99-0.706 0.266 0.335 1.24 3.26 2.98 0.794 0.494 1.39 0.935 1.31 1.02-0.159 0.158-1.62-0.264-2.77-0.829-0.476-0.23-1.36-0.635-1.94-0.9-0.582-0.247-1.61-0.74-2.28-1.06-1.59-0.775-1.94-0.793-1.78-0.07 0.106 0.477 0.0705 0.53-0.3 0.53-0.229 0-1.55-0.353-2.96-0.795-1.41-0.458-2.95-0.935-3.44-1.09-0.476-0.141-2.31-0.953-4.06-1.8-1.75-0.847-3.62-1.69-4.15-1.85-2.79-0.918-5.57-2.14-6.69-2.91-0.247-0.177-0.653-0.388-0.9-0.459-0.723-0.211-2.86-1.38-3.69-1.99-0.423-0.335-1.29-0.882-1.94-1.24-0.635-0.353-1.71-1.04-2.4-1.55-0.67-0.493-1.82-1.22-2.54-1.59-0.723-0.371-1.8-1.15-2.38-1.69-0.6-0.546-1.36-1.23-1.69-1.53-0.635-0.565-4.96-3.19-5.24-3.19-0.0882 0-0.988-0.493-2.01-1.11-1.82-1.09-3.14-2.05-5.63-4.08-1.69-1.38-3.18-2.49-4.67-3.55-1.43-0.988-3.6-2.96-4.5-4.09-0.353-0.406-1.06-1.04-1.59-1.39-1.59-1.04-3.3-2.52-4.62-3.99-1.22-1.34-1.62-1.59-2.03-1.18-0.318 0.318-0.67 0.071-1.11-0.758-0.97-1.85-1.18-2.2-1.62-2.88-0.282-0.389-0.653-0.9-0.847-1.15-0.194-0.247-0.459-0.952-0.6-1.59-0.212-1.06-0.265-1.15-0.67-1.09-0.247 0.017-0.529-0.053-0.635-0.177-0.229-0.299-0.6-1.62-0.67-2.52-0.0353-0.389-0.194-1.25-0.353-1.94-0.494-2.22-0.582-2.63-0.688-3.33-0.3-1.8-1.41-3.81-3.12-5.54-1.13-1.15-2.01-3.07-2.36-5.13l-0.229-1.48 0.494-1.17c0.6-1.38 0.9-2.68 0.9-3.92 0-0.741 0.212-2.12 0.617-3.97 0.0529-0.247 0.564-0.617 1.52-1.13 1.64-0.883 2.93-2.19 3.6-3.65 0.247-0.512 0.635-1.36 0.864-1.85 0.529-1.15 0.864-3.07 0.723-4.27-0.0529-0.493-0.141-1.34-0.176-1.87-0.176-1.87-0.564-3.63-1.13-4.83-0.3-0.671-0.547-1.32-0.547-1.45 0-0.248-0.282-0.459-2.13-1.66-1.09-0.722-2.45-1.24-3.33-1.25-0.335-0.018-0.811-0.071-1.06-0.141-0.406-0.106-0.37-0.159 0.547-0.689 0.547-0.317 1.08-0.563 1.16-0.563 0.282 0 1.64-1.46 1.64-1.76 0-0.706-0.864-0.564-1.8 0.3-0.247 0.247-0.547 0.388-0.653 0.336-0.212-0.141 0.759-1.76 1.34-2.22 0.229-0.177 0.406-0.512 0.406-0.741s0.141-0.618 0.318-0.847c0.247-0.353 0.3-0.812 0.3-2.38 0-1.89-0.0176-1.98-0.653-3.26-0.564-1.15-0.759-1.39-1.5-1.8-2.08-1.15-3.78-3.63-4.16-6.12-0.494-3.23 1.06-6.49 3.95-8.34l0.97-0.618 0.0176-2.63c0.0176-2.91 0.3-4.66 0.988-6 0.229-0.476 0.6-1.38 0.811-2.01 0.37-1.15 1.5-3.51 2.66-5.56 1.29-2.28 2.93-3.4 7.3-5.03 2.28-0.847 3.48-1.06 5.84-1.06 2.4 0 7.81 0.458 8.45 0.705 0.3 0.107 1.59 0.424 2.86 0.706 1.29 0.282 2.59 0.635 2.88 0.794 0.3 0.141 1.48 0.617 2.61 1.04 3.19 1.18 5.38 2.36 8.61 4.6 0.776 0.528 1.87 1.27 2.43 1.62 2.82 1.83 3.51 2.38 4.82 3.76 1.55 1.68 2.54 2.47 4.48 3.63 0.723 0.441 1.71 1.04 2.19 1.36 1.52 0.988 3.35 0.652 4.06-0.724 0.141-0.264 0.335-1.24 0.441-2.15 0.106-0.918 0.318-2.82 0.494-4.23 0.37-3.19 0.406-7.3 0.0529-9.61-0.194-1.34-0.265-3.7-0.265-9.79-0.0177-4.41-0.0705-8.54-0.141-9.17-0.194-1.75-0.459-3.65-0.706-5.12-0.123-0.723-0.212-1.92-0.194-2.64 0.0176-0.724-0.0354-1.76-0.124-2.29-0.0705-0.529-0.194-1.68-0.247-2.56-0.0529-0.864-0.141-1.98-0.194-2.47-0.0353-0.477-0.141-1.75-0.247-2.82-0.0883-1.06-0.282-2.73-0.423-3.7-0.194-1.39-0.353-4.68-0.318-6.79 0.0176-1.9 0.282-5.77 0.406-5.89 0.247-0.265 0.459 0.07 0.547 0.864 0.0883 0.741 0.741 4.08 1.06 5.33 0.212 0.864 0.512 1.04 0.953 0.564 0.3-0.335 0.3-0.459 0.0176-2.95-0.459-3.86-0.582-6.17-0.423-8.01 0.0706-0.9 0.159-4.38 0.212-7.71 0.0353-3.33 0.106-6.1 0.159-6.16 0.176-0.159 1.01 0.723 1.27 1.36 0.335 0.81 0.953 3.95 0.953 4.9s0.247 1.46 0.706 1.46c0.176 0 0.388 0.088 0.441 0.176 0.176 0.282 0.758 0.194 0.864-0.123 0.0529-0.177 0.141-0.706 0.212-1.2 0.124-0.951 1.25-3.21 1.5-2.96 0.123 0.123 0.459 3.39 0.564 5.43l0.0354 0.882 1.31-0.072 0.0176 3.35c0 3.56 0.106 4.09 0.758 4 0.3-0.036 0.441-0.265 0.67-1.11 0.282-1.08 0.953-2.38 1.22-2.38 0.459 0 0.512 1.36 0.0882 3.35-0.212 1.11-0.388 2.31-0.529 3.88-0.0882 0.882 0.141 1.41 0.6 1.41 0.476 0 0.794-0.458 1.32-1.92 0.264-0.758 0.653-1.43 0.9-1.64 0.265-0.194 0.476-0.6 0.529-0.988 0.159-0.953 1.48-4.29 1.87-4.73 0.194-0.195 0.459-0.83 0.618-1.41 0.159-0.564 0.423-1.59 0.6-2.28 0.176-0.669 0.97-2.72 1.75-4.53 0.794-1.82 1.43-3.37 1.43-3.46 0-0.089 0.194-0.565 0.441-1.06 0.247-0.512 0.441-0.988 0.441-1.06 0-0.177 1.04-2.47 2.54-5.59 0.512-1.06 1.11-2.4 1.34-2.96 0.212-0.565 0.547-1.2 0.741-1.45 0.176-0.23 0.617-1.01 0.97-1.71 0.829-1.69 0.97-3.1 0.423-4.64-0.212-0.582-0.423-1.5-0.476-2.03-0.282-3.23-1.39-8.75-2.19-10.9-0.264-0.724-0.529-1.76-0.6-2.29-0.0705-0.53-0.264-1.64-0.459-2.47-0.529-2.36-1.18-6.58-1.34-8.64-0.124-1.76-0.953-6.16-1.59-8.59-0.141-0.494-0.247-1.29-0.247-1.76 0-0.459-0.159-1.55-0.335-2.44-0.194-0.863-0.423-2.19-0.529-2.91-0.106-0.723-0.423-1.87-0.706-2.56-0.3-0.671-0.547-1.38-0.547-1.54 0-0.177-0.106-0.652-0.247-1.06-0.318-0.97-1.23-3.99-1.61-5.34-0.176-0.581-0.441-1.53-0.617-2.12-0.176-0.581-0.388-1.41-0.441-1.85-0.0706-0.442-0.318-1.5-0.547-2.38-0.229-0.864-0.511-2.06-0.617-2.65-0.106-0.583-0.441-1.61-0.758-2.29-0.318-0.671-0.67-1.52-0.776-1.85-0.6-1.89-0.9-3-1.01-3.7-0.0705-0.441-0.229-1.15-0.353-1.59-0.141-0.44-0.37-1.57-0.529-2.52-0.159-1.08-0.512-2.31-0.935-3.35-0.37-0.882-0.9-2.54-1.16-3.65-0.635-2.58-1.04-4.18-1.5-5.7-0.194-0.67-0.476-1.92-0.635-2.8-0.141-0.864-0.388-1.87-0.547-2.22-0.318-0.74-0.723-3.03-0.953-5.42-0.212-2.28-0.441-3.12-1.39-5.12-1.36-2.82-1.46-3.37-1.25-6.12 0.318-3.83-0.0882-7.16-1.08-8.87-0.265-0.476-0.988-1.43-1.57-2.12-0.6-0.67-1.43-1.85-1.85-2.59-1.34-2.38-3.86-5.36-5.91-6.99-0.723-0.564-1.43-1.16-1.57-1.34-0.388-0.476-1.68-1.29-3.32-2.06-1.27-0.635-1.82-0.776-3.39-0.97-1.02-0.124-2.19-0.335-2.58-0.476-0.388-0.124-1.46-0.388-2.38-0.564-0.917-0.159-2.15-0.406-2.73-0.529-0.582-0.141-1.43-0.247-1.89-0.247s-0.97-0.0882-1.15-0.176c-0.176-0.0882-0.794-0.265-1.38-0.37-0.582-0.124-1.76-0.476-2.61-0.811-0.847-0.318-1.68-0.529-1.82-0.476s-0.794 0-1.45-0.124c-1.25-0.229-2.22-0.794-2.52-1.48-0.106-0.212-0.494-0.512-0.864-0.688-0.97-0.406-1.94-1.32-1.94-1.8 0-0.265 0.353-0.688 1.06-1.31l1.06-0.917 2.33-0.247c2.4-0.247 5.49-0.124 6.84 0.264 1.29 0.37 2.96 0.212 4.85-0.459 1.99-0.706 2.4-0.811 4.5-1.2 2.28-0.406 3.85-0.512 5.12-0.3 0.635 0.106 2.66 0.318 4.5 0.459 1.85 0.141 3.55 0.3 3.79 0.353 2.01 0.441 3.62 0.67 5.64 0.847 2.96 0.265 3.21 0.388 4.11 2.2 0.741 1.48 1.25 2.12 2.96 3.56 0.617 0.529 1.16 1.01 1.22 1.06 0.053 0.0528 0.847 0.67 1.76 1.36 1.89 1.41 3.23 2.24 3.88 2.43 0.247 0.0705 0.565 0.247 0.723 0.37 0.141 0.141 1.13 0.706 2.15 1.25 3.1 1.68 4 2.58 4.27 4.29 0.0706 0.441 0.318 1.27 0.547 1.85 0.335 0.864 0.406 1.36 0.388 2.65-0.0352 2.01 0.494 3.62 1.69 5.17 0.441 0.582 0.812 1.13 0.812 1.22 0 0.353 1.39 2.35 2.12 3 0.653 0.6 0.864 0.953 1.18 2.03 0.212 0.706 0.441 1.57 0.512 1.91 0.247 1.27 2.15 5.57 3.14 7.09 0.353 0.529 1.61 4.2 1.96 5.73 0.142 0.617 0.618 1.82 1.06 2.7 0.441 0.864 0.794 1.69 0.794 1.82 0 0.123 0.476 1.2 1.06 2.38s1.18 2.63 1.34 3.23c0.158 0.618 0.599 1.94 0.988 2.96 0.388 1.02 0.987 2.59 1.32 3.46 0.317 0.882 0.705 1.84 0.846 2.12 1.27 2.72 1.71 3.74 1.99 4.71 0.194 0.617 0.599 1.66 0.917 2.31 0.3 0.671 0.706 1.62 0.882 2.12 0.159 0.511 0.512 1.48 0.758 2.15 0.247 0.687 0.864 2.54 1.36 4.15 1.13 3.6 1.22 3.83 1.69 4.59 0.406 0.634 1.22 3.16 1.75 5.38 0.528 2.31 2.13 6.47 3.7 9.7 2.13 4.39 2.93 5.93 3.35 6.63 1.18 1.9 1.68 2.66 3.05 4.71 1.29 1.96 1.45 2.28 1.45 3.02 0 1.46 0.705 3.23 1.83 4.59 0.495 0.583 0.6 0.847 0.53 1.24-0.141 0.671 0.211 0.9 1.62 1.01 2.1 0.177 2.91 0.494 3.69 1.45l0.705 0.828-0.018 1.94c0 1.06-0.106 2.35-0.211 2.82-0.353 1.48-0.353 2.4 0.017 2.63 0.354 0.212 0.354 0.212 1.89-1.76 1.46-1.89 3.26-3.6 3.77-3.6 0.248 0 0.46 0.053 0.46 0.141 0 0.07-0.282 0.565-0.636 1.09-0.864 1.32-1.15 2.14-1.57 4.54-0.071 0.37 0 0.634 0.176 0.828 0.247 0.23 0.352 0.213 1.16-0.194 0.53-0.264 1.02-0.652 1.2-0.97 0.281-0.546 1.36-2.26 2.03-3.26 0.194-0.318 0.441-0.582 0.511-0.582 0.213 0-0.035 1.38-0.387 2.2-0.177 0.405-0.423 1.15-0.547 1.66-0.195 0.829-0.177 0.97 0.071 1.22 0.405 0.424 0.863 0.089 1.02-0.776 0.088-0.371 0.3-1.08 0.476-1.57 0.176-0.476 0.458-1.32 0.635-1.85 0.177-0.53 0.37-1.04 0.458-1.15 0.159-0.213 0.971-2.35 1.31-3.39 0.123-0.406 0.388-0.953 0.6-1.22 0.194-0.265 0.37-0.529 0.37-0.617 0-0.371 2.08-4.43 2.74-5.36 0.423-0.582 0.935-1.45 1.15-1.94 0.988-2.26 1.68-3.49 2.82-5.08 0.671-0.953 1.64-2.58 2.15-3.62 0.495-1.04 1.29-2.47 1.76-3.16 0.475-0.706 1.13-1.87 1.45-2.61 0.336-0.724 0.811-1.57 1.04-1.89 0.246-0.317 0.653-1.09 0.899-1.71 0.247-0.617 0.9-1.92 1.46-2.91 1.87-3.33 3.86-7.43 4.53-9.28 0.371-1.02 0.829-2.22 1.01-2.68 0.176-0.459 0.335-0.918 0.335-1.04s0.493-1.18 1.08-2.35c0.599-1.18 1.22-2.54 1.39-3.05 0.176-0.512 0.706-1.54 1.16-2.29 0.46-0.759 1.31-2.28 1.87-3.37 0.67-1.34 1.36-2.38 2.05-3.12 1.06-1.16 1.87-2.61 2.86-5.12 0.301-0.776 0.794-1.89 1.09-2.47 0.565-1.13 1.2-2.77 2.21-5.73 0.581-1.71 0.898-2.52 2.04-5.12 0.248-0.529 0.865-1.5 1.39-2.17 0.652-0.811 1.6-2.49 3.02-5.29 1.13-2.28 2.47-4.67 2.96-5.34s1.06-1.55 1.24-1.98 0.864-1.29 1.52-1.94c1.39-1.38 3.51-4.13 4.64-6.03 0.423-0.723 1.25-1.96 1.84-2.72 0.758-1.02 1.2-1.82 1.57-2.91 0.282-0.829 0.67-1.71 0.829-1.96 0.176-0.247 0.546-1.01 0.812-1.68 0.264-0.688 0.528-1.31 0.617-1.41 0.441-0.6 0.97-5.66 1.04-9.95 0-0.917 0.053-1.73 0.088-1.8 0.053-0.0529-0.193-1.23-0.528-2.61-0.336-1.38-0.618-2.93-0.618-3.44 0-0.529-0.194-1.48-0.441-2.22-0.246-0.706-0.441-1.52-0.441-1.78 0-0.265-0.318-1.08-0.705-1.8-0.389-0.723-0.847-1.87-1.04-2.54-0.759-2.68-1.41-3.88-2.98-5.59-1.39-1.5-1.57-1.64-2.84-2.08-0.74-0.265-1.66-0.529-2.04-0.6-2.98-0.494-4.6-3.77-3.18-6.4 0.846-1.53 1.89-2.15 4.36-2.54 0.971-0.159 1.89-0.194 2.7-0.106 0.688 0.0706 1.96 0.141 2.82 0.159 1.99 0.0178 2.47 0.212 4.76 2.06 1.55 1.23 1.87 1.43 2.68 1.53 0.511 0.0705 1.43 0.335 2.03 0.617 2.12 0.97 5.12 4.52 8.1 9.54 0.423 0.723 1.39 1.99 2.14 2.8 0.741 0.812 1.6 1.96 1.92 2.56 0.299 0.582 0.828 1.5 1.18 2.03 0.865 1.32 1.59 3.3 2.06 5.57 0.23 1.13 0.23 1.71-0.052 5.66-0.231 3.19-0.407 4.55-0.601 4.92-0.387 0.741-0.864 2.26-1.73 5.54-0.211 0.776-0.74 4.13-1.06 6.72-0.248 1.89-0.248 3.85-0.019 4.76 0.336 1.39 0.23 2.96-0.264 4.15-0.247 0.582-0.529 1.34-0.635 1.68-0.088 0.335-0.706 1.45-1.36 2.47-0.652 1.02-1.41 2.49-1.68 3.26-0.282 0.776-0.565 1.5-0.635 1.59-0.071 0.106-0.582 1.06-1.15 2.12-0.564 1.08-1.15 2.13-1.32 2.38-0.387 0.582-2.93 5.79-3.09 6.35-0.07 0.247-0.441 1.16-0.812 2.03-0.37 0.882-1.02 2.45-1.48 3.49-0.865 2.08-1.66 4.37-2.22 6.47-0.194 0.723-0.423 1.39-0.493 1.5-0.089 0.089-0.283 0.618-0.442 1.15-0.176 0.53-0.688 1.76-1.16 2.74s-1.24 2.96-1.69 4.41c-0.511 1.62-1.2 3.33-1.78 4.44-1.15 2.17-1.61 3.33-1.82 4.64-0.441 2.75-0.741 4.22-0.97 4.87-0.159 0.405-0.423 1.71-0.6 2.91-0.193 1.39-0.476 2.58-0.776 3.25-0.247 0.582-0.583 1.66-0.724 2.38-0.158 0.722-0.44 1.89-0.652 2.56-0.195 0.688-0.441 1.62-0.512 2.08-0.088 0.475-0.405 1.66-0.722 2.65-0.495 1.6-1.52 4.96-2.19 7.18-0.142 0.442-0.388 1.46-0.547 2.29-0.159 0.812-0.653 2.33-1.08 3.35-0.9 2.12-1.89 4.9-2.08 5.82-0.053 0.334-0.229 0.935-0.352 1.32-0.124 0.388-0.371 1.5-0.53 2.47-0.159 0.97-0.441 2.28-0.617 2.91-0.194 0.634-0.424 1.57-0.53 2.08-0.176 0.935-0.687 2.29-1.27 3.35-0.177 0.335-0.441 1.04-0.582 1.59-0.142 0.565-0.442 1.76-0.688 2.7-0.495 1.92-0.759 5.01-0.636 7.18 0.071 1.31 0.141 1.5 0.53 1.8 0.617 0.477 0.794 0.442 1.92-0.317 1.69-1.15 2.66-1.64 3.07-1.59 0.354 0.054 0.389 0.142 0.336 0.988-0.017 0.512-0.211 1.36-0.406 1.89-0.282 0.742-0.317 1.04-0.159 1.32 0.265 0.495 0.636 0.442 1.09-0.123 0.229-0.282 0.9-0.988 1.52-1.6 1.09-1.08 1.16-1.11 1.96-1.08 0.442 0.018 0.865 0.07 0.935 0.106 0.159 0.088-1.16 2.79-1.45 2.96-0.282 0.176-0.212 0.969 0.106 1.09 0.176 0.053 0.723-0.124 1.29-0.424 1.96-1.08 3.39-1.27 9.02-1.29 2.77 0 5.43-0.071 5.91-0.159 0.953-0.159 3.26-0.776 4.02-1.06 0.406-0.159 0.494-0.124 0.705 0.299 0.176 0.388 0.336 0.458 0.741 0.423 0.3-0.016 0.777 0 1.09 0.054 0.442 0.088 0.565 0.194 0.618 0.582 0.035 0.387 0.159 0.477 0.581 0.529 0.423 0.036 0.777-0.177 1.71-0.935 0.9-0.723 1.45-1.02 2.29-1.23 0.759-0.213 1.13-0.23 1.16-0.106 0.159 0.476 0.759 0.582 1.62 0.264 0.829-0.299 0.882-0.299 1.54 0.036 0.37 0.176 0.776 0.475 0.9 0.652 0.141 0.177 0.405 0.3 0.617 0.265 0.371-0.053 0.388-0.16 0.388-1.55 0.018-1.04-0.105-1.9-0.371-2.82-0.211-0.723-0.458-1.64-0.528-2.03-0.071-0.388-0.247-0.987-0.389-1.32-0.194-0.442-0.3-1.36-0.317-3.19-0.036-1.41-0.124-2.89-0.212-3.28-0.106-0.424-0.106-1.32-0.018-2.12 0.071-0.759 0.141-2.61 0.159-4.11 0-1.5 0.088-3.05 0.194-3.44 0.106-0.389 0.264-1.16 0.353-1.71 0.23-1.5 0.952-3.14 2.2-5.01 1.32-1.96 1.71-2.68 2.79-5.2 0.9-2.15 2.12-4.62 2.59-5.29 0.299-0.424 0.511-0.918 1.66-3.95 0.495-1.3 0.883-2.28 1.89-4.76 1.32-3.23 2.28-6.46 3.07-10.4 0.123-0.671 0.405-1.78 0.617-2.47 0.193-0.705 0.459-1.59 0.564-1.98 0.106-0.388 0.247-0.777 0.318-0.883 0.105-0.158 0.547-1.34 1.52-4.06 0.142-0.388 0.865-1.98 1.62-3.53 1.9-3.86 2.77-5.73 3.48-7.46 0.336-0.81 0.847-1.82 1.13-2.24 0.299-0.423 0.529-0.828 0.529-0.917 0-0.071 0.406-0.917 0.883-1.89 0.951-1.85 1.82-3.07 3.79-5.31 0.758-0.882 2.03-2.73 3.33-4.89 1.55-2.59 2.5-3.95 3.7-5.29 1.99-2.24 2.38-2.77 3.07-4.11 0.301-0.582 1.02-1.73 1.61-2.56 0.582-0.829 1.27-1.85 1.53-2.29 0.266-0.441 0.847-1.18 1.3-1.68 0.46-0.476 1.34-1.64 1.96-2.56 0.6-0.917 1.6-2.24 2.2-2.95 0.6-0.706 1.2-1.41 1.34-1.59 0.124-0.176 0.829-0.794 1.55-1.38 2.26-1.78 4.46-4.04 5.19-5.29 0.6-1.01 0.846-1.23 2.1-1.98 0.793-0.476 2.05-1.41 2.79-2.12 1.08-1.01 1.82-1.48 3.53-2.35 2.58-1.29 3.4-1.83 4.29-2.86 1.34-1.53 1.38-1.57 1.71-1.46 0.194 0.0706 0.335 0.053 0.335-0.0352s0.248-0.423 0.547-0.758c0.777-0.829 1.6-2.08 1.96-2.91 0.44-1.06 1.15-3.42 1.29-4.32 0.053-0.441 0.229-1.15 0.353-1.59 0.494-1.55 0.829-4.59 0.706-6.26-0.159-2.22-0.618-3.78-1.75-5.86-0.547-0.988-0.988-1.85-0.988-1.89 0-0.3-2.42-4.94-3.02-5.77-0.458-0.653-0.74-1.15-1.52-2.63-0.281-0.529-0.723-1.31-0.987-1.71-0.265-0.423-0.476-0.794-0.476-0.847 0-0.053-0.424-0.67-0.935-1.38-0.971-1.32-1.22-1.8-1.54-3.12-0.405-1.57-1.09-2.68-2.79-4.39-0.918-0.935-2.08-2.13-2.61-2.68-0.757-0.776-1.46-1.25-3.42-2.24-1.34-0.706-2.79-1.36-3.21-1.46-1.64-0.406-3.99-0.706-4.99-0.635-0.582 0.0529-2.24 0.0353-3.67-0.0353-2.91-0.124-2.63 0.0177-3.35-1.52-0.141-0.282-0.405-0.847-0.617-1.23-0.494-0.97-0.882-2.54-1.08-4.32-0.088-0.829-0.229-1.64-0.283-1.8-0.088-0.229 0.054-0.459 0.459-0.794 0.335-0.282 0.865-0.776 1.22-1.13 0.335-0.335 1.08-0.97 1.62-1.38 0.916-0.688 1.16-0.776 2.38-0.917 1.98-0.212 2.28-0.3 3.84-1.04 2.01-0.953 2.58-1.06 5.4-1.04 1.39 0 2.72-0.0353 2.93-0.0882 0.601-0.123 1.94 0.159 3.16 0.67 1.2 0.494 4.8 1.16 5.63 1.04 0.353-0.0529 1.27 0.194 2.74 0.741 1.22 0.441 2.54 0.917 2.94 1.08 0.406 0.141 0.777 0.37 0.812 0.494 0.053 0.141 1.46 2.05 3.12 4.25 1.68 2.19 3.32 4.48 3.67 5.08 0.353 0.6 0.847 1.38 1.11 1.71 0.266 0.353 0.706 1.09 0.971 1.68 0.264 0.582 0.723 1.41 1.02 1.85 0.282 0.423 0.9 1.53 1.38 2.47 0.53 1.08 1.82 3 3.55 5.29 1.48 1.99 2.98 4.09 3.33 4.69 0.335 0.582 0.864 1.41 1.18 1.83 0.299 0.423 0.546 0.882 0.546 1.04 0 0.741 1.27 2.84 2.93 4.8 1.52 1.82 3.39 4.34 4.18 5.68 0.601 0.97 1.57 2.36 2.72 3.88 0.777 1.04 1.82 2.88 2.98 5.24 0.547 1.11 1.16 2.28 1.38 2.56 1.09 1.46 1.36 2.13 1.48 3.83 0.141 2.1 0.106 5.57-0.088 6.91-0.159 1.15 0.017 0.97-2.08 2.13-0.282 0.176-1.13 0.917-1.85 1.66-1.73 1.76-4.39 3.97-5.82 4.85-0.636 0.37-1.75 1.25-2.47 1.94-0.845 0.794-1.87 1.53-2.82 2.05l-1.48 0.794-0.987 1.94c-0.529 1.08-1.18 2.26-1.43 2.65-0.247 0.388-0.865 1.59-1.38 2.65-0.511 1.08-1.2 2.47-1.52 3.1-0.67 1.32-1.55 3.56-1.83 4.67-0.106 0.406-0.388 1.02-0.636 1.38-0.247 0.353-0.441 0.706-0.441 0.759 0 0.0528-0.317 0.6-0.705 1.2-0.371 0.617-0.9 1.78-1.16 2.59-0.264 0.794-0.741 1.9-1.06 2.44-1.06 1.73-1.43 3.4-0.882 3.88 0.3 0.229 0.23 0.511-0.37 1.45-0.459 0.741-0.494 1.06-0.194 1.54 0.229 0.37 0.176 0.476-0.971 1.85-0.794 0.935-0.776 1.46 0.071 1.64 0.282 0.053 0.511 0.142 0.511 0.195 0 0.035-0.229 0.546-0.529 1.13-0.581 1.15-0.67 1.69-0.264 1.83 0.405 0.158 0.317 0.477-0.317 1.23-0.812 0.935-0.9 1.24-0.477 1.66 0.458 0.458 0.44 0.546-0.176 1.55-0.601 0.97-0.653 1.31-0.265 1.62 0.212 0.177 0.37 0.177 0.723 0.018 0.248-0.106 0.477-0.194 0.512-0.194 0.194 0 0.07 0.564-0.194 0.988-0.212 0.317-0.265 0.635-0.177 1.16 0.107 0.652 0.07 0.793-0.441 1.3-0.6 0.617-0.635 1.18-0.07 1.27 0.6 0.106 0.688 0.335 0.352 0.847-0.299 0.458-0.299 0.511 0 1.06 0.301 0.581 0.301 0.581-0.194 1.43-0.917 1.57-0.952 1.68-0.741 2.06 0.107 0.212 0.283 0.423 0.371 0.495 0.124 0.07 0 0.352-0.299 0.74-0.548 0.741-0.548 1.18 0.035 1.43 0.511 0.231 0.493 0.407-0.16 1.2-0.617 0.74-0.581 1.09 0.125 1.38 0.599 0.211 0.387 0.458-0.46 0.546-0.546 0.054-0.616 0.107-0.616 0.582 0 0.335 0.088 0.529 0.264 0.564 1.08 0.142 1.59 0.266 1.59 0.407 0 0.088-0.299 0.211-0.652 0.282-0.371 0.053-1.09 0.229-1.59 0.37-0.794 0.212-0.935 0.318-0.935 0.671 0 0.653 0.512 0.829 1.54 0.529 1.08-0.336 1.46-0.336 1.46 0 0 0.141-0.071 0.265-0.159 0.265-0.405 0-2.72 1.52-3.12 2.05-0.935 1.2 0.035 1.62 1.3 0.582 0.812-0.688 2.66-1.75 3.03-1.75 0.476 0 0 0.634-1.94 2.52-2.29 2.22-2.66 2.75-2.29 3.21 0.123 0.141 0.317 0.264 0.424 0.264 0.123 0 1.16-0.935 2.33-2.06 1.55-1.55 2.12-1.99 2.15-1.76 0.071 0.334-0.389 1.16-1.73 3.03-0.882 1.25-1.06 1.78-0.671 2.17 0.389 0.388 0.671 0.212 1.31-0.793 0.705-1.13 1.29-1.82 1.52-1.82 0.264 0 0.141 1.32-0.3 2.81-0.459 1.66-0.388 2.13 0.353 2.13 0.247 0 0.44 0.035 0.44 0.088s-0.229 0.458-0.528 0.934c-0.458 0.724-0.495 0.865-0.282 1.18 0.158 0.229 0.405 0.335 0.705 0.3 0.6-0.071 0.582 0.052-0.177 0.882-0.652 0.722-0.704 1.13-0.211 1.45 0.229 0.141 0.511 0.07 1.22-0.3 1.61-0.829 1.55-0.512-0.352 1.91-0.689 0.863-1.34 1.87-1.45 2.2-0.123 0.335-0.405 1-0.634 1.46-0.477 0.971-0.405 1.54 0.194 1.54 0.512 0 0.776-0.3 1.61-1.85 0.916-1.69 1.73-2.91 2.28-3.42l0.441-0.423 0.194 0.476c0.283 0.741 0.211 1.27-0.371 3.18-1.41 4.64-1.55 5.22-1.38 5.72 0.123 0.317 0.264 0.405 0.634 0.352 0.512-0.053 0.53-0.088 0.953-1.78 0.229-0.953 1.13-2.31 1.41-2.13 0.195 0.105 0.123 1.13-0.212 3.76-0.105 0.935-0.105 1.38 0.036 1.54 0.334 0.406 0.811 0.283 1.23-0.3 0.583-0.829 0.777-0.441 0.53 1.16-0.335 2.28-0.282 2.58 0.671 4.29 0.476 0.847 1.08 1.73 1.32 1.96 0.247 0.247 0.459 0.529 0.459 0.67 0 0.459 0.811 0.723 2.56 0.847 0.97 0.053 1.84 0.194 1.92 0.283 0.106 0.088-0.035 0.158-0.37 0.158-1.11 0-1.64 0.194-1.64 0.617 0 0.706 0.389 0.83 2.06 0.724 0.847-0.071 1.87-0.194 2.26-0.282 0.442-0.106 1-0.088 1.57 0.035 1.09 0.229 3.09 0.088 4.22-0.318 0.458-0.159 0.899-0.229 0.97-0.159 0.07 0.053-0.424 0.618-1.08 1.24-1.02 0.953-1.2 1.2-1.15 1.62 0.088 0.777 0.599 0.724 1.48-0.141 0.635-0.635 0.776-0.706 0.882-0.441 0.053 0.158 0.07 0.512 0.017 0.794-0.246 1.16 0.883 1.46 1.2 0.317 0.106-0.352 0.352-0.775 0.564-0.916 0.371-0.266 0.494-0.601 0.671-1.94 0.193-1.34 0.317-1.76 0.706-2.38 0.599-0.971 0.81-1.75 0.599-2.15-0.194-0.372 0.123-1.06 1.08-2.22 1.82-2.24 3.81-5.29 4.08-6.26 0.211-0.794 1.62-2.42 2.98-3.46 0.635-0.476 1.71-1.48 2.38-2.22 1-1.1 5.06-4.39 6.3-5.12 1.57-0.918 2.95-1.78 3.23-2.03 0.898-0.777 2.4-1.69 4.22-2.56 1.09-0.511 2.59-1.32 3.33-1.8 2.35-1.48 2.82-1.76 4.53-2.66 0.917-0.476 2.47-1.34 3.44-1.9 3.03-1.75 7-3.76 8.36-4.22 0.705-0.248 1.62-0.688 2.03-0.953 0.405-0.282 1.52-0.935 2.49-1.43 0.97-0.512 2.01-1.15 2.29-1.41 0.3-0.247 0.724-0.582 0.97-0.74 0.247-0.142 0.918-0.706 1.52-1.22 0.583-0.529 1.96-1.46 3.05-2.1 1.09-0.634 2.75-1.66 3.69-2.28 1.11-0.723 2.54-1.46 4.09-2.08 2.06-0.828 3.33-1.46 5.73-2.87 0.3-0.177 1.13-0.653 1.85-1.06 0.724-0.424 1.64-0.97 2.03-1.22 1.32-0.882 1.89-1 8.56-1.78 0.917-0.106 2.28-0.317 3-0.476 0.9-0.177 2.68-0.3 5.56-0.353 2.33-0.035 5.12-0.194 6.18-0.335 1.08-0.141 2.86-0.37 3.97-0.511 1.11-0.16 2.15-0.318 2.29-0.371 0.142-0.053 0.865-0.212 1.59-0.335 4.02-0.741 6.93-1.57 9.6-2.72 0.67-0.3 1.32-0.388 3.09-0.458 2.59-0.088 5.24-0.495 6.3-0.953 0.406-0.194 1-0.388 1.32-0.458 0.971-0.213 2.31-1.01 3.16-1.87 0.441-0.441 1.16-1.09 1.6-1.43 3.18-2.4 3.81-3.39 4.66-7.2 0.211-1.02 0.6-2.52 0.847-3.35 0.512-1.66 0.882-3.42 1.18-5.56 0.124-0.776 0.282-1.61 0.372-1.85 0.246-0.67 0.687-3.25 0.863-4.99 0.123-1.06 0.336-1.91 0.688-2.73 1.09-2.49 1.09-2.56 0.988-6.26-0.07-1.85-0.193-3.77-0.299-4.23-0.16-0.776-0.847-2.56-1.89-4.92-0.688-1.61-1.99-3.12-5.26-6.09-0.653-0.6-1.68-1.52-2.26-2.05l-1.06-0.97 0.247-0.847c0.123-0.476 0.299-1.2 0.388-1.62 0.212-1.06 1.13-2.95 1.98-4.06 0.389-0.512 0.829-1.18 0.988-1.5 0.283-0.564 0.301-0.564 1.87-0.67 0.882-0.053 2.2-0.053 2.96 0.0176 1.24 0.124 1.48 0.212 2.38 0.864 1.43 1.04 2.06 1.34 3.48 1.69 1.82 0.459 3.05 1.15 4.6 2.59 0.759 0.723 1.82 1.61 2.33 1.98 0.971 0.706 1.78 1.75 2.1 2.68 0.265 0.741 1.64 2.54 3.14 4.07 0.758 0.776 1.46 1.73 1.85 2.47 0.335 0.653 0.918 1.71 1.27 2.35l0.653 1.16-0.424 5.8c-0.229 3.21-0.511 6.1-0.617 6.44-0.088 0.335-0.176 0.935-0.176 1.32 0 0.388-0.176 1.34-0.371 2.12-0.211 0.776-0.441 1.85-0.511 2.38-0.071 0.529-0.3 1.57-0.512 2.29-0.441 1.62-0.635 3.14-0.987 7.69-0.142 1.96-0.389 4.18-0.53 4.94-0.141 0.776-0.264 1.66-0.264 1.98 0 0.318-0.141 0.865-0.335 1.24-0.442 0.882-0.865 3.25-0.97 5.59-0.106 2.01-0.389 3.35-1.32 5.93-0.793 2.24-0.74 3.7 0.142 3.69 0.158 0 0.758-0.317 1.34-0.706 0.582-0.388 1.41-0.828 1.85-0.988 0.441-0.158 1.27-0.458 1.85-0.687 0.583-0.212 1.98-0.653 3.09-0.953 2.59-0.723 3.74-1.15 4.87-1.8 1.16-0.652 1.48-0.652 1.48-0.017 0 0.389-0.211 0.706-0.812 1.25-1 0.9-1.02 1.46-0.07 1.61 0.829 0.123 0.741 0.476-0.405 1.8-1.24 1.39-3.92 5.7-4.48 7.16-0.424 1.09-0.635 1.78-1.36 4.44-0.159 0.53-0.317 1.69-0.37 2.56-0.088 1.57-0.123 2.29-0.335 8.82-0.123 3.35-0.459 9.1-0.547 9.26-0.018 0.053 0.017 0.265 0.105 0.477 0.177 0.493 0.953 0.546 1.2 0.088 0.211-0.389 0.547-3.99 0.547-5.8 0-0.706 0.071-1.29 0.141-1.29 0.071 0 0.317 0.777 0.511 1.73 0.371 1.64 0.583 3.92 0.601 6.39 0.017 1.98-0.529 7.96-0.883 9.7-0.194 0.918-0.44 2.28-0.546 3-0.106 0.724-0.301 1.76-0.442 2.33-0.141 0.546-0.264 1.34-0.282 1.76-0.017 0.741-0.264 2.51-0.776 5.34-0.141 0.777-0.3 2.33-0.335 3.44-0.053 1.11-0.176 2.31-0.282 2.65-0.106 0.335-0.477 1.69-0.812 3-0.352 1.3-0.776 2.94-0.952 3.62-0.177 0.689-0.652 2.03-1.06 3-0.387 0.971-0.952 2.52-1.25 3.44-0.282 0.918-0.724 2.29-0.97 3.05-0.229 0.758-0.547 1.99-0.689 2.75-0.546 2.82-1.62 5.77-3.7 10.2-0.635 1.32-1.15 2.45-1.15 2.5 0 0.053-0.282 0.706-0.636 1.45-0.352 0.741-0.775 1.82-0.951 2.4-1.01 3.42-1.25 4.16-1.57 4.69-0.194 0.335-0.546 1.34-0.812 2.26-0.246 0.918-0.599 1.94-0.775 2.29-0.177 0.353-0.424 0.953-0.547 1.32-0.124 0.389-0.564 1.41-0.971 2.29-1.39 2.95-4.25 11.6-5.4 16.3-0.176 0.724-0.475 1.69-0.687 2.15-0.195 0.459-0.6 1.64-0.882 2.65-0.282 1-0.9 2.77-1.34 3.93-0.458 1.16-0.987 2.56-1.18 3.09-0.194 0.53-1.18 2.68-2.19 4.76-1.78 3.65-2.86 5.56-4.62 8.2-0.458 0.688-1.15 1.8-1.52 2.47-0.371 0.687-0.829 1.52-1.02 1.85-0.6 1.08-1.54 2.96-1.54 3.12 0 0.07-0.617 1.41-1.38 2.96-0.776 1.55-1.62 3.33-1.89 3.97-0.282 0.634-0.687 1.39-0.916 1.68-2.22 2.86-3.35 4.45-5.93 8.27-0.812 1.18-1.34 1.76-2.2 2.38-0.635 0.441-1.8 1.45-2.59 2.24-0.811 0.777-1.96 1.8-2.58 2.26-0.616 0.476-1.29 1.04-1.46 1.29-0.407 0.53-5.75 4.09-6.46 4.29-0.811 0.23-2.17 0.971-3.1 1.68-0.475 0.37-1.15 0.794-1.48 0.952-0.336 0.159-1.43 0.811-2.44 1.46-3.63 2.38-5.12 3.16-7.36 3.83-0.389 0.123-1.02 0.37-1.41 0.546-1.75 0.812-3.33 1.43-5.29 2.03-1.17 0.352-2.31 0.722-2.52 0.811-0.229 0.088-1.34 0.406-2.47 0.688-1.15 0.283-2.5 0.688-3.05 0.864-0.546 0.194-1.66 0.406-2.47 0.476-1.99 0.142-4.8 0.671-7.04 1.32-3.69 1.08-4.89 1.41-7.07 1.92-1.24 0.299-2.56 0.652-2.96 0.793s-1.27 0.301-1.92 0.371c-0.652 0.053-1.46 0.176-1.8 0.264-0.882 0.212-3.88 0.335-11.1 0.423-5.01 0.071-7.06 0.018-10.7-0.264-6.35-0.477-8.33-0.3-12.1 1.04-0.528 0.194-1.6 0.458-2.38 0.618-1.73 0.352-4.3 1.38-5.43 2.17-0.882 0.618-1.64 1.41-2.29 2.38-0.317 0.458-0.618 0.616-1.53 0.863-0.636 0.16-1.85 0.53-2.74 0.83-4.32 1.48-5.7 1.96-6.26 2.2-0.757 0.353-3.93 1.6-5.47 2.19-0.617 0.23-1.22 0.494-1.32 0.565-0.088 0.088-0.37 0.211-0.618 0.282-0.246 0.07-0.758 0.264-1.15 0.459-0.388 0.176-1.18 0.511-1.76 0.74-2.13 0.882-4.82 2.05-6.62 2.91-1.02 0.476-2.33 1.09-2.91 1.36-1.32 0.6-7 3.44-7.23 3.62-0.088 0.072-0.688 0.318-1.32 0.53-0.636 0.229-1.84 0.741-2.66 1.15-0.83 0.406-1.87 0.865-2.31 1.02-0.442 0.141-1.25 0.546-1.8 0.899s-1.06 0.635-1.13 0.635c-0.07 0-0.441 0.248-0.811 0.53-0.388 0.299-0.777 0.528-0.865 0.528-0.264 0-3.58 1.91-3.83 2.2-0.301 0.354-2.96 2.1-4.32 2.82-0.583 0.317-1.34 0.759-1.69 0.988-0.335 0.247-1.09 0.582-1.68 0.759-3.72 1.16-8.75 3.21-12.5 5.06-1.75 0.865-3.28 1.57-3.39 1.57-0.123 0-0.688 0.247-1.27 0.529-0.583 0.3-1.62 0.724-2.33 0.953-0.706 0.229-1.82 0.635-2.49 0.882-0.652 0.247-1.69 0.636-2.33 0.882-0.634 0.229-1.46 0.617-1.85 0.881-0.389 0.248-0.759 0.46-0.83 0.46-0.088 0-0.424 0.158-0.776 0.335-0.335 0.176-1.25 0.529-2.01 0.776-0.777 0.247-2.4 0.847-3.62 1.36-2.36 0.97-4.6 1.75-6.28 2.19-1.08 0.282-1.38 0.336-3.16 0.671-0.581 0.106-1.69 0.441-2.47 0.759-0.777 0.317-2.24 0.74-3.26 0.969-2.68 0.565-5.34 1.34-6.88 2.01-1.34 0.601-3.58 2.05-5.27 3.42-0.513 0.407-1.15 0.795-1.4 0.847-0.793 0.194-2.56 0.971-3.02 1.32-0.231 0.195-0.865 0.477-1.41 0.636-0.547 0.141-1.62 0.582-2.4 0.935-0.777 0.37-1.8 0.794-2.29 0.952-0.476 0.159-1.32 0.547-1.87 0.883-0.988 0.599-4 1.87-4.43 1.87-0.123 0-0.706 0.246-1.29 0.529-0.582 0.282-1.18 0.529-1.32 0.529s-0.9 0.318-1.68 0.706c-0.776 0.388-1.53 0.706-1.69 0.706s-0.388 0.123-0.512 0.264c-0.387 0.459 0.018 1.01 0.971 1.32 1.89 0.636 0.794 0.918-1.94 0.512-1.18-0.177-1.38-0.177-1.68 0.106-0.442 0.405-0.213 0.988 0.458 1.18 0.282 0.088 1.16 0.211 1.98 0.299 0.812 0.089 1.52 0.212 1.57 0.265 0.283 0.283-0.511 0.635-1.8 0.812-4.44 0.6-5.56 0.758-6.44 0.987-0.829 0.194-2.22 0.441-4.85 0.865-1.97 0.3-3.18 0.511-4.32 0.723-0.723 0.123-2.15 0.318-3.18 0.424-3.46 0.352-5.03 0.564-5.73 0.74-0.883 0.212-2.81 1.02-4.32 1.8-0.635 0.335-1.52 0.654-1.98 0.706-1.01 0.141-1.22 0.406-0.67 0.811 0.564 0.424 0.194 0.6-1.22 0.618-1.61 0-1.66 0.388-0.123 0.864 0.264 0.089 0.282 0.159 0.104 0.371-0.176 0.211-0.475 0.246-1.43 0.158-1.06-0.106-1.22-0.088-1.32 0.195-0.159 0.388 0.194 0.617 1.02 0.617 0.353 0 0.706 0.088 0.759 0.176 0.071 0.106-0.459 0.176-1.46 0.176-1.22 0-1.6 0.053-1.68 0.248-0.141 0.335 0.74 0.635 1.83 0.635 0.459 0 0.9 0.088 0.953 0.176 0.177 0.3-0.265 0.706-0.758 0.706-0.23 0-0.953 0.088-1.59 0.211-0.883 0.159-1.16 0.282-1.24 0.548-0.088 0.317-0.194 0.334-1.36 0.246-0.97-0.088-1.34-0.053-1.48 0.124-0.141 0.176-0.141 0.282 0.017 0.405 0.354 0.265 2.01 0.583 3.1 0.6 1.11 0 1.82 0.194 1.48 0.406-0.105 0.052-0.635 0.194-1.18 0.3-0.548 0.106-1.36 0.335-1.82 0.529-0.847 0.371-2.77 0.741-4.85 0.953-0.652 0.07-1.24 0.211-1.29 0.299-0.211 0.336 0.282 0.565 1.16 0.512 1.02-0.035 1.11 0.141 0.319 0.705-0.407 0.301-1.11 0.477-2.68 0.706-1.18 0.177-2.33 0.353-2.58 0.407-0.247 0.035-0.988 0.088-1.64 0.088-0.935 0.017-1.22 0.088-1.31 0.299-0.176 0.476 0.441 0.777 1.55 0.777 0.565 0 1.06 0.07 1.11 0.158 0.123 0.194-0.9 0.988-1.48 1.13-0.246 0.053-0.882 0.37-1.43 0.705-0.548 0.336-1.34 0.689-1.76 0.812-1.89 0.53-4.02 0.9-5.68 1.01-0.987 0.052-1.9 0.123-2.01 0.158-0.37 0.124-0.246 0.6 0.177 0.688 1.16 0.247 1.36 0.3 1.36 0.441 0 0.248-0.883 0.547-2.17 0.741-0.706 0.106-1.8 0.265-2.44 0.37-0.83 0.141-1.41 0.141-2.03 0-0.476-0.105-1.22-0.246-1.66-0.317-0.441-0.053-1.43-0.37-2.2-0.688-0.776-0.317-1.73-0.67-2.12-0.793-0.388-0.125-0.795-0.301-0.918-0.389-0.106-0.088-0.935-0.423-1.85-0.758-2.49-0.9-5.7-2.24-7.32-3.07-0.811-0.389-1.46-0.671-1.46-0.583 0 0.123 2.7 2.58 3.7 3.35 0.246 0.193 1.08 0.67 1.87 1.06 0.777 0.389 2.44 1.52 3.7 2.52 3.67 2.89 5.22 3.4 11.6 3.72l0.882 0.053-1.32 0.794c-1.25 0.759-1.39 0.794-2.86 0.864-1.34 0.036-1.59 0.106-1.75 0.406-0.247 0.44 0.035 0.794 0.935 1.15 0.37 0.141 0.67 0.335 0.67 0.423 0 0.23-0.758 0.195-2.56-0.141-1.9-0.352-2.84-0.37-3.12-0.088-0.177 0.176 0.017 0.442 0.811 1.25 1.45 1.46 1.11 1.98-0.864 1.36zm278-133c0.53-0.053 1.61-0.211 2.38-0.352 0.775-0.125 1.83-0.283 2.36-0.336 1.8-0.159 4.52-0.617 5.22-0.865 0.388-0.141 1.43-0.476 2.29-0.74 2.01-0.6 4.38-1.55 4.99-1.98 0.265-0.194 1.23-0.759 2.15-1.29 1.87-1.04 2.58-1.55 4.76-3.44 0.828-0.706 2.1-1.71 2.84-2.22 1.68-1.16 3.42-2.49 4.92-3.76 0.634-0.546 1.71-1.39 2.4-1.9 1.2-0.865 2.56-2.31 3.65-3.84 0.283-0.371 1.22-1.45 2.08-2.38 0.865-0.935 2.1-2.4 2.74-3.26 0.652-0.864 1.24-1.57 1.29-1.57 0.052 0 0.494-0.494 0.987-1.11 0.476-0.599 1.32-1.62 1.85-2.26 2.08-2.5 2.66-3.33 3.39-4.85 0.405-0.865 1.06-1.96 1.46-2.45 0.406-0.476 1.08-1.43 1.5-2.12 0.44-0.669 1-1.52 1.25-1.85 0.564-0.724 2.45-4.36 2.45-4.69 0-0.494 0.935-2.33 2.01-3.95 2.63-3.93 4.14-7.3 5.13-11.3 0.141-0.529 0.406-1.48 0.617-2.12 0.194-0.634 0.442-1.73 0.53-2.45 0.106-0.794 0.44-1.9 0.863-2.91 0.372-0.882 0.759-1.89 0.865-2.22 1.5-4.89 1.59-5.24 2.24-9.08 0.141-0.864 0.336-1.87 0.424-2.2 0.088-0.334 0.265-1.29 0.388-2.12 0.106-0.83 0.476-2.17 0.794-3 0.865-2.19 1.53-5.75 1.83-9.79 0.107-1.36 0.265-2.75 0.353-3.1 0.106-0.334 0.282-2.08 0.406-3.88 0.264-3.65 0.158-5.75-0.388-7.9-0.211-0.776-0.406-1.75-0.459-2.17-0.053-0.423-0.212-1.46-0.335-2.35-0.141-0.865-0.247-2.54-0.264-3.69-0.018-1.16-0.071-2.15-0.089-2.2-0.035-0.053-0.105-0.9-0.176-1.87-0.195-3.14-0.565-6.03-1.15-9.37-0.195-1.08-0.389-3.03-0.424-4.32-0.053-1.55-0.212-2.87-0.441-3.86-0.211-0.83-0.424-2.1-0.477-2.82-0.07-0.723-0.229-1.87-0.352-2.56-0.53-2.7-0.777-4.89-0.882-7.37-0.053-1.43-0.177-2.79-0.265-3.02-0.229-0.617-1.06-0.846-1.99-0.564-1.29 0.405-6.07 2.52-7.44 3.32-0.176 0.106-1.23 0.494-2.33 0.865-1.09 0.37-2.33 0.81-2.75 1-2.61 1.18-3.19 1.54-4.52 2.66-0.811 0.705-1.87 1.46-2.36 1.73-1.06 0.528-2.77 1.76-2.77 1.98 0 0.088-0.529 0.44-1.16 0.793-0.634 0.352-1.89 1.18-2.79 1.84-1.38 1.04-2.49 1.82-4.09 2.87-0.917 0.6-4.29 3.16-5.43 4.13-0.689 0.583-1.66 1.34-2.14 1.68-0.493 0.335-1.45 1.08-2.15 1.68-0.687 0.582-1.87 1.54-2.63 2.12-2.01 1.54-6.79 6.37-7.76 7.85-0.23 0.335-0.653 1.34-0.971 2.2-0.3 0.881-0.776 2.19-1.04 2.91-1.22 3.21-2.66 8.91-3.46 13.6-0.124 0.829-0.441 2.13-0.67 2.91-0.548 1.83-0.742 2.61-1.18 4.85-0.194 1.02-0.458 2.2-0.583 2.65-0.141 0.441-0.388 1.39-0.546 2.12-0.688 3.05-1.2 5.13-1.69 6.72-0.282 0.934-0.511 1.9-0.511 2.15s-0.159 1.22-0.354 2.19c-0.211 0.951-0.44 2.2-0.528 2.79-0.106 0.583-0.3 1.54-0.441 2.12-0.142 0.583-0.371 1.62-0.53 2.29-0.616 2.63-0.935 3.58-1.98 5.89-0.422 0.952-2.01 6.19-2.17 7.16-0.529 3.37-0.846 4.57-1.73 6.7-0.213 0.495-0.583 1.55-0.847 2.38-0.653 2.08-0.83 2.38-1.73 2.82-1.04 0.495-2.66 2.14-3.23 3.25-0.246 0.494-0.634 1.18-0.847 1.52-0.211 0.334-0.599 1.22-0.881 1.94-0.389 1.01-0.723 1.55-1.45 2.28-0.511 0.511-1.16 1.36-1.45 1.85-0.282 0.495-0.865 1.25-1.29 1.69-2.98 3.05-7.39 11.5-9.01 17.3-0.248 0.829-0.477 1.85-0.548 2.28-0.106 0.634-0.299 0.935-1.24 1.85-2.54 2.47-3.14 5.84-1.62 9.03 0.741 1.55 1.54 2.38 3.64 3.76 1.96 1.29 3.02 1.69 4.76 1.85 0.724 0.053 1.73 0.229 2.2 0.388 1.34 0.406 5.42 1.13 7.5 1.32 2.8 0.264 6.9 0.476 7.5 0.388 0.3-0.036 0.971-0.106 1.5-0.159z"/><path transform="matrix(1 0 0 -1 1306 2765)" d="m404 429c-18.5-1.1-30.2-2.74-43.8-6.17-11.1-2.78-15.5-4.35-24-8.63-4.21-2.14-8.84-4.24-10.3-4.7-3.07-0.962-10.1-2.42-15.7-3.24-14.1-2.07-18.8-2.1-45.8-0.179-6.63 0.499-19.6 0.464-23.8 0-8.7-1.03-19.9-3.24-30.8-6.06-33.4-8.66-65.7-24.3-91.9-44.6-22.3-17.3-33.4-31-55.6-68.9-3.1-5.28-7.31-12.5-9.38-16-2.07-3.53-5.95-9.8-8.66-13.9-5.92-9.13-7.74-12.2-9.41-16.2-1.78-4.1-2.89-8.48-3.74-14.4-1.28-9.41-1.53-15.4-1.21-30.1 0.178-7.56 0.321-17.3 0.285-21.7-0.0356-7.63-0.0713-8.2-0.963-11.2-0.606-1.96-2.71-6.67-5.42-12.1-4.74-9.48-6.17-13.3-7.09-18.7-2.03-12.2-0.143-27.2 4.67-37 1.25-2.53 1.28-2.67 0.642-3.03-1.75-0.998-4.06-3.56-4.92-5.49-0.499-1.11-1.43-4.42-2.03-7.38-1.93-9.34-2.46-10.8-8.06-21-4.49-8.27-5.42-10.4-5.88-14.2-1.32-10.3 2.57-21 10.4-28.7 3.49-3.42 6.17-5.35 10.6-7.66 9.41-4.88 20.6-6.84 31.3-5.42 9.41 1.25 16.4 4.63 22.5 11.1 10.2 10.7 16.1 28.6 17.1 51.9l0.214 5.49 4.63 2.35c10.9 5.53 19.1 12.3 25.6 21 3.53 4.71 5.56 9.13 7.88 17.1 1.07 3.82 2.46 8.09 3.06 9.56 2.21 5.31 6.88 11.4 13.2 17.4 4.78 4.49 9.16 7.59 14 9.98 5.56 2.74 7.59 3.24 13.2 3.24 5.38 0 6.67-0.321 16.6-3.92 3.42-1.21 7.52-2.53 9.09-2.89 4.06-0.927 9.73-0.855 14 0.178l3.35 0.821 1.85 3.81c2.5 5.17 3.14 5.99 4.96 6.45 6.6 1.71 13.2 4.53 18 7.7 5.13 3.46 8.59 7.06 11.8 12.4 1.32 2.17 1.5 2.67 1.32 4.03-0.107 1.03-0.535 2.03-1.21 2.89-2.35 2.96-2.46 3.92-0.392 4.85 3.6 1.68 5.99 5.17 5.99 8.81 0 4.03-2.78 9.3-6.7 12.8l-2 1.75 0.57 1.18c0.321 0.641 1.5 2.21 2.6 3.49 2.89 3.28 3.56 5.17 2.64 7.27-0.285 0.642-0.784 0.962-1.78 1.1-2.89 0.499-4.96-0.463-9.77-4.46-3.99-3.32-6.1-4.49-8.84-4.92-1.71-0.286-6.52 0-6.92 0.392-0.25 0.249 4.6 6.02 8.24 9.8 4.46 4.63 10.6 10.2 20.5 18.4 15.2 12.7 19 16.2 23.2 21.6 5.45 7.02 7.2 8.31 13.5 9.84 3.21 0.784 9.16 0.784 12.1-0.036 8.09-2.21 13.3-6.99 25.6-23.4 7.81-10.5 12.1-14.9 17.2-17.8 4.67-2.6 8.56-3.56 18.2-4.53 7.74-0.748 7.17-0.82 9.62 1.43 2.39 2.21 3.71 2.67 9.59 3.57 4.49 0.641 5.92 1.03 7.45 1.96 1.25 0.748 2.57 2.64 2.57 3.67 0 0.785-2.28 0.821-8.31 0.073-6.81-0.856-8.81 0.071-8.84 4.17-0.071 4.42 1.89 5.6 10.9 6.7 6.31 0.749 9.45 2.25 10.8 5.1 0.82 1.71 0.963 2.75 0.357 2.75-0.215 0-2.53-0.499-5.1-1.1-5.63-1.32-8.73-1.46-10.7-0.465-2.03 1-2.32 1.64-1.46 3.24 0.927 1.68 2.53 2.5 7.02 3.53 4.21 0.998 6.06 1.96 6.88 3.49 1.53 2.85-0.393 3.57-8.91 3.28-3.14-0.107-5.88-0.071-6.13 0.071-0.25 0.178-0.428 1.39-0.428 3.46 0 2.25-0.214 3.92-0.714 5.53-0.748 2.28-1.21 3.21-4.31 8.52-1.11 1.89-1.43 2.67-1.11 2.89 0.25 0.143 1.96 0.357 3.85 0.464 4.78 0.286 7.59 1.75 8.45 4.38 0.214 0.713 0.072 0.784-2.21 0.962-5.92 0.57-11.1 2.5-20.5 7.74-10 5.56-14.7 7.38-20.5 8.06-2.1 0.215-2.17 0.286-2.17 1.28 0 1.53-0.784 3.1-2.67 5.28-2.1 2.39-2.67 3.71-2.67 6.06v1.82l2.42-0.179c1.32-0.142 5.99-0.463 10.4-0.748 4.42-0.321 15.1-1.1 23.7-1.78 35-2.75 43.5-3.17 63.1-3.17 12.9 0 18.4 0.144 24.1 0.606 22.2 1.89 37.5 5.6 50.8 12.3 9.88 4.96 18.4 11.9 20.6 16.8 3.64 8.13 6.92 17.7 8.34 24.5 1.32 6.24 1.57 14.4 0.571 19.2-1.43 6.85-5.1 12.3-10.8 16.1-4.35 2.89-7.31 3.82-18 5.53-3.71 0.605-10.3 1.96-14.8 3.03-23.8 5.67-45.7 8.91-68.3 10.2-5.81 0.321-23 0.392-27.5 0.106z"/><g font-family="Arial, Arial_MSFontService, sans-serif"><text transform="matrix(1.13 0 0 1.13 1370 2285)" font-size="93.3px" font-weight="400">R</text><text transform="matrix(1.13 0 0 1.13 1446 2253)" font-size="62.2px" font-weight="400">2</text><g font-size="93.3px" font-weight="400"><text transform="matrix(1.13 0 0 1.13 1514 2285)">= </text><text transform="matrix(1.13 0 0 1.13 1605 2285)">0</text><text transform="matrix(1.13 0 0 1.13 1664 2285)">.</text><text transform="matrix(1.13 0 0 1.13 1693 2285)">90</text><text transform="matrix(1.13 0 0 1.13 2727 1768)">R</text></g><text transform="matrix(1.13 0 0 1.13 2803 1736)" font-size="62.2px" font-weight="400">2</text><g font-size="93.3px" font-weight="400"><text transform="matrix(1.13 0 0 1.13 2872 1768)">= </text><text transform="matrix(1.13 0 0 1.13 2962 1768)">0</text><text transform="matrix(1.13 0 0 1.13 3021 1768)">.</text><text transform="matrix(1.13 0 0 1.13 3050 1768)">34</text></g><text transform="matrix(1.13 0 0 1.13 589 1206)" font-size="107px" font-weight="700">A</text><text transform="matrix(1.13 0 0 1.13 2349 1206)" font-size="107px" font-weight="700">B</text></g></g></svg>
