<?xml version="1.0" encoding="UTF-8"?>
<svg xmlns="http://www.w3.org/2000/svg" xmlns:xlink="http://www.w3.org/1999/xlink" width="884pt" height="305pt" viewBox="0 0 884 305">
<defs>
<g>
<g id="glyph-0-0">
<path d="M 0.890625 0 L 0.890625 -8.589844 L 2.601562 -8.589844 L 4.632812 -2.507812 C 4.820312 -1.941406 4.957031 -1.515625 5.046875 -1.234375 C 5.140625 -1.546875 5.292969 -2.007812 5.5 -2.613281 L 7.558594 -8.589844 L 9.085938 -8.589844 L 9.085938 0 L 7.992188 0 L 7.992188 -7.1875 L 5.496094 0 L 4.46875 0 L 1.984375 -7.3125 L 1.984375 0 Z M 0.890625 0 "/>
</g>
<g id="glyph-0-1">
<path d="M 4.851562 -0.765625 C 4.460938 -0.433594 4.085938 -0.199219 3.722656 -0.0625 C 3.363281 0.0703125 2.972656 0.140625 2.5625 0.140625 C 1.875 0.140625 1.351562 -0.0273438 0.984375 -0.359375 C 0.617188 -0.695312 0.433594 -1.121094 0.433594 -1.640625 C 0.433594 -1.945312 0.503906 -2.222656 0.640625 -2.476562 C 0.78125 -2.726562 0.960938 -2.929688 1.1875 -3.082031 C 1.410156 -3.234375 1.664062 -3.347656 1.945312 -3.429688 C 2.152344 -3.480469 2.464844 -3.535156 2.882812 -3.585938 C 3.734375 -3.6875 4.359375 -3.808594 4.765625 -3.949219 C 4.765625 -4.09375 4.769531 -4.183594 4.769531 -4.226562 C 4.769531 -4.652344 4.671875 -4.957031 4.46875 -5.132812 C 4.203125 -5.371094 3.800781 -5.492188 3.269531 -5.492188 C 2.773438 -5.492188 2.40625 -5.402344 2.171875 -5.230469 C 1.933594 -5.054688 1.757812 -4.746094 1.648438 -4.304688 L 0.617188 -4.445312 C 0.707031 -4.886719 0.863281 -5.246094 1.078125 -5.515625 C 1.292969 -5.789062 1.601562 -5.996094 2.007812 -6.144531 C 2.414062 -6.289062 2.886719 -6.363281 3.421875 -6.363281 C 3.953125 -6.363281 4.382812 -6.300781 4.71875 -6.175781 C 5.046875 -6.050781 5.292969 -5.894531 5.449219 -5.703125 C 5.605469 -5.515625 5.714844 -5.273438 5.777344 -4.984375 C 5.8125 -4.804688 5.828125 -4.484375 5.828125 -4.015625 L 5.828125 -2.609375 C 5.828125 -1.628906 5.851562 -1.007812 5.898438 -0.746094 C 5.941406 -0.488281 6.03125 -0.238281 6.164062 0 L 5.0625 0 C 4.953125 -0.21875 4.882812 -0.476562 4.851562 -0.765625 M 4.765625 -3.125 C 4.378906 -2.964844 3.804688 -2.832031 3.039062 -2.726562 C 2.605469 -2.660156 2.300781 -2.589844 2.121094 -2.515625 C 1.941406 -2.433594 1.800781 -2.320312 1.703125 -2.171875 C 1.605469 -2.019531 1.558594 -1.851562 1.558594 -1.671875 C 1.558594 -1.386719 1.664062 -1.152344 1.878906 -0.96875 C 2.089844 -0.78125 2.402344 -0.683594 2.8125 -0.6875 C 3.21875 -0.683594 3.578125 -0.773438 3.898438 -0.953125 C 4.210938 -1.128906 4.445312 -1.371094 4.59375 -1.679688 C 4.707031 -1.917969 4.761719 -2.269531 4.765625 -2.734375 Z M 4.765625 -3.125 "/>
</g>
<g id="glyph-0-2">
<path d="M 0.789062 0 L 0.789062 -6.222656 L 1.734375 -6.222656 L 1.734375 -5.351562 C 1.929688 -5.65625 2.1875 -5.898438 2.515625 -6.085938 C 2.835938 -6.269531 3.207031 -6.363281 3.621094 -6.363281 C 4.082031 -6.363281 4.460938 -6.265625 4.753906 -6.078125 C 5.050781 -5.882812 5.257812 -5.617188 5.378906 -5.273438 C 5.871094 -6 6.511719 -6.363281 7.300781 -6.363281 C 7.917969 -6.363281 8.390625 -6.191406 8.726562 -5.851562 C 9.054688 -5.507812 9.222656 -4.980469 9.222656 -4.273438 L 9.222656 0 L 8.171875 0 L 8.171875 -3.921875 C 8.171875 -4.339844 8.140625 -4.644531 8.070312 -4.832031 C 8.003906 -5.015625 7.878906 -5.164062 7.699219 -5.28125 C 7.519531 -5.390625 7.308594 -5.449219 7.066406 -5.449219 C 6.628906 -5.449219 6.265625 -5.304688 5.976562 -5.011719 C 5.6875 -4.722656 5.542969 -4.253906 5.542969 -3.617188 L 5.542969 0 L 4.488281 0 L 4.488281 -4.042969 C 4.488281 -4.511719 4.402344 -4.863281 4.230469 -5.097656 C 4.058594 -5.332031 3.777344 -5.449219 3.386719 -5.449219 C 3.089844 -5.449219 2.816406 -5.371094 2.5625 -5.214844 C 2.3125 -5.058594 2.128906 -4.828125 2.015625 -4.53125 C 1.902344 -4.226562 1.84375 -3.792969 1.84375 -3.226562 L 1.84375 0 Z M 0.789062 0 "/>
</g>
<g id="glyph-0-3">
<path d="M 0.765625 0 L 0.765625 -8.589844 L 1.820312 -8.589844 L 1.820312 0 Z M 0.765625 0 "/>
</g>
<g id="glyph-0-4">
<path d="M 0.367188 -1.859375 L 1.414062 -2.023438 C 1.46875 -1.601562 1.632812 -1.28125 1.902344 -1.0625 C 2.167969 -0.835938 2.542969 -0.726562 3.023438 -0.726562 C 3.507812 -0.726562 3.867188 -0.824219 4.101562 -1.023438 C 4.335938 -1.21875 4.453125 -1.449219 4.453125 -1.71875 C 4.453125 -1.953125 4.347656 -2.140625 4.140625 -2.28125 C 3.996094 -2.375 3.640625 -2.492188 3.0625 -2.636719 C 2.289062 -2.832031 1.753906 -3 1.457031 -3.144531 C 1.15625 -3.285156 0.929688 -3.484375 0.777344 -3.734375 C 0.621094 -3.988281 0.546875 -4.265625 0.546875 -4.570312 C 0.546875 -4.847656 0.609375 -5.105469 0.734375 -5.339844 C 0.863281 -5.578125 1.035156 -5.773438 1.253906 -5.929688 C 1.417969 -6.050781 1.640625 -6.152344 1.925781 -6.238281 C 2.207031 -6.320312 2.511719 -6.363281 2.835938 -6.363281 C 3.324219 -6.363281 3.753906 -6.292969 4.121094 -6.152344 C 4.492188 -6.011719 4.761719 -5.820312 4.9375 -5.582031 C 5.113281 -5.339844 5.234375 -5.019531 5.304688 -4.617188 L 4.273438 -4.476562 C 4.226562 -4.796875 4.089844 -5.046875 3.863281 -5.226562 C 3.640625 -5.40625 3.320312 -5.496094 2.914062 -5.496094 C 2.425781 -5.496094 2.082031 -5.414062 1.875 -5.257812 C 1.667969 -5.09375 1.5625 -4.90625 1.5625 -4.695312 C 1.5625 -4.554688 1.605469 -4.433594 1.695312 -4.324219 C 1.777344 -4.210938 1.914062 -4.117188 2.097656 -4.042969 C 2.203125 -4.003906 2.515625 -3.914062 3.03125 -3.773438 C 3.773438 -3.574219 4.296875 -3.410156 4.589844 -3.285156 C 4.886719 -3.15625 5.117188 -2.972656 5.285156 -2.730469 C 5.453125 -2.488281 5.535156 -2.1875 5.539062 -1.828125 C 5.535156 -1.476562 5.433594 -1.144531 5.230469 -0.835938 C 5.023438 -0.523438 4.726562 -0.285156 4.34375 -0.113281 C 3.953125 0.0546875 3.515625 0.140625 3.03125 0.140625 C 2.21875 0.140625 1.605469 -0.0273438 1.179688 -0.363281 C 0.757812 -0.699219 0.484375 -1.199219 0.367188 -1.859375 Z M 0.367188 -1.859375 "/>
</g>
<g id="glyph-0-5">
<path d="M 0.945312 0 L 0.945312 -8.589844 L 4.75 -8.589844 C 5.515625 -8.589844 6.101562 -8.511719 6.5 -8.359375 C 6.898438 -8.203125 7.214844 -7.929688 7.453125 -7.539062 C 7.691406 -7.148438 7.8125 -6.71875 7.8125 -6.246094 C 7.8125 -5.636719 7.613281 -5.121094 7.21875 -4.703125 C 6.824219 -4.285156 6.214844 -4.019531 5.390625 -3.90625 C 5.691406 -3.761719 5.917969 -3.621094 6.078125 -3.480469 C 6.40625 -3.175781 6.722656 -2.792969 7.019531 -2.335938 L 8.515625 0 L 7.085938 0 L 5.945312 -1.789062 C 5.613281 -2.304688 5.339844 -2.695312 5.125 -2.96875 C 4.910156 -3.242188 4.71875 -3.433594 4.550781 -3.546875 C 4.378906 -3.652344 4.207031 -3.730469 4.03125 -3.773438 C 3.902344 -3.800781 3.691406 -3.8125 3.398438 -3.8125 L 2.078125 -3.8125 L 2.078125 0 L 0.945312 0 M 2.078125 -4.796875 L 4.523438 -4.796875 C 5.042969 -4.796875 5.449219 -4.851562 5.742188 -4.960938 C 6.035156 -5.066406 6.257812 -5.238281 6.410156 -5.476562 C 6.5625 -5.710938 6.640625 -5.96875 6.640625 -6.246094 C 6.640625 -6.652344 6.492188 -6.984375 6.195312 -7.25 C 5.902344 -7.507812 5.433594 -7.640625 4.796875 -7.640625 L 2.078125 -7.640625 Z M 2.078125 -4.796875 "/>
</g>
<g id="glyph-0-6">
<path d="M 0.742188 2.398438 L 0.625 1.40625 C 0.855469 1.46875 1.058594 1.5 1.230469 1.5 C 1.464844 1.5 1.652344 1.460938 1.792969 1.382812 C 1.933594 1.304688 2.046875 1.195312 2.140625 1.054688 C 2.203125 0.949219 2.3125 0.6875 2.460938 0.269531 C 2.480469 0.210938 2.511719 0.125 2.554688 0.0117188 L 0.195312 -6.222656 L 1.328125 -6.222656 L 2.625 -2.617188 C 2.792969 -2.164062 2.941406 -1.679688 3.078125 -1.179688 C 3.195312 -1.660156 3.339844 -2.132812 3.507812 -2.59375 L 4.839844 -6.222656 L 5.894531 -6.222656 L 3.527344 0.105469 C 3.273438 0.789062 3.078125 1.257812 2.9375 1.515625 C 2.746094 1.863281 2.53125 2.121094 2.289062 2.28125 C 2.046875 2.445312 1.757812 2.523438 1.421875 2.523438 C 1.21875 2.523438 0.992188 2.480469 0.742188 2.398438 Z M 0.742188 2.398438 "/>
</g>
<g id="glyph-0-7">
<path d="M 0.382812 -2.578125 L 0.382812 -3.640625 L 3.621094 -3.640625 L 3.621094 -2.578125 Z M 0.382812 -2.578125 "/>
</g>
<g id="glyph-0-8">
<path d="M 1.042969 0 L 1.042969 -5.402344 L 0.109375 -5.402344 L 0.109375 -6.222656 L 1.042969 -6.222656 L 1.042969 -6.882812 C 1.042969 -7.300781 1.078125 -7.613281 1.15625 -7.816406 C 1.253906 -8.089844 1.433594 -8.3125 1.691406 -8.480469 C 1.945312 -8.652344 2.304688 -8.734375 2.765625 -8.734375 C 3.0625 -8.734375 3.390625 -8.703125 3.75 -8.632812 L 3.59375 -7.710938 C 3.371094 -7.75 3.164062 -7.769531 2.96875 -7.769531 C 2.648438 -7.769531 2.421875 -7.699219 2.289062 -7.5625 C 2.15625 -7.425781 2.09375 -7.171875 2.09375 -6.796875 L 2.09375 -6.222656 L 3.304688 -6.222656 L 3.304688 -5.402344 L 2.09375 -5.402344 L 2.09375 0 Z M 1.042969 0 "/>
</g>
<g id="glyph-0-9">
<path d="M 0.796875 -7.375 L 0.796875 -8.589844 L 1.851562 -8.589844 L 1.851562 -7.375 L 0.796875 -7.375 M 0.796875 0 L 0.796875 -6.222656 L 1.851562 -6.222656 L 1.851562 0 Z M 0.796875 0 "/>
</g>
<g id="glyph-0-10">
<path d="M 0.789062 0 L 0.789062 -6.222656 L 1.742188 -6.222656 L 1.742188 -5.335938 C 2.195312 -6.019531 2.855469 -6.363281 3.71875 -6.363281 C 4.09375 -6.363281 4.441406 -6.296875 4.753906 -6.160156 C 5.070312 -6.027344 5.304688 -5.847656 5.460938 -5.632812 C 5.617188 -5.410156 5.726562 -5.152344 5.789062 -4.851562 C 5.828125 -4.65625 5.847656 -4.3125 5.847656 -3.828125 L 5.847656 0 L 4.792969 0 L 4.792969 -3.785156 C 4.792969 -4.214844 4.75 -4.535156 4.671875 -4.75 C 4.585938 -4.960938 4.441406 -5.132812 4.234375 -5.257812 C 4.023438 -5.386719 3.78125 -5.449219 3.5 -5.449219 C 3.046875 -5.449219 2.660156 -5.304688 2.335938 -5.023438 C 2.007812 -4.734375 1.84375 -4.195312 1.84375 -3.398438 L 1.84375 0 Z M 0.789062 0 "/>
</g>
<g id="glyph-0-11">
<path d="M 5.050781 -2.003906 L 6.140625 -1.867188 C 5.96875 -1.230469 5.648438 -0.738281 5.1875 -0.386719 C 4.71875 -0.0351562 4.125 0.140625 3.40625 0.140625 C 2.492188 0.140625 1.773438 -0.140625 1.238281 -0.699219 C 0.707031 -1.261719 0.4375 -2.046875 0.4375 -3.058594 C 0.4375 -4.105469 0.710938 -4.917969 1.25 -5.496094 C 1.789062 -6.074219 2.484375 -6.363281 3.34375 -6.363281 C 4.179688 -6.363281 4.859375 -6.078125 5.382812 -5.515625 C 5.914062 -4.945312 6.175781 -4.148438 6.175781 -3.125 C 6.175781 -3.058594 6.171875 -2.964844 6.171875 -2.84375 L 1.53125 -2.84375 C 1.566406 -2.15625 1.761719 -1.632812 2.109375 -1.273438 C 2.457031 -0.90625 2.890625 -0.726562 3.410156 -0.726562 C 3.796875 -0.726562 4.125 -0.828125 4.398438 -1.03125 C 4.671875 -1.234375 4.890625 -1.558594 5.050781 -2.003906 M 1.585938 -3.710938 L 5.0625 -3.710938 C 5.015625 -4.230469 4.882812 -4.625 4.664062 -4.886719 C 4.328125 -5.292969 3.890625 -5.496094 3.359375 -5.496094 C 2.871094 -5.496094 2.464844 -5.332031 2.136719 -5.007812 C 1.804688 -4.683594 1.625 -4.25 1.585938 -3.710938 Z M 1.585938 -3.710938 "/>
</g>
<g id="glyph-0-12">
<path d="M 4.828125 0 L 4.828125 -0.785156 C 4.433594 -0.167969 3.851562 0.140625 3.085938 0.140625 C 2.589844 0.140625 2.136719 0.00390625 1.71875 -0.269531 C 1.304688 -0.542969 0.980469 -0.925781 0.753906 -1.414062 C 0.523438 -1.90625 0.410156 -2.46875 0.410156 -3.105469 C 0.410156 -3.726562 0.511719 -4.289062 0.71875 -4.796875 C 0.925781 -5.300781 1.238281 -5.6875 1.652344 -5.960938 C 2.066406 -6.226562 2.527344 -6.363281 3.039062 -6.363281 C 3.414062 -6.363281 3.75 -6.285156 4.042969 -6.125 C 4.335938 -5.96875 4.574219 -5.761719 4.757812 -5.507812 L 4.757812 -8.589844 L 5.804688 -8.589844 L 5.804688 0 L 4.828125 0 M 1.492188 -3.105469 C 1.492188 -2.308594 1.660156 -1.710938 2 -1.320312 C 2.332031 -0.921875 2.730469 -0.726562 3.1875 -0.726562 C 3.648438 -0.726562 4.039062 -0.914062 4.363281 -1.292969 C 4.683594 -1.667969 4.84375 -2.242188 4.84375 -3.015625 C 4.84375 -3.867188 4.679688 -4.492188 4.351562 -4.890625 C 4.023438 -5.289062 3.621094 -5.492188 3.140625 -5.492188 C 2.671875 -5.492188 2.28125 -5.296875 1.964844 -4.914062 C 1.652344 -4.53125 1.492188 -3.929688 1.492188 -3.105469 Z M 1.492188 -3.105469 "/>
</g>
<g id="glyph-0-13">
</g>
<g id="glyph-0-14">
<path d="M 0.789062 0 L 0.789062 -8.589844 L 1.84375 -8.589844 L 1.84375 -5.507812 C 2.335938 -6.078125 2.957031 -6.363281 3.710938 -6.363281 C 4.167969 -6.363281 4.570312 -6.273438 4.910156 -6.089844 C 5.25 -5.910156 5.492188 -5.65625 5.640625 -5.335938 C 5.785156 -5.015625 5.859375 -4.554688 5.859375 -3.945312 L 5.859375 0 L 4.804688 0 L 4.804688 -3.945312 C 4.804688 -4.46875 4.691406 -4.855469 4.460938 -5.09375 C 4.234375 -5.335938 3.910156 -5.453125 3.492188 -5.453125 C 3.179688 -5.453125 2.886719 -5.375 2.609375 -5.210938 C 2.335938 -5.050781 2.140625 -4.828125 2.023438 -4.554688 C 1.90625 -4.273438 1.84375 -3.890625 1.84375 -3.40625 L 1.84375 0 Z M 0.789062 0 "/>
</g>
<g id="glyph-0-15">
<path d="M 0.789062 2.382812 L 0.789062 -6.222656 L 1.75 -6.222656 L 1.75 -5.414062 C 1.976562 -5.730469 2.234375 -5.96875 2.519531 -6.125 C 2.804688 -6.285156 3.148438 -6.363281 3.554688 -6.363281 C 4.085938 -6.363281 4.554688 -6.226562 4.960938 -5.953125 C 5.367188 -5.679688 5.675781 -5.292969 5.882812 -4.796875 C 6.089844 -4.296875 6.195312 -3.75 6.195312 -3.15625 C 6.195312 -2.519531 6.078125 -1.949219 5.851562 -1.4375 C 5.621094 -0.929688 5.289062 -0.539062 4.855469 -0.265625 C 4.417969 0.00390625 3.960938 0.140625 3.480469 0.140625 C 3.128906 0.140625 2.8125 0.0664062 2.535156 -0.0820312 C 2.253906 -0.230469 2.023438 -0.417969 1.84375 -0.644531 L 1.84375 2.382812 L 0.789062 2.382812 M 1.746094 -3.078125 C 1.746094 -2.273438 1.90625 -1.683594 2.234375 -1.300781 C 2.554688 -0.917969 2.949219 -0.726562 3.410156 -0.726562 C 3.878906 -0.726562 4.28125 -0.925781 4.613281 -1.320312 C 4.949219 -1.71875 5.113281 -2.332031 5.117188 -3.164062 C 5.113281 -3.957031 4.953125 -4.550781 4.625 -4.945312 C 4.300781 -5.339844 3.910156 -5.535156 3.457031 -5.539062 C 3.007812 -5.535156 2.609375 -5.328125 2.265625 -4.90625 C 1.917969 -4.488281 1.746094 -3.875 1.746094 -3.078125 Z M 1.746094 -3.078125 "/>
</g>
<g id="glyph-0-16">
<path d="M 3.09375 -0.945312 L 3.246094 -0.0117188 C 2.949219 0.0507812 2.683594 0.0820312 2.449219 0.0820312 C 2.066406 0.0820312 1.769531 0.0195312 1.558594 -0.101562 C 1.347656 -0.21875 1.199219 -0.378906 1.113281 -0.578125 C 1.027344 -0.773438 0.984375 -1.1875 0.984375 -1.820312 L 0.984375 -5.402344 L 0.210938 -5.402344 L 0.210938 -6.222656 L 0.984375 -6.222656 L 0.984375 -7.765625 L 2.03125 -8.398438 L 2.03125 -6.222656 L 3.09375 -6.222656 L 3.09375 -5.402344 L 2.03125 -5.402344 L 2.03125 -1.765625 C 2.03125 -1.460938 2.050781 -1.269531 2.089844 -1.183594 C 2.125 -1.097656 2.1875 -1.027344 2.269531 -0.976562 C 2.355469 -0.925781 2.472656 -0.902344 2.632812 -0.902344 C 2.75 -0.902344 2.902344 -0.914062 3.09375 -0.945312 Z M 3.09375 -0.945312 "/>
</g>
<g id="glyph-0-17">
<path d="M 6.339844 -5.050781 L 0.667969 -5.050781 L 0.667969 -6.035156 L 6.339844 -6.035156 L 6.339844 -5.050781 M 6.339844 -2.445312 L 0.667969 -2.445312 L 0.667969 -3.429688 L 6.339844 -3.429688 Z M 6.339844 -2.445312 "/>
</g>
<g id="glyph-0-18">
<path d="M 0.5 -2.25 L 1.605469 -2.34375 C 1.6875 -1.804688 1.878906 -1.398438 2.175781 -1.128906 C 2.476562 -0.855469 2.835938 -0.71875 3.257812 -0.71875 C 3.765625 -0.71875 4.195312 -0.910156 4.546875 -1.296875 C 4.898438 -1.675781 5.074219 -2.1875 5.074219 -2.820312 C 5.074219 -3.417969 4.90625 -3.894531 4.566406 -4.242188 C 4.230469 -4.589844 3.785156 -4.761719 3.242188 -4.765625 C 2.898438 -4.761719 2.59375 -4.6875 2.320312 -4.53125 C 2.046875 -4.378906 1.832031 -4.179688 1.675781 -3.929688 L 0.6875 -4.0625 L 1.515625 -8.472656 L 5.789062 -8.472656 L 5.789062 -7.464844 L 2.359375 -7.464844 L 1.898438 -5.15625 C 2.414062 -5.515625 2.953125 -5.695312 3.523438 -5.695312 C 4.273438 -5.695312 4.90625 -5.433594 5.421875 -4.914062 C 5.9375 -4.394531 6.195312 -3.726562 6.195312 -2.914062 C 6.195312 -2.132812 5.964844 -1.460938 5.515625 -0.898438 C 4.960938 -0.203125 4.210938 0.148438 3.257812 0.148438 C 2.476562 0.148438 1.839844 -0.0742188 1.34375 -0.507812 C 0.851562 -0.945312 0.570312 -1.527344 0.5 -2.25 Z M 0.5 -2.25 "/>
</g>
<g id="glyph-0-19">
<path d="M 0.5 -4.234375 C 0.5 -5.25 0.601562 -6.070312 0.8125 -6.6875 C 1.019531 -7.308594 1.332031 -7.785156 1.742188 -8.121094 C 2.15625 -8.457031 2.671875 -8.625 3.296875 -8.625 C 3.757812 -8.625 4.164062 -8.53125 4.511719 -8.347656 C 4.859375 -8.160156 5.144531 -7.894531 5.375 -7.542969 C 5.597656 -7.195312 5.777344 -6.769531 5.90625 -6.265625 C 6.035156 -5.765625 6.101562 -5.085938 6.101562 -4.234375 C 6.101562 -3.226562 5.996094 -2.414062 5.789062 -1.796875 C 5.582031 -1.175781 5.273438 -0.699219 4.859375 -0.359375 C 4.449219 -0.0234375 3.925781 0.148438 3.296875 0.148438 C 2.46875 0.148438 1.820312 -0.152344 1.347656 -0.742188 C 0.78125 -1.460938 0.5 -2.621094 0.5 -4.234375 M 1.582031 -4.234375 C 1.582031 -2.824219 1.746094 -1.886719 2.078125 -1.421875 C 2.40625 -0.953125 2.8125 -0.71875 3.296875 -0.71875 C 3.78125 -0.71875 4.191406 -0.953125 4.519531 -1.421875 C 4.851562 -1.890625 5.015625 -2.828125 5.015625 -4.234375 C 5.015625 -5.648438 4.851562 -6.589844 4.519531 -7.054688 C 4.191406 -7.519531 3.78125 -7.75 3.289062 -7.75 C 2.800781 -7.75 2.414062 -7.546875 2.125 -7.136719 C 1.765625 -6.613281 1.582031 -5.644531 1.582031 -4.234375 Z M 1.582031 -4.234375 "/>
</g>
<g id="glyph-0-20">
<path d="M 3.878906 0 L 3.878906 -2.054688 L 0.152344 -2.054688 L 0.152344 -3.023438 L 4.070312 -8.589844 L 4.933594 -8.589844 L 4.933594 -3.023438 L 6.09375 -3.023438 L 6.09375 -2.054688 L 4.933594 -2.054688 L 4.933594 0 L 3.878906 0 M 3.878906 -3.023438 L 3.878906 -6.898438 L 1.1875 -3.023438 Z M 3.878906 -3.023438 "/>
</g>
<g id="glyph-0-21">
<path d="M 6.039062 -1.015625 L 6.039062 0 L 0.363281 0 C 0.355469 -0.253906 0.394531 -0.5 0.484375 -0.734375 C 0.628906 -1.117188 0.863281 -1.5 1.179688 -1.875 C 1.5 -2.25 1.957031 -2.683594 2.5625 -3.175781 C 3.492188 -3.941406 4.125 -4.546875 4.453125 -4.996094 C 4.78125 -5.441406 4.945312 -5.867188 4.945312 -6.265625 C 4.945312 -6.679688 4.796875 -7.035156 4.496094 -7.320312 C 4.199219 -7.609375 3.808594 -7.75 3.328125 -7.75 C 2.820312 -7.75 2.414062 -7.601562 2.109375 -7.296875 C 1.804688 -6.992188 1.648438 -6.570312 1.648438 -6.03125 L 0.5625 -6.140625 C 0.636719 -6.949219 0.917969 -7.566406 1.398438 -7.988281 C 1.882812 -8.414062 2.535156 -8.625 3.351562 -8.625 C 4.175781 -8.625 4.828125 -8.398438 5.308594 -7.9375 C 5.789062 -7.484375 6.03125 -6.914062 6.03125 -6.242188 C 6.03125 -5.894531 5.957031 -5.558594 5.820312 -5.226562 C 5.675781 -4.894531 5.445312 -4.542969 5.117188 -4.179688 C 4.792969 -3.808594 4.25 -3.304688 3.492188 -2.664062 C 2.859375 -2.132812 2.453125 -1.773438 2.273438 -1.585938 C 2.09375 -1.394531 1.945312 -1.203125 1.828125 -1.015625 Z M 6.039062 -1.015625 "/>
</g>
<g id="glyph-1-0">
<path d="M -2.578125 -0.382812 L -3.640625 -0.382812 L -3.640625 -3.621094 L -2.578125 -3.621094 Z M -2.578125 -0.382812 "/>
</g>
<g id="glyph-1-1">
<path d="M -4.234375 -0.5 C -5.25 -0.5 -6.070312 -0.601562 -6.6875 -0.8125 C -7.308594 -1.019531 -7.785156 -1.332031 -8.121094 -1.742188 C -8.457031 -2.15625 -8.625 -2.671875 -8.625 -3.300781 C -8.625 -3.757812 -8.53125 -4.164062 -8.347656 -4.511719 C -8.160156 -4.859375 -7.894531 -5.144531 -7.542969 -5.375 C -7.195312 -5.597656 -6.769531 -5.777344 -6.265625 -5.90625 C -5.765625 -6.035156 -5.085938 -6.101562 -4.234375 -6.101562 C -3.226562 -6.101562 -2.414062 -5.996094 -1.796875 -5.789062 C -1.175781 -5.582031 -0.699219 -5.273438 -0.359375 -4.859375 C -0.0234375 -4.449219 0.148438 -3.925781 0.148438 -3.296875 C 0.148438 -2.46875 -0.152344 -1.820312 -0.742188 -1.347656 C -1.460938 -0.78125 -2.621094 -0.5 -4.234375 -0.5 M -4.234375 -1.582031 C -2.824219 -1.582031 -1.886719 -1.746094 -1.421875 -2.078125 C -0.953125 -2.40625 -0.71875 -2.8125 -0.71875 -3.296875 C -0.71875 -3.78125 -0.953125 -4.191406 -1.421875 -4.519531 C -1.890625 -4.851562 -2.828125 -5.015625 -4.234375 -5.015625 C -5.648438 -5.015625 -6.589844 -4.851562 -7.054688 -4.519531 C -7.519531 -4.191406 -7.75 -3.78125 -7.75 -3.289062 C -7.75 -2.800781 -7.546875 -2.414062 -7.136719 -2.128906 C -6.613281 -1.765625 -5.644531 -1.582031 -4.234375 -1.582031 Z M -4.234375 -1.582031 "/>
</g>
<g id="glyph-1-2">
<path d="M 0 -1.089844 L -1.203125 -1.089844 L -1.199219 -2.289062 L 0 -2.289062 Z M 0 -1.089844 "/>
</g>
<g id="glyph-1-3">
<path d="M -1.011719 -6.039062 L 0 -6.039062 L 0 -0.363281 C -0.253906 -0.355469 -0.5 -0.394531 -0.734375 -0.488281 C -1.117188 -0.628906 -1.5 -0.863281 -1.875 -1.179688 C -2.25 -1.5 -2.683594 -1.957031 -3.175781 -2.5625 C -3.941406 -3.492188 -4.546875 -4.125 -4.996094 -4.453125 C -5.441406 -4.78125 -5.867188 -4.945312 -6.265625 -4.945312 C -6.679688 -4.945312 -7.035156 -4.796875 -7.320312 -4.496094 C -7.609375 -4.199219 -7.75 -3.808594 -7.75 -3.328125 C -7.75 -2.820312 -7.601562 -2.414062 -7.296875 -2.109375 C -6.992188 -1.804688 -6.570312 -1.648438 -6.03125 -1.648438 L -6.140625 -0.5625 C -6.949219 -0.636719 -7.566406 -0.917969 -7.988281 -1.402344 C -8.414062 -1.882812 -8.625 -2.535156 -8.625 -3.351562 C -8.625 -4.175781 -8.398438 -4.828125 -7.9375 -5.308594 C -7.484375 -5.789062 -6.914062 -6.03125 -6.242188 -6.03125 C -5.894531 -6.03125 -5.558594 -5.957031 -5.226562 -5.820312 C -4.894531 -5.675781 -4.542969 -5.445312 -4.179688 -5.117188 C -3.808594 -4.792969 -3.304688 -4.25 -2.664062 -3.492188 C -2.132812 -2.859375 -1.773438 -2.453125 -1.585938 -2.273438 C -1.394531 -2.09375 -1.203125 -1.945312 -1.011719 -1.828125 Z M -1.011719 -6.039062 "/>
</g>
<g id="glyph-1-4">
<path d="M -2.25 -0.5 L -2.34375 -1.605469 C -1.804688 -1.6875 -1.398438 -1.878906 -1.128906 -2.175781 C -0.855469 -2.476562 -0.71875 -2.835938 -0.71875 -3.257812 C -0.71875 -3.765625 -0.910156 -4.195312 -1.292969 -4.546875 C -1.675781 -4.898438 -2.183594 -5.074219 -2.816406 -5.074219 C -3.417969 -5.074219 -3.894531 -4.90625 -4.242188 -4.566406 C -4.589844 -4.230469 -4.761719 -3.785156 -4.765625 -3.242188 C -4.761719 -2.902344 -4.6875 -2.59375 -4.53125 -2.320312 C -4.378906 -2.046875 -4.179688 -1.832031 -3.929688 -1.675781 L -4.0625 -0.6875 L -8.472656 -1.519531 L -8.472656 -5.789062 L -7.464844 -5.789062 L -7.464844 -2.363281 L -5.15625 -1.898438 C -5.515625 -2.414062 -5.695312 -2.953125 -5.695312 -3.523438 C -5.695312 -4.273438 -5.433594 -4.90625 -4.914062 -5.421875 C -4.394531 -5.9375 -3.726562 -6.195312 -2.910156 -6.195312 C -2.132812 -6.195312 -1.460938 -5.964844 -0.894531 -5.515625 C -0.203125 -4.960938 0.148438 -4.210938 0.148438 -3.257812 C 0.148438 -2.476562 -0.0742188 -1.839844 -0.507812 -1.34375 C -0.945312 -0.851562 -1.527344 -0.570312 -2.25 -0.5 Z M -2.25 -0.5 "/>
</g>
<g id="glyph-1-5">
<path d="M 0 -4.46875 L 0 -3.414062 L -6.71875 -3.417969 C -6.476562 -3.160156 -6.234375 -2.828125 -5.992188 -2.417969 C -5.75 -2.003906 -5.570312 -1.636719 -5.449219 -1.308594 L -6.46875 -1.308594 C -6.746094 -1.894531 -7.082031 -2.410156 -7.476562 -2.855469 C -7.871094 -3.292969 -8.253906 -3.605469 -8.625 -3.792969 L -8.625 -4.472656 Z M 0 -4.46875 "/>
</g>
<g id="glyph-1-6">
<path d="M 2.523438 -2.804688 C 1.789062 -2.222656 0.929688 -1.730469 -0.0507812 -1.328125 C -1.035156 -0.929688 -2.054688 -0.726562 -3.109375 -0.726562 C -4.039062 -0.726562 -4.929688 -0.875 -5.78125 -1.179688 C -6.769531 -1.53125 -7.753906 -2.070312 -8.734375 -2.808594 L -8.734375 -3.5625 C -7.921875 -3.089844 -7.34375 -2.777344 -6.996094 -2.625 C -6.457031 -2.386719 -5.894531 -2.199219 -5.308594 -2.0625 C -4.578125 -1.894531 -3.84375 -1.8125 -3.105469 -1.8125 C -1.226562 -1.8125 0.652344 -2.394531 2.523438 -3.5625 Z M 2.523438 -2.804688 "/>
</g>
<g id="glyph-1-7">
<path d="M -3.367188 -4.945312 L -4.375 -4.945312 L -4.382812 -8.585938 L -1.195312 -8.585938 C -0.75 -8.023438 -0.414062 -7.449219 -0.191406 -6.855469 C 0.0351562 -6.261719 0.148438 -5.652344 0.148438 -5.027344 C 0.148438 -4.183594 -0.0351562 -3.417969 -0.394531 -2.726562 C -0.757812 -2.039062 -1.277344 -1.515625 -1.960938 -1.167969 C -2.644531 -0.816406 -3.410156 -0.640625 -4.253906 -0.640625 C -5.089844 -0.640625 -5.871094 -0.8125 -6.59375 -1.164062 C -7.320312 -1.511719 -7.859375 -2.015625 -8.210938 -2.671875 C -8.5625 -3.328125 -8.734375 -4.085938 -8.734375 -4.941406 C -8.734375 -5.558594 -8.636719 -6.121094 -8.433594 -6.625 C -8.234375 -7.125 -7.953125 -7.519531 -7.59375 -7.804688 C -7.234375 -8.089844 -6.765625 -8.304688 -6.1875 -8.453125 L -5.90625 -7.429688 C -6.34375 -7.300781 -6.6875 -7.140625 -6.9375 -6.949219 C -7.1875 -6.757812 -7.386719 -6.484375 -7.539062 -6.128906 C -7.6875 -5.773438 -7.765625 -5.378906 -7.765625 -4.945312 C -7.765625 -4.425781 -7.683594 -3.976562 -7.527344 -3.597656 C -7.367188 -3.21875 -7.160156 -2.914062 -6.902344 -2.679688 C -6.644531 -2.449219 -6.359375 -2.269531 -6.054688 -2.140625 C -5.519531 -1.917969 -4.945312 -1.8125 -4.324219 -1.8125 C -3.558594 -1.8125 -2.917969 -1.941406 -2.402344 -2.207031 C -1.886719 -2.46875 -1.503906 -2.851562 -1.253906 -3.359375 C -1.003906 -3.859375 -0.878906 -4.394531 -0.878906 -4.960938 C -0.878906 -5.453125 -0.972656 -5.9375 -1.164062 -6.40625 C -1.351562 -6.875 -1.554688 -7.226562 -1.769531 -7.46875 L -3.367188 -7.46875 Z M -3.367188 -4.945312 "/>
</g>
<g id="glyph-1-8">
<path d="M -7.375 -0.796875 L -8.589844 -0.796875 L -8.589844 -1.851562 L -7.375 -1.851562 L -7.375 -0.796875 M 0 -0.796875 L -6.222656 -0.796875 L -6.222656 -1.851562 L 0 -1.851562 Z M 0 -0.796875 "/>
</g>
<g id="glyph-1-9">
<path d="M 0 -0.789062 L -6.222656 -0.792969 L -6.222656 -1.742188 L -5.335938 -1.742188 C -6.019531 -2.195312 -6.363281 -2.855469 -6.363281 -3.722656 C -6.363281 -4.09375 -6.296875 -4.441406 -6.160156 -4.753906 C -6.027344 -5.070312 -5.847656 -5.304688 -5.632812 -5.460938 C -5.410156 -5.617188 -5.152344 -5.726562 -4.851562 -5.789062 C -4.65625 -5.828125 -4.3125 -5.847656 -3.824219 -5.847656 L 0 -5.847656 L 0 -4.792969 L -3.785156 -4.792969 C -4.214844 -4.792969 -4.535156 -4.75 -4.75 -4.671875 C -4.960938 -4.585938 -5.132812 -4.441406 -5.257812 -4.234375 C -5.386719 -4.023438 -5.449219 -3.78125 -5.449219 -3.5 C -5.449219 -3.046875 -5.304688 -2.660156 -5.023438 -2.335938 C -4.734375 -2.007812 -4.195312 -1.847656 -3.398438 -1.847656 L 0 -1.84375 Z M 0 -0.789062 "/>
</g>
<g id="glyph-1-10">
<path d="M 2.523438 -1.480469 L 2.523438 -0.726562 C 0.652344 -1.894531 -1.226562 -2.476562 -3.105469 -2.476562 C -3.839844 -2.476562 -4.566406 -2.394531 -5.289062 -2.226562 C -5.875 -2.09375 -6.4375 -1.90625 -6.976562 -1.671875 C -7.328125 -1.519531 -7.914062 -1.203125 -8.734375 -0.726562 L -8.734375 -1.484375 C -7.753906 -2.214844 -6.769531 -2.757812 -5.78125 -3.113281 C -4.929688 -3.410156 -4.039062 -3.5625 -3.109375 -3.5625 C -2.054688 -3.5625 -1.035156 -3.359375 -0.0507812 -2.957031 C 0.929688 -2.550781 1.789062 -2.058594 2.523438 -1.480469 Z M 2.523438 -1.480469 "/>
</g>
</g>
</defs>
<rect x="-88.4" y="-30.5" width="1060.8" height="366" fill="rgb(100%, 100%, 100%)" fill-opacity="1"/>
<path fill-rule="nonzero" fill="rgb(85.098039%, 37.254902%, 0.784314%)" fill-opacity="1" d="M 217.171875 140.128906 C 217.171875 144.449219 210.691406 144.449219 210.691406 140.128906 C 210.691406 135.808594 217.171875 135.808594 217.171875 140.128906 "/>
<path fill-rule="nonzero" fill="rgb(85.098039%, 37.254902%, 0.784314%)" fill-opacity="1" d="M 198.273438 174.566406 C 198.273438 178.886719 191.792969 178.886719 191.792969 174.566406 C 191.792969 170.246094 198.273438 170.246094 198.273438 174.566406 "/>
<path fill-rule="nonzero" fill="rgb(85.098039%, 37.254902%, 0.784314%)" fill-opacity="1" d="M 207.699219 176.738281 C 207.699219 181.058594 201.21875 181.058594 201.21875 176.738281 C 201.21875 172.417969 207.699219 172.417969 207.699219 176.738281 "/>
<path fill-rule="nonzero" fill="rgb(85.098039%, 37.254902%, 0.784314%)" fill-opacity="1" d="M 244.785156 157.050781 C 244.785156 161.371094 238.304688 161.371094 238.304688 157.050781 C 238.304688 152.730469 244.785156 152.730469 244.785156 157.050781 "/>
<path fill-rule="nonzero" fill="rgb(85.098039%, 37.254902%, 0.784314%)" fill-opacity="1" d="M 226 104.382812 C 226 108.703125 219.519531 108.703125 219.519531 104.382812 C 219.519531 100.0625 226 100.0625 226 104.382812 "/>
<path fill-rule="nonzero" fill="rgb(85.098039%, 37.254902%, 0.784314%)" fill-opacity="1" d="M 226 206.574219 C 226 210.894531 219.519531 210.894531 219.519531 206.574219 C 219.519531 202.253906 226 202.253906 226 206.574219 "/>
<path fill-rule="nonzero" fill="rgb(85.098039%, 37.254902%, 0.784314%)" fill-opacity="1" d="M 253.867188 176.132812 C 253.867188 180.453125 247.386719 180.453125 247.386719 176.132812 C 247.386719 171.8125 253.867188 171.8125 253.867188 176.132812 "/>
<path fill-rule="nonzero" fill="rgb(85.098039%, 37.254902%, 0.784314%)" fill-opacity="1" d="M 243.144531 125.644531 C 243.144531 129.964844 236.667969 129.964844 236.667969 125.644531 C 236.667969 121.324219 243.144531 121.324219 243.144531 125.644531 "/>
<path fill-rule="nonzero" fill="rgb(85.098039%, 37.254902%, 0.784314%)" fill-opacity="1" d="M 212.300781 168.195312 C 212.300781 172.515625 205.820312 172.515625 205.820312 168.195312 C 205.820312 163.878906 212.300781 163.878906 212.300781 168.195312 "/>
<path fill-rule="nonzero" fill="rgb(85.098039%, 37.254902%, 0.784314%)" fill-opacity="1" d="M 244.976562 179.941406 C 244.976562 184.261719 238.496094 184.261719 238.496094 179.941406 C 238.496094 175.625 244.976562 175.625 244.976562 179.941406 "/>
<path fill-rule="nonzero" fill="rgb(85.098039%, 37.254902%, 0.784314%)" fill-opacity="1" d="M 235.671875 182.59375 C 235.671875 186.914062 229.195312 186.914062 229.195312 182.59375 C 229.195312 178.273438 235.671875 178.273438 235.671875 182.59375 "/>
<path fill-rule="nonzero" fill="rgb(85.098039%, 37.254902%, 0.784314%)" fill-opacity="1" d="M 226 222.277344 C 226 226.597656 219.519531 226.597656 219.519531 222.277344 C 219.519531 217.957031 226 217.957031 226 222.277344 "/>
<path fill-rule="nonzero" fill="rgb(85.098039%, 37.254902%, 0.784314%)" fill-opacity="1" d="M 216.539062 180.664062 C 216.539062 184.984375 210.058594 184.984375 210.058594 180.664062 C 210.058594 176.34375 216.539062 176.34375 216.539062 180.664062 "/>
<path fill-rule="nonzero" fill="rgb(85.098039%, 37.254902%, 0.784314%)" fill-opacity="1" d="M 206.957031 116.632812 C 206.957031 120.953125 200.476562 120.953125 200.476562 116.632812 C 200.476562 112.3125 206.957031 112.3125 206.957031 116.632812 "/>
<path fill-rule="nonzero" fill="rgb(85.098039%, 37.254902%, 0.784314%)" fill-opacity="1" d="M 233.765625 128.003906 C 233.765625 132.324219 227.285156 132.324219 227.285156 128.003906 C 227.285156 123.683594 233.765625 123.683594 233.765625 128.003906 "/>
<path fill-rule="nonzero" fill="rgb(85.098039%, 37.254902%, 0.784314%)" fill-opacity="1" d="M 198.601562 156.558594 C 198.601562 160.878906 192.121094 160.878906 192.121094 156.558594 C 192.121094 152.238281 198.601562 152.238281 198.601562 156.558594 "/>
<path fill-rule="nonzero" fill="rgb(85.098039%, 37.254902%, 0.784314%)" fill-opacity="1" d="M 239.351562 169.945312 C 239.351562 174.265625 232.871094 174.265625 232.871094 169.945312 C 232.871094 165.625 239.351562 165.625 239.351562 169.945312 "/>
<path fill-rule="nonzero" fill="rgb(85.098039%, 37.254902%, 0.784314%)" fill-opacity="1" d="M 209.21875 126.59375 C 209.21875 130.914062 202.738281 130.914062 202.738281 126.59375 C 202.738281 122.273438 209.21875 122.273438 209.21875 126.59375 "/>
<path fill-rule="nonzero" fill="rgb(85.098039%, 37.254902%, 0.784314%)" fill-opacity="1" d="M 231.105469 198.367188 C 231.105469 202.683594 224.625 202.683594 224.625 198.367188 C 224.625 194.046875 231.105469 194.046875 231.105469 198.367188 "/>
<path fill-rule="nonzero" fill="rgb(85.098039%, 37.254902%, 0.784314%)" fill-opacity="1" d="M 203.136719 165.09375 C 203.136719 169.414062 196.660156 169.414062 196.660156 165.09375 C 196.660156 160.773438 203.136719 160.773438 203.136719 165.09375 "/>
<path fill-rule="nonzero" fill="rgb(85.098039%, 37.254902%, 0.784314%)" fill-opacity="1" d="M 254.359375 155.6875 C 254.359375 160.007812 247.878906 160.007812 247.878906 155.6875 C 247.878906 151.367188 254.359375 151.367188 254.359375 155.6875 "/>
<path fill-rule="nonzero" fill="rgb(85.098039%, 37.254902%, 0.784314%)" fill-opacity="1" d="M 208.148438 154.105469 C 208.148438 158.425781 201.667969 158.425781 201.667969 154.105469 C 201.667969 149.785156 208.148438 149.785156 208.148438 154.105469 "/>
<path fill-rule="nonzero" fill="rgb(85.098039%, 37.254902%, 0.784314%)" fill-opacity="1" d="M 248.386719 166.496094 C 248.386719 170.816406 241.910156 170.816406 241.910156 166.496094 C 241.910156 162.175781 248.386719 162.175781 248.386719 166.496094 "/>
<path fill-rule="nonzero" fill="rgb(85.098039%, 37.254902%, 0.784314%)" fill-opacity="1" d="M 253.050781 134.753906 C 253.050781 139.074219 246.570312 139.074219 246.570312 134.753906 C 246.570312 130.433594 253.050781 130.433594 253.050781 134.753906 "/>
<path fill-rule="nonzero" fill="rgb(85.098039%, 37.254902%, 0.784314%)" fill-opacity="1" d="M 226 58.679688 C 226 63 219.519531 63 219.519531 58.679688 C 219.519531 54.359375 226 54.359375 226 58.679688 "/>
<path fill-rule="nonzero" fill="rgb(85.098039%, 37.254902%, 0.784314%)" fill-opacity="1" d="M 230.675781 174.222656 C 230.675781 178.542969 224.195312 178.542969 224.195312 174.222656 C 224.195312 169.902344 230.675781 169.902344 230.675781 174.222656 "/>
<path fill-rule="nonzero" fill="rgb(85.098039%, 37.254902%, 0.784314%)" fill-opacity="1" d="M 216.570312 117.703125 C 216.570312 122.023438 210.089844 122.023438 210.089844 117.703125 C 210.089844 113.382812 216.570312 113.382812 216.570312 117.703125 "/>
<path fill-rule="nonzero" fill="rgb(85.098039%, 37.254902%, 0.784314%)" fill-opacity="1" d="M 226 82.230469 C 226 86.550781 219.519531 86.550781 219.519531 82.230469 C 219.519531 77.910156 226 77.910156 226 82.230469 "/>
<path fill-rule="nonzero" fill="rgb(85.098039%, 37.254902%, 0.784314%)" fill-opacity="1" d="M 250.019531 118.84375 C 250.019531 123.164062 243.539062 123.164062 243.539062 118.84375 C 243.539062 114.523438 250.019531 114.523438 250.019531 118.84375 "/>
<path fill-rule="nonzero" fill="rgb(85.098039%, 37.254902%, 0.784314%)" fill-opacity="1" d="M 226 119.855469 C 226 124.175781 219.519531 124.175781 219.519531 119.855469 C 219.519531 115.535156 226 115.535156 226 119.855469 "/>
<path fill-rule="nonzero" fill="rgb(85.098039%, 37.254902%, 0.784314%)" fill-opacity="1" d="M 235.839844 118.566406 C 235.839844 122.886719 229.359375 122.886719 229.359375 118.566406 C 229.359375 114.246094 235.839844 114.246094 235.839844 118.566406 "/>
<path fill-rule="nonzero" fill="rgb(85.098039%, 37.254902%, 0.784314%)" fill-opacity="1" d="M 234.527344 99.820312 C 234.527344 104.140625 228.046875 104.140625 228.046875 99.820312 C 228.046875 95.5 234.527344 95.5 234.527344 99.820312 "/>
<path fill-rule="nonzero" fill="rgb(85.098039%, 37.254902%, 0.784314%)" fill-opacity="1" d="M 199.742188 124.664062 C 199.742188 128.984375 193.261719 128.984375 193.261719 124.664062 C 193.261719 120.34375 199.742188 120.34375 199.742188 124.664062 "/>
<path fill-rule="nonzero" fill="rgb(85.098039%, 37.254902%, 0.784314%)" fill-opacity="1" d="M 216.835938 158.351562 C 216.835938 162.671875 210.355469 162.671875 210.355469 158.351562 C 210.355469 154.03125 216.835938 154.03125 216.835938 158.351562 "/>
<path fill-rule="nonzero" fill="rgb(85.098039%, 37.254902%, 0.784314%)" fill-opacity="1" d="M 222.273438 194.421875 C 222.273438 198.742188 215.792969 198.742188 215.792969 194.421875 C 215.792969 190.101562 222.273438 190.101562 222.273438 194.421875 "/>
<path fill-rule="nonzero" fill="rgb(85.098039%, 37.254902%, 0.784314%)" fill-opacity="1" d="M 189.007812 155.324219 C 189.007812 159.644531 182.527344 159.644531 182.527344 155.324219 C 182.527344 151.003906 189.007812 151.003906 189.007812 155.324219 "/>
<path fill-rule="nonzero" fill="rgb(85.098039%, 37.254902%, 0.784314%)" fill-opacity="1" d="M 235.558594 159.960938 C 235.558594 164.28125 229.078125 164.28125 229.078125 159.960938 C 229.078125 155.640625 235.558594 155.640625 235.558594 159.960938 "/>
<path fill-rule="nonzero" fill="rgb(85.098039%, 37.254902%, 0.784314%)" fill-opacity="1" d="M 235.03125 140.609375 C 235.03125 144.925781 228.550781 144.925781 228.550781 140.609375 C 228.550781 136.289062 235.03125 136.289062 235.03125 140.609375 "/>
<path fill-rule="nonzero" fill="rgb(85.098039%, 37.254902%, 0.784314%)" fill-opacity="1" d="M 208.015625 137.003906 C 208.015625 141.324219 201.535156 141.324219 201.535156 137.003906 C 201.535156 132.683594 208.015625 132.683594 208.015625 137.003906 "/>
<path fill-rule="nonzero" fill="rgb(85.098039%, 37.254902%, 0.784314%)" fill-opacity="1" d="M 263.320312 174.082031 C 263.320312 178.398438 256.839844 178.398438 256.839844 174.082031 C 256.839844 169.761719 263.320312 169.761719 263.320312 174.082031 "/>
<path fill-rule="nonzero" fill="rgb(85.098039%, 37.254902%, 0.784314%)" fill-opacity="1" d="M 226 144.078125 C 226 148.398438 219.519531 148.398438 219.519531 144.078125 C 219.519531 139.757812 226 139.757812 226 144.078125 "/>
<path fill-rule="nonzero" fill="rgb(85.098039%, 37.254902%, 0.784314%)" fill-opacity="1" d="M 226 182.683594 C 226 187.003906 219.519531 187.003906 219.519531 182.683594 C 219.519531 178.363281 226 178.363281 226 182.683594 "/>
<path fill-rule="nonzero" fill="rgb(85.098039%, 37.254902%, 0.784314%)" fill-opacity="1" d="M 226 133.769531 C 226 138.089844 219.519531 138.089844 219.519531 133.769531 C 219.519531 129.449219 226 129.449219 226 133.769531 "/>
<path fill-rule="nonzero" fill="rgb(85.098039%, 37.254902%, 0.784314%)" fill-opacity="1" d="M 239.3125 193.25 C 239.3125 197.570312 232.832031 197.570312 232.832031 193.25 C 232.832031 188.929688 239.3125 188.929688 239.3125 193.25 "/>
<path fill-rule="nonzero" fill="rgb(85.098039%, 37.254902%, 0.784314%)" fill-opacity="1" d="M 226 47.636719 C 226 51.957031 219.519531 51.957031 219.519531 47.636719 C 219.519531 43.316406 226 43.316406 226 47.636719 "/>
<path fill-rule="nonzero" fill="rgb(85.098039%, 37.254902%, 0.784314%)" fill-opacity="1" d="M 226 161.445312 C 226 165.765625 219.519531 165.765625 219.519531 161.445312 C 219.519531 157.128906 226 157.128906 226 161.445312 "/>
<path fill-rule="nonzero" fill="rgb(85.098039%, 37.254902%, 0.784314%)" fill-opacity="1" d="M 257.929688 164.890625 C 257.929688 169.210938 251.449219 169.210938 251.449219 164.890625 C 251.449219 160.574219 257.929688 160.574219 257.929688 164.890625 "/>
<path fill-rule="nonzero" fill="rgb(85.098039%, 37.254902%, 0.784314%)" fill-opacity="1" d="M 218.871094 127.234375 C 218.871094 131.554688 212.390625 131.554688 212.390625 127.234375 C 212.390625 122.914062 218.871094 122.914062 218.871094 127.234375 "/>
<path fill-rule="nonzero" fill="rgb(85.098039%, 37.254902%, 0.784314%)" fill-opacity="1" d="M 221.566406 170.972656 C 221.566406 175.292969 215.085938 175.292969 215.085938 170.972656 C 215.085938 166.652344 221.566406 166.652344 221.566406 170.972656 "/>
<path fill-rule="nonzero" fill="rgb(85.098039%, 37.254902%, 0.784314%)" fill-opacity="1" d="M 243.4375 135.828125 C 243.4375 140.148438 236.957031 140.148438 236.957031 135.828125 C 236.957031 131.507812 243.4375 131.507812 243.4375 135.828125 "/>
<path fill-rule="nonzero" fill="rgb(45.882353%, 43.921569%, 70.196078%)" fill-opacity="1" d="M 439.632812 58.589844 C 439.632812 62.90625 433.15625 62.90625 433.15625 58.589844 C 433.15625 54.269531 439.632812 54.269531 439.632812 58.589844 "/>
<path fill-rule="nonzero" fill="rgb(45.882353%, 43.921569%, 70.196078%)" fill-opacity="1" d="M 447.992188 63.453125 C 447.992188 67.773438 441.511719 67.773438 441.511719 63.453125 C 441.511719 59.132812 447.992188 59.132812 447.992188 63.453125 "/>
<path fill-rule="nonzero" fill="rgb(45.882353%, 43.921569%, 70.196078%)" fill-opacity="1" d="M 451.625 50.308594 C 451.625 54.628906 445.144531 54.628906 445.144531 50.308594 C 445.144531 45.988281 451.625 45.988281 451.625 50.308594 "/>
<path fill-rule="nonzero" fill="rgb(45.882353%, 43.921569%, 70.196078%)" fill-opacity="1" d="M 420.222656 55.636719 C 420.222656 59.957031 413.742188 59.957031 413.742188 55.636719 C 413.742188 51.316406 420.222656 51.316406 420.222656 55.636719 "/>
<path fill-rule="nonzero" fill="rgb(45.882353%, 43.921569%, 70.196078%)" fill-opacity="1" d="M 475.753906 47.488281 C 475.753906 51.808594 469.273438 51.808594 469.273438 47.488281 C 469.273438 43.167969 475.753906 43.167969 475.753906 47.488281 "/>
<path fill-rule="nonzero" fill="rgb(45.882353%, 43.921569%, 70.196078%)" fill-opacity="1" d="M 475.964844 58.105469 C 475.964844 62.425781 469.484375 62.425781 469.484375 58.105469 C 469.484375 53.785156 475.964844 53.785156 475.964844 58.105469 "/>
<path fill-rule="nonzero" fill="rgb(45.882353%, 43.921569%, 70.196078%)" fill-opacity="1" d="M 449.898438 74.960938 C 449.898438 79.28125 443.417969 79.28125 443.417969 74.960938 C 443.417969 70.640625 449.898438 70.640625 449.898438 74.960938 "/>
<path fill-rule="nonzero" fill="rgb(45.882353%, 43.921569%, 70.196078%)" fill-opacity="1" d="M 441.066406 71.015625 C 441.066406 75.335938 434.585938 75.335938 434.585938 71.015625 C 434.585938 66.695312 441.066406 66.695312 441.066406 71.015625 "/>
<path fill-rule="nonzero" fill="rgb(45.882353%, 43.921569%, 70.196078%)" fill-opacity="1" d="M 455.585938 39.523438 C 455.585938 43.84375 449.105469 43.84375 449.105469 39.523438 C 449.105469 35.203125 455.585938 35.203125 455.585938 39.523438 "/>
<path fill-rule="nonzero" fill="rgb(45.882353%, 43.921569%, 70.196078%)" fill-opacity="1" d="M 466.839844 61.3125 C 466.839844 65.632812 460.359375 65.632812 460.359375 61.3125 C 460.359375 56.992188 466.839844 56.992188 466.839844 61.3125 "/>
<path fill-rule="nonzero" fill="rgb(45.882353%, 43.921569%, 70.196078%)" fill-opacity="1" d="M 492.78125 48.554688 C 492.78125 52.875 486.300781 52.875 486.300781 48.554688 C 486.300781 44.234375 492.78125 44.234375 492.78125 48.554688 "/>
<path fill-rule="nonzero" fill="rgb(45.882353%, 43.921569%, 70.196078%)" fill-opacity="1" d="M 457.871094 57.691406 C 457.871094 62.011719 451.390625 62.011719 451.390625 57.691406 C 451.390625 53.371094 457.871094 53.371094 457.871094 57.691406 "/>
<path fill-rule="nonzero" fill="rgb(45.882353%, 43.921569%, 70.196078%)" fill-opacity="1" d="M 493.523438 58.769531 C 493.523438 63.089844 487.042969 63.089844 487.042969 58.769531 C 487.042969 54.449219 493.523438 54.449219 493.523438 58.769531 "/>
<path fill-rule="nonzero" fill="rgb(45.882353%, 43.921569%, 70.196078%)" fill-opacity="1" d="M 385.339844 56.84375 C 385.339844 61.164062 378.859375 61.164062 378.859375 56.84375 C 378.859375 52.523438 385.339844 52.523438 385.339844 56.84375 "/>
<path fill-rule="nonzero" fill="rgb(45.882353%, 43.921569%, 70.196078%)" fill-opacity="1" d="M 466.839844 120.621094 C 466.839844 124.941406 460.359375 124.941406 460.359375 120.621094 C 460.359375 116.304688 466.839844 116.304688 466.839844 120.621094 "/>
<path fill-rule="nonzero" fill="rgb(45.882353%, 43.921569%, 70.196078%)" fill-opacity="1" d="M 432.523438 66.476562 C 432.523438 70.796875 426.042969 70.796875 426.042969 66.476562 C 426.042969 62.160156 432.523438 62.160156 432.523438 66.476562 "/>
<path fill-rule="nonzero" fill="rgb(45.882353%, 43.921569%, 70.196078%)" fill-opacity="1" d="M 530.066406 60.589844 C 530.066406 64.910156 523.585938 64.910156 523.585938 60.589844 C 523.585938 56.269531 530.066406 56.269531 530.066406 60.589844 "/>
<path fill-rule="nonzero" fill="rgb(45.882353%, 43.921569%, 70.196078%)" fill-opacity="1" d="M 512.84375 54.269531 C 512.84375 58.589844 506.363281 58.589844 506.363281 54.269531 C 506.363281 49.949219 512.84375 49.949219 512.84375 54.269531 "/>
<path fill-rule="nonzero" fill="rgb(45.882353%, 43.921569%, 70.196078%)" fill-opacity="1" d="M 539.324219 57.785156 C 539.324219 62.105469 532.84375 62.105469 532.84375 57.785156 C 532.84375 53.464844 539.324219 53.464844 539.324219 57.785156 "/>
<path fill-rule="nonzero" fill="rgb(45.882353%, 43.921569%, 70.196078%)" fill-opacity="1" d="M 492.921875 70.214844 C 492.921875 74.535156 486.441406 74.535156 486.441406 70.214844 C 486.441406 65.894531 492.921875 65.894531 492.921875 70.214844 "/>
<path fill-rule="nonzero" fill="rgb(45.882353%, 43.921569%, 70.196078%)" fill-opacity="1" d="M 466.839844 82.835938 C 466.839844 87.15625 460.359375 87.15625 460.359375 82.835938 C 460.359375 78.515625 466.839844 78.515625 466.839844 82.835938 "/>
<path fill-rule="nonzero" fill="rgb(45.882353%, 43.921569%, 70.196078%)" fill-opacity="1" d="M 467.414062 71.171875 C 467.414062 75.492188 460.933594 75.492188 460.933594 71.171875 C 460.933594 66.851562 467.414062 66.851562 467.414062 71.171875 "/>
<path fill-rule="nonzero" fill="rgb(45.882353%, 43.921569%, 70.196078%)" fill-opacity="1" d="M 459.425781 76.625 C 459.425781 80.945312 452.945312 80.945312 452.945312 76.625 C 452.945312 72.304688 459.425781 72.304688 459.425781 76.625 "/>
<path fill-rule="nonzero" fill="rgb(45.882353%, 43.921569%, 70.196078%)" fill-opacity="1" d="M 475.460938 78.453125 C 475.460938 82.773438 468.980469 82.773438 468.980469 78.453125 C 468.980469 74.132812 475.460938 74.132812 475.460938 78.453125 "/>
<path fill-rule="nonzero" fill="rgb(45.882353%, 43.921569%, 70.196078%)" fill-opacity="1" d="M 511.285156 64.460938 C 511.285156 68.78125 504.808594 68.78125 504.808594 64.460938 C 504.808594 60.140625 511.285156 60.140625 511.285156 64.460938 "/>
<path fill-rule="nonzero" fill="rgb(45.882353%, 43.921569%, 70.196078%)" fill-opacity="1" d="M 476.570312 68.0625 C 476.570312 72.382812 470.09375 72.382812 470.09375 68.0625 C 470.09375 63.742188 476.570312 63.742188 476.570312 68.0625 "/>
<path fill-rule="nonzero" fill="rgb(45.882353%, 43.921569%, 70.196078%)" fill-opacity="1" d="M 413.621094 62.953125 C 413.621094 67.273438 407.140625 67.273438 407.140625 62.953125 C 407.140625 58.632812 413.621094 58.632812 413.621094 62.953125 "/>
<path fill-rule="nonzero" fill="rgb(45.882353%, 43.921569%, 70.196078%)" fill-opacity="1" d="M 503.53125 56.886719 C 503.53125 61.207031 497.050781 61.207031 497.050781 56.886719 C 497.050781 52.566406 503.53125 52.566406 503.53125 56.886719 "/>
<path fill-rule="nonzero" fill="rgb(45.882353%, 43.921569%, 70.196078%)" fill-opacity="1" d="M 429.765625 57.214844 C 429.765625 61.535156 423.285156 61.535156 423.285156 57.214844 C 423.285156 52.894531 429.765625 52.894531 429.765625 57.214844 "/>
<path fill-rule="nonzero" fill="rgb(45.882353%, 43.921569%, 70.196078%)" fill-opacity="1" d="M 520.417969 61.265625 C 520.417969 65.585938 513.9375 65.585938 513.9375 61.265625 C 513.9375 56.945312 520.417969 56.945312 520.417969 61.265625 "/>
<path fill-rule="nonzero" fill="rgb(45.882353%, 43.921569%, 70.196078%)" fill-opacity="1" d="M 422.878906 65.761719 C 422.878906 70.082031 416.398438 70.082031 416.398438 65.761719 C 416.398438 61.445312 422.878906 61.445312 422.878906 65.761719 "/>
<path fill-rule="nonzero" fill="rgb(45.882353%, 43.921569%, 70.196078%)" fill-opacity="1" d="M 501.808594 66.394531 C 501.808594 70.714844 495.328125 70.714844 495.328125 66.394531 C 495.328125 62.074219 501.808594 62.074219 501.808594 66.394531 "/>
<path fill-rule="nonzero" fill="rgb(45.882353%, 43.921569%, 70.196078%)" fill-opacity="1" d="M 484.453125 53.46875 C 484.453125 57.789062 477.972656 57.789062 477.972656 53.46875 C 477.972656 49.148438 484.453125 49.148438 484.453125 53.46875 "/>
<path fill-rule="nonzero" fill="rgb(45.882353%, 43.921569%, 70.196078%)" fill-opacity="1" d="M 413.695312 48.503906 C 413.695312 52.824219 407.214844 52.824219 407.214844 48.503906 C 407.214844 44.183594 413.695312 44.183594 413.695312 48.503906 "/>
<path fill-rule="nonzero" fill="rgb(45.882353%, 43.921569%, 70.196078%)" fill-opacity="1" d="M 484.453125 74.882812 C 484.453125 79.203125 477.972656 79.203125 477.972656 74.882812 C 477.972656 70.5625 484.453125 70.5625 484.453125 74.882812 "/>
<path fill-rule="nonzero" fill="rgb(45.882353%, 43.921569%, 70.196078%)" fill-opacity="1" d="M 394.9375 58.0625 C 394.9375 62.382812 388.457031 62.382812 388.457031 58.0625 C 388.457031 53.742188 394.9375 53.742188 394.9375 58.0625 "/>
<path fill-rule="nonzero" fill="rgb(45.882353%, 43.921569%, 70.196078%)" fill-opacity="1" d="M 456.863281 67.304688 C 456.863281 71.625 450.386719 71.625 450.386719 67.304688 C 450.386719 62.984375 456.863281 62.984375 456.863281 67.304688 "/>
<path fill-rule="nonzero" fill="rgb(45.882353%, 43.921569%, 70.196078%)" fill-opacity="1" d="M 442.058594 48.871094 C 442.058594 53.191406 435.578125 53.191406 435.578125 48.871094 C 435.578125 44.550781 442.058594 44.550781 442.058594 48.871094 "/>
<path fill-rule="nonzero" fill="rgb(45.882353%, 43.921569%, 70.196078%)" fill-opacity="1" d="M 466.839844 188.039062 C 466.839844 192.359375 460.359375 192.359375 460.359375 188.039062 C 460.359375 183.71875 466.839844 183.71875 466.839844 188.039062 "/>
<path fill-rule="nonzero" fill="rgb(45.882353%, 43.921569%, 70.196078%)" fill-opacity="1" d="M 485.214844 63.714844 C 485.214844 68.035156 478.734375 68.035156 478.734375 63.714844 C 478.734375 59.394531 485.214844 59.394531 485.214844 63.714844 "/>
<path fill-rule="nonzero" fill="rgb(45.882353%, 43.921569%, 70.196078%)" fill-opacity="1" d="M 404.140625 61.039062 C 404.140625 65.359375 397.660156 65.359375 397.660156 61.039062 C 397.660156 56.71875 404.140625 56.71875 404.140625 61.039062 "/>
<path fill-rule="nonzero" fill="rgb(45.882353%, 43.921569%, 70.196078%)" fill-opacity="1" d="M 375.707031 55.964844 C 375.707031 60.285156 369.226562 60.285156 369.226562 55.964844 C 369.226562 51.644531 375.707031 51.644531 375.707031 55.964844 "/>
<path fill-rule="nonzero" fill="rgb(45.882353%, 43.921569%, 70.196078%)" fill-opacity="1" d="M 464.996094 41.757812 C 464.996094 46.078125 458.515625 46.078125 458.515625 41.757812 C 458.515625 37.441406 464.996094 37.441406 464.996094 41.757812 "/>
<path fill-rule="nonzero" fill="rgb(45.882353%, 43.921569%, 70.196078%)" fill-opacity="1" d="M 548.925781 56.597656 C 548.925781 60.917969 542.445312 60.917969 542.445312 56.597656 C 542.445312 52.277344 548.925781 52.277344 548.925781 56.597656 "/>
<path fill-rule="nonzero" fill="rgb(45.882353%, 43.921569%, 70.196078%)" fill-opacity="1" d="M 466.839844 51.246094 C 466.839844 55.566406 460.359375 55.566406 460.359375 51.246094 C 460.359375 46.925781 466.839844 46.925781 466.839844 51.246094 "/>
<path fill-rule="nonzero" fill="rgb(10.588235%, 61.960784%, 46.666667%)" fill-opacity="1" d="M 680.78125 169.15625 C 680.78125 173.476562 674.300781 173.476562 674.300781 169.15625 C 674.300781 164.835938 680.78125 164.835938 680.78125 169.15625 "/>
<path fill-rule="nonzero" fill="rgb(10.588235%, 61.960784%, 46.666667%)" fill-opacity="1" d="M 721.425781 183.953125 C 721.425781 188.273438 714.945312 188.273438 714.945312 183.953125 C 714.945312 179.632812 721.425781 179.632812 721.425781 183.953125 "/>
<path fill-rule="nonzero" fill="rgb(10.588235%, 61.960784%, 46.666667%)" fill-opacity="1" d="M 690.394531 170.230469 C 690.394531 174.546875 683.914062 174.546875 683.914062 170.230469 C 683.914062 165.910156 690.394531 165.910156 690.394531 170.230469 "/>
<path fill-rule="nonzero" fill="rgb(10.588235%, 61.960784%, 46.666667%)" fill-opacity="1" d="M 700.058594 170.707031 C 700.058594 175.027344 693.578125 175.027344 693.578125 170.707031 C 693.578125 166.386719 700.058594 166.386719 700.058594 170.707031 "/>
<path fill-rule="nonzero" fill="rgb(10.588235%, 61.960784%, 46.666667%)" fill-opacity="1" d="M 707.679688 176.660156 C 707.679688 180.980469 701.199219 180.980469 701.199219 176.660156 C 701.199219 172.339844 707.679688 172.339844 707.679688 176.660156 "/>
<path fill-rule="nonzero" fill="rgb(10.588235%, 61.960784%, 46.666667%)" fill-opacity="1" d="M 712.242188 186.996094 C 712.242188 191.316406 705.761719 191.316406 705.761719 186.996094 C 705.761719 182.675781 712.242188 182.675781 712.242188 186.996094 "/>
<path fill-rule="nonzero" fill="rgb(10.588235%, 61.960784%, 46.666667%)" fill-opacity="1" d="M 707.679688 195.515625 C 707.679688 199.835938 701.199219 199.835938 701.199219 195.515625 C 701.199219 191.195312 707.679688 191.195312 707.679688 195.515625 "/>
<path fill-rule="nonzero" fill="rgb(10.588235%, 61.960784%, 46.666667%)" fill-opacity="1" d="M 709.890625 132.96875 C 709.890625 137.289062 703.410156 137.289062 703.410156 132.96875 C 703.410156 128.648438 709.890625 128.648438 709.890625 132.96875 "/>
<path fill-rule="nonzero" fill="rgb(10.588235%, 61.960784%, 46.666667%)" fill-opacity="1" d="M 705.125 151.441406 C 705.125 155.761719 698.644531 155.761719 698.644531 151.441406 C 698.644531 147.121094 705.125 147.121094 705.125 151.441406 "/>
<path fill-rule="nonzero" fill="rgb(10.588235%, 61.960784%, 46.666667%)" fill-opacity="1" d="M 702.585938 186.425781 C 702.585938 190.742188 696.105469 190.742188 696.105469 186.425781 C 696.105469 182.105469 702.585938 182.105469 702.585938 186.425781 "/>
<path fill-rule="nonzero" fill="rgb(10.588235%, 61.960784%, 46.666667%)" fill-opacity="1" d="M 707.679688 110.664062 C 707.679688 114.984375 701.199219 114.984375 701.199219 110.664062 C 701.199219 106.34375 707.679688 106.34375 707.679688 110.664062 "/>
<path fill-rule="nonzero" fill="rgb(10.588235%, 61.960784%, 46.666667%)" fill-opacity="1" d="M 712.898438 157.191406 C 712.898438 161.511719 706.421875 161.511719 706.421875 157.191406 C 706.421875 152.871094 712.898438 152.871094 712.898438 157.191406 "/>
<path fill-rule="nonzero" fill="rgb(10.588235%, 61.960784%, 46.666667%)" fill-opacity="1" d="M 725.824219 170.144531 C 725.824219 174.464844 719.34375 174.464844 719.34375 170.144531 C 719.34375 165.824219 725.824219 165.824219 725.824219 170.144531 "/>
<path fill-rule="nonzero" fill="rgb(10.588235%, 61.960784%, 46.666667%)" fill-opacity="1" d="M 699.902344 160.988281 C 699.902344 165.308594 693.421875 165.308594 693.421875 160.988281 C 693.421875 156.667969 699.902344 156.667969 699.902344 160.988281 "/>
<path fill-rule="nonzero" fill="rgb(10.588235%, 61.960784%, 46.666667%)" fill-opacity="1" d="M 717.023438 174.15625 C 717.023438 178.476562 710.542969 178.476562 710.542969 174.15625 C 710.542969 169.835938 717.023438 169.835938 717.023438 174.15625 "/>
<path fill-rule="nonzero" fill="rgb(10.588235%, 61.960784%, 46.666667%)" fill-opacity="1" d="M 708.339844 165.714844 C 708.339844 170.035156 701.859375 170.035156 701.859375 165.714844 C 701.859375 161.394531 708.339844 161.394531 708.339844 165.714844 "/>
<path fill-rule="nonzero" fill="rgb(10.588235%, 61.960784%, 46.666667%)" fill-opacity="1" d="M 718.085938 127.835938 C 718.085938 132.15625 711.605469 132.15625 711.605469 127.835938 C 711.605469 123.515625 718.085938 123.515625 718.085938 127.835938 "/>
<path fill-rule="nonzero" fill="rgb(10.588235%, 61.960784%, 46.666667%)" fill-opacity="1" d="M 700.984375 129.195312 C 700.984375 133.515625 694.503906 133.515625 694.503906 129.195312 C 694.503906 124.875 700.984375 124.875 700.984375 129.195312 "/>
<path fill-rule="nonzero" fill="rgb(10.588235%, 61.960784%, 46.666667%)" fill-opacity="1" d="M 712.113281 144.761719 C 712.113281 149.082031 705.632812 149.082031 705.632812 144.761719 C 705.632812 140.441406 712.113281 140.441406 712.113281 144.761719 "/>
<path fill-rule="nonzero" fill="rgb(10.588235%, 61.960784%, 46.666667%)" fill-opacity="1" d="M 693.242188 123.402344 C 693.242188 127.722656 686.761719 127.722656 686.761719 123.402344 C 686.761719 119.082031 693.242188 119.082031 693.242188 123.402344 "/>
<path fill-rule="nonzero" fill="rgb(10.588235%, 61.960784%, 46.666667%)" fill-opacity="1" d="M 734.167969 165.257812 C 734.167969 169.578125 727.691406 169.578125 727.691406 165.257812 C 727.691406 160.9375 734.167969 160.9375 734.167969 165.257812 "/>
<path fill-rule="nonzero" fill="rgb(10.588235%, 61.960784%, 46.666667%)" fill-opacity="1" d="M 703.550781 140.269531 C 703.550781 144.585938 697.070312 144.585938 697.070312 140.269531 C 697.070312 135.949219 703.550781 135.949219 703.550781 140.269531 "/>
<path fill="none" stroke-width="0.75" stroke-linecap="round" stroke-linejoin="round" stroke="rgb(0%, 0%, 0%)" stroke-opacity="1" stroke-miterlimit="10" d="M 73.441406 231.558594 L 853.761719 231.558594 L 853.761719 30.238281 L 73.441406 30.238281 Z M 73.441406 231.558594 "/>
<path fill="none" stroke-width="0.75" stroke-linecap="round" stroke-linejoin="round" stroke="rgb(0%, 0%, 0%)" stroke-opacity="1" stroke-miterlimit="10" d="M 222.761719 231.558594 L 704.441406 231.558594 "/>
<path fill="none" stroke-width="0.75" stroke-linecap="round" stroke-linejoin="round" stroke="rgb(0%, 0%, 0%)" stroke-opacity="1" stroke-miterlimit="10" d="M 222.761719 231.558594 L 222.761719 238.761719 "/>
<path fill="none" stroke-width="0.75" stroke-linecap="round" stroke-linejoin="round" stroke="rgb(0%, 0%, 0%)" stroke-opacity="1" stroke-miterlimit="10" d="M 463.601562 231.558594 L 463.601562 238.761719 "/>
<path fill="none" stroke-width="0.75" stroke-linecap="round" stroke-linejoin="round" stroke="rgb(0%, 0%, 0%)" stroke-opacity="1" stroke-miterlimit="10" d="M 704.441406 231.558594 L 704.441406 238.761719 "/>
<g fill="rgb(0%, 0%, 0%)" fill-opacity="1">
<use xlink:href="#glyph-0-0" x="196.761719" y="256.039062"/>
<use xlink:href="#glyph-0-1" x="206.757812" y="256.039062"/>
<use xlink:href="#glyph-0-2" x="213.431641" y="256.039062"/>
<use xlink:href="#glyph-0-2" x="223.427734" y="256.039062"/>
<use xlink:href="#glyph-0-1" x="233.423828" y="256.039062"/>
<use xlink:href="#glyph-0-3" x="240.097656" y="256.039062"/>
<use xlink:href="#glyph-0-4" x="242.763672" y="256.039062"/>
</g>
<g fill="rgb(0%, 0%, 0%)" fill-opacity="1">
<use xlink:href="#glyph-0-5" x="423.582031" y="256.039062"/>
<use xlink:href="#glyph-0-1" x="432.248047" y="256.039062"/>
<use xlink:href="#glyph-0-6" x="438.921875" y="256.039062"/>
<use xlink:href="#glyph-0-7" x="444.921875" y="256.039062"/>
<use xlink:href="#glyph-0-8" x="448.917969" y="256.039062"/>
<use xlink:href="#glyph-0-9" x="452.251953" y="256.039062"/>
<use xlink:href="#glyph-0-10" x="454.917969" y="256.039062"/>
<use xlink:href="#glyph-0-10" x="461.591797" y="256.039062"/>
<use xlink:href="#glyph-0-11" x="468.265625" y="256.039062"/>
<use xlink:href="#glyph-0-12" x="474.939453" y="256.039062"/>
<use xlink:href="#glyph-0-13" x="481.613281" y="256.039062"/>
<use xlink:href="#glyph-0-8" x="484.947266" y="256.039062"/>
<use xlink:href="#glyph-0-9" x="488.28125" y="256.039062"/>
<use xlink:href="#glyph-0-4" x="490.947266" y="256.039062"/>
<use xlink:href="#glyph-0-14" x="496.947266" y="256.039062"/>
</g>
<g fill="rgb(0%, 0%, 0%)" fill-opacity="1">
<use xlink:href="#glyph-0-5" x="682.765625" y="256.039062"/>
<use xlink:href="#glyph-0-11" x="691.431641" y="256.039062"/>
<use xlink:href="#glyph-0-15" x="698.105469" y="256.039062"/>
<use xlink:href="#glyph-0-16" x="704.779297" y="256.039062"/>
<use xlink:href="#glyph-0-9" x="708.113281" y="256.039062"/>
<use xlink:href="#glyph-0-3" x="710.779297" y="256.039062"/>
<use xlink:href="#glyph-0-11" x="713.445312" y="256.039062"/>
<use xlink:href="#glyph-0-4" x="720.119141" y="256.039062"/>
</g>
<path fill="none" stroke-width="0.75" stroke-linecap="round" stroke-linejoin="round" stroke="rgb(0%, 0%, 0%)" stroke-opacity="1" stroke-miterlimit="10" d="M 222.761719 231.558594 L 704.441406 231.558594 "/>
<path fill="none" stroke-width="0.75" stroke-linecap="round" stroke-linejoin="round" stroke="rgb(0%, 0%, 0%)" stroke-opacity="1" stroke-miterlimit="10" d="M 222.761719 231.558594 L 222.761719 238.761719 "/>
<path fill="none" stroke-width="0.75" stroke-linecap="round" stroke-linejoin="round" stroke="rgb(0%, 0%, 0%)" stroke-opacity="1" stroke-miterlimit="10" d="M 463.601562 231.558594 L 463.601562 238.761719 "/>
<path fill="none" stroke-width="0.75" stroke-linecap="round" stroke-linejoin="round" stroke="rgb(0%, 0%, 0%)" stroke-opacity="1" stroke-miterlimit="10" d="M 704.441406 231.558594 L 704.441406 238.761719 "/>
<g fill="rgb(0%, 0%, 0%)" fill-opacity="1">
<use xlink:href="#glyph-0-10" x="209.246094" y="273.320312"/>
<use xlink:href="#glyph-0-17" x="215.919922" y="273.320312"/>
<use xlink:href="#glyph-0-18" x="222.927734" y="273.320312"/>
<use xlink:href="#glyph-0-19" x="229.601562" y="273.320312"/>
</g>
<g fill="rgb(0%, 0%, 0%)" fill-opacity="1">
<use xlink:href="#glyph-0-10" x="450.085938" y="273.320312"/>
<use xlink:href="#glyph-0-17" x="456.759766" y="273.320312"/>
<use xlink:href="#glyph-0-20" x="463.767578" y="273.320312"/>
<use xlink:href="#glyph-0-18" x="470.441406" y="273.320312"/>
</g>
<g fill="rgb(0%, 0%, 0%)" fill-opacity="1">
<use xlink:href="#glyph-0-10" x="690.925781" y="273.320312"/>
<use xlink:href="#glyph-0-17" x="697.599609" y="273.320312"/>
<use xlink:href="#glyph-0-21" x="704.607422" y="273.320312"/>
<use xlink:href="#glyph-0-21" x="711.28125" y="273.320312"/>
</g>
<path fill="none" stroke-width="0.75" stroke-linecap="round" stroke-linejoin="round" stroke="rgb(0%, 0%, 0%)" stroke-opacity="1" stroke-miterlimit="10" d="M 73.441406 218.179688 L 73.441406 41.183594 "/>
<path fill="none" stroke-width="0.75" stroke-linecap="round" stroke-linejoin="round" stroke="rgb(0%, 0%, 0%)" stroke-opacity="1" stroke-miterlimit="10" d="M 73.441406 218.179688 L 66.238281 218.179688 "/>
<path fill="none" stroke-width="0.75" stroke-linecap="round" stroke-linejoin="round" stroke="rgb(0%, 0%, 0%)" stroke-opacity="1" stroke-miterlimit="10" d="M 73.441406 173.929688 L 66.238281 173.929688 "/>
<path fill="none" stroke-width="0.75" stroke-linecap="round" stroke-linejoin="round" stroke="rgb(0%, 0%, 0%)" stroke-opacity="1" stroke-miterlimit="10" d="M 73.441406 129.683594 L 66.238281 129.683594 "/>
<path fill="none" stroke-width="0.75" stroke-linecap="round" stroke-linejoin="round" stroke="rgb(0%, 0%, 0%)" stroke-opacity="1" stroke-miterlimit="10" d="M 73.441406 85.433594 L 66.238281 85.433594 "/>
<path fill="none" stroke-width="0.75" stroke-linecap="round" stroke-linejoin="round" stroke="rgb(0%, 0%, 0%)" stroke-opacity="1" stroke-miterlimit="10" d="M 73.441406 41.183594 L 66.238281 41.183594 "/>
<g fill="rgb(0%, 0%, 0%)" fill-opacity="1">
<use xlink:href="#glyph-1-0" x="57.601562" y="231.855469"/>
<use xlink:href="#glyph-1-1" x="57.601562" y="227.859375"/>
<use xlink:href="#glyph-1-2" x="57.601562" y="221.185547"/>
<use xlink:href="#glyph-1-3" x="57.601562" y="217.851562"/>
<use xlink:href="#glyph-1-4" x="57.601562" y="211.177734"/>
</g>
<g fill="rgb(0%, 0%, 0%)" fill-opacity="1">
<use xlink:href="#glyph-1-0" x="57.601562" y="187.605469"/>
<use xlink:href="#glyph-1-1" x="57.601562" y="183.609375"/>
<use xlink:href="#glyph-1-2" x="57.601562" y="176.935547"/>
<use xlink:href="#glyph-1-3" x="57.601563" y="173.601562"/>
<use xlink:href="#glyph-1-1" x="57.601563" y="166.927734"/>
</g>
<g fill="rgb(0%, 0%, 0%)" fill-opacity="1">
<use xlink:href="#glyph-1-0" x="57.601562" y="143.359375"/>
<use xlink:href="#glyph-1-1" x="57.601562" y="139.363281"/>
<use xlink:href="#glyph-1-2" x="57.601562" y="132.689453"/>
<use xlink:href="#glyph-1-5" x="57.601562" y="129.355469"/>
<use xlink:href="#glyph-1-4" x="57.601562" y="122.681641"/>
</g>
<g fill="rgb(0%, 0%, 0%)" fill-opacity="1">
<use xlink:href="#glyph-1-0" x="57.601562" y="99.109375"/>
<use xlink:href="#glyph-1-1" x="57.601562" y="95.113281"/>
<use xlink:href="#glyph-1-2" x="57.601562" y="88.439453"/>
<use xlink:href="#glyph-1-5" x="57.601562" y="85.105469"/>
<use xlink:href="#glyph-1-1" x="57.601562" y="78.431641"/>
</g>
<g fill="rgb(0%, 0%, 0%)" fill-opacity="1">
<use xlink:href="#glyph-1-0" x="57.601562" y="54.859375"/>
<use xlink:href="#glyph-1-1" x="57.601562" y="50.863281"/>
<use xlink:href="#glyph-1-2" x="57.601562" y="44.189453"/>
<use xlink:href="#glyph-1-1" x="57.601562" y="40.855469"/>
<use xlink:href="#glyph-1-4" x="57.601562" y="34.181641"/>
</g>
<g fill="rgb(0%, 0%, 0%)" fill-opacity="1">
<use xlink:href="#glyph-1-0" x="36" y="147.5625"/>
<use xlink:href="#glyph-1-6" x="36" y="143.566406"/>
<use xlink:href="#glyph-1-7" x="36" y="139.570312"/>
<use xlink:href="#glyph-1-8" x="36" y="130.236328"/>
<use xlink:href="#glyph-1-9" x="36" y="127.570312"/>
<use xlink:href="#glyph-1-8" x="36" y="120.896484"/>
<use xlink:href="#glyph-1-10" x="36" y="118.230469"/>
</g>
</svg>
