<?xml version="1.0" standalone="no"?>
<!DOCTYPE svg PUBLIC "-//W3C//DTD SVG 20010904//EN"
 "http://www.w3.org/TR/2001/REC-SVG-20010904/DTD/svg10.dtd">
<svg version="1.0" xmlns="http://www.w3.org/2000/svg"
 width="1536.000000pt" height="1200.000000pt" viewBox="0 0 1536.000000 1200.000000"
 preserveAspectRatio="xMidYMid meet">
<metadata>
Created by potrace 1.16, written by Peter Selinger 2001-2019
</metadata>
<g transform="translate(0.000000,1200.000000) scale(0.100000,-0.100000)"
fill="#000000" stroke="none">
<path d="M13649 11638 c-465 -714 -678 -1026 -893 -1303 -285 -370 -554 -658
-841 -903 -66 -56 -123 -102 -127 -102 -22 0 35 91 112 180 275 316 621 888
855 1415 84 190 198 475 192 482 -9 8 -108 -118 -179 -227 -38 -58 -114 -195
-170 -305 -533 -1056 -941 -1591 -1698 -2224 -362 -303 -707 -551 -1548 -1113
-321 -214 -622 -419 -670 -455 -48 -37 -161 -139 -252 -227 -91 -89 -211 -195
-265 -237 -171 -128 -438 -287 -1005 -599 -599 -329 -707 -394 -1195 -715
-340 -224 -561 -357 -743 -448 -140 -70 -144 -71 -159 -52 -21 29 -84 156
-128 260 -49 115 -85 180 -132 234 -30 36 -37 51 -37 90 -1 36 -9 56 -36 94
-56 77 -100 149 -95 157 3 4 27 10 55 12 28 3 56 10 61 15 14 14 -104 170
-147 195 -29 17 -32 24 -38 86 l-7 68 -67 44 c-37 24 -141 117 -232 205 -91
88 -194 186 -230 218 -58 50 -62 57 -40 57 14 0 57 15 95 33 l69 33 -67 65
c-38 35 -77 79 -89 97 -11 17 -60 60 -110 94 -77 52 -138 110 -138 131 0 3 62
5 138 4 l137 -2 -2 43 c-5 109 -104 213 -290 304 -68 34 -120 64 -116 68 4 4
41 28 81 54 78 50 111 98 112 162 0 27 -7 34 -48 57 -56 30 -163 61 -282 82
-141 24 -395 55 -448 55 -69 0 -80 16 -53 73 14 29 21 63 21 103 0 97 18 180
61 282 46 110 60 203 39 267 -28 84 -120 148 -234 161 -67 8 -63 10 -246 -141
-74 -61 -156 -126 -183 -144 -52 -35 -116 -65 -124 -57 -9 9 46 117 91 180
106 149 139 257 140 466 1 117 -3 155 -18 198 -36 104 -108 156 -184 131 -105
-34 -244 -180 -406 -424 -103 -156 -214 -295 -236 -295 -4 0 8 52 27 115 112
391 124 741 31 962 -33 81 -122 189 -163 199 -35 9 -69 -20 -105 -89 -40 -77
-80 -122 -92 -105 -4 7 -8 29 -8 49 0 76 -64 234 -97 241 -9 2 -58 -1 -107 -7
-90 -10 -91 -10 -111 -46 -49 -88 -71 -91 -80 -11 -15 126 -64 302 -84 302
-19 0 -101 -62 -146 -111 -90 -96 -186 -258 -225 -381 -22 -70 -52 -118 -74
-118 -6 0 -17 17 -23 38 -38 132 -66 228 -69 231 -2 2 -23 -8 -48 -23 -55 -32
-99 -92 -166 -225 -172 -344 -206 -711 -94 -1021 92 -259 274 -466 561 -641
88 -53 97 -62 122 -116 43 -89 108 -161 263 -289 175 -144 201 -171 237 -243
36 -71 97 -128 292 -274 205 -152 308 -267 536 -597 408 -589 599 -1060 677
-1665 13 -102 13 -111 -3 -130 -27 -31 -57 -85 -76 -140 -10 -27 -21 -53 -24
-57 -3 -3 -37 2 -76 12 -125 33 -344 20 -576 -35 -35 -8 -89 -15 -120 -15
-117 0 -223 -59 -269 -150 -28 -55 -43 -147 -36 -217 11 -110 66 -255 66 -175
0 44 28 127 49 146 19 17 22 17 72 -11 100 -54 145 -150 162 -343 l10 -126
-36 -64 c-63 -115 -79 -206 -44 -261 22 -35 105 8 214 113 92 88 134 111 209
111 44 0 68 -9 165 -61 63 -33 146 -72 184 -87 74 -27 250 -76 348 -95 57 -12
62 -15 230 -179 376 -364 787 -654 1157 -814 171 -74 251 -100 468 -153 220
-54 288 -78 402 -143 131 -75 182 -99 257 -120 64 -17 70 -17 80 -3 9 15 14
14 52 -11 23 -15 53 -32 67 -37 13 -5 27 -18 30 -27 24 -76 82 -169 138 -225
79 -79 292 -228 326 -228 14 0 57 -7 95 -16 39 -8 108 -15 155 -15 l85 1 82
-59 c84 -60 154 -91 205 -91 21 0 31 -6 37 -24 5 -12 38 -56 74 -97 77 -89 87
-106 87 -156 0 -34 4 -42 33 -56 17 -10 51 -33 75 -52 25 -20 60 -38 82 -41
26 -4 41 -13 48 -29 20 -43 128 -148 258 -251 117 -92 136 -104 172 -104 29 0
54 -10 98 -40 42 -29 69 -40 95 -40 41 0 137 -57 153 -90 6 -14 23 -20 65 -25
109 -11 215 -34 262 -58 l48 -23 18 23 c27 36 87 46 207 33 102 -11 151 -5
167 22 4 6 -2 37 -13 69 -22 66 -21 126 2 121 120 -28 164 -33 241 -29 89 4
129 18 129 42 0 8 -16 45 -36 84 -47 89 -43 101 34 101 32 0 66 6 76 13 16 12
17 16 3 49 -8 20 -31 53 -50 74 -42 47 -72 104 -60 114 21 19 147 52 188 48
58 -4 58 10 1 58 -24 20 -48 46 -54 58 -6 15 -38 31 -103 55 -206 75 -477 206
-684 331 -60 37 -132 72 -158 79 -70 17 -118 41 -347 174 -440 256 -634 382
-664 431 -23 36 -29 66 -13 66 7 0 19 11 25 25 13 29 38 32 64 8 12 -10 18
-12 18 -4 0 27 -26 60 -107 136 l-86 80 36 95 c19 52 41 114 48 138 9 31 17
41 28 38 9 -3 48 -7 86 -11 l70 -7 47 42 c26 23 79 81 117 130 61 77 71 95 76
142 8 68 23 106 46 118 27 15 33 -19 15 -81 -9 -29 -16 -58 -16 -65 0 -23 31
-44 63 -44 42 0 66 18 129 93 82 99 82 99 231 91 125 -6 128 -6 166 19 26 17
49 47 76 98 21 41 48 88 61 106 l24 31 62 -20 c167 -53 336 24 412 187 15 33
31 67 35 75 4 8 21 17 37 21 50 10 99 38 159 91 50 45 63 52 94 49 20 -1 62 7
93 19 31 11 72 20 92 18 44 -3 79 27 143 124 47 71 50 73 128 83 147 18 151
20 205 99 l49 73 84 5 c52 4 101 13 129 26 59 26 120 82 142 129 17 37 18 38
74 39 116 3 230 84 268 191 l18 51 58 5 c71 6 170 51 227 102 22 21 41 41 41
45 0 5 -12 10 -27 12 -41 5 -42 28 -1 28 41 0 74 21 65 43 -4 10 -25 18 -63
23 -65 8 -56 18 25 27 39 5 60 13 79 32 14 14 60 44 102 66 125 65 136 83 89
150 -10 14 -16 29 -12 33 3 3 30 6 59 6 37 0 54 4 58 15 6 17 -8 60 -23 70
-17 10 -13 22 8 28 18 4 19 8 9 41 -15 48 -5 57 70 67 127 18 246 90 286 173
10 22 25 36 39 38 14 2 28 16 39 39 13 27 26 38 57 47 24 8 67 37 108 75 38
34 83 74 101 89 24 20 32 33 27 47 -3 11 1 34 11 52 23 46 13 100 -42 219 -39
86 -44 103 -32 117 24 29 97 54 221 74 133 22 200 49 231 92 17 23 18 31 8 45
-24 34 -24 42 5 70 22 20 32 40 37 77 4 28 14 60 22 73 13 20 13 22 -6 22 -49
0 -11 31 108 89 237 116 337 194 398 312 36 69 38 159 5 232 -11 27 -21 53
-21 58 0 5 42 8 93 6 89 -2 95 -1 169 36 43 21 115 65 160 99 104 76 306 277
343 341 24 42 26 53 19 90 -8 35 -16 45 -54 67 -39 22 -57 25 -140 25 -110 0
-135 -9 -315 -112 -60 -34 -111 -60 -113 -58 -9 9 116 192 163 240 74 73 170
114 270 115 32 0 63 15 160 76 183 116 339 236 459 353 111 109 206 220 206
241 0 9 -26 11 -102 8 -87 -4 -119 -10 -205 -41 -300 -108 -306 -110 -395
-115 -49 -3 -88 -2 -88 2 0 20 44 87 68 105 16 11 71 40 123 64 54 25 139 78
199 123 58 44 129 90 159 102 29 13 95 56 147 97 52 40 111 79 131 86 21 6 70
39 108 73 39 34 97 84 130 111 119 98 191 166 230 215 22 28 59 60 82 72 40
20 118 87 110 95 -7 6 -194 -62 -358 -130 -85 -36 -317 -141 -514 -235 -198
-93 -409 -191 -469 -217 -128 -55 -338 -136 -343 -132 -2 2 73 52 165 111 445
285 882 612 1259 941 157 137 406 375 399 382 -6 6 -276 -120 -416 -194 -182
-96 -369 -207 -783 -465 -202 -126 -442 -272 -533 -324 -155 -89 -484 -259
-484 -250 0 2 66 60 148 128 637 539 1008 946 1296 1423 115 190 301 585 277
585 -16 0 -335 -335 -575 -605 -420 -471 -649 -688 -1119 -1058 -120 -95 -237
-187 -260 -206 -51 -40 -133 -83 -153 -79 -8 2 71 82 181 186 560 526 993
1053 1301 1584 86 148 279 536 271 544 -8 9 -234 -220 -326 -331 -46 -54 -151
-189 -234 -300 -156 -208 -232 -299 -481 -575 -170 -188 -818 -836 -916 -915
-59 -48 -148 -101 -155 -93 -1 2 49 62 112 133 144 164 379 449 514 625 112
146 299 405 299 414 0 3 -9 6 -19 6 -39 0 -30 19 15 32 l46 13 110 190 c128
222 257 482 322 646 48 124 111 327 103 335 -2 2 -105 -150 -228 -338z
m-12412 -1924 c4 -11 -57 -26 -67 -17 -8 8 33 34 49 31 8 -2 16 -8 18 -14z
m2315 -2280 c37 -6 37 -7 23 -34 -8 -15 -25 -34 -39 -44 -30 -19 -36 -20 -36
-5 0 6 -12 25 -26 42 -36 43 -12 56 78 41z"/>
</g>
</svg>
