<?xml version="1.0" standalone="no"?>
<!DOCTYPE svg PUBLIC "-//W3C//DTD SVG 20010904//EN"
 "http://www.w3.org/TR/2001/REC-SVG-20010904/DTD/svg10.dtd">
<svg version="1.0" xmlns="http://www.w3.org/2000/svg"
 width="100.000000pt" height="150.000000pt" viewBox="0 0 100.000000 150.000000"
 preserveAspectRatio="xMidYMid meet">
<metadata>
Created by potrace 1.16, written by Peter Selinger 2001-2019
</metadata>
<g transform="translate(0.000000,150.000000) scale(0.100000,-0.100000)"
fill="#000000" stroke="none">
<path d="M405 1490 c-14 -22 -215 -150 -237 -150 -36 0 -67 -39 -89 -114 -11
-39 -34 -97 -51 -130 -44 -86 -25 -149 48 -158 20 -2 30 -10 34 -26 3 -13 10
-23 15 -23 6 0 17 -7 26 -15 15 -13 17 -12 22 15 5 22 14 32 32 37 37 9 52 -1
60 -38 17 -77 50 -145 95 -193 60 -64 75 -94 100 -200 11 -47 26 -98 34 -113
7 -15 19 -58 27 -95 11 -56 11 -78 0 -125 -27 -116 -27 -109 16 -115 67 -8 68
-3 65 222 -3 166 -1 200 12 210 26 22 39 3 31 -48 -7 -47 -8 -77 -4 -141 1
-19 -4 -71 -11 -115 -12 -78 -15 -163 -6 -172 2 -3 15 1 27 8 17 9 24 9 27 0
6 -19 22 -12 33 16 6 15 14 90 20 167 8 124 12 144 34 178 14 22 31 65 37 96
6 31 17 63 24 71 19 21 39 -58 36 -139 -2 -36 -4 -99 -5 -140 -2 -74 -2 -75
25 -77 15 -1 30 2 33 7 3 4 9 68 14 142 7 95 16 151 31 188 39 99 50 374 19
483 -24 89 -110 142 -191 118 -23 -7 -81 -14 -129 -15 -77 -2 -89 0 -94 15
-10 30 -105 119 -161 150 -30 17 -54 34 -54 37 0 4 41 46 92 94 51 47 90 89
86 93 -3 3 -24 -3 -47 -14 -48 -25 -51 -25 -51 -7 0 19 -17 29 -25 16z"/>
</g>
</svg>
