<?xml version="1.0" standalone="no"?>
<!DOCTYPE svg PUBLIC "-//W3C//DTD SVG 20010904//EN"
 "http://www.w3.org/TR/2001/REC-SVG-20010904/DTD/svg10.dtd">
<svg version="1.0" xmlns="http://www.w3.org/2000/svg"
 width="1536.000000pt" height="705.000000pt" viewBox="0 0 1536.000000 705.000000"
 preserveAspectRatio="xMidYMid meet">
<metadata>
Created by potrace 1.16, written by Peter Selinger 2001-2019
</metadata>
<g transform="translate(0.000000,705.000000) scale(0.100000,-0.100000)"
fill="#000000" stroke="none">
<path d="M6337 6935 c-235 -359 -418 -526 -491 -446 -24 27 -43 94 -51 185 -4
43 -11 74 -14 69 -4 -4 -31 -64 -61 -133 -62 -145 -166 -358 -218 -445 -109
-184 -193 -239 -238 -154 -19 39 -44 151 -44 206 0 23 -4 44 -8 47 -5 3 -68
-189 -140 -427 -73 -238 -143 -468 -157 -513 l-25 -81 -100 -7 c-237 -15 -657
-85 -945 -157 -997 -250 -2050 -744 -3210 -1507 -461 -303 -503 -338 -567
-467 -44 -89 -53 -140 -52 -300 0 -137 2 -154 24 -199 189 -390 1564 -786
4087 -1177 l142 -22 127 -236 c373 -695 620 -1111 660 -1111 34 0 6 136 -56
275 -16 36 -28 65 -26 65 2 0 25 -27 51 -60 60 -74 160 -158 256 -216 93 -55
297 -124 308 -105 11 18 39 198 47 301 3 47 1 134 -5 193 -39 362 -215 618
-567 823 -43 25 -68 43 -54 40 123 -26 232 -31 640 -31 510 1 824 22 1585 106
400 44 1302 158 1372 174 18 4 46 -23 170 -172 81 -98 202 -239 268 -313 l120
-134 3 44 c2 25 7 49 12 54 15 15 57 -30 121 -129 32 -49 66 -99 74 -110 l16
-20 -6 20 c-17 49 -35 122 -35 143 0 63 79 21 224 -119 57 -54 111 -99 121
-99 24 0 298 276 471 475 531 610 924 1144 924 1254 0 27 -7 34 -49 56 -56 28
-87 62 -96 107 -7 28 -3 35 26 60 51 42 183 104 283 133 296 85 735 71 1174
-36 179 -44 283 -83 407 -154 329 -187 1050 -557 1410 -722 294 -135 423 -189
585 -243 160 -55 244 -69 280 -50 21 11 22 17 17 74 -16 167 -195 584 -624
1458 -176 359 -214 443 -208 466 9 44 82 150 368 544 512 704 670 968 685
1145 4 59 3 63 -26 92 -26 26 -38 31 -80 31 -317 0 -1205 -385 -2332 -1010
-465 -258 -458 -256 -820 -247 -310 8 -567 45 -1090 157 -198 43 -568 131
-610 146 -9 3 21 25 79 57 52 29 116 72 142 98 70 65 68 84 -25 223 -156 234
-494 674 -730 951 -163 189 -415 440 -505 500 -73 50 -73 50 -155 50 -73 0
-89 -4 -161 -38 -109 -52 -217 -126 -369 -252 -162 -135 -478 -449 -715 -712
-100 -112 -190 -207 -201 -213 -37 -20 -153 -10 -474 39 -71 11 -131 23 -134
25 -3 3 18 53 46 112 29 58 52 108 52 111 0 2 -17 -9 -37 -25 -63 -49 -102
-65 -119 -51 -20 16 -13 56 31 174 19 49 32 91 31 93 -2 1 -26 -11 -54 -28
-130 -81 -144 16 -47 309 25 74 43 136 41 139 -3 2 -26 -14 -53 -36 -68 -57
-162 -112 -193 -112 -88 0 -64 124 94 484 l17 38 -28 -20 c-15 -11 -41 -35
-58 -52 -69 -74 -194 -156 -221 -146 -33 13 4 184 67 308 33 65 21 62 -45 -9
-137 -147 -219 -165 -255 -55 -26 80 -23 381 6 523 3 16 2 29 -3 29 -5 -1 -40
-48 -77 -105z"/>
</g>
</svg>
