<?xml version="1.0" standalone="no"?>
<!DOCTYPE svg PUBLIC "-//W3C//DTD SVG 20010904//EN"
 "http://www.w3.org/TR/2001/REC-SVG-20010904/DTD/svg10.dtd">
<svg version="1.0" xmlns="http://www.w3.org/2000/svg"
 width="1536.000000pt" height="1069.000000pt" viewBox="0 0 1536.000000 1069.000000"
 preserveAspectRatio="xMidYMid meet">
<metadata>
Created by potrace 1.16, written by Peter Selinger 2001-2019
</metadata>
<g transform="translate(0.000000,1069.000000) scale(0.100000,-0.100000)"
fill="#000000" stroke="none">
<path d="M4176 10675 c-478 -78 -983 -378 -1572 -933 -224 -211 -533 -546
-732 -795 l-47 -58 -118 7 c-105 6 -119 5 -137 -11 -37 -33 -17 -99 50 -163
l41 -40 -114 -154 c-62 -84 -132 -181 -156 -216 -23 -34 -75 -102 -115 -151
-249 -299 -458 -628 -661 -1044 -139 -282 -220 -481 -320 -782 -389 -1164
-393 -2253 -11 -3040 177 -367 358 -585 751 -907 105 -86 282 -233 395 -328
795 -665 1291 -943 1771 -991 210 -20 366 11 599 121 271 127 439 173 640 174
187 0 332 -35 635 -156 362 -145 533 -198 775 -242 210 -38 390 -50 674 -43
285 7 413 19 851 82 426 61 471 65 679 65 435 1 753 -89 1366 -385 273 -132
386 -177 557 -225 351 -97 763 -106 1158 -24 249 52 313 63 414 73 267 28 524
-2 800 -91 171 -55 302 -112 519 -223 102 -52 215 -104 251 -116 176 -54 507
-85 811 -76 707 22 1213 196 1375 472 57 98 69 243 30 360 -58 175 -174 351
-350 534 -273 282 -637 527 -1200 809 -553 276 -972 444 -1520 607 -698 208
-1384 352 -2885 605 -1486 250 -2039 359 -2655 524 -376 101 -606 139 -1525
251 -831 101 -1178 153 -1535 231 -894 194 -1296 481 -1237 884 39 271 263
567 747 990 349 304 610 549 901 848 l222 226 91 -37 c103 -42 138 -45 174
-17 59 47 60 151 2 256 l-35 65 86 102 c114 135 322 412 421 562 236 356 401
715 464 1015 18 86 23 137 23 280 0 158 -3 184 -27 274 -108 401 -464 729
-891 822 -101 22 -320 27 -430 9z"/>
</g>
</svg>
