<?xml version="1.0" standalone="no"?>
<!DOCTYPE svg PUBLIC "-//W3C//DTD SVG 20010904//EN"
 "http://www.w3.org/TR/2001/REC-SVG-20010904/DTD/svg10.dtd">
<svg version="1.0" xmlns="http://www.w3.org/2000/svg"
 width="969.000000pt" height="931.000000pt" viewBox="0 0 969.000000 931.000000"
 preserveAspectRatio="xMidYMid meet">
<metadata>
Created by potrace 1.16, written by Peter Selinger 2001-2019
</metadata>
<g transform="translate(0.000000,931.000000) scale(0.100000,-0.100000)"
fill="#000000" stroke="none">
<path d="M1446 9281 c-9 -10 -23 -55 -32 -100 -8 -44 -28 -120 -44 -167 -41
-121 -47 -171 -24 -233 10 -28 15 -54 11 -58 -4 -3 -56 -10 -115 -14 -59 -4
-121 -11 -138 -14 -29 -6 -33 -3 -61 42 -17 26 -81 131 -144 232 -163 262
-223 320 -265 255 -33 -49 -30 -151 10 -359 59 -307 72 -345 120 -345 32 0 66
-28 66 -55 0 -17 -21 -41 -80 -89 -169 -140 -315 -309 -335 -386 -4 -19 3 -43
25 -85 42 -78 38 -130 -18 -241 -21 -43 -75 -171 -120 -284 -81 -205 -108
-309 -141 -535 -8 -54 -25 -100 -75 -200 -97 -194 -98 -245 -7 -388 28 -44 53
-97 56 -120 9 -54 19 -65 69 -78 22 -6 70 -28 106 -49 111 -65 273 -88 356
-51 51 23 92 80 134 186 44 112 70 144 262 330 241 233 327 296 381 279 96
-30 238 -234 337 -484 54 -138 169 -376 211 -437 18 -26 47 -65 65 -85 86 -97
103 -146 114 -323 11 -170 63 -593 91 -730 40 -199 105 -385 170 -485 52 -80
213 -247 355 -365 144 -121 157 -137 243 -296 48 -89 106 -176 172 -259 170
-213 181 -240 209 -540 34 -351 43 -394 130 -604 92 -220 93 -224 87 -621 -5
-390 -8 -410 -87 -570 -60 -123 -111 -200 -188 -288 l-59 -67 -6 -97 c-6 -112
-10 -125 -82 -283 -29 -63 -56 -130 -60 -147 -6 -30 -4 -34 21 -44 50 -19 357
-30 506 -19 199 15 233 33 268 145 21 66 48 113 99 169 38 42 50 63 55 100 l7
47 63 -6 c85 -9 121 9 137 67 43 162 77 432 85 683 6 169 5 188 -21 310 -67
322 -151 622 -239 857 -54 144 -77 396 -64 708 12 277 25 415 42 448 17 33 13
32 191 61 238 40 300 44 705 46 426 3 589 12 835 46 296 41 414 85 790 290
293 160 350 189 369 189 20 0 33 -44 60 -206 20 -119 31 -159 81 -274 110
-256 121 -300 145 -554 33 -348 27 -452 -37 -650 -107 -334 -244 -655 -303
-711 -17 -16 -90 -75 -162 -130 -72 -55 -140 -112 -152 -128 l-20 -27 22 -45
c42 -87 35 -107 -96 -255 -35 -40 -73 -92 -85 -117 l-22 -45 22 -17 c41 -34
319 -71 525 -71 154 0 158 2 182 113 15 67 22 80 59 114 24 21 64 53 91 71 57
39 79 84 102 203 21 115 93 326 212 624 54 138 120 322 146 410 26 88 63 205
82 260 27 75 37 123 41 190 5 80 10 98 43 160 66 122 67 133 19 282 -43 136
-107 383 -135 522 -23 119 -16 221 21 288 56 103 105 122 159 61 17 -19 76
-86 131 -148 143 -161 183 -217 267 -375 42 -77 107 -192 145 -255 118 -195
159 -280 203 -415 51 -158 81 -220 164 -333 143 -196 152 -227 160 -567 3
-137 11 -368 17 -512 13 -302 10 -324 -54 -415 l-42 -59 23 -64 c12 -35 22
-76 22 -90 0 -15 -33 -91 -74 -169 -41 -77 -77 -157 -81 -178 -6 -31 -4 -38
17 -52 30 -20 174 -42 362 -57 181 -13 266 -6 303 25 25 22 26 28 32 158 5
108 10 140 23 155 31 34 59 113 65 181 5 56 1 85 -20 158 -47 160 -58 253 -67
549 -9 309 -4 275 -109 685 -82 323 -94 426 -70 635 14 129 5 157 -79 249
-117 128 -205 310 -269 556 -40 154 -41 177 -32 710 6 288 7 298 37 415 17 66
36 156 43 200 18 118 15 389 -5 510 -50 290 -205 593 -406 795 -103 103 -283
231 -373 264 -246 93 -963 208 -1205 193 -148 -8 -279 -47 -882 -256 -190 -66
-306 -90 -560 -116 -205 -22 -615 -31 -695 -16 -65 12 -62 11 -450 246 -255
154 -414 240 -487 264 -47 15 -105 73 -286 285 -178 207 -295 326 -382 387
-80 56 -277 159 -599 314 -293 140 -437 200 -551 226 -99 23 -255 95 -373 172
-140 91 -167 130 -167 244 0 183 -91 470 -171 537 -36 31 -50 32 -73 7z"/>
</g>
</svg>
