<?xml version="1.0" standalone="no"?>
<!DOCTYPE svg PUBLIC "-//W3C//DTD SVG 20010904//EN"
 "http://www.w3.org/TR/2001/REC-SVG-20010904/DTD/svg10.dtd">
<svg version="1.0" xmlns="http://www.w3.org/2000/svg"
 width="1536.000000pt" height="1249.000000pt" viewBox="0 0 1536.000000 1249.000000"
 preserveAspectRatio="xMidYMid meet">
<metadata>
Created by potrace 1.16, written by Peter Selinger 2001-2019
</metadata>
<g transform="translate(0.000000,1249.000000) scale(0.100000,-0.100000)"
fill="#000000" stroke="none">
<path d="M15131 12458 c-104 -56 -226 -163 -541 -473 -168 -166 -326 -315
-351 -333 -58 -39 -166 -76 -290 -99 -71 -13 -149 -17 -319 -18 -124 0 -238 4
-254 8 -41 12 -118 87 -309 307 -385 442 -594 609 -762 610 -72 0 -111 -20
-155 -81 -133 -184 -170 -811 -105 -1772 9 -122 18 -290 22 -374 l6 -152 -28
-57 c-38 -78 -144 -182 -339 -334 -273 -212 -321 -266 -436 -485 -108 -205
-171 -281 -310 -370 -99 -65 -205 -107 -424 -171 -847 -247 -1513 -585 -2071
-1053 -121 -101 -377 -353 -485 -476 -372 -426 -662 -929 -863 -1496 -330
-927 -418 -2047 -251 -3184 30 -204 84 -469 119 -585 14 -47 32 -112 41 -145
44 -161 -31 -331 -178 -405 -69 -34 -102 -36 -203 -16 -187 38 -645 59 -1300
60 -689 0 -982 -17 -1335 -79 -1115 -196 -1969 -290 -3090 -340 -336 -15 -407
-24 -524 -64 -156 -55 -295 -169 -357 -296 -31 -64 -34 -77 -34 -160 0 -78 4
-97 28 -146 57 -117 179 -204 352 -251 68 -18 107 -21 265 -22 176 0 198 3
450 47 1402 246 3591 397 5740 398 662 0 844 -4 2240 -41 1414 -38 2102 -37
2339 4 66 12 93 23 153 62 104 69 228 195 264 269 23 48 28 72 28 130 0 86
-18 128 -115 277 -125 192 -127 217 -25 351 121 160 179 303 246 598 63 285
95 364 173 436 74 69 79 68 172 -28 209 -216 390 -577 682 -1357 126 -339 155
-404 202 -466 22 -28 63 -94 92 -146 102 -186 169 -260 283 -311 269 -119
1036 -38 1172 124 63 75 4 173 -310 517 -370 404 -386 431 -485 820 -150 591
-316 1125 -472 1520 -128 326 -139 369 -139 557 0 543 356 1411 840 2047 42
56 95 133 117 172 235 403 283 993 140 1694 -28 138 -31 173 -31 320 0 132 5
186 22 267 80 371 288 749 584 1061 89 93 115 129 153 205 83 168 95 279 80
757 -8 290 -1 364 55 532 54 162 67 266 50 405 -20 162 -23 272 -10 433 37
481 20 722 -57 802 -36 37 -76 36 -152 -4z"/>
</g>
</svg>
