<?xml version="1.0" standalone="no"?>
<!DOCTYPE svg PUBLIC "-//W3C//DTD SVG 20010904//EN"
 "http://www.w3.org/TR/2001/REC-SVG-20010904/DTD/svg10.dtd">
<svg version="1.0" xmlns="http://www.w3.org/2000/svg"
 width="1536.000000pt" height="813.000000pt" viewBox="0 0 1536.000000 813.000000"
 preserveAspectRatio="xMidYMid meet">
<metadata>
Created by potrace 1.16, written by Peter Selinger 2001-2019
</metadata>
<g transform="translate(0.000000,813.000000) scale(0.100000,-0.100000)"
fill="#000000" stroke="none">
<path d="M14176 8115 c-187 -36 -459 -153 -726 -313 -63 -37 -176 -104 -250
-147 -336 -195 -759 -471 -1294 -845 -158 -111 -303 -209 -322 -217 -31 -16
-39 -15 -181 20 -264 65 -400 80 -923 102 -545 23 -773 50 -1010 123 -170 53
-509 92 -793 92 -364 0 -621 -52 -882 -180 l-120 -59 -100 -123 c-119 -146
-465 -497 -585 -592 -214 -170 -472 -316 -689 -391 -58 -20 -179 -51 -270 -70
-91 -19 -238 -50 -326 -69 -485 -103 -939 -86 -1283 48 -292 113 -382 166
-527 311 -82 82 -124 133 -165 203 -30 51 -97 140 -150 200 -53 59 -135 160
-184 225 -49 65 -114 140 -144 167 -69 62 -100 65 -144 17 0 -1 -4 -123 -8
-272 -5 -216 -9 -277 -22 -305 -9 -19 -50 -69 -93 -110 -88 -86 -106 -117
-151 -255 -18 -55 -48 -136 -68 -180 -30 -67 -36 -91 -36 -151 0 -61 5 -80 39
-151 l40 -81 -63 -39 c-46 -28 -113 -92 -258 -248 -319 -344 -506 -521 -698
-660 -112 -81 -208 -186 -258 -282 -61 -119 -76 -179 -77 -315 0 -65 -1 -118
-2 -118 -2 0 -55 26 -118 57 -93 47 -119 56 -133 47 -9 -6 -17 -22 -17 -35 0
-21 19 -33 146 -96 l147 -72 27 -78 c15 -43 29 -83 31 -89 3 -7 -79 -13 -273
-17 -384 -9 -696 -42 -1088 -113 -154 -29 -175 -36 -175 -63 0 -42 21 -44 172
-17 329 60 793 105 1164 113 l242 6 12 -24 c7 -13 24 -36 38 -51 14 -15 23
-30 20 -33 -3 -3 -108 -31 -234 -61 -126 -31 -235 -61 -241 -66 -19 -15 -16
-46 6 -58 15 -7 78 4 264 50 135 33 252 60 262 60 10 0 47 -28 83 -62 193
-179 400 -261 894 -352 116 -21 236 -66 344 -128 107 -61 179 -112 393 -280
90 -71 196 -151 235 -177 75 -51 300 -179 398 -227 32 -16 58 -31 58 -35 0
-15 -78 -105 -121 -140 -24 -20 -96 -66 -160 -102 -64 -37 -133 -80 -155 -97
-77 -59 -120 -84 -204 -117 -92 -37 -130 -69 -130 -110 0 -35 31 -83 81 -122
40 -33 41 -35 35 -81 -3 -25 -22 -102 -42 -169 -33 -115 -34 -125 -19 -147 15
-23 21 -24 113 -24 53 0 102 -4 108 -8 6 -4 23 -30 37 -59 45 -87 103 -90 233
-12 30 19 84 62 119 97 57 56 67 62 105 62 28 0 60 -10 100 -32 56 -32 60 -32
107 -20 26 7 56 23 65 35 9 12 35 88 59 169 37 133 41 154 35 216 -8 80 -10
78 129 169 50 33 96 67 104 77 7 9 47 37 88 63 l74 46 117 -32 c249 -66 421
-99 664 -126 280 -32 1043 -31 1274 1 l41 6 7 -49 c3 -26 10 -101 16 -167 10
-130 8 -140 -47 -202 -91 -103 -219 -171 -345 -184 -79 -8 -83 -10 -116 -46
-50 -58 -122 -172 -128 -203 -10 -47 36 -87 121 -107 39 -9 101 -28 139 -42
59 -21 79 -24 141 -19 69 6 73 5 97 -21 14 -15 36 -44 50 -64 91 -137 205
-111 295 69 l37 73 61 0 c60 0 64 -2 119 -50 66 -58 95 -74 159 -91 41 -10 51
-9 91 11 58 27 103 79 112 127 5 25 0 83 -14 165 -15 84 -19 135 -13 150 5 13
30 50 56 83 25 33 60 83 76 112 44 77 249 266 424 391 162 116 318 263 460
436 86 104 89 106 274 173 52 18 232 74 401 123 321 93 480 150 616 218 44 22
125 57 179 77 201 74 411 189 785 427 372 237 567 342 652 352 29 4 97 14 151
22 63 10 102 13 108 7 16 -16 23 -146 10 -170 -6 -12 -28 -27 -48 -33 -21 -7
-73 -32 -115 -57 -72 -41 -80 -50 -107 -106 -35 -75 -81 -218 -81 -254 0 -16
12 -37 35 -57 l35 -32 0 -93 c0 -89 1 -94 29 -122 26 -26 36 -29 93 -29 l63 0
66 70 c37 39 69 70 72 70 3 0 24 -44 47 -97 46 -107 63 -131 98 -144 56 -22
137 62 192 196 l23 58 30 -59 c40 -81 63 -104 104 -104 40 0 65 34 89 120 34
123 65 167 127 177 34 5 36 4 59 -43 18 -39 29 -50 51 -52 36 -4 53 10 83 70
49 97 27 156 -100 264 -82 70 -112 118 -162 261 -18 52 -18 52 5 105 50 112
59 155 76 336 15 160 21 192 46 247 15 35 35 103 44 152 9 48 36 176 60 283
79 349 80 356 79 575 0 189 -1 205 -27 288 -45 146 -96 234 -202 347 -68 72
-112 142 -306 476 -73 126 -159 271 -192 321 -58 92 -59 94 -52 145 31 224
166 425 417 621 163 127 349 237 828 490 423 223 621 312 850 378 133 38 178
43 246 29 127 -27 235 -93 308 -191 84 -111 129 -233 216 -580 47 -185 90
-317 123 -377 13 -23 14 -22 71 45 129 153 171 337 131 569 -48 276 -219 600
-431 820 -115 118 -211 180 -349 224 -92 29 -276 36 -389 15z"/>
</g>
</svg>
