<?xml version="1.0" standalone="no"?>
<!DOCTYPE svg PUBLIC "-//W3C//DTD SVG 20010904//EN"
 "http://www.w3.org/TR/2001/REC-SVG-20010904/DTD/svg10.dtd">
<svg version="1.0" xmlns="http://www.w3.org/2000/svg"
 width="1536.000000pt" height="794.000000pt" viewBox="0 0 1536.000000 794.000000"
 preserveAspectRatio="xMidYMid meet">
<metadata>
Created by potrace 1.16, written by Peter Selinger 2001-2019
</metadata>
<g transform="translate(0.000000,794.000000) scale(0.100000,-0.100000)"
fill="#000000" stroke="none">
<path d="M9570 7924 c-19 -9 -48 -16 -65 -17 -28 -2 -30 -5 -27 -35 3 -31 -5
-42 -95 -131 -83 -83 -107 -101 -153 -116 -85 -27 -207 -89 -314 -160 -88 -57
-103 -64 -164 -70 -37 -4 -131 -28 -212 -55 -80 -27 -173 -51 -208 -55 -73 -7
-184 -35 -302 -75 -132 -45 -374 -65 -550 -46 -90 10 -223 -7 -470 -61 -142
-31 -192 -37 -365 -44 -110 -4 -256 -17 -325 -28 -69 -11 -172 -25 -230 -31
-58 -6 -184 -29 -280 -50 -96 -21 -222 -45 -280 -55 -58 -9 -130 -23 -160 -30
-30 -8 -115 -26 -188 -40 -159 -31 -369 -101 -662 -220 -118 -48 -273 -109
-345 -135 -225 -82 -531 -214 -800 -345 -143 -70 -292 -142 -331 -161 -84 -39
-252 -161 -448 -322 -199 -163 -257 -210 -371 -301 -141 -112 -266 -228 -387
-361 -58 -63 -170 -176 -249 -251 -374 -353 -518 -484 -570 -519 -68 -47 -143
-127 -189 -203 -30 -50 -44 -62 -115 -99 -122 -63 -242 -140 -329 -212 -44
-35 -93 -67 -110 -70 -73 -14 -120 -63 -151 -159 l-16 -49 54 -71 c30 -40 93
-116 140 -169 48 -53 87 -104 87 -112 0 -31 -132 -127 -276 -199 -28 -14 -66
-42 -84 -63 -29 -33 -32 -42 -28 -84 6 -62 37 -120 77 -145 108 -68 220 -157
264 -209 105 -126 242 -203 430 -241 67 -13 151 -33 187 -43 36 -11 94 -22
130 -26 36 -3 88 -14 116 -25 28 -11 89 -29 134 -41 46 -12 108 -34 139 -49
199 -100 367 -155 611 -201 63 -12 129 -28 145 -35 17 -7 89 -67 160 -135 72
-67 148 -132 170 -145 48 -29 177 -64 376 -104 114 -22 162 -37 215 -65 180
-95 286 -128 529 -161 66 -9 149 -25 185 -36 91 -27 277 -56 395 -63 101 -6
152 -2 394 29 l134 18 60 -33 c57 -31 62 -32 134 -26 l75 7 57 -44 c31 -24
119 -88 196 -142 77 -55 199 -143 270 -198 96 -73 170 -119 285 -176 85 -43
220 -115 299 -159 205 -116 253 -134 380 -140 57 -3 185 1 285 7 99 6 291 13
426 14 l245 2 170 -37 c199 -44 325 -63 490 -78 66 -5 168 -17 228 -26 59 -9
111 -14 114 -10 24 24 -93 63 -497 166 -292 75 -415 117 -455 158 -26 26 -84
109 -212 307 -67 103 -256 298 -345 355 -31 21 -114 57 -184 81 -121 42 -125
44 -93 53 19 4 72 19 119 32 47 13 108 24 135 24 28 0 81 7 120 15 38 8 84 15
100 15 42 0 137 26 209 57 129 54 168 64 245 64 114 -1 432 68 578 126 53 21
68 23 94 14 92 -32 404 19 449 74 11 13 17 12 44 -8 28 -20 42 -22 141 -21
152 1 223 16 256 53 15 16 29 35 31 42 4 10 14 6 39 -16 96 -86 167 -130 328
-201 93 -41 176 -74 185 -74 22 0 87 34 156 80 99 66 93 65 159 25 32 -20 80
-42 107 -49 27 -8 78 -28 114 -44 102 -49 162 -61 250 -50 90 10 189 41 226
70 26 21 29 21 278 11 286 -13 359 -7 415 31 30 21 49 26 97 26 32 0 77 5 99
10 29 7 51 5 83 -5 23 -8 64 -15 90 -15 41 0 53 5 79 33 17 17 38 47 47 65 13
25 23 32 46 32 15 0 59 16 96 35 37 19 73 35 81 35 25 0 88 38 139 83 27 24
74 60 106 80 31 20 74 58 95 84 21 27 43 50 48 52 33 13 170 178 220 265 35
62 134 203 211 301 68 88 115 180 122 242 4 39 13 57 48 95 45 49 52 66 33 85
-8 8 -5 20 14 45 27 36 57 115 57 151 0 13 -6 29 -12 36 -11 11 -7 17 16 35
16 11 43 33 60 48 l31 27 -45 1 c-59 0 -140 39 -188 90 -26 26 -48 40 -64 40
-14 0 -31 7 -39 16 -7 9 -43 31 -79 49 -37 19 -75 45 -84 60 -22 34 -74 65
-108 65 -23 0 -28 4 -28 25 0 14 -4 25 -10 25 -5 0 -25 16 -44 35 -20 19 -40
35 -45 35 -5 0 -13 9 -16 21 -8 26 -62 49 -112 49 -60 0 -86 10 -72 26 19 23
3 41 -44 48 -28 4 -48 13 -51 23 -6 14 1 15 54 10 67 -7 92 -18 130 -53 16
-15 56 -30 114 -44 65 -15 99 -29 129 -53 55 -44 101 -70 173 -96 32 -12 78
-33 101 -47 28 -16 57 -24 88 -24 64 0 196 -35 266 -71 32 -16 93 -40 135 -54
71 -23 339 -86 429 -101 22 -3 74 -15 115 -25 70 -19 88 -19 290 -8 173 9 236
17 320 38 85 22 104 30 102 44 -2 11 9 24 29 35 65 35 135 86 184 132 28 26
67 57 88 69 20 13 40 33 43 46 3 13 21 36 40 50 38 29 42 49 18 84 -16 22 -15
24 16 56 18 19 45 35 59 37 20 2 26 9 26 28 0 22 -7 27 -55 42 -30 9 -68 20
-85 23 -28 7 -28 8 -9 15 12 5 42 11 67 15 40 6 47 4 56 -14 16 -29 49 -27 57
3 7 31 -17 77 -58 110 -30 24 -31 26 -10 26 32 0 27 17 -10 36 l-32 16 28 15
c22 11 25 17 16 28 -9 11 -6 21 12 45 23 31 23 32 4 46 -12 9 -47 14 -90 15
l-71 1 49 9 c51 8 83 29 72 47 -4 6 -26 14 -51 17 -24 4 -52 13 -61 20 -20 14
-11 35 16 35 32 0 70 22 70 41 0 9 7 19 15 23 21 8 19 30 -6 52 -35 32 -60 95
-54 135 5 26 2 39 -9 48 -14 12 -11 19 24 61 47 56 42 65 -40 76 -81 10 -100
25 -100 81 0 66 -22 223 -32 223 -4 0 -5 13 -2 28 8 39 -24 93 -62 105 -28 8
-294 3 -459 -9 -53 -3 -75 -2 -65 4 25 16 188 72 304 103 126 34 198 63 221
89 16 17 16 21 1 42 -9 12 -16 34 -16 49 0 32 -19 49 -63 58 -28 6 -32 11 -29
35 2 16 -4 36 -13 46 -10 11 -17 44 -20 100 -3 56 -11 95 -25 122 -11 21 -20
43 -20 48 0 18 -72 105 -94 114 -11 4 -72 11 -135 13 l-113 6 71 33 c42 19 71
39 71 48 0 15 -55 36 -95 36 -39 0 1 19 48 22 26 2 47 8 47 13 0 6 -60 10
-159 10 l-158 0 30 22 c17 13 53 25 86 29 46 6 62 13 89 41 39 42 40 51 3 64
-20 7 -30 19 -34 38 -4 20 -19 34 -55 54 -49 26 -62 46 -62 94 0 28 -42 57
-74 51 -17 -4 -26 0 -29 12 -5 20 -47 30 -126 30 l-56 1 25 20 c64 52 80 68
80 83 0 22 -15 20 -105 -10 -42 -14 -79 -23 -83 -19 -13 13 17 41 84 80 77 44
69 57 -20 31 -98 -29 -93 -14 13 40 59 29 65 44 17 44 -25 0 -35 5 -39 20 -4
15 -14 20 -41 20 -41 0 -196 -33 -269 -56 -27 -9 -50 -14 -53 -11 -3 2 26 24
63 48 96 63 133 97 133 125 0 36 -36 40 -110 10 -35 -14 -65 -24 -67 -22 -2 2
18 21 44 42 26 22 51 43 55 48 3 5 -9 24 -28 41 -19 18 -34 39 -34 48 0 9 -9
19 -20 22 -14 5 -19 12 -15 24 7 22 -15 41 -57 50 -22 5 -37 16 -48 36 -21 43
-29 47 -82 41 -52 -5 -56 -2 -33 31 13 18 13 22 0 33 -20 16 -79 7 -158 -25
-110 -45 -132 -24 -34 33 94 55 72 76 -48 47 -33 -8 -83 -14 -111 -15 -67 0
-206 -57 -304 -123 -100 -69 -356 -324 -405 -404 -21 -35 -44 -63 -52 -63 -10
0 -7 10 12 32 22 26 25 37 20 67 -4 20 -13 47 -22 59 -8 13 -21 45 -29 72 -20
69 -101 129 -211 159 -25 7 -47 21 -58 37 -21 32 -88 63 -137 64 -32 0 -38 4
-38 20 0 38 -41 67 -106 74 -40 5 -82 20 -132 48 -48 26 -98 44 -145 53 -40 7
-102 27 -139 45 -41 19 -97 36 -140 42 -40 5 -102 16 -138 24 -36 8 -109 14
-162 14 l-97 0 -71 46 c-92 59 -117 62 -214 29 -123 -42 -195 -49 -266 -25
-67 23 -134 26 -191 8 -33 -9 -44 -8 -72 7 -24 12 -44 16 -68 11 -89 -17 -148
-18 -197 -2 -28 10 -56 24 -62 32 -16 18 -66 17 -110 -2z"/>
</g>
</svg>
