<?xml version="1.0" standalone="no"?>
<!DOCTYPE svg PUBLIC "-//W3C//DTD SVG 20010904//EN"
 "http://www.w3.org/TR/2001/REC-SVG-20010904/DTD/svg10.dtd">
<svg version="1.0" xmlns="http://www.w3.org/2000/svg"
 width="1536.000000pt" height="667.000000pt" viewBox="0 0 1536.000000 667.000000"
 preserveAspectRatio="xMidYMid meet">
<metadata>
Created by potrace 1.16, written by Peter Selinger 2001-2019
</metadata>
<g transform="translate(0.000000,667.000000) scale(0.100000,-0.100000)"
fill="#000000" stroke="none">
<path d="M13940 6649 c-266 -40 -569 -107 -1135 -253 -476 -122 -834 -263
-1492 -586 -189 -93 -343 -167 -343 -165 0 2 20 18 45 36 25 18 43 34 41 37
-3 2 -30 -8 -62 -22 -70 -32 -77 -32 -39 -1 34 28 25 31 -34 10 -46 -16 -55
-4 -16 21 41 27 22 26 -36 0 -29 -14 -55 -23 -57 -21 -2 2 -1 12 2 23 5 13 23
23 64 32 63 14 98 30 186 83 61 38 262 109 355 127 61 11 81 24 81 51 0 24 0
24 71 -12 34 -17 63 -28 66 -26 9 10 -17 45 -71 94 -78 71 -108 83 -213 83
-48 0 -106 5 -128 11 -22 6 -102 12 -177 14 -161 5 -168 3 -385 -99 -78 -36
-182 -82 -232 -101 -132 -50 -146 -59 -196 -129 -61 -86 -103 -121 -199 -167
-86 -41 -254 -89 -315 -89 -88 0 -841 -145 -1126 -216 -640 -160 -1357 -432
-1942 -734 -202 -105 -332 -181 -578 -339 -181 -116 -352 -211 -455 -251 -140
-56 -435 -150 -414 -132 70 62 221 140 346 181 37 13 70 26 73 31 3 5 -21 12
-52 16 -98 12 -105 18 -43 39 l55 18 -30 13 c-16 7 -38 13 -48 14 -27 0 -12
17 23 23 43 9 37 23 -14 36 -68 17 -150 13 -226 -10 -105 -32 -132 -21 -40 16
l75 30 -59 3 c-90 5 -156 -13 -283 -75 -23 -11 -46 -14 -79 -9 -81 11 -147
-30 -364 -229 -52 -47 -144 -123 -203 -167 -119 -89 -136 -113 -175 -243 -30
-98 -66 -150 -189 -269 -60 -58 -130 -132 -158 -166 -41 -50 -74 -76 -180
-139 -181 -108 -288 -164 -525 -276 -307 -145 -629 -307 -738 -371 -182 -107
-323 -227 -399 -341 -26 -39 -49 -58 -91 -79 -35 -17 -82 -55 -127 -100 -38
-40 -83 -78 -98 -83 -16 -6 -59 -11 -96 -11 -87 0 -135 -24 -261 -129 -52 -44
-113 -86 -135 -94 -22 -8 -116 -39 -210 -70 -215 -69 -446 -161 -589 -234 -93
-47 -124 -69 -192 -138 -177 -178 -218 -365 -123 -573 76 -169 242 -331 416
-408 226 -100 531 -103 751 -8 29 13 108 55 175 93 76 44 179 92 272 127 361
134 461 179 511 232 19 20 19 20 209 0 153 -15 235 -18 420 -14 240 5 330 15
750 81 274 43 326 53 559 111 263 65 352 62 796 -26 315 -62 436 -102 511
-168 19 -17 53 -63 74 -104 60 -109 107 -151 243 -214 64 -30 151 -80 194
-110 42 -30 101 -63 130 -75 29 -11 58 -25 64 -29 5 -5 44 -14 85 -21 56 -9
180 -9 519 0 716 19 843 36 987 133 84 57 151 162 87 138 -42 -16 -89 -12
-109 10 -25 27 -13 45 37 58 65 17 114 53 110 83 -6 56 -3 88 11 115 13 25 13
32 1 49 -8 10 -14 27 -14 37 0 11 -11 23 -25 28 -32 12 -31 16 6 51 18 16 29
32 25 36 -3 3 -38 0 -77 -7 -86 -17 -115 -5 -137 53 -18 45 -10 58 58 92 25
13 52 31 60 40 24 29 -7 36 -130 32 -95 -3 -129 -8 -195 -32 -114 -40 -136
-45 -266 -54 -107 -7 -123 -11 -209 -51 -91 -42 -94 -43 -178 -37 -93 5 -129
-3 -181 -42 -30 -23 -46 -26 -150 -32 -110 -6 -118 -5 -158 18 -32 17 -43 30
-43 47 0 36 113 182 171 219 14 9 103 32 199 51 254 51 464 103 549 137 40 16
155 74 255 128 199 108 257 135 421 191 121 42 688 273 1280 521 490 205 948
430 1399 687 170 96 229 124 301 141 46 11 59 10 134 -14 59 -19 101 -26 140
-24 31 2 76 0 101 -5 34 -6 76 -1 170 19 301 64 394 67 590 20 61 -14 135 -25
177 -25 135 0 298 48 443 131 47 27 138 68 202 93 161 61 184 80 242 208 54
117 111 308 93 308 -3 0 -20 -26 -37 -57 -47 -84 -82 -125 -129 -151 -36 -21
-42 -21 -47 -7 -9 22 46 129 97 190 66 79 86 108 94 135 7 24 7 24 -12 8 -24
-22 -43 -23 -43 -2 0 8 16 54 35 100 46 110 53 161 31 218 -9 24 -24 51 -34
59 -16 15 -17 12 -14 -49 3 -54 -1 -74 -23 -119 -42 -86 -115 -134 -102 -67 8
40 -11 79 -49 101 -19 11 -34 25 -34 30 0 6 14 26 31 46 34 38 49 107 30 135
-5 8 -11 12 -13 10 -2 -3 -12 -23 -23 -45 -27 -53 -60 -65 -117 -39 -30 13
-65 19 -118 19 -96 0 -146 -23 -176 -80 -23 -46 -61 -64 -136 -64 -63 -1 -117
-20 -275 -97 -108 -51 -149 -66 -225 -79 -51 -8 -142 -31 -203 -50 -60 -19
-112 -35 -115 -35 -3 0 19 14 48 30 28 17 52 35 52 40 0 6 -20 10 -45 10 -56
0 -58 13 -5 30 50 16 51 30 3 30 -43 0 -36 10 15 26 l37 11 -35 10 -35 10 65
19 65 19 -70 6 c-46 4 -63 8 -50 13 75 27 129 53 132 62 2 6 -17 22 -42 35
-25 13 -45 26 -45 29 0 3 19 4 43 2 l42 -4 -19 21 c-18 20 -19 22 -1 41 10 11
48 30 84 42 58 19 90 22 261 24 175 1 211 5 345 32 277 57 392 69 890 93 200
9 240 14 305 35 108 36 445 197 445 213 0 8 22 19 54 28 101 25 253 123 221
143 -8 5 22 24 89 55 97 46 121 65 84 65 -10 0 9 15 42 33 65 35 185 118 204
141 10 12 6 13 -26 5 -66 -15 -68 -10 -7 22 32 17 86 48 119 68 l60 36 -44 3
-44 3 57 34 c87 53 167 115 161 125 -3 5 -27 7 -53 4 -44 -5 -40 -3 42 29 48
19 92 39 98 45 6 6 -12 12 -54 17 l-63 8 50 17 c117 40 164 80 105 88 -20 3
-18 7 21 29 53 30 149 103 149 113 0 4 -21 3 -47 -1 -27 -4 -57 -8 -68 -8 -22
0 -10 7 110 60 80 35 76 44 -22 55 l-62 6 87 55 c110 69 118 77 67 69 -22 -3
-65 -9 -95 -12 l-55 -5 87 47 c48 26 86 49 84 52 -2 2 -41 -4 -86 -13 -45 -9
-84 -14 -87 -11 -4 3 27 22 68 41 l74 35 -72 -6 c-88 -7 -95 5 -22 42 28 14
49 27 46 30 -2 2 -28 -1 -56 -7 -89 -19 -82 -2 29 68 l55 34 -92 -6 c-51 -3
-94 -2 -97 3 -3 5 22 25 57 43 l62 34 -75 5 -75 5 45 43 45 42 -74 0 -75 0 34
35 33 34 -34 -8 c-113 -29 -158 -17 -83 23 l49 25 -40 0 c-22 0 -62 -4 -90 -9
-27 -4 -52 -6 -54 -4 -2 2 20 15 50 28 l54 25 -105 1 c-107 0 -122 12 -33 26
70 10 38 24 -60 25 l-92 1 60 12 60 12 -59 8 c-32 5 -86 6 -120 3 l-61 -6 40
19 40 19 -70 -5 c-49 -3 -64 -1 -50 5 14 7 -5 8 -60 5 -59 -3 -75 -2 -60 6 15
7 0 9 -55 5 -70 -5 -73 -4 -45 9 39 19 36 19 -65 1 -105 -19 -122 -19 -90 0
l25 14 -30 0 c-16 -1 -86 -9 -155 -20z"/>
</g>
</svg>
