<?xml version="1.0" standalone="no"?>
<!DOCTYPE svg PUBLIC "-//W3C//DTD SVG 20010904//EN"
 "http://www.w3.org/TR/2001/REC-SVG-20010904/DTD/svg10.dtd">
<svg version="1.0" xmlns="http://www.w3.org/2000/svg"
 width="1536.000000pt" height="1248.000000pt" viewBox="0 0 1536.000000 1248.000000"
 preserveAspectRatio="xMidYMid meet">
<metadata>
Created by potrace 1.16, written by Peter Selinger 2001-2019
</metadata>
<g transform="translate(0.000000,1248.000000) scale(0.100000,-0.100000)"
fill="#000000" stroke="none">
<path d="M10195 12466 c-27 -8 -57 -24 -67 -36 -29 -36 -27 -176 3 -228 10
-18 32 -72 49 -120 17 -48 60 -159 95 -247 65 -162 87 -245 66 -245 -10 0
-156 120 -355 292 -204 175 -509 245 -832 188 -270 -47 -393 -99 -498 -211
-68 -71 -149 -200 -219 -347 -42 -86 -42 -88 -42 -197 1 -92 10 -165 37 -274
8 -34 -26 -35 -389 -18 -987 48 -1632 47 -2158 -3 -168 -16 -395 -48 -545 -76
-190 -36 -640 -140 -730 -169 -41 -13 -165 -49 -275 -80 -199 -56 -795 -230
-890 -261 -68 -22 -448 -207 -615 -300 -87 -48 -172 -105 -240 -161 -126 -105
-669 -640 -854 -842 -249 -273 -241 -260 -532 -838 -169 -335 -273 -552 -293
-613 -134 -412 -269 -1063 -315 -1515 -41 -408 -66 -904 -66 -1325 l1 -305 93
-179 93 -178 -162 -332 c-301 -612 -472 -999 -509 -1146 -48 -196 -58 -374
-31 -555 47 -317 165 -787 231 -916 135 -268 681 -644 1365 -942 331 -145 444
-170 1044 -233 401 -42 673 -53 1260 -53 676 -1 801 7 1245 79 206 33 503 76
660 95 157 20 457 62 667 95 351 55 539 80 807 110 54 5 248 35 430 64 360 59
540 86 741 111 407 49 1271 252 1618 379 53 20 140 52 193 71 116 43 143 56
169 85 19 21 19 22 2 35 -30 22 -157 28 -432 22 -292 -7 -406 -17 -615 -52
-80 -13 -197 -31 -260 -40 -63 -9 -237 -39 -387 -65 -381 -69 -515 -86 -879
-114 -175 -14 -584 -50 -909 -81 -1519 -143 -2119 -182 -2669 -172 -218 4
-347 11 -466 26 -91 12 -289 32 -440 46 -330 31 -594 66 -975 130 -417 69
-508 95 -760 220 -267 132 -488 278 -603 400 -86 90 -138 169 -217 330 -82
167 -95 229 -102 491 -11 391 29 540 273 1034 189 383 263 509 315 536 30 15
32 14 157 -54 174 -96 608 -312 733 -365 327 -139 536 -165 1069 -131 162 10
340 19 396 19 112 0 85 11 275 -116 46 -31 119 -74 162 -95 l79 -39 -6 -45
c-3 -25 -8 -90 -12 -145 -6 -115 4 -142 76 -194 50 -36 103 -47 285 -61 416
-30 816 -3 1237 85 297 62 376 81 1023 251 935 245 926 242 969 317 14 24 40
78 57 120 42 104 59 117 161 128 98 11 111 22 128 107 7 31 16 79 22 106 13
60 41 91 94 99 99 16 97 65 -4 133 -37 25 -98 53 -150 69 -48 15 -102 32 -121
38 -41 14 -77 58 -67 83 23 60 1456 -83 1876 -187 256 -64 674 -241 924 -392
271 -163 421 -299 564 -509 39 -57 82 -114 96 -127 l25 -24 78 16 c43 10 130
31 193 48 102 27 127 30 215 26 124 -5 193 -28 460 -156 105 -49 211 -96 238
-103 64 -17 82 1 81 75 -1 56 -27 117 -75 177 -16 19 -29 38 -29 41 0 4 15 10
33 14 17 4 51 18 73 31 50 28 182 167 190 199 14 58 -7 72 -111 74 -75 2 -121
23 -204 95 -77 66 -137 88 -298 111 -136 18 -203 32 -220 47 -18 15 -16 63 3
105 9 19 42 55 72 81 30 26 88 77 128 114 49 46 81 68 98 68 57 0 43 50 -22
81 -38 19 -64 23 -137 23 -103 0 -137 -9 -371 -96 l-160 -60 -119 72 c-184
111 -370 216 -625 355 -129 70 -237 128 -238 130 -5 4 -52 226 -52 242 0 27
59 77 140 118 48 24 204 99 346 165 484 227 611 301 769 450 107 101 158 138
247 181 76 36 73 36 393 -31 127 -27 304 -58 395 -70 91 -11 291 -38 445 -60
154 -22 334 -45 400 -51 171 -17 389 -7 560 26 281 53 373 66 505 71 164 7
191 18 336 127 122 92 215 189 232 242 7 22 15 81 19 130 7 120 -15 234 -66
343 -48 99 -178 325 -233 403 -44 64 -56 103 -93 304 -74 401 -165 553 -862
1421 -580 725 -691 853 -1017 1180 -255 255 -409 391 -726 643 -220 174 -403
325 -440 364 -37 37 -115 200 -219 460 -204 507 -384 842 -535 993 -139 139
-385 268 -621 325 -107 26 -284 34 -350 15z m-2890 -8262 c-11 -9 -69 -40
-129 -70 -132 -67 -185 -115 -272 -246 -80 -119 -176 -240 -231 -289 -58 -53
-163 -112 -304 -173 -160 -69 -283 -110 -554 -185 -121 -33 -301 -85 -400
-114 -264 -79 -421 -95 -504 -53 -61 32 -45 47 214 193 401 226 652 357 873
455 142 62 560 231 717 288 50 19 160 60 245 93 188 72 318 116 345 116 l20 0
-20 -15z m358 -31 c-24 -2 -62 -2 -85 0 -24 2 -5 4 42 4 47 0 66 -2 43 -4z"/>
</g>
</svg>
