<?xml version="1.0" standalone="no"?>
<!DOCTYPE svg PUBLIC "-//W3C//DTD SVG 20010904//EN"
 "http://www.w3.org/TR/2001/REC-SVG-20010904/DTD/svg10.dtd">
<svg version="1.0" xmlns="http://www.w3.org/2000/svg"
 width="1463.000000pt" height="1172.000000pt" viewBox="0 0 1463.000000 1172.000000"
 preserveAspectRatio="xMidYMid meet">
<metadata>
Created by potrace 1.16, written by Peter Selinger 2001-2019
</metadata>
<g transform="translate(0.000000,1172.000000) scale(0.100000,-0.100000)"
fill="#000000" stroke="none">
<path d="M13650 11701 c-86 -18 -147 -44 -250 -106 -60 -36 -123 -57 -271 -89
l-96 -21 -215 -220 -215 -220 -137 -242 c-98 -172 -177 -331 -278 -555 -77
-172 -141 -315 -143 -316 -9 -10 -63 34 -89 71 l-29 42 53 100 c29 55 79 131
112 168 32 38 65 82 73 98 9 16 19 29 23 29 15 0 94 73 102 94 8 23 -4 54 -29
73 -28 22 -63 14 -99 -19 -33 -32 -34 -32 -27 -8 4 14 32 68 63 120 102 173
106 183 88 219 -27 51 -96 51 -96 0 0 -48 -161 -320 -168 -285 -2 9 7 58 19
109 30 125 33 295 5 326 -12 13 -31 21 -52 21 -46 0 -64 -37 -64 -132 0 -77
-47 -293 -75 -348 -29 -56 -35 -45 -33 60 3 96 2 103 -21 121 -28 23 -84 25
-101 4 -14 -16 7 -192 40 -348 l19 -87 -174 -268 -175 -267 94 -95 c66 -67
106 -118 135 -173 24 -42 41 -81 39 -86 -2 -5 -200 -214 -442 -465 l-439 -457
-186 -133 c-177 -127 -192 -135 -301 -171 -63 -21 -146 -54 -185 -73 -107 -53
-224 -102 -272 -112 -40 -9 -51 -7 -126 26 -86 38 -85 38 -223 18 -38 -5 -44
-3 -67 28 -41 54 -78 144 -89 216 -16 111 -43 197 -62 200 -48 10 -82 -83 -74
-202 4 -45 20 -117 47 -199 24 -71 40 -131 37 -134 -2 -3 -29 4 -58 15 l-53
20 -135 -42 c-110 -34 -161 -57 -279 -125 -79 -46 -178 -98 -220 -116 -192
-81 -274 -136 -292 -193 -34 -116 90 -107 297 19 155 95 295 151 472 188 84
18 155 31 158 29 2 -3 7 -38 10 -80 l7 -75 -154 -67 c-85 -38 -203 -85 -262
-107 -118 -42 -169 -69 -192 -102 -20 -28 -19 -87 1 -116 25 -36 92 -25 185
29 41 23 160 73 264 112 176 64 203 71 368 94 99 14 186 24 194 22 21 -4 -534
-560 -732 -734 -777 -680 -1399 -1179 -1832 -1472 -304 -204 -460 -288 -658
-351 -128 -41 -217 -64 -930 -236 -1386 -335 -1838 -459 -2103 -579 -187 -84
-514 -267 -694 -388 -48 -32 -129 -93 -180 -135 -125 -105 -556 -531 -826
-815 -197 -208 -245 -266 -455 -549 -129 -174 -279 -375 -334 -445 -114 -147
-180 -245 -283 -424 -109 -189 -302 -588 -358 -740 -65 -173 -222 -640 -217
-640 3 0 53 73 113 163 96 143 141 228 386 732 195 400 295 594 334 649 91
127 297 379 576 706 143 168 278 327 300 353 41 49 526 470 646 560 100 76
753 508 864 571 128 74 263 131 499 211 330 113 674 207 853 234 39 6 203 20
365 31 362 25 434 33 613 70 551 115 1253 328 1476 448 183 98 534 322 1020
652 184 125 481 314 660 420 189 112 549 343 860 550 l535 357 102 -30 103
-30 -39 -42 c-37 -40 -39 -47 -45 -121 -4 -44 -13 -130 -21 -193 l-13 -114
-78 -78 c-89 -90 -97 -93 -259 -90 -161 2 -265 -29 -265 -80 0 -54 158 -73
393 -46 l127 14 108 101 108 100 70 -42 c155 -94 155 -95 144 -117 -6 -11 -53
-64 -105 -118 l-95 -98 -87 -11 c-49 -7 -173 -18 -276 -25 -160 -12 -192 -17
-215 -34 -20 -15 -27 -29 -27 -54 0 -50 46 -72 140 -65 39 3 168 10 288 15
l218 10 77 57 c43 32 114 101 161 155 47 54 86 98 87 96 1 -1 15 -25 31 -52
l30 -51 -22 -76 c-16 -54 -34 -90 -62 -124 -97 -116 -99 -194 -5 -194 16 0 41
9 55 20 32 26 114 160 157 260 33 75 33 75 22 154 -7 44 -11 81 -9 82 1 1 42
-11 91 -28 82 -27 93 -29 133 -17 124 34 123 103 -4 136 -88 22 -190 84 -263
157 l-64 66 57 0 c32 0 93 7 135 16 116 24 176 69 153 113 -19 35 -63 41 -264
36 l-192 -5 63 30 c75 35 235 165 343 276 l76 79 13 94 13 95 -33 64 c-32 62
-38 67 -102 96 -37 16 -68 33 -68 36 0 4 58 32 129 63 123 53 139 64 300 196
145 119 191 164 309 303 181 213 466 573 730 924 172 228 231 299 319 380
l108 101 192 16 191 16 139 58 c186 78 216 109 307 316 61 138 70 153 151 241
l86 93 160 63 c89 34 186 65 217 69 66 8 92 21 121 57 25 31 27 71 6 101 -14
20 -12 21 48 43 35 13 76 37 96 57 28 28 32 38 27 65 -19 98 -91 91 -335 -31
l-124 -63 32 44 c38 49 147 206 174 249 21 33 17 56 -20 99 -50 60 -96 30
-216 -145 -58 -84 -255 -301 -265 -291 -2 3 5 45 17 94 28 117 28 195 1 222
-30 30 -73 26 -103 -9 -28 -34 -41 -81 -61 -223 -8 -57 -19 -115 -24 -129 -14
-35 -64 -99 -230 -291 l-144 -168 -109 0 c-60 0 -109 4 -109 9 0 38 461 1016
709 1506 114 225 141 303 141 408 0 61 -28 109 -70 124 -50 17 -141 14 -240
-6z"/>
</g>
</svg>
