<?xml version="1.0" standalone="no"?>
<!DOCTYPE svg PUBLIC "-//W3C//DTD SVG 20010904//EN"
 "http://www.w3.org/TR/2001/REC-SVG-20010904/DTD/svg10.dtd">
<svg version="1.0" xmlns="http://www.w3.org/2000/svg"
 width="1536.000000pt" height="529.000000pt" viewBox="0 0 1536.000000 529.000000"
 preserveAspectRatio="xMidYMid meet">
<metadata>
Created by potrace 1.16, written by Peter Selinger 2001-2019
</metadata>
<g transform="translate(0.000000,529.000000) scale(0.100000,-0.100000)"
fill="#000000" stroke="none">
<path d="M7693 5275 c-103 -25 -210 -69 -333 -135 -69 -37 -136 -71 -149 -75
-13 -4 -61 -44 -106 -89 -85 -85 -176 -166 -285 -256 -36 -30 -173 -160 -305
-290 -336 -331 -350 -339 -611 -369 -93 -11 -232 -23 -309 -26 -343 -15 -951
-96 -1664 -220 -430 -75 -751 -151 -986 -234 -60 -22 -191 -65 -290 -97 -99
-31 -212 -68 -252 -80 -39 -13 -140 -42 -225 -65 -84 -22 -198 -56 -253 -75
-91 -32 -478 -153 -700 -219 -174 -52 -423 -159 -715 -306 -306 -154 -407
-218 -467 -297 -62 -82 -55 -139 31 -223 82 -80 113 -91 294 -99 152 -7 160
-8 242 -44 120 -53 177 -86 195 -112 14 -22 14 -23 -32 -30 -66 -10 -409 3
-458 17 -28 8 -57 29 -95 70 -30 33 -61 59 -69 59 -8 0 -30 -12 -48 -26 -103
-79 -95 -187 21 -291 64 -56 50 -49 312 -172 239 -111 356 -150 609 -200 193
-38 248 -47 475 -72 142 -15 189 -28 445 -114 281 -95 410 -128 631 -160 99
-15 287 -44 419 -66 854 -138 1276 -169 2320 -172 607 -2 1210 13 1430 35 167
17 420 17 469 1 22 -7 62 -33 90 -56 60 -51 287 -218 372 -273 32 -21 97 -57
144 -80 47 -23 128 -67 180 -98 52 -31 101 -56 108 -56 8 0 44 -13 81 -29 98
-44 237 -72 376 -77 104 -4 132 -2 205 18 79 22 87 27 113 66 l29 43 -16 94
c-27 157 -96 324 -159 388 -19 18 -71 52 -116 76 -54 28 -80 46 -73 53 18 18
219 29 712 37 544 10 512 6 713 80 46 17 91 31 101 31 9 0 102 -80 205 -178
230 -216 266 -248 406 -359 230 -182 362 -280 425 -314 93 -51 238 -107 339
-130 47 -10 111 -26 141 -33 30 -8 109 -22 175 -31 111 -15 128 -15 204 -1
113 22 129 31 179 106 122 183 219 431 283 725 5 22 12 176 15 342 8 332 7
336 -54 366 -49 25 -173 38 -259 26 -43 -5 -125 -9 -183 -7 l-105 3 70 22
c116 36 342 66 510 67 l150 1 65 -37 c280 -158 374 -208 510 -274 85 -41 256
-126 380 -189 124 -62 281 -136 350 -163 69 -28 148 -60 175 -71 73 -30 464
-167 527 -185 29 -8 96 -31 149 -50 122 -44 320 -78 431 -74 l83 3 32 61 c51
97 63 158 63 334 0 294 -19 612 -46 759 -14 75 -34 186 -45 246 -11 61 -24
171 -29 245 -6 74 -15 171 -20 215 -16 139 -11 270 15 420 62 348 61 336 41
548 -34 373 -37 402 -46 422 -5 11 -11 35 -12 54 -2 23 -11 40 -28 52 -23 17
-30 17 -85 5 -134 -30 -250 -67 -342 -109 -97 -45 -391 -160 -613 -242 -240
-88 -479 -195 -699 -313 -222 -120 -539 -222 -766 -247 -81 -9 -570 31 -639
52 -14 4 7 18 80 53 54 26 112 62 128 78 27 30 28 34 24 105 -4 62 -10 81 -34
115 -43 59 -108 99 -227 138 -144 46 -195 45 -390 -7 -243 -65 -277 -75 -374
-113 -92 -36 -147 -48 -324 -67 -88 -10 -118 -8 -375 25 -362 47 -669 83 -769
91 -44 3 -165 15 -270 25 -104 11 -334 31 -510 45 -176 14 -399 34 -495 45
-96 11 -194 20 -217 20 -45 0 -58 16 -20 25 12 3 52 9 88 15 37 5 86 19 110
29 25 11 101 26 174 35 157 19 225 38 268 75 17 15 40 31 50 34 27 10 40 50
33 99 -10 64 -74 178 -117 208 -20 14 -69 63 -109 110 -40 47 -84 90 -99 96
-14 6 -41 30 -59 53 -27 34 -39 41 -67 41 -43 0 -75 29 -75 68 0 17 -13 47
-32 72 -45 58 -45 60 -62 102 -12 30 -26 43 -70 65 -50 24 -56 30 -56 59 0 17
-11 46 -25 65 -13 19 -36 56 -50 82 -14 26 -36 52 -49 57 -13 5 -32 20 -44 34
-11 14 -23 26 -27 26 -5 0 -24 17 -44 38 -41 42 -81 66 -165 99 -65 26 -78 26
-153 8z"/>
</g>
</svg>
