<?xml version="1.0" standalone="no"?>
<!DOCTYPE svg PUBLIC "-//W3C//DTD SVG 20010904//EN"
 "http://www.w3.org/TR/2001/REC-SVG-20010904/DTD/svg10.dtd">
<svg version="1.0" xmlns="http://www.w3.org/2000/svg"
 width="1536.000000pt" height="884.000000pt" viewBox="0 0 1536.000000 884.000000"
 preserveAspectRatio="xMidYMid meet">
<metadata>
Created by potrace 1.16, written by Peter Selinger 2001-2019
</metadata>
<g transform="translate(0.000000,884.000000) scale(0.100000,-0.100000)"
fill="#000000" stroke="none">
<path d="M7560 8824 c-52 -7 -133 -13 -180 -12 -61 0 -112 -7 -181 -25 -54
-14 -150 -30 -220 -36 -78 -6 -176 -22 -264 -44 -77 -19 -230 -56 -340 -82
-255 -61 -362 -96 -617 -206 -271 -117 -349 -145 -470 -169 -55 -12 -132 -36
-172 -54 -39 -19 -134 -57 -211 -85 -344 -127 -414 -161 -634 -315 -86 -59
-142 -91 -180 -102 -83 -23 -138 -47 -336 -147 -190 -97 -408 -237 -672 -432
-85 -63 -179 -129 -209 -147 -332 -198 -721 -492 -1274 -964 -245 -208 -338
-282 -384 -306 -62 -31 -149 -103 -170 -140 -42 -71 -458 -465 -585 -553 -32
-22 -77 -62 -100 -89 -62 -72 -141 -192 -147 -224 -8 -39 22 -96 91 -173 58
-64 75 -103 56 -122 -8 -8 -22 -2 -53 20 -59 42 -94 58 -155 73 -76 17 -86 11
-122 -81 -17 -44 -31 -87 -31 -96 0 -8 20 -47 44 -87 52 -83 81 -152 108 -256
10 -41 30 -93 45 -115 34 -52 282 -295 401 -393 51 -43 124 -94 163 -114 112
-60 257 -176 539 -433 254 -232 334 -301 379 -329 22 -14 103 -86 178 -159
143 -137 201 -183 267 -211 57 -24 149 -92 319 -238 84 -72 181 -151 217 -176
36 -26 144 -105 240 -177 336 -251 548 -387 940 -603 91 -50 210 -116 265
-146 115 -65 188 -94 262 -106 71 -12 83 -20 168 -109 l74 -78 168 -55 c93
-31 206 -64 253 -73 47 -10 98 -24 113 -32 67 -34 467 -126 842 -193 967 -173
1096 -190 1440 -190 132 0 292 -7 430 -20 247 -22 332 -24 390 -9 105 28 178
40 410 69 138 17 284 40 325 51 41 10 156 28 255 38 180 19 209 26 289 75 25
15 66 27 116 34 58 7 87 16 112 35 47 36 247 137 271 137 32 0 184 78 226 116
21 19 48 34 59 34 11 0 70 33 131 74 61 41 121 78 133 81 28 9 68 44 68 60 0
30 114 112 205 146 30 11 65 33 79 50 14 16 51 44 83 62 42 24 68 48 101 96
24 36 81 104 126 152 45 48 89 102 97 121 9 18 27 55 40 83 29 60 223 265 286
302 51 29 60 44 73 115 6 31 33 91 65 148 30 53 55 102 55 108 0 39 77 101
144 117 43 10 95 68 102 116 4 22 29 77 56 122 88 146 88 145 88 262 l0 106
35 20 c68 41 57 98 -41 209 -125 141 -259 347 -319 488 -18 42 -44 99 -59 126
-31 58 -36 148 -10 202 26 54 55 59 344 59 292 0 264 6 527 -106 89 -38 226
-89 305 -115 78 -25 202 -66 273 -90 190 -66 206 -70 381 -94 87 -12 254 -35
369 -52 277 -41 340 -44 390 -23 24 10 92 20 171 25 198 15 252 40 395 187 94
96 115 129 125 194 9 58 26 75 89 94 58 16 65 26 65 90 0 35 6 49 29 73 16 16
35 48 42 71 12 40 11 46 -19 107 -18 35 -32 74 -32 85 0 27 -26 76 -61 117
-16 18 -34 53 -40 78 -8 29 -21 51 -37 62 -13 9 -33 35 -42 58 -25 57 -81 89
-217 121 -174 41 -178 42 -198 57 -30 22 -9 47 61 71 87 30 82 42 -38 96 -59
26 -61 47 -12 87 35 29 36 30 15 41 -11 6 -106 31 -210 56 -104 24 -221 58
-260 75 -104 45 -348 99 -499 110 -168 12 -826 12 -975 0 -77 -6 -144 -18
-190 -34 -136 -47 -200 -59 -292 -59 -185 2 -575 95 -575 138 0 6 27 50 61 96
80 110 137 207 145 244 4 24 -1 38 -25 69 -35 44 -37 59 -16 109 31 74 19 112
-70 232 -76 102 -80 110 -80 200 l0 80 -52 70 c-29 39 -60 93 -69 120 -22 66
-45 106 -103 174 -26 31 -59 75 -71 98 -16 29 -34 46 -56 53 -58 19 -108 64
-138 124 -30 60 -93 121 -162 158 -40 21 -43 21 -85 5 -25 -9 -98 -51 -164
-93 -149 -94 -233 -137 -252 -130 -34 13 22 118 133 251 131 156 140 255 22
255 -51 0 -84 17 -99 52 -7 16 -23 36 -36 45 -13 8 -37 42 -55 75 -43 81 -90
112 -172 115 -34 1 -64 2 -68 2 -4 1 -22 29 -40 63 -21 40 -68 98 -128 160
-77 78 -103 98 -139 108 -24 6 -60 24 -80 40 -20 15 -86 53 -147 85 l-111 57
-159 -37 c-138 -32 -304 -65 -326 -65 -18 0 -5 32 36 87 24 32 47 68 50 81 11
35 -37 73 -135 106 -46 16 -115 44 -154 62 -92 43 -115 48 -442 88 -451 56
-774 69 -983 40z"/>
</g>
</svg>
