<?xml version="1.0" standalone="no"?>
<!DOCTYPE svg PUBLIC "-//W3C//DTD SVG 20010904//EN"
 "http://www.w3.org/TR/2001/REC-SVG-20010904/DTD/svg10.dtd">
<svg version="1.0" xmlns="http://www.w3.org/2000/svg"
 width="1536.000000pt" height="1527.000000pt" viewBox="0 0 1536.000000 1527.000000"
 preserveAspectRatio="xMidYMid meet">
<metadata>
Created by potrace 1.16, written by Peter Selinger 2001-2019
</metadata>
<g transform="translate(0.000000,1527.000000) scale(0.100000,-0.100000)"
fill="#000000" stroke="none">
<path d="M3170 15259 c0 -6 -13 -28 -30 -49 -16 -20 -59 -93 -95 -161 -37 -68
-110 -197 -163 -285 -88 -147 -98 -160 -110 -143 -17 25 -36 24 -55 -3 -8 -13
-29 -32 -47 -42 -33 -19 -33 -19 -25 0 5 10 10 46 11 79 l2 60 -18 -45 c-11
-25 -19 -53 -19 -63 -1 -24 -44 -88 -56 -83 -11 4 -11 15 -1 66 l8 35 -18 -25
c-10 -13 -27 -43 -39 -65 -18 -36 -24 -40 -57 -40 -32 -1 -37 2 -32 17 7 24
-3 23 -38 -7 -21 -18 -42 -25 -76 -26 -26 -1 -54 -3 -62 -4 -8 -1 -21 -3 -27
-4 -7 0 -13 -9 -13 -19 0 -35 -15 -34 -25 3 l-11 36 -34 -52 c-18 -29 -34 -62
-35 -73 -1 -15 -10 -23 -31 -26 -30 -5 -54 -39 -54 -78 0 -28 -28 -84 -67
-133 -130 -167 -139 -176 -270 -254 -71 -42 -160 -103 -200 -136 -55 -46 -83
-61 -125 -70 -29 -7 -85 -25 -125 -40 -80 -33 -90 -34 -96 -16 -2 6 -3 4 -2
-5 4 -26 -14 -32 -36 -12 -10 9 -19 12 -19 6 0 -6 5 -12 12 -14 6 -2 -1 -15
-18 -31 -16 -15 -35 -25 -41 -22 -7 2 -12 1 -10 -3 1 -4 -11 -24 -26 -44 -43
-55 -46 -105 -11 -166 l28 -50 -19 -54 c-11 -35 -15 -65 -11 -83 9 -34 67 -95
91 -95 13 0 16 -6 13 -25 -3 -13 -1 -22 4 -19 10 6 38 -14 38 -27 0 -4 -10
-17 -22 -29 -18 -16 -19 -20 -6 -20 9 0 20 9 23 20 7 21 14 24 39 14 11 -4 13
-14 9 -36 -4 -22 -3 -29 5 -24 7 4 12 15 12 24 0 21 31 49 68 63 33 13 102 2
102 -16 0 -8 9 -16 19 -20 12 -4 18 -12 14 -21 -3 -7 0 -14 7 -14 7 0 9 -8 5
-20 -5 -15 -2 -20 11 -20 13 0 14 -3 4 -15 -8 -10 -9 -19 -3 -27 6 -7 9 -23 8
-35 -1 -15 4 -23 13 -23 9 0 13 -2 10 -5 -6 -6 70 -85 82 -85 4 0 10 -7 14
-15 3 -8 12 -15 20 -15 8 0 28 -12 45 -26 17 -14 31 -22 31 -18 0 4 10 -2 23
-13 12 -11 40 -26 62 -33 22 -7 101 -37 175 -67 111 -43 146 -53 196 -53 48 0
74 -7 122 -31 34 -17 60 -35 57 -39 -3 -5 3 -14 14 -20 12 -6 18 -16 15 -25
-7 -17 11 -21 21 -5 4 6 11 8 16 5 5 -4 9 -2 9 2 0 5 14 10 31 11 20 2 28 -1
24 -8 -4 -6 -13 -9 -21 -6 -7 3 -16 1 -19 -4 -4 -6 0 -10 7 -10 7 0 -4 -11
-25 -24 -20 -12 -39 -25 -42 -28 -11 -11 95 9 109 21 13 11 19 11 31 1 23 -19
14 -31 -35 -49 -49 -18 -65 -41 -28 -41 13 0 28 4 33 9 6 5 21 12 35 16 21 5
20 3 -7 -14 -42 -27 -42 -35 2 -27 43 8 46 -7 5 -24 -17 -7 -33 -17 -36 -22
-4 -5 8 -3 24 6 42 22 52 20 24 -4 l-24 -20 38 3 c48 3 56 -19 12 -32 -28 -8
-29 -9 -9 -10 53 -2 5 -16 -72 -22 l-82 -6 78 -1 c46 -1 77 -6 77 -12 0 -7
-15 -9 -37 -6 -21 3 -29 3 -18 0 11 -3 25 -11 30 -16 7 -7 2 -8 -14 -3 -15 5
-21 4 -17 -3 4 -6 -11 -15 -36 -21 l-43 -11 45 5 c25 2 61 7 80 10 l35 5 -28
-13 c-15 -7 -25 -16 -22 -19 3 -3 -18 -11 -47 -18 -42 -10 -49 -15 -33 -21 11
-4 27 -8 35 -8 13 -1 13 0 0 10 -11 8 -6 9 20 4 26 -5 31 -4 20 4 -18 13 -1
15 18 2 9 -5 0 -13 -31 -25 -24 -9 -59 -28 -77 -41 -22 -17 -48 -25 -74 -26
-52 -1 -27 -12 64 -29 36 -6 69 -16 74 -21 6 -5 16 -9 23 -9 16 0 112 -59 98
-60 -5 -1 2 -8 18 -16 37 -20 35 -39 -3 -19 -16 8 -33 15 -37 15 -4 -1 10 -10
31 -21 24 -13 35 -24 27 -28 -8 -5 -7 -12 4 -27 18 -24 19 -34 1 -34 -19 0
-80 71 -68 79 13 8 -5 34 -35 49 -27 15 -36 15 -28 2 12 -19 -32 -10 -106 21
-109 45 -119 49 -119 44 0 -3 40 -25 89 -50 79 -39 96 -53 145 -116 31 -39 56
-75 56 -81 0 -5 5 -6 12 -2 6 4 8 3 5 -3 -4 -6 5 -32 20 -58 l26 -48 -65 49
c-36 27 -63 54 -60 59 3 6 -1 5 -9 -2 -20 -16 -114 68 -96 86 9 9 8 11 -5 6
-22 -9 -23 -25 -3 -51 23 -31 18 -33 -32 -14 -94 35 -97 30 -8 -16 50 -26 93
-52 97 -58 13 -19 9 -28 -9 -21 -10 4 -30 9 -45 10 -15 2 -50 17 -78 34 -28
17 -53 31 -57 31 -3 0 -15 7 -25 17 -10 9 -20 14 -23 11 -3 -3 23 -26 58 -51
82 -60 110 -91 112 -122 1 -22 -4 -19 -43 25 -44 50 -79 76 -89 66 -3 -3 20
-33 51 -67 58 -65 69 -85 38 -75 -11 4 -9 0 5 -10 27 -20 30 -34 6 -34 -15 0
-14 -4 7 -23 14 -12 21 -19 16 -14 -6 4 -17 7 -25 7 -11 0 -9 -5 7 -16 30 -21
28 -34 -8 -34 -27 0 -33 7 -70 80 -38 75 -107 167 -117 156 -3 -3 13 -26 35
-53 44 -52 88 -135 96 -178 3 -15 10 -33 16 -40 9 -11 7 -12 -10 -8 -20 5 -20
3 -14 -68 l7 -73 -44 37 c-24 20 -60 53 -79 72 -38 40 -176 111 -230 120 -33
5 -34 5 -10 -6 14 -7 62 -29 107 -50 61 -29 91 -50 120 -85 21 -26 57 -67 79
-91 23 -23 37 -43 32 -43 -5 0 -6 -5 -3 -11 4 -6 10 -8 13 -5 8 9 33 -15 26
-25 -3 -5 -19 -2 -35 7 -17 8 -34 13 -37 9 -8 -8 47 -57 57 -51 4 3 8 -6 9
-19 3 -36 -15 -40 -53 -10 -19 14 -35 24 -35 21 0 -3 19 -19 42 -36 37 -27 41
-36 14 -31 -5 1 -4 -5 4 -13 7 -9 8 -16 2 -16 -11 0 -29 20 -32 35 -1 6 -4 12
-7 15 -4 3 -3 -1 2 -9 5 -9 3 -12 -6 -9 -8 3 -13 11 -11 17 1 7 -2 10 -7 6 -6
-3 -41 23 -78 57 -91 84 -128 113 -85 67 18 -19 29 -38 26 -42 -3 -3 31 -47
77 -97 84 -92 125 -145 82 -107 -18 16 -21 16 -26 2 -4 -8 -14 -15 -23 -15
-13 0 -14 -3 -4 -15 7 -8 9 -15 4 -15 -5 0 0 -7 11 -15 18 -14 18 -17 3 -31
-10 -10 -21 -13 -30 -8 -7 5 -22 10 -32 11 -11 2 -47 10 -79 19 -33 8 -62 13
-65 10 -3 -3 1 -6 9 -6 8 0 34 -21 58 -47 36 -41 39 -42 17 -10 -36 49 -26 47
23 -5 37 -40 48 -64 19 -41 -7 6 -22 7 -33 3 -18 -6 -17 -9 13 -24 17 -9 32
-19 32 -22 0 -2 -10 0 -21 7 -21 11 -22 10 -15 -27 16 -86 17 -83 -13 -73 -21
7 -32 22 -43 57 -12 35 -16 40 -17 22 0 -14 19 -83 43 -155 24 -71 42 -132 40
-134 -3 -3 -37 26 -77 65 -52 50 -46 43 21 -27 62 -65 92 -104 92 -120 l0 -23
-27 25 c-54 48 -68 53 -27 8 24 -26 39 -51 37 -62 -3 -9 -9 -15 -14 -12 -5 3
-1 -9 8 -27 32 -64 33 -68 24 -68 -10 0 -26 19 -26 32 0 3 -13 17 -30 29 -16
13 -25 17 -20 10 6 -11 4 -13 -11 -7 -10 4 1 -12 26 -34 25 -23 36 -38 25 -34
-11 3 -42 15 -70 25 -37 15 -45 16 -31 4 18 -14 12 -15 -70 -17 l-89 -1 100
-7 c94 -7 140 -14 175 -27 8 -4 18 -7 23 -7 4 -1 7 -4 7 -8 0 -5 0 -14 0 -22
0 -11 -6 -12 -38 -1 -20 7 -62 15 -92 18 l-55 5 54 -13 c77 -19 98 -33 99 -61
0 -25 -5 -25 -56 -7 -6 3 -12 3 -12 0 0 -3 23 -13 51 -22 68 -23 52 -36 -53
-45 -51 -4 -68 -8 -43 -10 l40 -2 -55 -18 c-67 -22 -55 -25 20 -5 30 8 56 13
58 10 2 -2 -5 -12 -17 -24 -11 -11 -15 -21 -9 -23 6 -2 0 -16 -13 -31 l-24
-28 -44 41 c-24 22 -48 40 -54 40 -6 0 -7 -3 -4 -7 4 -3 1 -13 -6 -22 -10 -14
-10 -14 5 -3 15 12 22 10 53 -15 19 -15 35 -31 35 -34 0 -15 -82 -60 -100 -54
-10 3 -53 42 -95 86 -42 44 -71 70 -65 58 7 -12 32 -42 57 -67 l45 -45 -30 6
c-16 3 -42 9 -57 13 -19 5 -26 3 -21 -4 3 -6 32 -14 64 -18 31 -4 68 -15 81
-25 26 -21 24 -22 -44 -38 -25 -5 -31 -9 -17 -10 14 -1 21 -5 16 -12 -3 -6 7
-4 22 4 16 8 45 17 64 20 19 3 44 9 55 13 18 7 19 6 6 -10 -8 -9 -20 -15 -28
-12 -8 3 -12 2 -9 -3 7 -11 -33 -47 -63 -56 -14 -4 -19 -10 -13 -14 7 -4 0
-14 -18 -25 -17 -9 -35 -14 -42 -10 -6 4 -27 8 -46 10 -19 2 -46 13 -59 26
-18 17 -23 18 -17 5 3 -9 4 -17 2 -17 -5 0 -155 45 -183 54 -13 5 -11 2 5 -8
26 -16 77 -34 173 -61 32 -9 55 -20 52 -26 -4 -5 -1 -8 6 -7 6 2 13 -2 15 -8
3 -5 -34 -30 -82 -54 -47 -25 -88 -48 -90 -52 -6 -10 18 0 74 30 24 13 45 22
45 20 22 -45 46 -71 97 -105 61 -42 80 -51 80 -35 0 4 -16 14 -35 20 -49 18
-134 99 -116 111 11 7 11 9 0 13 -9 3 -2 11 18 22 33 16 33 16 123 -29 49 -26
90 -48 90 -51 0 -10 -82 5 -107 20 l-28 17 27 -24 c15 -14 37 -32 50 -42 23
-16 23 -16 4 -30 -11 -8 -16 -15 -11 -15 5 0 4 -5 -3 -12 -14 -14 -16 -32 -3
-23 5 3 12 1 16 -5 8 -14 -82 -1 -120 17 -27 13 -28 13 -11 -2 18 -14 9 -15
-110 -16 -111 -1 -120 -3 -69 -10 33 -4 112 -9 176 -11 113 -3 116 -3 96 -21
-11 -9 -32 -20 -46 -23 -43 -10 -47 -12 -18 -13 40 -1 34 -27 -10 -40 l-38
-10 48 5 c53 6 62 -7 20 -30 -25 -13 -34 -12 -92 10 -35 13 -69 28 -75 33 -22
16 -45 20 -40 7 3 -7 10 -13 17 -13 7 0 40 -14 75 -30 l63 -29 -40 -19 c-57
-25 -45 -30 13 -5 56 24 72 19 49 -16 -12 -18 -13 -28 -5 -36 8 -8 22 -4 51
15 22 15 46 27 53 27 7 0 4 -6 -7 -12 -11 -6 -29 -19 -40 -28 -11 -10 -33 -23
-50 -29 -27 -10 -26 -11 15 -5 25 4 59 8 75 9 17 1 38 6 48 10 10 4 17 3 17
-4 0 -6 -7 -11 -15 -11 -19 0 -85 -58 -82 -72 1 -6 -13 -15 -31 -18 -18 -4
-36 -11 -40 -15 -4 -3 7 -4 23 0 l30 6 -25 -23 c-14 -13 -34 -34 -45 -48 -11
-14 1 -6 27 18 49 43 62 49 73 32 4 -6 -7 -16 -24 -23 -17 -7 -28 -16 -24 -20
3 -4 -2 -14 -13 -23 -16 -13 -16 -15 -2 -10 26 8 32 -11 7 -24 -11 -7 -18 -14
-15 -18 4 -3 -23 -36 -59 -72 -36 -36 -67 -77 -70 -90 -4 -22 -2 -21 30 10 36
35 44 47 23 34 -7 -4 -8 -3 -4 5 4 6 11 9 16 6 5 -3 20 6 34 20 14 14 33 25
43 25 12 0 3 -15 -32 -52 -28 -29 -40 -44 -27 -34 22 19 22 19 22 0 0 -11 -6
-26 -13 -33 -10 -10 -9 -11 3 -6 26 9 22 -34 -7 -71 -14 -19 -34 -34 -44 -34
-10 0 -26 -12 -36 -28 -10 -15 -22 -30 -28 -34 -6 -5 -6 -8 0 -8 6 0 -3 -12
-20 -25 -16 -14 -24 -25 -17 -25 19 0 14 -16 -10 -29 -15 -7 -16 -10 -4 -6 20
6 20 6 -10 -61 -14 -34 -28 -47 -72 -68 -30 -15 -52 -29 -49 -32 3 -3 24 4 47
16 28 15 41 17 38 8 -3 -7 -24 -23 -49 -34 -40 -20 -42 -22 -19 -26 25 -4 25
-4 -10 -26 -19 -12 -30 -22 -23 -22 26 0 0 -29 -35 -38 -34 -9 -35 -10 -9 -11
42 -1 30 -20 -45 -66 -36 -22 -81 -53 -99 -68 l-34 -29 37 26 c20 14 46 26 57
26 11 0 32 5 46 12 14 6 28 8 32 4 10 -9 -26 -33 -128 -82 -99 -48 -121 -68
-32 -28 105 47 103 47 103 19 0 -20 -6 -25 -35 -31 -19 -3 -38 -10 -40 -15 -3
-4 14 -2 39 5 24 7 50 10 56 6 9 -5 6 -10 -9 -15 -13 -4 -20 -10 -16 -13 3 -4
-9 -12 -27 -19 -29 -12 -30 -13 -6 -10 50 7 19 -11 -75 -43 -50 -17 -103 -38
-117 -46 -17 -10 -18 -13 -5 -8 65 22 167 54 175 54 4 0 2 -13 -6 -30 -9 -16
-21 -30 -28 -30 -7 0 -21 -7 -32 -15 -18 -14 -17 -15 11 -10 23 5 18 -1 -25
-24 -60 -33 -63 -40 -6 -16 20 8 36 13 36 9 0 -20 -25 -43 -52 -50 -32 -7 -32
-8 -8 -14 24 -7 23 -8 -18 -25 -46 -19 -53 -32 -8 -16 27 11 34 3 14 -17 -9
-9 -9 -12 2 -12 9 -1 4 -7 -9 -14 l-24 -14 21 -6 c30 -10 28 -16 -13 -49 -19
-15 -35 -33 -35 -39 0 -9 3 -9 12 0 21 21 26 13 17 -30 -11 -64 -19 -80 -53
-117 -27 -29 -28 -32 -9 -27 12 4 24 2 28 -4 4 -6 -5 -10 -22 -10 -15 -1 -57
-7 -93 -15 l-65 -14 65 5 c36 3 77 7 93 10 22 5 27 2 27 -15 0 -11 -4 -22 -8
-25 -5 -3 -7 -19 -4 -35 3 -26 0 -31 -22 -37 -14 -3 -23 -10 -20 -16 3 -5 13
-7 21 -4 9 4 13 1 11 -6 -3 -9 -38 -15 -109 -19 l-104 -5 85 -2 c85 -3 85 -3
63 -21 -32 -27 -29 -36 5 -13 49 34 52 35 52 10 0 -16 -13 -31 -45 -51 -61
-39 -71 -58 -12 -24 44 26 47 27 47 8 0 -11 -12 -30 -27 -42 -26 -20 -26 -21
-5 -16 32 8 27 -7 -16 -43 -25 -21 -29 -27 -12 -19 20 10 16 2 -20 -42 -33
-39 -38 -48 -18 -34 15 11 28 24 28 28 0 5 5 5 12 1 6 -4 8 -3 5 3 -4 6 2 18
13 28 11 10 20 13 20 7 0 -6 -4 -13 -9 -16 -5 -3 -7 -14 -4 -24 2 -10 -3 -31
-11 -47 -14 -27 -14 -31 -1 -41 8 -6 15 -19 15 -29 0 -14 -7 -16 -35 -13 -19
2 -35 0 -35 -4 0 -4 16 -8 35 -8 46 0 52 -17 34 -94 -7 -34 -14 -85 -14 -114
0 -51 -2 -54 -40 -79 -36 -23 -34 -25 11 -6 12 4 15 2 12 -8 -2 -7 -68 -50
-146 -94 -77 -44 -144 -84 -149 -89 -10 -11 18 4 154 81 62 34 114 63 116 63
2 0 -3 -31 -12 -69 -15 -62 -22 -74 -74 -124 -36 -35 -57 -63 -57 -78 0 -19 4
-17 29 17 15 21 39 48 51 59 l24 20 -22 -32 c-12 -17 -22 -43 -22 -56 0 -14
-5 -29 -10 -32 -6 -4 -8 -10 -6 -14 3 -4 -10 -23 -29 -41 -19 -19 -35 -38 -35
-44 0 -5 14 3 30 19 l30 29 0 -24 c0 -14 -15 -40 -37 -62 l-36 -37 36 2 c35 2
79 27 48 27 -11 0 -11 3 -1 15 15 18 34 20 24 3 -5 -7 -8 -23 -8 -37 -1 -27
-46 -52 -46 -25 0 8 -5 12 -10 9 -6 -4 -8 -11 -5 -16 4 -5 -6 -14 -21 -21
l-27 -13 24 -5 c14 -4 30 0 37 7 20 19 31 16 25 -7 -3 -11 0 -27 7 -35 10 -12
7 -20 -18 -45 -17 -16 -28 -30 -25 -30 3 0 -2 -11 -11 -25 -34 -51 -14 -34 40
35 40 50 59 68 65 59 4 -8 0 -23 -10 -38 -34 -48 -71 -131 -87 -191 -12 -48
-25 -69 -62 -106 l-47 -47 45 39 45 39 5 -114 5 -114 -71 -71 c-104 -104 -112
-135 -10 -38 l87 84 33 -34 33 -33 -36 -24 c-53 -35 -62 -48 -16 -21 22 13 44
27 50 32 5 4 19 8 31 8 13 0 29 8 36 19 15 21 128 87 128 74 0 -12 -85 -100
-138 -143 -25 -21 -39 -39 -35 -46 5 -7 51 19 131 77 68 49 120 83 115 76 -4
-6 -24 -34 -45 -60 -21 -27 -38 -53 -38 -57 0 -5 -12 -23 -28 -41 l-27 -34 31
22 c37 27 57 50 60 70 2 8 9 22 16 31 8 10 36 42 62 73 36 44 51 56 67 52 18
-5 9 -16 -61 -81 -91 -84 -101 -110 -13 -36 l57 49 -38 -55 c-62 -88 -154
-177 -179 -175 -14 1 -15 1 -4 -2 30 -7 0 -34 -32 -28 -26 5 -26 5 2 -6 24 -9
30 -8 41 6 11 15 19 16 52 8 l39 -10 -40 -7 c-22 -4 -48 -12 -58 -17 -14 -8
-51 -2 -140 21 -67 18 -134 38 -150 46 -15 8 -27 12 -27 10 0 -12 63 -36 163
-62 59 -15 107 -31 107 -36 0 -4 -7 -8 -15 -8 -8 0 -15 -4 -15 -10 0 -6 -57
-10 -152 -10 -111 0 -149 -3 -141 -11 6 -6 22 -10 34 -10 13 1 92 3 174 6
l150 4 -85 -30 c-83 -30 -130 -33 -185 -14 -14 4 -13 2 4 -8 24 -14 24 -15 3
-26 -11 -6 -47 -12 -79 -12 -49 -1 -53 -3 -23 -8 33 -6 34 -7 10 -14 -14 -4
-35 -7 -48 -7 -13 0 -21 -4 -18 -9 4 -5 3 -11 -1 -14 -5 -2 -1 -1 7 2 8 3 44
6 80 7 51 2 57 1 30 -6 l-35 -7 40 -3 c22 -2 56 -3 75 -1 32 2 33 1 15 -11
-17 -12 -97 -44 -235 -94 -19 -7 -30 -13 -25 -14 6 0 3 -5 -5 -10 -21 -14 -76
-12 -138 4 -28 8 -50 11 -47 6 3 -4 34 -14 70 -21 40 -8 60 -16 53 -21 -26
-16 4 -7 45 13 27 13 62 21 97 21 52 0 53 1 15 7 l-40 7 35 7 c60 10 205 24
210 20 3 -3 -6 -13 -19 -24 -16 -13 -39 -19 -75 -19 -28 -1 -78 -7 -111 -15
l-60 -14 72 2 c41 1 69 -2 65 -7 -3 -6 3 -6 14 -1 10 4 30 10 44 12 22 4 23 3
7 -7 -9 -6 -36 -12 -60 -14 -23 -1 -52 -8 -64 -14 -12 -7 -31 -12 -43 -12 -12
0 -18 -4 -15 -10 4 -7 -2 -9 -17 -7 -12 2 -18 2 -11 0 6 -2 -68 -44 -165 -93
-174 -88 -271 -150 -280 -180 -3 -8 11 -1 29 16 54 51 142 102 327 192 103 49
195 87 225 92 29 5 60 11 69 15 10 4 18 5 18 1 0 -3 -33 -21 -73 -40 -83 -40
-133 -75 -104 -76 38 0 12 -18 -99 -64 -63 -26 -114 -50 -112 -52 3 -2 57 19
122 46 123 53 142 58 130 38 -4 -7 5 -2 19 11 15 14 29 22 32 19 10 -10 -47
-69 -61 -64 -7 3 -18 -3 -26 -12 -12 -15 -11 -16 5 -3 9 7 17 9 17 3 0 -5 -10
-17 -23 -26 -22 -16 -22 -16 13 -10 32 5 34 5 15 -9 -11 -8 -49 -24 -85 -36
-58 -19 -105 -40 -89 -41 3 0 32 9 64 20 68 23 65 23 65 10 0 -6 -12 -15 -27
-21 -16 -6 -37 -18 -48 -28 -11 -10 -65 -42 -119 -71 -54 -29 -107 -61 -117
-71 -9 -9 -21 -14 -25 -11 -4 4 -4 2 -1 -4 8 -15 -40 -47 -55 -38 -7 5 -8 3
-4 -5 5 -8 3 -11 -6 -9 -7 2 -14 -1 -15 -7 -1 -13 -2 -14 112 45 99 51 107 57
30 25 -33 -14 -37 -14 -25 -2 17 17 190 117 202 117 14 0 -14 -48 -36 -59 -14
-8 -15 -10 -3 -6 10 2 16 1 15 -3 -2 -4 -10 -20 -18 -37 -8 -16 -21 -39 -30
-49 -8 -11 -9 -16 -3 -12 9 5 11 2 6 -11 -9 -25 -24 -43 -36 -43 -5 0 -2 10 9
22 10 12 -46 -41 -124 -118 -79 -76 -147 -146 -152 -154 -5 -8 39 32 96 89 58
57 107 101 110 99 2 -3 21 11 41 31 32 31 38 33 41 18 2 -11 -7 -30 -20 -45
-12 -14 12 1 55 32 89 65 113 67 46 5 -24 -23 -43 -44 -42 -48 1 -4 -29 -39
-68 -77 -38 -37 -69 -63 -69 -57 0 6 29 38 65 69 73 65 81 87 10 28 -26 -22
-51 -38 -56 -36 -5 1 -9 -3 -9 -9 0 -6 -33 -46 -73 -88 -39 -42 -81 -87 -92
-101 -11 -14 14 10 56 55 43 44 80 77 84 74 3 -4 -24 -44 -61 -90 -106 -133
-104 -138 5 -14 24 28 40 42 37 31 -3 -10 -13 -57 -21 -105 -14 -79 -18 -89
-52 -120 l-38 -34 38 27 c20 15 42 24 47 21 6 -3 10 1 10 9 0 8 9 20 20 26 10
6 17 16 15 23 -2 6 11 30 31 52 32 37 34 38 24 11 -6 -15 -20 -37 -33 -48 -15
-13 -17 -18 -6 -15 15 5 15 1 3 -41 -8 -26 -12 -52 -10 -59 3 -7 1 -13 -4 -13
-6 0 -10 -7 -10 -16 0 -9 -8 -28 -18 -42 -26 -37 -34 -52 -29 -52 2 0 17 19
33 43 79 117 187 259 139 182 -76 -121 -155 -261 -152 -270 2 -5 -2 -24 -10
-42 -7 -18 -13 -45 -13 -60 0 -21 12 -5 48 67 47 92 100 180 109 180 3 0 -5
-15 -16 -32 -43 -66 -83 -153 -87 -188 -2 -32 -2 -33 11 -16 8 10 12 23 9 28
-5 8 62 138 72 138 3 0 -12 -30 -32 -67 -57 -104 -29 -67 51 68 58 96 73 116
78 99 4 -15 -10 -46 -47 -103 -30 -45 -63 -100 -74 -123 -17 -34 -46 -62 -167
-166 -6 -5 -6 -8 0 -8 6 0 32 20 60 44 27 25 51 43 53 42 1 -2 -16 -42 -38
-91 -22 -48 -40 -90 -40 -93 0 -4 27 45 60 108 33 63 68 121 78 128 9 7 32 26
51 44 30 27 36 29 41 13 7 -20 17 -10 45 45 17 34 42 59 58 60 13 0 -4 -53
-35 -107 -16 -29 -27 -57 -23 -63 3 -5 -1 -22 -9 -37 -8 -16 -15 -24 -16 -20
0 5 5 17 11 29 25 46 -3 23 -78 -64 -102 -120 -157 -188 -151 -188 3 0 41 44
86 98 44 53 89 105 100 115 20 18 20 18 3 -28 -11 -33 -34 -64 -74 -101 -32
-30 -53 -54 -46 -54 16 0 109 99 133 141 79 139 98 177 102 203 2 15 13 42 24
60 19 27 20 28 14 6 -4 -14 -11 -36 -17 -50 -5 -14 -12 -33 -13 -43 -2 -9 -21
-52 -43 -95 -21 -42 -41 -88 -45 -102 l-7 -25 15 25 15 25 1 -25 c1 -15 9 1
20 39 21 74 60 161 72 161 10 0 12 7 -18 -80 -14 -41 -27 -95 -30 -120 l-4
-45 17 55 c10 30 23 62 28 70 6 8 18 33 27 55 l18 40 -6 -40 c-4 -22 -10 -47
-14 -55 -5 -9 -7 -31 -6 -50 4 -48 -61 -168 -133 -245 -50 -53 -51 -55 -8 -15
l47 45 -26 -65 c-14 -35 -29 -86 -34 -114 -5 -28 -12 -60 -16 -71 -4 -11 -5
-18 -2 -15 15 14 107 243 102 252 -4 7 -2 8 4 4 14 -9 45 49 38 72 -3 9 1 28
8 41 11 20 14 21 19 7 4 -10 3 -15 -2 -12 -5 3 -12 -1 -15 -10 -8 -21 -8 -26
3 -20 21 13 3 -122 -27 -204 -65 -178 -12 -68 83 175 34 87 35 88 30 40 -3
-27 -8 -93 -11 -145 -5 -80 -16 -127 -70 -297 -35 -111 -64 -212 -64 -225 0
-20 6 -16 45 26 25 27 45 52 45 56 0 4 9 15 19 24 19 17 20 17 24 -6 3 -17 5
-13 6 12 1 19 8 44 16 54 14 18 15 16 15 -28 0 -26 -8 -77 -17 -114 l-18 -67
-6 60 c-6 54 -6 52 -5 -25 0 -47 -3 -96 -7 -110 -4 -14 4 -2 18 25 14 28 25
58 25 68 0 10 4 16 9 13 5 -3 12 5 15 19 4 14 13 25 21 25 8 0 19 8 24 18 9
14 10 12 11 -13 0 -23 3 -27 10 -15 8 12 10 11 10 -8 0 -12 -22 -67 -49 -121
l-50 -99 -64 -4 c-75 -4 -122 -31 -256 -145 -176 -150 -221 -205 -221 -272 0
-17 -12 -60 -27 -96 -31 -75 -25 -94 24 -78 15 6 37 7 48 2 11 -4 36 -8 56 -8
19 -1 41 -7 47 -14 19 -18 139 -15 190 6 53 21 50 22 45 -8 -7 -36 33 -43 100
-18 52 20 52 20 97 1 25 -11 70 -22 101 -25 48 -5 66 -1 115 22 50 24 71 28
138 26 91 -2 116 -12 116 -47 0 -16 4 -23 12 -18 7 4 8 3 4 -4 -4 -7 -4 -17 0
-23 5 -8 8 -8 14 0 4 8 25 -5 58 -38 51 -49 72 -62 72 -41 0 6 9 10 20 10 11
0 20 -5 20 -10 0 -11 87 -70 103 -70 4 0 5 9 2 20 -8 25 0 25 33 -1 15 -11 37
-19 52 -17 14 1 40 -7 57 -20 35 -25 53 -28 53 -9 0 17 102 16 108 -1 5 -16
71 -15 77 1 6 13 98 17 111 4 4 -4 -18 -7 -49 -7 -32 0 -57 -4 -57 -10 0 -9
24 -8 120 4 14 2 36 0 50 -4 24 -6 24 -7 -7 -14 -18 -4 -33 -12 -33 -17 0 -6
4 -8 9 -5 5 3 24 3 42 -1 25 -5 29 -8 15 -13 -10 -3 18 -5 61 -5 44 1 85 5 91
9 6 4 42 1 79 -5 40 -7 107 -9 166 -6 l100 6 -23 -24 c-36 -39 -17 -41 47 -5
50 28 55 30 38 10 l-20 -23 27 18 c16 9 34 15 42 12 7 -3 19 0 25 6 8 8 11 7
11 -3 0 -13 2 -13 10 0 12 20 73 21 65 2 -4 -10 0 -12 11 -8 8 3 19 6 22 6 4
0 1 4 -5 8 -8 5 1 8 22 9 40 1 40 2 19 -38 -21 -42 -11 -47 16 -10 12 17 29
31 37 31 13 0 12 -5 -6 -24 -26 -28 -12 -46 15 -19 24 25 61 42 84 40 19 -1
19 -1 0 -22 -26 -27 -26 -44 -1 -21 11 10 24 15 30 12 5 -4 13 -1 17 5 5 8 3
9 -6 4 -9 -5 -11 -4 -6 4 4 6 11 9 16 6 5 -3 11 -1 15 5 3 5 11 10 18 10 6 0
-5 -17 -24 -37 -18 -21 -23 -28 -9 -17 37 31 47 35 47 19 0 -8 -4 -12 -8 -9
-4 2 -10 0 -13 -5 -4 -5 1 -8 10 -7 17 3 35 26 29 36 -2 4 3 7 11 7 23 0 12
-44 -26 -103 -16 -26 -30 -55 -30 -63 1 -11 5 -8 14 8 10 18 15 20 20 10 3 -8
3 -4 0 8 -3 15 1 25 14 32 11 6 22 23 25 39 6 29 41 50 53 31 3 -5 15 -7 27
-4 19 5 25 0 35 -28 7 -18 24 -44 38 -58 l27 -24 -27 47 c-15 26 -23 49 -17
52 5 3 11 1 13 -6 3 -8 15 -5 39 10 32 20 36 20 47 4 7 -9 10 -12 8 -6 -3 6 6
16 19 22 23 11 26 9 46 -31 27 -53 60 -100 66 -94 2 3 -10 32 -26 66 l-31 61
32 0 c25 0 39 -8 57 -30 13 -17 28 -30 33 -30 6 0 -1 15 -16 34 l-26 34 28 10
c17 6 35 6 44 1 11 -6 18 -4 22 6 9 24 22 18 73 -32 26 -27 38 -37 27 -23 -33
39 -37 50 -20 50 9 0 29 -26 47 -61 35 -70 70 -109 96 -108 15 0 14 2 -4 9
-22 9 -66 69 -83 114 -8 22 -6 24 23 28 18 3 39 8 48 12 12 5 18 -2 27 -32 7
-22 20 -46 29 -53 15 -13 15 -12 1 16 -15 29 -21 85 -10 85 3 0 13 -7 23 -16
17 -15 24 -15 91 1 40 10 84 24 96 32 23 14 24 14 17 -9 -4 -12 -23 -59 -43
-103 -44 -98 -50 -160 -28 -287 8 -51 19 -133 22 -183 6 -76 11 -93 31 -113
14 -13 34 -54 45 -91 11 -36 25 -72 30 -78 14 -18 47 -16 55 2 5 13 8 12 20
-5 24 -33 54 -22 82 31 15 29 43 59 71 78 55 37 112 95 131 132 20 39 68 75
128 98 73 28 120 62 165 121 25 32 68 69 125 105 85 54 106 77 113 120 4 22
137 95 175 95 25 0 39 16 21 23 -11 3 -11 9 0 26 10 18 10 21 -5 22 -10 1 0 5
22 10 22 5 54 16 70 23 17 8 49 17 73 21 24 4 42 12 42 20 0 17 73 46 126 49
23 1 49 10 59 19 9 9 20 17 25 17 4 0 6 9 3 21 -5 19 -3 20 32 13 34 -6 37 -5
31 13 -5 16 2 21 53 31 50 11 60 16 65 38 5 17 12 24 21 20 32 -12 88 -18 94
-10 3 5 17 14 31 20 l25 11 -39 24 c-22 12 -34 25 -27 27 6 2 59 -8 117 -23
58 -15 117 -25 130 -22 29 5 145 -20 159 -35 7 -7 4 -9 -10 -5 -11 3 -36 8
-55 11 -24 4 -19 1 15 -10 28 -8 86 -26 130 -39 114 -36 194 -45 415 -45 231
0 432 -24 590 -70 144 -42 239 -57 250 -40 8 13 18 12 118 -12 44 -10 55 -10
62 2 7 11 21 11 93 -3 114 -23 153 -22 159 1 5 17 12 18 79 10 101 -13 446 -3
544 15 44 9 116 18 160 22 56 5 85 13 96 25 11 11 40 19 85 23 38 4 155 16
259 27 201 20 523 44 740 55 151 7 234 19 555 80 129 24 298 53 375 65 83 12
155 29 178 40 29 15 58 20 123 20 74 0 87 2 91 18 5 20 110 49 137 39 9 -4 18
-2 21 3 6 10 379 5 433 -6 21 -4 32 -3 32 5 0 7 24 10 74 9 41 -2 69 -6 62
-10 -18 -12 53 -9 75 3 15 7 93 6 277 -6 334 -21 966 -72 1062 -86 92 -13 582
-4 655 12 28 6 210 14 405 19 204 4 368 12 385 18 22 8 -28 9 -190 5 -121 -3
-218 -3 -215 0 3 3 93 12 200 21 193 16 365 40 404 56 29 12 8 12 -54 0 -56
-11 -192 -2 -169 10 8 4 60 10 116 14 85 6 217 32 175 35 -7 1 -10 5 -7 11 4
6 -9 10 -32 11 -65 1 -83 5 -250 47 -178 46 -349 73 -608 97 -103 10 -184 22
-204 32 -26 12 -54 14 -114 10 -65 -4 -86 -2 -116 13 -29 14 -80 21 -249 30
-117 6 -227 16 -245 21 -17 5 -59 9 -92 9 -33 0 -75 4 -93 9 -21 7 -43 6 -59
0 -38 -14 -263 -22 -373 -13 -52 5 -83 10 -67 12 15 2 27 7 27 12 0 5 -20 3
-44 -4 -37 -11 -77 -11 -238 0 -132 9 -441 13 -983 14 -669 1 -784 4 -750 15
64 21 33 17 -210 -25 -189 -33 -254 -40 -365 -40 -74 -1 -180 -5 -235 -11 -80
-8 -1048 -14 -1390 -9 -68 2 -69 2 -40 15 39 18 22 18 -35 1 -26 -8 -94 -14
-161 -14 -63 0 -152 -6 -197 -12 -45 -6 -86 -9 -90 -6 -5 3 -39 0 -77 -6 -51
-9 -72 -8 -86 0 -10 7 -45 12 -77 12 -32 0 -105 4 -163 10 -57 5 -153 12 -214
14 -60 3 -126 6 -145 7 l-35 2 40 6 c29 4 41 11 44 26 3 17 1 18 -13 6 -14
-12 -68 -13 -304 -8 -158 4 -303 11 -322 17 -28 7 -20 8 40 5 75 -5 264 -8
309 -6 65 3 -47 28 -164 36 -33 3 -78 11 -100 20 -22 8 -89 26 -150 40 -130
31 -167 45 -160 62 2 8 -4 13 -15 13 -10 0 -22 5 -25 10 -3 6 3 10 14 10 12 0
21 5 21 10 0 6 -11 10 -24 10 -14 0 -37 5 -53 11 -24 9 -26 12 -12 20 24 13
118 -7 154 -33 l30 -21 -24 26 c-24 27 -91 47 -156 47 -37 0 -56 16 -28 23 10
3 4 5 -14 6 -35 1 -57 21 -24 21 12 0 21 5 21 10 0 6 -11 10 -24 10 -14 0 -28
5 -32 11 -5 8 1 10 17 7 13 -3 35 -2 49 2 14 5 19 8 13 9 -7 1 -13 8 -13 16 0
9 -9 15 -22 15 -19 0 -20 2 -8 10 10 6 11 10 3 10 -19 0 -16 18 5 23 9 3 4 5
-13 6 -23 1 -26 4 -15 11 13 8 13 10 0 14 -8 3 -28 7 -45 9 -19 3 -9 5 25 7
l55 2 -53 8 c-44 7 -59 14 -82 42 -15 18 -26 36 -23 41 2 4 -2 7 -9 7 -7 0
-28 19 -47 41 l-34 41 29 -5 c16 -4 52 -9 79 -11 33 -4 20 1 -39 14 -79 18
-114 36 -116 62 0 3 24 0 53 -8 28 -8 99 -17 157 -19 l105 -5 -130 19 c-165
23 -180 27 -239 65 l-49 31 29 6 29 6 -27 13 c-15 7 -35 24 -43 37 l-16 24 38
-17 c21 -9 67 -27 101 -40 94 -36 72 -2 -36 58 -17 9 -42 34 -55 55 -13 21
-36 44 -51 52 -20 11 -26 22 -26 50 l0 35 29 -40 c31 -42 100 -102 141 -124
32 -17 -63 88 -102 112 -33 21 -62 63 -53 77 4 7 20 4 45 -9 60 -31 60 -24 0
13 -52 31 -56 36 -91 124 -21 51 -46 105 -57 120 -11 15 -23 39 -27 52 -7 23
-7 23 36 -6 51 -34 83 -52 58 -31 -9 7 -37 28 -63 45 -35 25 -46 39 -47 60 0
25 -1 25 -9 8 -7 -17 -9 -18 -14 -4 -4 8 -2 29 5 45 l11 29 19 -42 c24 -56 33
-56 13 0 -13 36 -27 153 -17 143 2 -2 19 -48 37 -102 19 -54 35 -89 35 -77 1
13 -10 52 -24 89 -31 83 -31 83 3 52 30 -29 71 -52 78 -45 3 3 -20 26 -50 53
-40 34 -56 55 -56 73 0 13 -6 32 -14 40 -19 21 -56 120 -56 148 0 21 16 40 26
31 2 -3 10 -28 16 -56 7 -29 16 -52 20 -52 14 0 8 44 -12 89 -19 41 -28 99
-12 75 4 -6 16 -15 26 -21 11 -6 27 -30 37 -54 11 -26 18 -36 18 -24 1 11 -11
45 -25 74 -20 44 -21 52 -7 39 38 -32 49 -34 29 -3 -10 17 -27 39 -37 51 -12
12 -19 35 -19 60 l0 39 30 -45 c16 -25 30 -40 30 -35 0 11 -49 94 -85 144 -20
27 -25 46 -25 96 0 35 6 77 13 95 l14 32 22 -29 23 -28 -21 38 c-15 27 -21 56
-21 100 l0 62 21 -30 c20 -29 21 -26 4 20 -5 12 13 0 44 -30 68 -65 65 -42 -4
40 -31 36 -54 69 -51 74 3 4 6 24 8 45 2 34 4 37 27 31 14 -4 29 -12 34 -18
21 -32 46 -87 57 -126 9 -33 14 -41 21 -30 7 11 9 10 9 -5 0 -11 3 -16 6 -13
9 9 -36 127 -48 127 -5 0 -6 5 -2 12 4 6 3 8 -3 5 -6 -4 -15 5 -21 18 -7 15
-8 26 -2 30 27 17 6 54 -71 130 -108 107 -114 121 -38 83 89 -44 82 -28 -10
22 -47 26 -84 54 -90 68 -11 23 -10 23 11 8 12 -9 29 -16 36 -16 8 0 38 -21
68 -46 70 -60 80 -52 14 10 -27 26 -50 48 -50 50 0 2 23 -4 50 -15 52 -20 85
-25 77 -11 -3 4 -35 18 -71 32 -75 28 -149 90 -107 90 12 0 31 -5 42 -10 12
-7 19 -7 19 -1 0 6 24 12 53 14 32 2 16 4 -43 5 -116 3 -160 21 -55 23 39 1
88 3 110 5 40 3 180 42 174 49 -2 1 -37 -4 -77 -13 -68 -15 -75 -14 -103 2
-16 9 -29 14 -29 9 0 -4 -5 0 -11 9 -5 10 -20 23 -32 29 -20 9 -19 8 3 -11
l25 -21 -36 5 c-19 4 -64 22 -100 41 -52 28 -59 35 -38 35 15 0 43 -7 64 -16
20 -8 34 -10 31 -5 -4 7 16 9 56 6 63 -4 63 -4 18 6 -25 6 -51 16 -59 22 -12
9 -13 9 -7 0 7 -13 -6 -18 -17 -7 -3 3 -26 7 -50 8 -43 2 -77 18 -77 37 0 5
14 3 30 -6 37 -19 37 -13 4 31 -21 27 -23 34 -10 34 13 0 13 3 -4 20 -21 21
-27 50 -10 50 6 0 3 11 -6 25 -9 14 -14 28 -11 32 4 3 9 -2 13 -11 3 -9 12
-16 19 -16 7 0 18 -14 25 -30 7 -17 17 -33 22 -36 5 -4 3 8 -6 24 -9 18 -15
51 -14 79 1 26 -2 57 -6 68 -6 14 3 9 30 -15 76 -69 88 -73 27 -9 -35 35 -63
70 -63 76 0 6 -7 24 -15 39 -8 16 -15 49 -15 74 0 25 -9 65 -21 89 -15 35 -17
46 -7 53 7 4 19 6 26 3 9 -3 12 1 8 13 -32 105 -76 292 -69 292 14 0 99 -208
116 -285 5 -19 5 -19 6 1 1 24 -35 134 -73 218 -14 32 -26 61 -26 64 0 3 23
-26 52 -64 28 -38 53 -71 55 -73 1 -2 5 -2 8 1 3 2 -19 37 -49 77 -49 66 -53
75 -45 104 10 34 5 54 -42 207 -16 52 -29 105 -29 117 0 13 -4 23 -8 23 -11 0
-32 68 -38 123 -3 23 -7 48 -9 55 -3 7 -1 11 4 7 12 -7 41 -93 46 -136 3 -18
13 -42 23 -53 23 -27 59 -107 77 -171 7 -27 14 -40 14 -28 1 26 -30 121 -69
208 -24 55 -26 68 -21 150 l6 90 24 -65 c24 -65 41 -95 41 -72 0 6 -11 41 -24
77 l-24 66 32 -6 c17 -4 35 -11 41 -16 11 -11 48 -12 41 -1 -3 5 -32 17 -65
27 l-59 18 -21 83 c-28 111 -25 116 9 19 26 -72 29 -76 29 -43 1 40 -31 135
-90 271 -21 48 -41 107 -45 130 l-5 42 21 -45 c24 -50 67 -110 79 -110 5 0 -7
29 -25 64 -52 98 -75 172 -79 263 -2 46 -9 91 -15 102 -12 23 -14 73 -2 53 17
-26 4 67 -17 123 l-22 58 22 15 c18 13 20 21 15 61 l-6 46 26 -30 c18 -21 16
-17 -7 17 -30 44 -31 50 -23 100 4 29 7 104 6 165 -1 95 -5 119 -24 155 -20
39 -22 55 -19 161 2 83 8 128 19 150 12 24 17 70 20 177 2 90 9 159 17 181 16
43 21 120 11 167 -6 24 -2 44 15 79 l22 46 30 -36 c16 -21 36 -37 45 -37 13 0
13 2 -2 19 -9 10 -14 25 -10 34 3 8 0 25 -6 37 -11 21 -20 60 -23 105 -1 12 5
21 18 23 25 5 35 20 34 52 0 25 0 25 -9 3 -5 -13 -13 -23 -18 -23 -12 0 -25
97 -15 113 4 6 8 18 9 27 0 8 7 33 14 56 10 34 9 53 -5 117 -19 85 -16 110 16
150 42 54 67 29 100 -100 14 -57 35 -75 24 -20 -7 33 -31 94 -81 205 -23 53
-26 67 -16 83 10 16 10 25 -4 48 -15 26 -15 30 0 53 16 24 15 28 -14 96 -25
59 -28 75 -19 99 12 33 4 71 -23 100 -18 20 -19 23 -4 46 16 23 15 26 -17 75
-25 36 -37 67 -42 108 -4 31 -9 63 -12 71 -4 10 2 11 27 6 29 -5 32 -4 26 15
-5 15 -2 22 14 27 31 10 21 37 -22 58 -27 13 -38 25 -38 41 0 33 -33 91 -74
130 -60 56 -49 70 59 77 l90 5 -85 2 -86 2 -2 43 c-1 23 -2 68 -2 99 1 38 -5
66 -19 88 -13 23 -17 43 -14 70 4 28 0 46 -15 67 -11 15 -28 56 -37 91 -17 59
-17 68 -2 130 24 99 32 159 19 147 -6 -5 -14 -30 -20 -55 l-9 -45 -17 39 c-31
70 -34 125 -13 212 24 102 27 182 7 197 -11 9 -15 32 -14 92 1 129 2 139 17
127 7 -6 24 -15 38 -20 24 -10 23 -6 -23 87 -26 53 -48 100 -48 104 0 5 9 5
20 2 16 -5 20 -2 20 15 0 12 -4 29 -10 39 -5 10 -18 41 -29 69 l-20 51 29 -17
c16 -9 31 -14 35 -11 3 4 -4 31 -16 60 -58 146 -68 185 -57 234 8 39 7 54 -6
82 -21 43 -21 43 12 44 l27 0 -34 17 -33 17 7 55 c8 62 8 68 -1 130 l-6 45 37
-40 36 -40 -29 58 c-45 85 -20 79 27 -8 42 -76 59 -96 41 -50 -5 14 -7 31 -4
40 3 8 -1 29 -10 46 -29 58 -18 65 29 19 49 -48 62 -45 18 4 -15 17 -6 11 21
-14 69 -64 40 -12 -33 59 -31 30 -43 45 -27 33 16 -12 35 -22 43 -22 8 0 31
-12 51 -27 l37 -27 -35 37 c-19 21 -40 35 -47 33 -7 -3 -12 -2 -10 3 1 5 -16
25 -37 45 -22 20 -36 36 -32 36 5 0 1 11 -7 24 -15 22 -15 24 2 19 34 -9 34
18 0 53 -46 48 -27 56 21 9 46 -45 53 -35 11 15 -23 28 -26 38 -17 53 9 15 6
22 -19 43 -24 20 -27 26 -16 33 20 13 2 34 -42 51 -36 14 -127 98 -127 116 0
15 -99 145 -159 208 -43 46 -44 48 -18 42 48 -11 29 13 -50 64 -43 27 -82 52
-88 54 -6 3 -4 9 4 15 11 7 26 5 50 -5 19 -8 36 -12 38 -10 6 6 -88 56 -106
56 -9 0 -32 8 -51 19 -19 10 -52 21 -72 25 -20 4 -38 10 -40 14 -2 4 -24 18
-51 32 -35 18 -43 26 -30 31 30 10 -23 38 -62 32 -19 -3 -35 0 -39 6 -5 7 2
11 16 11 13 0 29 4 36 9 18 11 -7 21 -51 21 -24 0 -28 3 -17 10 8 5 12 11 9
14 -3 3 -63 9 -133 14 -107 7 -131 12 -142 27 -12 16 -24 17 -120 11 -101 -6
-106 -6 -111 14 -6 24 -2 23 -46 5 -48 -20 -50 -19 -43 9 3 14 1 28 -5 31 -14
10 -96 -23 -103 -40 -3 -10 -15 -12 -39 -8 -21 3 -56 -2 -87 -12 -49 -16 -52
-16 -65 1 -13 17 -15 18 -27 3 -9 -12 -37 -18 -101 -22 -77 -5 -87 -4 -77 8
19 23 -12 19 -62 -6 -27 -14 -53 -19 -77 -16 -20 2 -46 0 -58 -4 -13 -5 -25
-4 -28 1 -3 5 -12 7 -20 3 -9 -3 -15 1 -15 11 0 9 -5 16 -11 16 -5 0 -7 5 -4
10 4 6 -10 -1 -31 -15 -20 -14 -39 -23 -41 -21 -3 2 23 48 58 103 62 99 175
295 212 368 11 22 37 66 58 97 40 58 47 78 29 78 -5 0 -10 -5 -10 -11z m2016
-1781 l19 -23 -25 20 c-14 11 -27 21 -29 22 -2 2 0 3 6 3 5 0 18 -10 29 -22z
m-2662 -1577 c3 -5 -1 -12 -10 -15 -25 -10 -34 -7 -34 9 0 16 35 21 44 6z
m-44 -101 c-34 -11 -60 -11 -35 0 11 5 29 8 40 8 16 0 15 -2 -5 -8z m55 -20
c8 -13 -5 -13 -25 0 -13 8 -13 10 2 10 9 0 20 -4 23 -10z m-45 -132 c0 -6 -6
-5 -15 2 -8 7 -15 14 -15 16 0 2 7 1 15 -2 8 -4 15 -11 15 -16z m-62 -316 c6
-18 -15 -14 -22 4 -4 10 -1 14 6 12 6 -2 14 -10 16 -16z m-88 -153 c0 -13 -34
-11 -48 3 -21 21 -13 27 18 17 17 -6 30 -15 30 -20z m-200 -336 c76 -88 97
-122 28 -45 -23 26 -65 71 -92 101 -28 29 -41 47 -28 40 12 -8 54 -51 92 -96z
m-52 -208 c2 -2 2 -11 0 -20 -2 -14 -7 -12 -28 10 l-25 27 25 -7 c14 -4 27 -9
28 -10z m50 -24 c3 -8 -1 -12 -9 -9 -7 2 -15 10 -17 17 -3 8 1 12 9 9 7 -2 15
-10 17 -17z m-108 -196 c0 -8 -2 -15 -4 -15 -2 0 -6 7 -10 15 -3 8 -1 15 4 15
6 0 10 -7 10 -15z m42 -27 c8 -13 19 -34 23 -47 6 -21 5 -23 -11 -17 -15 6
-17 5 -6 -5 6 -7 12 -18 12 -23 0 -6 -7 -3 -15 7 -7 11 -11 25 -9 31 3 7 -2
19 -11 26 -16 13 -21 50 -6 50 5 0 15 -10 23 -22z m-31 -355 c13 -16 12 -17
-3 -4 -10 7 -18 15 -18 17 0 8 8 3 21 -13z m-77 -410 c-10 -7 -29 -13 -43 -13
l-26 1 23 12 c12 7 31 13 43 13 19 0 19 -1 3 -13z m3496 -33 c0 -17 -15 -11
-28 11 -12 19 -11 19 8 9 11 -6 20 -15 20 -20z m-3570 -81 c-11 -19 -10 -20
12 -8 21 11 22 11 9 -4 -9 -11 -10 -17 -2 -17 6 0 11 -7 11 -15 0 -8 8 -15 17
-15 11 0 13 -3 8 -9 -6 -6 -29 -6 -60 0 -27 5 -58 11 -67 12 -34 6 -29 16 24
46 29 17 54 31 56 31 1 0 -2 -9 -8 -21z m-158 -61 c-9 -9 -15 -9 -24 0 -9 9
-7 12 12 12 19 0 21 -3 12 -12z m136 -14 c23 -4 42 -10 42 -15 0 -15 -53 -14
-117 2 -48 13 -47 34 1 25 17 -3 50 -8 74 -12z m1 -41 c3 -2 0 -7 -5 -12 -5
-6 -23 -2 -44 9 l-35 19 40 -6 c22 -3 42 -8 44 -10z m-1 -79 c24 -7 31 -24 9
-24 -15 0 -57 29 -42 30 6 0 20 -3 33 -6z m12 -304 c-19 -13 -30 -13 -30 0 0
6 10 10 23 10 18 0 19 -2 7 -10z m-230 -443 c0 -2 -10 -12 -22 -23 l-23 -19
19 23 c18 21 26 27 26 19z m-300 -675 c0 -9 -65 -42 -83 -42 -12 0 62 49 76
50 4 0 7 -4 7 -8z m3960 -244 c0 -38 -5 -34 -13 10 -4 21 -3 31 3 27 6 -3 10
-20 10 -37z m29 -216 c1 -18 5 -31 9 -28 4 2 6 -11 4 -30 -2 -19 -6 -34 -7
-34 -5 0 -33 138 -39 190 l-4 45 18 -55 c10 -30 19 -70 19 -88z m18 -124 c-3
-8 -6 -5 -6 6 -1 11 2 17 5 13 3 -3 4 -12 1 -19z m63 -590 c0 -5 -4 -8 -10 -8
-5 0 -10 10 -10 23 0 18 2 19 10 7 5 -8 10 -18 10 -22z m17 -58 c10 -20 11
-21 16 -4 2 11 4 3 3 -16 0 -19 3 -57 8 -85 10 -67 -5 -49 -34 40 -13 39 -25
76 -28 84 -9 23 22 7 35 -19z m33 -382 c6 -21 9 -42 5 -48 -3 -5 -1 -10 5 -10
6 0 9 -4 6 -8 -3 -5 1 -26 8 -48 17 -51 28 -120 17 -108 -17 17 -62 179 -65
226 -2 53 6 52 24 -4z m-16 -103 c5 -22 4 -26 -4 -15 -5 8 -10 24 -10 34 0 26
6 18 14 -19z m15 -247 c1 -16 -3 -28 -9 -28 -6 0 -10 24 -9 53 1 41 3 47 9 27
4 -14 8 -37 9 -52z m-4609 -62 c0 -2 -8 -10 -17 -17 -16 -13 -17 -12 -4 4 13
16 21 21 21 13z m4670 -133 c0 -7 -6 -13 -14 -13 -9 0 -16 15 -20 38 -6 41 -9
92 -6 107 2 11 39 -113 40 -132z m40 -379 c0 -8 -5 -12 -10 -9 -6 4 -8 11 -5
16 9 14 15 11 15 -7z m-4475 -39 c-85 -76 -114 -91 -42 -21 37 36 73 66 80 66
6 0 -10 -21 -38 -45z m-27 -79 c-62 -69 -114 -123 -115 -122 -2 2 0 17 3 35 6
26 29 51 113 122 58 48 107 88 109 89 2 0 -48 -56 -110 -124z m115 12 c10 -28
-102 -153 -175 -197 -63 -38 -51 -19 101 149 56 62 66 69 74 48z m-140 -90
c-11 -13 -42 -52 -68 -88 l-48 -65 7 40 c8 42 28 68 86 109 44 31 49 32 23 4z
m187 -8 c0 -5 -5 -10 -11 -10 -5 0 -7 5 -4 10 3 6 8 10 11 10 2 0 4 -4 4 -10z
m-80 -48 c0 -5 -21 -24 -47 -42 l-47 -34 28 36 c25 34 39 45 59 47 4 1 7 -3 7
-7z m4450 -52 c13 -8 13 -10 -2 -10 -9 0 -20 5 -23 10 -8 13 5 13 25 0z m94
-41 c50 -11 98 -23 106 -26 24 -9 -35 -20 -116 -22 l-70 -1 -17 35 c-20 42
-22 41 97 14z m-4425 -26 c-29 -48 -81 -123 -86 -123 -6 0 16 39 56 102 39 63
67 81 30 21z m-19 -111 c-18 -42 -80 -119 -80 -99 0 11 93 157 97 153 3 -2 -5
-26 -17 -54z m-96 -2 c-20 -38 -25 -60 -21 -86 7 -44 -4 -49 -78 -34 l-56 12
33 27 c18 15 58 50 88 79 30 29 56 52 58 52 1 0 -10 -23 -24 -50z m-244 24
c-8 -8 -23 -20 -34 -25 -13 -6 -10 0 9 15 34 29 43 33 25 10z m255 -74 c-9
-16 -18 -30 -21 -30 -2 0 2 14 11 30 9 17 18 30 21 30 2 0 -2 -13 -11 -30z
m-388 -255 c0 -11 -11 -15 -39 -15 -47 0 -49 6 -5 19 44 13 44 13 44 -4z m-48
-31 c2 -2 -20 -4 -50 -4 -38 0 -50 3 -39 10 13 8 78 4 89 -6z m4 -21 c-7 -2
-21 -2 -30 0 -10 3 -4 5 12 5 17 0 24 -2 18 -5z m-23 -78 c0 -10 -10 -15 -29
-15 -16 0 -38 -2 -48 -5 -10 -3 0 3 22 14 50 24 55 25 55 6z m-105 -235 c3 -6
-1 -7 -9 -4 -18 7 -21 14 -7 14 6 0 13 -4 16 -10z m-75 -220 c-6 -11 -15 -21
-20 -21 -6 -1 -14 -2 -20 -3 -5 0 -16 -10 -24 -21 -13 -17 -15 -18 -16 -3 0
22 29 50 46 44 7 -3 18 2 24 10 18 20 23 17 10 -6z m5231 -17 c13 -16 12 -17
-3 -4 -10 7 -18 15 -18 17 0 8 8 3 21 -13z m-5302 -124 c-13 -19 -30 -38 -36
-44 -7 -5 -14 -20 -16 -32 -3 -22 -27 -57 -34 -50 -2 2 2 17 8 33 14 33 13 29
23 71 8 37 54 79 69 64 5 -5 0 -22 -14 -42z m-39 -190 c-6 -11 -10 -25 -7 -32
2 -6 -24 -43 -58 -82 -59 -69 -125 -157 -125 -170 0 -3 27 29 59 72 33 43 76
94 96 113 l37 35 -41 -65 c-37 -58 -158 -210 -168 -210 -2 0 1 9 7 20 6 11 9
24 6 29 -3 5 -1 35 6 67 10 55 17 65 101 152 50 50 92 92 94 92 2 0 -1 -9 -7
-21z m6 -158 c-15 -28 -22 -51 -17 -51 6 0 15 8 20 18 9 15 10 15 11 0 0 -19
-83 -84 -88 -68 -4 10 51 113 76 143 26 29 25 11 -2 -42z m16 -118 c-68 -103
-90 -130 -56 -68 46 85 95 157 101 151 3 -3 -17 -41 -45 -83z m-84 -47 c-35
-47 -64 -83 -66 -82 -1 2 6 28 18 57 15 42 29 60 62 81 24 15 44 28 45 28 2 0
-25 -38 -59 -84z m-89 -120 c-9 -8 -10 -5 -5 14 3 14 6 32 7 40 1 8 4 2 6 -14
3 -16 -1 -34 -8 -40z m260 -15 c-12 -34 -27 -64 -32 -68 -7 -4 -8 1 -3 13 4
10 17 43 28 72 29 73 35 58 7 -17z m-105 -97 c-17 -56 -34 -80 -44 -64 -5 7
-10 2 -14 -13 -3 -14 -13 -27 -21 -31 -12 -4 -8 8 12 43 15 27 30 48 33 46 4
-2 14 11 23 30 23 48 28 44 11 -11z m5511 -384 c16 -17 16 -20 3 -15 -9 4 -19
13 -22 21 -7 19 -2 18 19 -6z m-5260 -386 c20 7 19 1 -9 -40 l-24 -36 -3 45
c-3 35 -1 43 8 35 7 -6 20 -8 28 -4z m-55 -104 c-18 -33 -19 -21 -7 40 12 53
12 54 15 18 2 -20 -2 -47 -8 -58z m-47 -22 c-4 -37 -16 -68 -41 -103 -19 -27
-31 -41 -27 -30 5 11 22 57 39 102 17 46 32 83 33 83 1 0 -1 -24 -4 -52z
m5737 16 c0 -2 -11 -4 -25 -4 -14 0 -25 4 -25 9 0 4 11 6 25 3 14 -2 25 -6 25
-8z m-3 -40 c-3 -3 -12 -4 -19 -1 -8 3 -5 6 6 6 11 1 17 -2 13 -5z m-5544
-236 c-4 -40 -10 -58 -22 -61 -9 -3 -24 -8 -34 -12 -16 -7 -15 -1 8 46 15 30
31 56 36 57 5 2 9 11 9 20 0 8 2 13 5 11 2 -3 1 -30 -2 -61z m14 -45 c-3 -10
-5 -2 -5 17 0 19 2 27 5 18 2 -10 2 -26 0 -35z m5770 1 c-3 -3 -12 -4 -19 -1
-8 3 -5 6 6 6 11 1 17 -2 13 -5z m173 -38 l45 -16 -92 4 c-59 3 -102 10 -120
21 -27 15 -26 16 47 11 41 -2 95 -11 120 -20z m1903 -143 c-7 -2 -21 -2 -30 0
-10 3 -4 5 12 5 17 0 24 -2 18 -5z m-183 -19 c-25 -7 -61 -13 -80 -13 -33 1
-32 2 15 14 28 7 64 13 80 13 26 1 24 -1 -15 -14z m123 9 c-7 -2 -19 -2 -25 0
-7 3 -2 5 12 5 14 0 19 -2 13 -5z m6646 -222 c-19 -4 -58 -4 -85 0 -42 5 -36
6 36 7 59 0 74 -2 49 -7z m-371 -78 c-21 -2 -57 -2 -80 0 -24 2 -7 4 37 4 44
0 63 -2 43 -4z m-12760 -490 c-10 -2 -26 -2 -35 0 -10 3 -2 5 17 5 19 0 27 -2
18 -5z"/>
<path d="M3246 15042 l-39 -47 43 42 c24 23 42 44 40 47 -3 2 -23 -17 -44 -42z"/>
<path d="M5086 13963 c-6 -14 -5 -15 5 -6 7 7 10 15 7 18 -3 3 -9 -2 -12 -12z"/>
<path d="M2366 11788 c3 -7 21 -23 40 -36 28 -17 39 -20 52 -11 16 10 16 10 0
5 -9 -3 -18 -2 -20 2 -2 5 -20 18 -40 31 -23 13 -36 17 -32 9z"/>
<path d="M2067 10750 c14 -27 65 -100 70 -100 7 0 -29 58 -55 88 -13 15 -20
20 -15 12z"/>
<path d="M1698 9563 c6 -2 18 -2 25 0 6 3 1 5 -13 5 -14 0 -19 -2 -12 -5z"/>
<path d="M1708 9524 c-38 -20 -36 -28 2 -9 17 9 30 18 30 20 0 7 -1 6 -32 -11z"/>
<path d="M1760 9490 c-8 -5 -10 -10 -5 -10 6 0 17 5 25 10 8 5 11 10 5 10 -5
0 -17 -5 -25 -10z"/>
<path d="M1338 9189 c-19 -5 -16 -6 15 -10 20 -3 37 -2 37 2 0 4 15 10 33 12
19 2 13 3 -15 3 -26 -1 -57 -4 -70 -7z"/>
<path d="M1278 9173 c7 -3 16 -2 19 1 4 3 -2 6 -13 5 -11 0 -14 -3 -6 -6z"/>
<path d="M1513 9153 c15 -2 37 -2 50 0 12 2 0 4 -28 4 -27 0 -38 -2 -22 -4z"/>
<path d="M1645 9150 c-27 -4 -39 -8 -25 -9 21 -1 22 -3 10 -12 -12 -9 -11 -9
5 -4 11 4 30 10 43 12 12 3 22 9 22 14 0 5 -1 8 -2 7 -2 0 -25 -4 -53 -8z"/>
<path d="M1510 9075 c-14 -8 -20 -14 -15 -14 6 0 21 6 35 14 14 8 21 14 15 14
-5 0 -21 -6 -35 -14z"/>
<path d="M1789 8910 l-24 -21 33 16 c31 15 41 25 23 25 -5 0 -19 -9 -32 -20z"/>
<path d="M1678 8705 c-49 -32 -58 -49 -15 -29 18 9 39 25 45 35 15 23 15 23
-30 -6z"/>
<path d="M1680 8660 c-19 -17 -30 -30 -25 -30 6 0 26 14 45 30 19 16 31 29 25
29 -5 0 -26 -13 -45 -29z"/>
<path d="M1645 8434 l-60 -56 63 52 c54 45 69 61 60 60 -2 0 -30 -26 -63 -56z"/>
<path d="M1449 8173 c-13 -16 -12 -17 4 -4 9 7 17 15 17 17 0 8 -8 3 -21 -13z"/>
<path d="M5390 7746 c0 -2 8 -10 18 -17 15 -13 16 -12 3 4 -13 16 -21 21 -21
13z"/>
<path d="M7668 7633 c6 -2 18 -2 25 0 6 3 1 5 -13 5 -14 0 -19 -2 -12 -5z"/>
<path d="M995 7560 c-3 -6 1 -7 9 -4 18 7 21 14 7 14 -6 0 -13 -4 -16 -10z"/>
<path d="M5370 7385 c0 -5 5 -17 10 -25 5 -8 10 -10 10 -5 0 6 -5 17 -10 25
-5 8 -10 11 -10 5z"/>
<path d="M465 5880 c-10 -11 -13 -20 -7 -20 6 0 16 9 22 20 6 11 9 20 7 20 -2
0 -12 -9 -22 -20z"/>
<path d="M762 5570 c0 -19 2 -27 5 -17 2 9 2 25 0 35 -3 9 -5 1 -5 -18z"/>
<path d="M623 5569 c-18 -12 -33 -26 -33 -32 0 -6 12 0 28 14 15 13 31 27 37
31 18 15 0 7 -32 -13z"/>
<path d="M5650 5275 c17 -25 33 -45 36 -45 3 0 -9 20 -26 45 -17 25 -33 45
-36 45 -3 0 9 -20 26 -45z"/>
<path d="M5650 5160 c6 -11 13 -20 16 -20 2 0 0 9 -6 20 -6 11 -13 20 -16 20
-2 0 0 -9 6 -20z"/>
<path d="M5863 4913 c9 -2 23 -2 30 0 6 3 -1 5 -18 5 -16 0 -22 -2 -12 -5z"/>
<path d="M5918 4903 c6 -2 18 -2 25 0 6 3 1 5 -13 5 -14 0 -19 -2 -12 -5z"/>
<path d="M5968 4893 c7 -3 16 -2 19 1 4 3 -2 6 -13 5 -11 0 -14 -3 -6 -6z"/>
<path d="M850 4690 c0 -6 7 -10 15 -10 8 0 15 2 15 4 0 2 -7 6 -15 10 -8 3
-15 1 -15 -4z"/>
<path d="M528 4583 c7 -3 16 -2 19 1 4 3 -2 6 -13 5 -11 0 -14 -3 -6 -6z"/>
<path d="M368 4513 c23 -2 61 -2 85 0 23 2 4 4 -43 4 -47 0 -66 -2 -42 -4z"/>
<path d="M455 4481 c-22 -11 -35 -19 -30 -19 14 -1 93 36 80 37 -5 0 -28 -8
-50 -18z"/>
<path d="M5790 4493 c0 -6 7 -16 15 -23 9 -7 31 -40 50 -74 19 -34 35 -56 35
-50 0 13 -66 123 -86 144 -8 8 -14 10 -14 3z"/>
<path d="M380 4450 c-8 -5 -10 -10 -5 -10 6 0 17 5 25 10 8 5 11 10 5 10 -5 0
-17 -5 -25 -10z"/>
<path d="M310 4420 c-8 -5 -10 -10 -5 -10 6 0 17 5 25 10 8 5 11 10 5 10 -5 0
-17 -5 -25 -10z"/>
<path d="M292 4240 c-148 -37 -186 -50 -146 -50 19 0 316 79 323 86 9 9 -30 1
-177 -36z"/>
<path d="M398 4083 c7 -3 16 -2 19 1 4 3 -2 6 -13 5 -11 0 -14 -3 -6 -6z"/>
<path d="M288 4058 c5 -5 16 -8 23 -6 8 3 3 7 -10 11 -17 4 -21 3 -13 -5z"/>
<path d="M240 4044 c-14 -7 -18 -13 -10 -13 24 1 54 15 44 21 -5 4 -20 0 -34
-8z"/>
<path d="M300 3970 c-8 -5 -10 -10 -5 -10 6 0 17 5 25 10 8 5 11 10 5 10 -5 0
-17 -5 -25 -10z"/>
<path d="M140 3930 c-8 -5 -10 -10 -5 -10 6 0 17 5 25 10 8 5 11 10 5 10 -5 0
-17 -5 -25 -10z"/>
<path d="M154 3894 c-32 -19 -75 -51 -94 -71 l-35 -36 34 19 c18 11 35 25 38
31 3 7 10 10 16 6 5 -3 7 -1 3 5 -3 6 17 24 49 42 47 27 64 40 52 40 -2 0 -30
-16 -63 -36z"/>
<path d="M65 3899 c-22 -10 -29 -16 -15 -13 28 7 80 33 65 33 -5 0 -28 -9 -50
-20z"/>
<path d="M350 3880 c-8 -5 -10 -10 -5 -10 6 0 17 5 25 10 8 5 11 10 5 10 -5 0
-17 -5 -25 -10z"/>
<path d="M81 3756 c-10 -11 -9 -14 1 -12 14 2 23 15 15 22 -2 2 -10 -2 -16
-10z"/>
<path d="M155 3731 c-46 -26 -87 -61 -71 -61 3 0 25 15 49 33 24 17 53 37 63
44 38 24 8 12 -41 -16z"/>
<path d="M24 3708 l-29 -33 33 29 c30 28 37 36 29 36 -2 0 -16 -15 -33 -32z"/>
<path d="M274 3628 l-29 -33 33 29 c30 28 37 36 29 36 -2 0 -16 -15 -33 -32z"/>
<path d="M121 3476 c-18 -19 -32 -38 -30 -43 2 -5 19 10 36 34 18 24 31 43 30
43 -2 0 -18 -15 -36 -34z"/>
<path d="M79 3303 c-13 -16 -12 -17 4 -4 9 7 17 15 17 17 0 8 -8 3 -21 -13z"/>
<path d="M185 3000 c-9 -16 -13 -30 -11 -30 3 0 12 14 21 30 9 17 13 30 11 30
-3 0 -12 -13 -21 -30z"/>
<path d="M76 2785 c-9 -26 -7 -32 5 -12 6 10 9 21 6 23 -2 3 -7 -2 -11 -11z"/>
<path d="M6130 2689 c25 -11 59 -22 75 -25 17 -3 -1 7 -40 21 -83 30 -97 31
-35 4z"/>
<path d="M545 2468 c-31 -73 -64 -148 -72 -166 -9 -18 -14 -35 -11 -37 3 -3
37 70 76 162 39 92 70 168 68 170 -2 2 -29 -56 -61 -129z"/>
<path d="M6577 1960 c3 -9 21 -26 41 -37 41 -23 140 -49 149 -39 4 3 1 6 -5 6
-22 0 -121 41 -155 64 -29 20 -34 21 -30 6z"/>
<path d="M6968 1843 c7 -3 16 -2 19 1 4 3 -2 6 -13 5 -11 0 -14 -3 -6 -6z"/>
<path d="M1910 910 c-21 -7 -21 -8 -5 -9 11 0 27 4 35 9 18 11 5 11 -30 0z"/>
<path d="M3870 832 c0 -5 12 -19 27 -33 l26 -24 -23 33 c-25 33 -30 38 -30 24z"/>
<path d="M2979 793 c-13 -16 -12 -17 4 -4 16 13 21 21 13 21 -2 0 -10 -8 -17
-17z"/>
<path d="M3071 684 c0 -11 3 -14 6 -6 3 7 2 16 -1 19 -3 4 -6 -2 -5 -13z"/>
</g>
</svg>
