<?xml version="1.0" encoding="UTF-8"?>
<svg width="3840" height="2595" overflow="hidden" version="1.1" xml:space="preserve" xmlns="http://www.w3.org/2000/svg"><defs><clipPath id="c"><rect y="861" width="3840" height="2595"/></clipPath><clipPath id="b"><rect x="22" y="1323" width="3761" height="2084"/></clipPath><clipPath id="a"><rect x="22" y="1323" width="3761" height="2084"/></clipPath></defs><g transform="translate(0 -861)" clip-path="url(#c)"><path transform="matrix(1 0 0 1 -2419 -1490)" d="m0 0h9848v8864h-9848z" fill="#fff"/><path transform="matrix(1 0 0 -1 938 1323)" d="m494 407c-3.4-1.83-7.38-5.32-17.7-15.4-5.48-5.42-10.6-10.3-11.5-10.9-1.89-1.27-5.42-2.48-9.47-3.23-2.32-0.426-4.86-0.557-10.4-0.587-4.05 0-7.77 0.13-8.29 0.261-1.34 0.39-3.85 2.84-10.1 10-12.6 14.4-19.4 19.9-24.9 19.9-2.35 0-3.62-0.654-5.06-2.64-4.34-6.01-5.55-26.5-3.43-57.9 0.295-3.98 0.587-9.47 0.718-12.2l0.198-4.96-0.916-1.86c-1.24-2.55-4.7-5.94-11.1-10.9-8.92-6.92-10.5-8.68-14.2-15.8-3.53-6.69-5.58-9.18-10.1-12.1-3.23-2.12-6.69-3.49-13.8-5.58-27.7-8.06-49.4-19.1-67.6-34.4-3.95-3.3-12.3-11.5-15.8-15.5-12.1-13.9-21.6-30.3-28.2-48.8-10.8-30.3-13.6-66.8-8.2-104 0.979-6.66 2.74-15.3 3.88-19.1 0.457-1.53 1.04-3.66 1.34-4.73 1.44-5.26-1.01-10.8-5.81-13.2-2.25-1.11-3.33-1.18-6.63-0.522-6.11 1.24-21.1 1.93-42.4 1.96-22.5 0-32.1-0.555-43.6-2.58-36.4-6.4-64.3-9.47-101-11.1-11-0.49-13.3-0.784-17.1-2.09-5.09-1.8-9.63-5.52-11.7-9.66-1.01-2.09-1.11-2.51-1.11-5.22 0-2.55 0.131-3.17 0.914-4.77 1.86-3.82 5.84-6.66 11.5-8.2 2.22-0.588 3.49-0.686 8.65-0.718 5.75 0 6.46 0.098 14.7 1.53 45.8 8.03 117 13 187 13 21.6 0 27.6-0.131 73.1-1.34 46.2-1.24 68.6-1.21 76.4 0.131 2.16 0.392 3.04 0.751 5 2.02 3.4 2.25 7.44 6.37 8.62 8.78 0.752 1.57 0.916 2.35 0.916 4.24 0 2.81-0.587 4.18-3.76 9.04-4.08 6.27-4.15 7.08-0.816 11.5 3.95 5.22 5.84 9.89 8.03 19.5 2.06 9.31 3.1 11.9 5.65 14.2 2.42 2.25 2.58 2.22 5.61-0.914 6.82-7.05 12.7-18.8 22.3-44.3 4.11-11.1 5.06-13.2 6.6-15.2 0.719-0.914 2.06-3.07 3-4.77 3.33-6.07 5.52-8.49 9.24-10.2 8.78-3.89 33.8-1.24 38.3 4.05 2.06 2.45 0.131 5.65-10.1 16.9-12.1 13.2-12.6 14.1-15.8 26.8-4.9 19.3-10.3 36.7-15.4 49.6-4.18 10.6-4.54 12-4.54 18.2 0 17.7 11.6 46.1 27.4 66.8 1.37 1.83 3.1 4.34 3.82 5.62 7.67 13.2 9.24 32.4 4.57 55.3-0.916 4.51-1.01 5.65-1.01 10.4 0 4.31 0.165 6.07 0.719 8.72 2.61 12.1 9.4 24.5 19.1 34.6 2.91 3.04 3.75 4.21 4.99 6.69 2.71 5.49 3.1 9.11 2.61 24.7-0.262 9.47-0.033 11.9 1.8 17.4 1.76 5.29 2.19 8.68 1.63 13.2-0.652 5.29-0.749 8.88-0.326 14.1 1.21 15.7 0.654 23.6-1.86 26.2-1.18 1.21-2.48 1.17-4.96-0.131z"/><path transform="matrix(1.01 0 0 -1 1875 1264)" d="m291 199c-3.9-0.945-7.94-2.61-12.6-5.1-2.61-1.4-5.14-2.68-5.64-2.84-0.492-0.152-2.31-1.66-4.01-3.37-3.21-3.22-6.66-6.28-10.8-9.68-1.36-1.14-6.54-6.05-11.5-11-12.7-12.5-13.2-12.8-23.1-14-3.52-0.416-8.77-0.87-11.7-0.983-13-0.567-36-3.63-62.9-8.32-16.3-2.84-28.4-5.71-37.3-8.85-2.27-0.832-7.22-2.46-11-3.67-3.74-1.17-8.02-2.57-9.53-3.03-1.48-0.492-5.29-1.59-8.51-2.46-3.18-0.832-7.49-2.12-9.57-2.84-3.44-1.21-18.1-5.79-26.5-8.28-6.58-1.97-16-6.01-27-11.6-11.6-5.82-15.4-8.24-17.7-11.2-2.34-3.1-2.08-5.26 1.17-8.43 3.1-3.03 4.27-3.44 11.1-3.74 5.75-0.265 6.05-0.303 9.15-1.66 4.54-2 6.69-3.25 7.37-4.24 0.529-0.832 0.529-0.87-1.21-1.13-2.5-0.378-15.5 0.114-17.3 0.643-1.06 0.303-2.16 1.1-3.59 2.65-1.13 1.25-2.31 2.23-2.61 2.23-0.303 0-1.13-0.454-1.82-0.983-3.9-2.99-3.59-7.07 0.794-11 2.42-2.12 1.89-1.85 11.8-6.5 9.04-4.2 13.5-5.67 23-7.56 7.3-1.44 9.38-1.78 18-2.72 5.37-0.567 7.15-1.06 16.8-4.31 10.6-3.59 15.5-4.84 23.9-6.05 3.74-0.567 10.9-1.66 15.8-2.5 32.3-5.22 48.3-6.39 87.7-6.5 23-0.0757 45.8 0.491 54.1 1.32 6.32 0.643 15.9 0.643 17.7 0.038 0.831-0.265 2.34-1.25 3.4-2.12 2.27-1.93 10.9-8.24 14.1-10.3 1.21-0.794 3.67-2.16 5.44-3.03 1.78-0.87 4.84-2.53 6.81-3.71 1.97-1.17 3.82-2.12 4.09-2.12 0.303 0 1.66-0.492 3.06-1.1 3.71-1.66 8.96-2.72 14.2-2.91 3.94-0.151 4.99-0.0756 7.75 0.681 2.99 0.832 3.29 1.02 4.27 2.5l1.1 1.63-0.605 3.55c-1.02 5.94-3.63 12.3-6.01 14.7-0.718 0.681-2.69 1.97-4.39 2.87-2.04 1.06-3.03 1.74-2.76 2 0.682 0.681 8.28 1.1 26.9 1.4 20.6 0.378 19.4 0.227 27 3.03 1.74 0.643 3.44 1.17 3.82 1.17 0.341 0 3.86-3.03 7.75-6.73 8.7-8.17 10.1-9.38 15.4-13.6 8.7-6.88 13.7-10.6 16.1-11.9 3.52-1.93 9-4.05 12.8-4.92 1.78-0.378 4.2-0.983 5.33-1.25 1.13-0.303 4.12-0.832 6.62-1.17 4.2-0.567 4.84-0.567 7.72-0.0378 4.28 0.832 4.88 1.17 6.77 4.01 4.61 6.92 8.28 16.3 10.7 27.4 0.187 0.832 0.451 6.66 0.567 12.9 0.302 12.6 0.264 12.7-2.04 13.8-1.85 0.945-6.54 1.44-9.79 0.983-1.63-0.189-4.73-0.34-6.92-0.265l-3.97 0.114 2.65 0.832c4.39 1.36 12.9 2.5 19.3 2.53l5.67 0.038 2.46-1.4c10.6-5.97 14.1-7.87 19.3-10.4 3.21-1.55 9.68-4.77 14.4-7.15 4.69-2.34 10.6-5.14 13.2-6.16 2.61-1.06 5.6-2.27 6.62-2.69 2.76-1.13 17.5-6.32 19.9-7 1.1-0.302 3.63-1.17 5.64-1.89 4.61-1.66 12.1-2.95 16.3-2.8l3.14 0.113 1.21 2.31c1.93 3.67 2.38 5.98 2.38 12.6 0 11.1-0.718 23.1-1.74 28.7-0.531 2.84-1.28 7.03-1.7 9.3-0.416 2.31-0.906 6.47-1.1 9.27-0.229 2.8-0.567 6.47-0.757 8.13-0.605 5.26-0.415 10.2 0.567 15.9 2.34 13.2 2.31 12.7 1.55 20.7-1.29 14.1-1.4 15.2-1.74 16-0.187 0.416-0.415 1.32-0.454 2.04-0.074 0.87-0.415 1.51-1.06 1.97-0.872 0.643-1.14 0.643-3.22 0.189-5.07-1.14-9.45-2.53-12.9-4.12-3.67-1.7-14.8-6.05-23.2-9.15-9.08-3.33-18.1-7.37-26.4-11.8-8.4-4.54-20.4-8.4-29-9.34-3.06-0.34-21.6 1.17-24.2 1.97-0.531 0.151 0.264 0.68 3.02 2 2.04 0.983 4.24 2.34 4.84 2.95 1.02 1.13 1.06 1.29 0.908 3.97-0.151 2.34-0.38 3.06-1.29 4.35-1.63 2.23-4.08 3.74-8.58 5.22-5.44 1.74-7.37 1.7-14.7-0.264-9.19-2.46-10.5-2.84-14.1-4.27-3.48-1.36-5.56-1.82-12.3-2.53-3.33-0.378-4.46-0.303-14.2 0.945-13.7 1.78-25.3 3.14-29.1 3.44-1.66 0.114-6.24 0.568-10.2 0.946-3.93 0.416-12.6 1.17-19.3 1.7-6.66 0.529-15.1 1.28-18.7 1.7-3.63 0.416-7.34 0.757-8.2 0.757-1.7 0-2.2 0.605-0.757 0.945 0.454 0.114 1.96 0.341 3.33 0.568 1.4 0.189 3.25 0.718 4.16 1.1 0.946 0.416 3.82 0.983 6.58 1.32 5.94 0.718 8.51 1.44 10.1 2.84 0.644 0.567 1.51 1.17 1.89 1.29 1.02 0.378 1.51 1.89 1.25 3.74-0.377 2.42-2.8 6.73-4.42 7.87-0.757 0.529-2.61 2.38-4.12 4.16-1.51 1.78-3.18 3.4-3.74 3.63-0.529 0.227-1.55 1.14-2.23 2-1.02 1.28-1.48 1.55-2.53 1.55-1.63 0-2.84 1.1-2.84 2.57 0 0.642-0.49 1.78-1.21 2.72-1.7 2.19-1.7 2.27-2.35 3.86-0.452 1.13-0.983 1.63-2.65 2.46-1.89 0.907-2.12 1.13-2.12 2.23 0 0.643-0.418 1.74-0.946 2.46-0.493 0.719-1.36 2.12-1.89 3.1-0.531 0.984-1.36 1.97-1.85 2.16-0.49 0.189-1.21 0.756-1.66 1.29-0.415 0.529-0.869 0.983-1.02 0.983-0.188 0-0.908 0.643-1.66 1.44-1.55 1.59-3.06 2.5-6.24 3.74-2.46 0.983-2.95 0.983-5.79 0.302z"/><path transform="matrix(1 0 0 -1 2931 1290)" d="m419 358c-14.3-21.9-20.8-31.5-27.4-40-8.76-11.4-17-20.2-25.8-27.7-2.03-1.72-3.78-3.13-3.9-3.13-0.675 0 1.08 2.8 3.44 5.53 8.45 9.71 19.1 27.3 26.3 43.5 2.58 5.84 6.08 14.6 5.9 14.8-0.277 0.246-3.32-3.62-5.5-6.97-1.17-1.78-3.5-5.99-5.22-9.37-16.4-32.4-28.9-48.9-52.2-68.3-11.1-9.31-21.7-16.9-47.6-34.2-9.86-6.58-19.1-12.9-20.6-14-1.48-1.14-4.95-4.27-7.74-6.97-2.8-2.73-6.48-5.99-8.14-7.28-5.25-3.93-13.5-8.82-30.9-18.4-18.4-10.1-21.7-12.1-36.7-22-10.4-6.88-17.2-11-22.8-13.8-4.3-2.15-4.42-2.18-4.88-1.6-0.645 0.891-2.58 4.79-3.93 7.99-1.51 3.53-2.61 5.53-4.06 7.19-0.921 1.11-1.14 1.57-1.14 2.76-0.03 1.11-0.276 1.72-1.11 2.89-1.72 2.36-3.07 4.58-2.92 4.82 0.092 0.123 0.829 0.307 1.69 0.369 0.861 0.092 1.72 0.307 1.87 0.461 0.431 0.43-3.2 5.22-4.52 5.99-0.891 0.522-0.983 0.737-1.17 2.64l-0.215 2.09-2.06 1.35c-1.14 0.737-4.33 3.59-7.13 6.3-2.8 2.7-5.96 5.71-7.07 6.7-1.78 1.54-1.9 1.75-1.23 1.75 0.431 0 1.75 0.461 2.92 1.01l2.12 1.01-2.06 2c-1.17 1.08-2.37 2.43-2.74 2.98-0.338 0.522-1.84 1.84-3.38 2.89-2.37 1.6-4.24 3.38-4.24 4.02 0 0.093 1.9 0.154 4.24 0.123l4.21-0.061-0.062 1.32c-0.153 3.35-3.2 6.54-8.91 9.34-2.09 1.04-3.69 1.97-3.56 2.09 0.123 0.122 1.26 0.86 2.49 1.66 2.4 1.54 3.41 3.01 3.44 4.98 0 0.829-0.215 1.04-1.48 1.75-1.72 0.922-5.01 1.87-8.66 2.52-4.33 0.738-12.1 1.69-13.8 1.69-2.12 0-2.46 0.492-1.63 2.24 0.43 0.891 0.645 1.94 0.645 3.16 0 2.98 0.553 5.53 1.87 8.66 1.41 3.38 1.84 6.24 1.2 8.2-0.86 2.58-3.69 4.55-7.19 4.95-2.06 0.243-1.94 0.305-7.56-4.33-2.27-1.88-4.79-3.87-5.62-4.42-1.6-1.08-3.56-2-3.81-1.75-0.276 0.277 1.41 3.59 2.8 5.53 3.26 4.58 4.27 7.9 4.3 14.3 0.0307 3.6-0.0921 4.76-0.553 6.08-1.11 3.2-3.32 4.79-5.65 4.02-3.23-1.04-7.5-5.53-12.5-13-3.16-4.79-6.57-9.06-7.25-9.06-0.123 0 0.246 1.6 0.829 3.54 3.44 12 3.81 22.8 0.952 29.6-1.01 2.49-3.75 5.81-5.01 6.11-1.08 0.277-2.12-0.615-3.23-2.73-1.23-2.37-2.46-3.75-2.83-3.23-0.123 0.215-0.246 0.89-0.246 1.5 0 2.33-1.97 7.19-2.98 7.4-0.277 0.061-1.78-0.031-3.29-0.216-2.76-0.308-2.8-0.308-3.41-1.41-1.51-2.7-2.18-2.8-2.46-0.338-0.461 3.87-1.97 9.28-2.58 9.28-0.584 0-3.1-1.91-4.49-3.41-2.76-2.95-5.71-7.92-6.91-11.7-0.676-2.15-1.6-3.62-2.27-3.62-0.184 0-0.522 0.521-0.707 1.17-1.17 4.06-2.03 7-2.12 7.1-0.0615 0.061-0.707-0.246-1.47-0.708-1.69-0.982-3.04-2.83-5.1-6.91-5.28-10.6-6.33-21.8-2.89-31.4 2.83-7.96 8.42-14.3 17.2-19.7 2.7-1.63 2.98-1.9 3.75-3.56 1.32-2.73 3.32-4.95 8.08-8.88 5.38-4.42 6.18-5.25 7.28-7.46 1.11-2.18 2.98-3.93 8.97-8.42 6.3-4.67 9.46-8.2 16.5-18.3 12.5-18.1 18.4-32.6 20.8-51.2 0.4-3.13 0.4-3.41-0.0921-3.99-0.83-0.952-1.75-2.61-2.33-4.3-0.307-0.829-0.645-1.63-0.737-1.75-0.0923-0.092-1.14 0.061-2.33 0.369-3.84 1.01-10.6 0.614-17.7-1.08-1.08-0.245-2.73-0.461-3.69-0.461-3.59 0-6.85-1.81-8.26-4.61-0.86-1.69-1.32-4.52-1.11-6.67 0.338-3.38 2.03-7.83 2.03-5.38 0 1.35 0.86 3.9 1.51 4.48 0.584 0.522 0.676 0.522 2.21-0.338 3.07-1.66 4.45-4.61 4.98-10.5l0.307-3.87-1.11-1.97c-1.94-3.53-2.43-6.33-1.35-8.02 0.676-1.08 3.23 0.246 6.57 3.47 2.83 2.7 4.12 3.41 6.42 3.41 1.35 0 2.09-0.276 5.07-1.87 1.94-1.01 4.49-2.21 5.65-2.67 2.27-0.829 7.68-2.33 10.7-2.92 1.75-0.368 1.9-0.461 7.07-5.5 11.6-11.2 24.2-20.1 35.5-25 5.25-2.27 7.71-3.07 14.4-4.7 6.76-1.66 8.85-2.4 12.4-4.39 4.02-2.3 5.59-3.04 7.9-3.69 1.97-0.522 2.15-0.522 2.46-0.0923 0.277 0.461 0.43 0.43 1.6-0.338 0.707-0.461 1.63-0.983 2.06-1.14 0.4-0.154 0.83-0.553 0.922-0.829 0.737-2.33 2.52-5.19 4.24-6.91 2.43-2.43 8.97-7 10-7 0.431 0 1.75-0.215 2.92-0.491 1.2-0.246 3.32-0.461 4.76-0.461l2.61 0.0308 2.52-1.81c2.58-1.84 4.73-2.8 6.3-2.8 0.645 0 0.952-0.184 1.14-0.737 0.153-0.369 1.17-1.72 2.27-2.98 2.37-2.73 2.67-3.26 2.67-4.79 0-1.04 0.123-1.29 1.01-1.72 0.522-0.307 1.57-1.01 2.3-1.6 0.768-0.614 1.84-1.17 2.52-1.26 0.799-0.123 1.26-0.399 1.47-0.891 0.615-1.32 3.93-4.55 7.93-7.71 3.59-2.83 4.18-3.2 5.28-3.2 0.891 0 1.66-0.307 3.01-1.23 1.29-0.891 2.12-1.23 2.92-1.23 1.26 0 4.21-1.75 4.7-2.77 0.185-0.43 0.707-0.614 2-0.768 3.35-0.338 6.61-1.04 8.05-1.78l1.47-0.707 0.554 0.707c0.828 1.11 2.67 1.41 6.36 1.01 3.13-0.338 4.64-0.154 5.13 0.676 0.123 0.184-0.062 1.14-0.4 2.12-0.675 2.03-0.644 3.87 0.061 3.72 3.69-0.86 5.04-1.01 7.4-0.891 2.73 0.123 3.96 0.553 3.96 1.29 0 0.246-0.492 1.38-1.11 2.58-1.44 2.73-1.32 3.1 1.05 3.1 0.982 0 2.03 0.184 2.33 0.399 0.492 0.369 0.523 0.492 0.092 1.51-0.246 0.614-0.951 1.63-1.54 2.27-1.29 1.44-2.21 3.2-1.84 3.5 0.646 0.584 4.52 1.6 5.78 1.47 1.78-0.123 1.78 0.307 0.031 1.78-0.736 0.614-1.47 1.41-1.66 1.78-0.182 0.461-1.17 0.952-3.16 1.69-6.33 2.3-14.7 6.33-21 10.2-1.84 1.14-4.06 2.21-4.86 2.43-2.15 0.522-3.62 1.26-10.7 5.35-13.5 7.86-19.5 11.7-20.4 13.2-0.707 1.11-0.891 2.03-0.399 2.03 0.215 0 0.583 0.338 0.768 0.768 0.399 0.891 1.17 0.983 1.97 0.246 0.369-0.307 0.553-0.368 0.553-0.123 0 0.829-0.799 1.84-3.29 4.18l-2.64 2.46 1.1 2.92c0.584 1.6 1.26 3.5 1.48 4.24 0.277 0.952 0.523 1.26 0.86 1.17 0.277-0.0924 1.48-0.215 2.64-0.338l2.15-0.215 1.44 1.29c0.799 0.707 2.43 2.49 3.6 3.99 1.87 2.37 2.18 2.92 2.34 4.36 0.245 2.09 0.706 3.26 1.41 3.63 0.83 0.461 1.01-0.584 0.461-2.49-0.277-0.891-0.492-1.78-0.492-2 0-0.707 0.953-1.35 1.94-1.35 1.29 0 2.03 0.553 3.96 2.86 2.52 3.04 2.52 3.04 7.1 2.8 3.84-0.184 3.93-0.184 5.1 0.584 0.799 0.522 1.5 1.44 2.34 3.01 0.644 1.26 1.48 2.7 1.88 3.26l0.736 0.952 1.91-0.614c5.13-1.63 10.3 0.737 12.7 5.75 0.462 1.01 0.955 2.06 1.08 2.3 0.12 0.246 0.643 0.522 1.14 0.645 1.54 0.307 3.04 1.17 4.88 2.8 1.54 1.38 1.94 1.6 2.89 1.5 0.615-0.031 1.9 0.215 2.86 0.584 0.952 0.338 2.21 0.614 2.83 0.553 1.35-0.092 2.43 0.829 4.39 3.81 1.44 2.18 1.54 2.24 3.93 2.55 4.52 0.553 4.64 0.614 6.3 3.04l1.5 2.24 2.58 0.153c1.6 0.123 3.1 0.4 3.96 0.799 1.81 0.799 3.69 2.52 4.36 3.96 0.523 1.14 0.554 1.17 2.28 1.2 3.56 0.092 7.07 2.58 8.23 5.87l0.554 1.57 1.78 0.153c2.18 0.185 5.22 1.57 6.97 3.13 0.674 0.645 1.26 1.26 1.26 1.38 0 0.153-0.369 0.307-0.829 0.368-1.26 0.154-1.29 0.86-0.03 0.86 1.26 0 2.27 0.646 2 1.32-0.123 0.307-0.767 0.553-1.93 0.706-2 0.246-1.72 0.553 0.767 0.83 1.2 0.153 1.84 0.399 2.43 0.983 0.431 0.43 1.84 1.35 3.13 2.03 3.84 2 4.18 2.55 2.73 4.61-0.305 0.43-0.49 0.891-0.366 1.01 0.092 0.092 0.92 0.184 1.81 0.184 1.14 0 1.66 0.123 1.78 0.461 0.184 0.522-0.247 1.84-0.706 2.15-0.523 0.307-0.4 0.676 0.247 0.86 0.551 0.123 0.582 0.246 0.274 1.26-0.459 1.47-0.154 1.75 2.15 2.06 3.9 0.553 7.56 2.76 8.79 5.32 0.308 0.676 0.767 1.11 1.2 1.17 0.431 0.062 0.862 0.492 1.2 1.2 0.4 0.829 0.8 1.17 1.75 1.44 0.738 0.246 2.06 1.14 3.32 2.3 1.17 1.04 2.55 2.27 3.1 2.73 0.736 0.615 0.982 1.01 0.828 1.44-0.092 0.338 0.031 1.04 0.338 1.6 0.706 1.41 0.401 3.07-1.29 6.73-1.2 2.64-1.35 3.16-0.982 3.6 0.736 0.891 2.98 1.66 6.79 2.27 4.08 0.676 6.14 1.51 7.1 2.83 0.524 0.706 0.554 0.952 0.247 1.38-0.739 1.04-0.739 1.29 0.153 2.15 0.675 0.614 0.983 1.23 1.14 2.37 0.123 0.86 0.431 1.84 0.677 2.24 0.397 0.615 0.397 0.676-0.185 0.676-1.5 0-0.338 0.953 3.32 2.73 7.28 3.56 10.4 5.96 12.2 9.59 1.1 2.12 1.17 4.88 0.154 7.13-0.339 0.829-0.644 1.63-0.644 1.78 0 0.153 1.29 0.245 2.86 0.184 2.73-0.061 2.92-0.031 5.19 1.11 1.32 0.645 3.53 2 4.92 3.04 3.2 2.34 9.4 8.51 10.5 10.5 0.736 1.29 0.797 1.63 0.582 2.76-0.246 1.08-0.493 1.38-1.66 2.06-1.2 0.675-1.75 0.768-4.3 0.768-3.38 0-4.15-0.277-9.68-3.44-1.84-1.04-3.41-1.84-3.47-1.78-0.277 0.276 3.56 5.9 5.01 7.37 2.27 2.24 5.22 3.5 8.29 3.53 0.983 0 1.94 0.461 4.92 2.34 5.62 3.56 10.4 7.25 14.1 10.8 3.41 3.35 6.33 6.76 6.33 7.4 0 0.277-0.8 0.338-3.13 0.246-2.67-0.123-3.65-0.308-6.3-1.26-9.22-3.32-9.4-3.38-12.1-3.53-1.51-0.092-2.71-0.062-2.71 0.059 0 0.615 1.35 2.68 2.09 3.23 0.493 0.339 2.18 1.23 3.78 1.97 1.66 0.767 4.27 2.4 6.11 3.78 1.78 1.35 3.96 2.77 4.89 3.13 0.89 0.4 2.92 1.72 4.52 2.98 1.6 1.23 3.41 2.43 4.02 2.64 0.647 0.185 2.15 1.2 3.32 2.24 1.2 1.04 2.98 2.58 3.99 3.41 3.66 3.01 5.87 5.1 7.07 6.6 0.677 0.862 1.81 1.84 2.52 2.21 1.23 0.613 3.62 2.67 3.38 2.92-0.213 0.185-5.96-1.9-11-4-2.61-1.11-9.74-4.33-15.8-7.22-6.08-2.86-12.6-5.87-14.4-6.67-3.93-1.69-10.4-4.18-10.5-4.06-0.059 0.062 2.24 1.6 5.07 3.41 13.7 8.76 27.1 18.8 38.7 28.9 4.82 4.21 12.5 11.5 12.3 11.7-0.182 0.184-8.48-3.69-12.8-5.96-5.59-2.95-11.3-6.36-24.1-14.3-6.2-3.87-13.6-8.36-16.4-9.95-4.76-2.73-14.9-7.96-14.9-7.68 0 0.061 2.03 1.84 4.55 3.93 19.6 16.6 31 29.1 39.8 43.7 3.53 5.84 9.25 18 8.51 18-0.492 0-10.3-10.3-17.7-18.6-12.9-14.5-19.9-21.1-34.4-32.5-3.69-2.92-7.28-5.75-7.99-6.33-1.57-1.23-4.09-2.55-4.7-2.43-0.246 0.062 2.18 2.52 5.56 5.72 17.2 16.2 30.5 32.4 40 48.7 2.64 4.54 8.57 16.5 8.32 16.7-0.246 0.277-7.19-6.76-10-10.2-1.41-1.66-4.64-5.81-7.19-9.22-4.79-6.39-7.13-9.18-14.8-17.7-5.22-5.78-25.1-25.7-28.1-28.1-1.81-1.48-4.55-3.1-4.76-2.86-0.03 0.061 1.51 1.9 3.44 4.09 4.42 5.04 11.6 13.8 15.8 19.2 3.44 4.49 9.19 12.4 9.19 12.7 0 0.093-0.277 0.185-0.585 0.185-1.2 0-0.921 0.582 0.462 0.982l1.41 0.4 3.38 5.84c3.93 6.82 7.89 14.8 9.89 19.8 1.48 3.81 3.41 10 3.16 10.3-0.062 0.062-3.23-4.61-7-10.4zm-381-59.1c0.123-0.338-1.75-0.8-2.06-0.523-0.246 0.246 1.01 1.04 1.51 0.952 0.246-0.062 0.492-0.244 0.553-0.429zm71.1-70c1.14-0.184 1.14-0.215 0.706-1.04-0.245-0.46-0.768-1.04-1.2-1.35-0.921-0.584-1.11-0.615-1.11-0.154 0 0.184-0.369 0.768-0.799 1.29-1.11 1.32-0.368 1.72 2.4 1.26z"/><path transform="matrix(1 0 0 1 -2419 -1490)" d="m3524 4534h359v154h-359z" fill="#fff"/><g font-family="Arial,Arial_MSFontService,sans-serif" font-size="41.3" font-weight="400"><text transform="matrix(2.56 0 0 2.56 1136 3160)">n </text><text transform="matrix(2.56 0 0 2.56 1225 3160)">= </text><text transform="matrix(2.56 0 0 2.56 1316 3160)">50</text></g><path transform="matrix(1 0 0 1 -2419 -1490)" d="m4447 4537h359v154h-359z" fill="#fff"/><g font-family="Arial,Arial_MSFontService,sans-serif" font-size="41.3" font-weight="400"><text transform="matrix(2.56 0 0 2.56 2060 3162)">n </text><text transform="matrix(2.56 0 0 2.56 2148 3162)">= </text><text transform="matrix(2.56 0 0 2.56 2239 3162)">47</text></g><path transform="matrix(1 0 0 1 -2419 -1490)" d="m5370 4534h359v154h-359z" fill="#fff"/><g font-family="Arial,Arial_MSFontService,sans-serif" font-size="41.3" font-weight="400"><text transform="matrix(2.56 0 0 2.56 2981 3160)">n </text><text transform="matrix(2.56 0 0 2.56 3070 3160)">= </text><text transform="matrix(2.56 0 0 2.56 3161 3160)">22</text></g><g clip-path="url(#b)"><g clip-path="url(#a)"><path transform="matrix(1 0 0 1 -11.9 728)" d="m-408-317h4897v3801h-4897z" fill="#fff"/><g fill="#D95F02"><path transform="matrix(1 0 0 1 -11.9 728)" d="m1418 1491c0 39.6-59.4 39.6-59.4 0 0-39.6 59.4-39.6 59.4 0"/><path transform="matrix(1 0 0 1 -11.9 728)" d="m1383 1742c0 39.6-59.4 39.6-59.4 0 0-39.6 59.4-39.6 59.4 0"/><path transform="matrix(1 0 0 1 -11.9 728)" d="m1056 1910c0 39.6-59.4 39.6-59.4 0 0-39.6 59.4-39.6 59.4 0"/><path transform="matrix(1 0 0 1 -11.9 728)" d="m1343 1947c0 39.6-59.4 39.6-59.4 0 0-39.6 59.4-39.6 59.4 0"/><path transform="matrix(1 0 0 1 -11.9 728)" d="m1293 1267c0 39.6-59.4 39.6-59.4 0 0-39.6 59.4-39.6 59.4 0"/><path transform="matrix(1 0 0 1 -11.9 728)" d="m1087 1733c0 39.6-59.4 39.6-59.4 0 0-39.6 59.4-39.6 59.4 0"/><path transform="matrix(1 0 0 1 -11.9 728)" d="m1221 1236c0 39.6-59.4 39.6-59.4 0 0-39.6 59.4-39.6 59.4 0"/><path transform="matrix(1 0 0 1 -11.9 728)" d="m1171 1324c0 39.6-59.4 39.6-59.4 0 0-39.6 59.4-39.6 59.4 0"/><path transform="matrix(1 0 0 1 -11.9 728)" d="m1206 1935c0 39.6-59.4 39.6-59.4 0 0-39.6 59.4-39.6 59.4 0"/><path transform="matrix(1 0 0 1 -11.9 728)" d="m1380 1639c0 39.6-59.4 39.6-59.4 0 0-39.6 59.4-39.6 59.4 0"/><path transform="matrix(1 0 0 1 -11.9 728)" d="m1272 2106c0 39.6-59.4 39.6-59.4 0 0-39.6 59.4-39.6 59.4 0"/><path transform="matrix(1 0 0 1 -11.9 728)" d="m1157 1629c0 39.6-59.4 39.6-59.4 0 0-39.6 59.4-39.6 59.4 0"/><path transform="matrix(1 0 0 1 -11.9 728)" d="m1390 1321c0 39.6-59.4 39.6-59.4 0 0-39.6 59.4-39.6 59.4 0"/><path transform="matrix(1 0 0 1 -11.9 728)" d="m1272 967c0 39.6-59.4 39.6-59.4 0 0-39.6 59.4-39.6 59.4 0"/><path transform="matrix(1 0 0 1 -11.9 728)" d="m1028 1258c0 39.6-59.4 39.6-59.4 0 0-39.6 59.4-39.6 59.4 0"/><path transform="matrix(1 0 0 1 -11.9 728)" d="m1454 1621c0 39.6-59.4 39.6-59.4 0 0-39.6 59.4-39.6 59.4 0"/><path transform="matrix(1 0 0 1 -11.9 728)" d="m1130 1928c0 39.6-59.4 39.6-59.4 0 0-39.6 59.4-39.6 59.4 0"/><path transform="matrix(1 0 0 1 -11.9 728)" d="m1272 1434c0 39.6-59.4 39.6-59.4 0 0-39.6 59.4-39.6 59.4 0"/><path transform="matrix(1 0 0 1 -11.9 728)" d="m1320 1361c0 39.6-59.4 39.6-59.4 0 0-39.6 59.4-39.6 59.4 0"/><path transform="matrix(1 0 0 1 -11.9 728)" d="m1458 1727c0 39.6-59.4 39.6-59.4 0 0-39.6 59.4-39.6 59.4 0"/><path transform="matrix(1 0 0 1 -11.9 728)" d="m1306 1659c0 39.6-59.4 39.6-59.4 0 0-39.6 59.4-39.6 59.4 0"/><path transform="matrix(1 0 0 1 -11.9 728)" d="m1230 1656c0 39.6-59.4 39.6-59.4 0 0-39.6 59.4-39.6 59.4 0"/><path transform="matrix(1 0 0 1 -11.9 728)" d="m1246 1341c0 39.6-59.4 39.6-59.4 0 0-39.6 59.4-39.6 59.4 0"/><path transform="matrix(1 0 0 1 -11.9 728)" d="m1326 1093c0 39.6-59.4 39.6-59.4 0 0-39.6 59.4-39.6 59.4 0"/><path transform="matrix(1 0 0 1 -11.9 728)" d="m1272 795c0 39.6-59.4 39.6-59.4 0 0-39.6 59.4-39.6 59.4 0"/><path transform="matrix(1 0 0 1 -11.9 728)" d="m1011 1725c0 39.6-59.4 39.6-59.4 0 0-39.6 59.4-39.6 59.4 0"/><path transform="matrix(1 0 0 1 -11.9 728)" d="m1100 1290c0 39.6-59.4 39.6-59.4 0 0-39.6 59.4-39.6 59.4 0"/><path transform="matrix(1 0 0 1 -11.9 728)" d="m1201 1505c0 39.6-59.4 39.6-59.4 0 0-39.6 59.4-39.6 59.4 0"/><path transform="matrix(1 0 0 1 -11.9 728)" d="m1407 1141c0 39.6-59.4 39.6-59.4 0 0-39.6 59.4-39.6 59.4 0"/><path transform="matrix(1 0 0 1 -11.9 728)" d="m1454 1271c0 39.6-59.4 39.6-59.4 0 0-39.6 59.4-39.6 59.4 0"/><path transform="matrix(1 0 0 1 -11.9 728)" d="m1347 1527c0 39.6-59.4 39.6-59.4 0 0-39.6 59.4-39.6 59.4 0"/><path transform="matrix(1 0 0 1 -11.9 728)" d="m1332 910c0 39.6-59.4 39.6-59.4 0s59.4-39.6 59.4 0"/><path transform="matrix(1 0 0 1 -11.9 728)" d="m1131 1089c0 39.6-59.4 39.6-59.4 0 0-39.6 59.4-39.6 59.4 0"/><path transform="matrix(1 0 0 1 -11.9 728)" d="m1272 1160c0 39.6-59.4 39.6-59.4 0 0-39.6 59.4-39.6 59.4 0"/><path transform="matrix(1 0 0 1 -11.9 728)" d="m1272 1745c0 39.6-59.4 39.6-59.4 0 0-39.6 59.4-39.6 59.4 0"/><path transform="matrix(1 0 0 1 -11.9 728)" d="m1272 1540c0 39.6-59.4 39.6-59.4 0 0-39.6 59.4-39.6 59.4 0"/><path transform="matrix(1 0 0 1 -11.9 728)" d="m1130 1472c0 39.6-59.4 39.6-59.4 0 0-39.6 59.4-39.6 59.4 0"/><path transform="matrix(1 0 0 1 -11.9 728)" d="m1533 1708c0 39.6-59.4 39.6-59.4 0 0-39.6 59.4-39.6 59.4 0"/><path transform="matrix(1 0 0 1 -11.9 728)" d="m1523 1232c0 39.6-59.4 39.6-59.4 0 0-39.6 59.4-39.6 59.4 0"/><path transform="matrix(1 0 0 1 -11.9 728)" d="m1163 1734c0 39.6-59.4 39.6-59.4 0 0-39.6 59.4-39.6 59.4 0"/><path transform="matrix(1 0 0 1 -11.9 728)" d="m1208 1810c0 39.6-59.4 39.6-59.4 0 0-39.6 59.4-39.6 59.4 0"/><path transform="matrix(1 0 0 1 -11.9 728)" d="m1272 1861c0 39.6-59.4 39.6-59.4 0 0-39.6 59.4-39.6 59.4 0"/><path transform="matrix(1 0 0 1 -11.9 728)" d="m1354 1210c0 39.6-59.4 39.6-59.4 0 0-39.6 59.4-39.6 59.4 0"/><path transform="matrix(1 0 0 1 -11.9 728)" d="m1415 1918c0 39.6-59.4 39.6-59.4 0 0-39.6 59.4-39.6 59.4 0"/><path transform="matrix(1 0 0 1 -11.9 728)" d="m1348 793c0 39.6-59.4 39.6-59.4 0 0-39.6 59.4-39.6 59.4 0"/><path transform="matrix(1 0 0 1 -11.9 728)" d="m1202 1122c0 39.6-59.4 39.6-59.4 0 0-39.6 59.4-39.6 59.4 0"/><path transform="matrix(1 0 0 1 -11.9 728)" d="m1272 2281c0 39.6-59.4 39.6-59.4 0 0-39.6 59.4-39.6 59.4 0"/><path transform="matrix(1 0 0 1 -11.9 728)" d="m1151 1199c0 39.6-59.4 39.6-59.4 0 0-39.6 59.4-39.6 59.4 0"/><path transform="matrix(1 0 0 1 -11.9 728)" d="m1272 1982c0 39.6-59.4 39.6-59.4 0 0-39.6 59.4-39.6 59.4 0"/><path transform="matrix(1 0 0 1 -11.9 728)" d="m1341 1821c0 39.6-59.4 39.6-59.4 0 0-39.6 59.4-39.6 59.4 0"/></g><g fill="#7570B3"><path transform="matrix(1 0 0 1 -11.9 728)" d="m2078 1522c0 39.6-59.4 39.6-59.4 0 0-39.6 59.4-39.6 59.4 0"/><path transform="matrix(1 0 0 1 -11.9 728)" d="m2363 1674c0 39.6-59.4 39.6-59.4 0 0-39.6 59.4-39.6 59.4 0"/><path transform="matrix(1 0 0 1 -11.9 728)" d="m2090 1118c0 39.6-59.4 39.6-59.4 0 0-39.6 59.4-39.6 59.4 0"/><path transform="matrix(1 0 0 1 -11.9 728)" d="m2373 1117c0 39.6-59.4 39.6-59.4 0 0-39.6 59.4-39.6 59.4 0"/><path transform="matrix(1 0 0 1 -11.9 728)" d="m1955 1230c0 39.6-59.4 39.6-59.4 0 0-39.6 59.4-39.6 59.4 0"/><path transform="matrix(1 0 0 1 -11.9 728)" d="m2234 1358c0 39.6-59.4 39.6-59.4 0s59.4-39.6 59.4 0"/><path transform="matrix(1 0 0 1 -11.9 728)" d="m2253 1453c0 39.6-59.4 39.6-59.4 0 0-39.6 59.4-39.6 59.4 0"/><path transform="matrix(1 0 0 1 -11.9 728)" d="m2100 1282c0 39.6-59.4 39.6-59.4 0 0-39.6 59.4-39.6 59.4 0"/><path transform="matrix(1 0 0 1 -11.9 728)" d="m1946 1063c0 39.6-59.4 39.6-59.4 0 0-39.6 59.4-39.6 59.4 0"/><path transform="matrix(1 0 0 1 -11.9 728)" d="m2433 1242c0 39.6-59.4 39.6-59.4 0 0-39.6 59.4-39.6 59.4 0"/><path transform="matrix(1 0 0 1 -11.9 728)" d="m2094 991c0 39.6-59.4 39.6-59.4 0 0-39.6 59.4-39.6 59.4 0"/><path transform="matrix(1 0 0 1 -11.9 728)" d="m2030 1243c0 39.6-59.4 39.6-59.4 0 0-39.6 59.4-39.6 59.4 0"/><path transform="matrix(1 0 0 1 -11.9 728)" d="m2096 1705c0 39.6-59.4 39.6-59.4 0 0-39.6 59.4-39.6 59.4 0"/><path transform="matrix(1 0 0 1 -11.9 728)" d="m2440 943c0 39.6-59.4 39.6-59.4 0 0-39.6 59.4-39.6 59.4 0"/><path transform="matrix(1 0 0 1 -11.9 728)" d="m2358 1259c0 39.6-59.4 39.6-59.4 0 0-39.6 59.4-39.6 59.4 0"/><path transform="matrix(1 0 0 1 -11.9 728)" d="m2286 1289c0 39.6-59.4 39.6-59.4 0s59.4-39.6 59.4 0"/><path transform="matrix(1 0 0 1 -11.9 728)" d="m2228 1543c0 39.6-59.4 39.6-59.4 0 0-39.6 59.4-39.6 59.4 0"/><path transform="matrix(1 0 0 1 -11.9 728)" d="m2015 1102c0 39.6-59.4 39.6-59.4 0 0-39.6 59.4-39.6 59.4 0"/><path transform="matrix(1 0 0 1 -11.9 728)" d="m2315 1051c0 39.6-59.4 39.6-59.4 0 0-39.6 59.4-39.6 59.4 0"/><path transform="matrix(1 0 0 1 -11.9 728)" d="m2232 1071c0 39.6-59.4 39.6-59.4 0 0-39.6 59.4-39.6 59.4 0"/><path transform="matrix(1 0 0 1 -11.9 728)" d="m2018 985c0 39.6-59.4 39.6-59.4 0 0-39.6 59.4-39.6 59.4 0"/><path transform="matrix(1 0 0 1 -11.9 728)" d="m2361 885c0 39.6-59.4 39.6-59.4 0 0-39.6 59.4-39.6 59.4 0"/><path transform="matrix(1 0 0 1 -11.9 728)" d="m2292 1707c0 39.6-59.4 39.6-59.4 0 0-39.6 59.4-39.6 59.4 0"/><path transform="matrix(1 0 0 1 -11.9 728)" d="m2228 1879c0 39.6-59.4 39.6-59.4 0 0-39.6 59.4-39.6 59.4 0"/><path transform="matrix(1 0 0 1 -11.9 728)" d="m2301 1144c0 39.6-59.4 39.6-59.4 0 0-39.6 59.4-39.6 59.4 0"/><path transform="matrix(1 0 0 1 -11.9 728)" d="m2164 924c0 39.6-59.4 39.6-59.4 0 0-39.6 59.4-39.6 59.4 0"/><path transform="matrix(1 0 0 1 -11.9 728)" d="m2166 1023c0 39.6-59.4 39.6-59.4 0 0-39.6 59.4-39.6 59.4 0"/><path transform="matrix(1 0 0 1 -11.9 728)" d="m2303 946c0 39.6-59.4 39.6-59.4 0 0-39.6 59.4-39.6 59.4 0"/><path transform="matrix(1 0 0 1 -11.9 728)" d="m2228 846c0 39.6-59.4 39.6-59.4 0s59.4-39.6 59.4 0"/><path transform="matrix(1 0 0 1 -11.9 728)" d="m2518 1062c0 39.6-59.4 39.6-59.4 0 0-39.6 59.4-39.6 59.4 0"/><path transform="matrix(1 0 0 1 -11.9 728)" d="m2234 1769c0 39.6-59.4 39.6-59.4 0 0-39.6 59.4-39.6 59.4 0"/><path transform="matrix(1 0 0 1 -11.9 728)" d="m2169 1819c0 39.6-59.4 39.6-59.4 0 0-39.6 59.4-39.6 59.4 0"/><path transform="matrix(1 0 0 1 -11.9 728)" d="m2166 1119c0 39.6-59.4 39.6-59.4 0 0-39.6 59.4-39.6 59.4 0"/><path transform="matrix(1 0 0 1 -11.9 728)" d="m2153 1527c0 39.6-59.4 39.6-59.4 0 0-39.6 59.4-39.6 59.4 0"/><path transform="matrix(1 0 0 1 -11.9 728)" d="m2180 1425c0 39.6-59.4 39.6-59.4 0 0-39.6 59.4-39.6 59.4 0"/><path transform="matrix(1 0 0 1 -11.9 728)" d="m1871 1053c0 39.6-59.4 39.6-59.4 0 0-39.6 59.4-39.6 59.4 0"/><path transform="matrix(1 0 0 1 -11.9 728)" d="m2171 1715c0 39.6-59.4 39.6-59.4 0 0-39.6 59.4-39.6 59.4 0"/><path transform="matrix(1 0 0 1 -11.9 728)" d="m1974 907c0 39.6-59.4 39.6-59.4 0 0-39.6 59.4-39.6 59.4 0"/><path transform="matrix(1 0 0 1 -11.9 728)" d="m2448 1097c0 39.6-59.4 39.6-59.4 0 0-39.6 59.4-39.6 59.4 0"/><path transform="matrix(1 0 0 1 -11.9 728)" d="m2230 972c0 39.6-59.4 39.6-59.4 0 0-39.6 59.4-39.6 59.4 0"/><path transform="matrix(1 0 0 1 -11.9 728)" d="m2228 2252c0 39.6-59.4 39.6-59.4 0 0-39.6 59.4-39.6 59.4 0"/><path transform="matrix(1 0 0 1 -11.9 728)" d="m2297 1838c0 39.6-59.4 39.6-59.4 0 0-39.6 59.4-39.6 59.4 0"/><path transform="matrix(1 0 0 1 -11.9 728)" d="m2175 1299c0 39.6-59.4 39.6-59.4 0 0-39.6 59.4-39.6 59.4 0"/><path transform="matrix(1 0 0 1 -11.9 728)" d="m2228 1174c0 39.6-59.4 39.6-59.4 0 0-39.6 59.4-39.6 59.4 0"/><path transform="matrix(1 0 0 1 -11.9 728)" d="m2228 728c0 39.6-59.4 39.6-59.4 0 0-39.6 59.4-39.6 59.4 0"/><path transform="matrix(1 0 0 1 -11.9 728)" d="m2372 988c0 39.6-59.4 39.6-59.4 0s59.4-39.6 59.4 0"/><path transform="matrix(1 0 0 1 -11.9 728)" d="m2304 1531c0 39.6-59.4 39.6-59.4 0 0-39.6 59.4-39.6 59.4 0"/></g><g fill="#1B9E77"><path transform="matrix(1 0 0 1 -11.9 728)" d="m3211 799c0 39.6-59.4 39.6-59.4 0 0-39.6 59.4-39.6 59.4 0"/><path transform="matrix(1 0 0 1 -11.9 728)" d="m3185 1688c0 39.6-59.4 39.6-59.4 0 0-39.6 59.4-39.6 59.4 0"/><path transform="matrix(1 0 0 1 -11.9 728)" d="m3034 866c0 39.6-59.4 39.6-59.4 0 0-39.6 59.4-39.6 59.4 0"/><path transform="matrix(1 0 0 1 -11.9 728)" d="m3473 794c0 39.6-59.4 39.6-59.4 0 0-39.6 59.4-39.6 59.4 0"/><path transform="matrix(1 0 0 1 -11.9 728)" d="m2818 792c0 39.6-59.4 39.6-59.4 0 0-39.6 59.4-39.6 59.4 0"/><path transform="matrix(1 0 0 1 -11.9 728)" d="m3185 888c0 39.6-59.4 39.6-59.4 0 0-39.6 59.4-39.6 59.4 0"/><path transform="matrix(1 0 0 1 -11.9 728)" d="m3260 879c0 39.6-59.4 39.6-59.4 0 0-39.6 59.4-39.6 59.4 0"/><path transform="matrix(1 0 0 1 -11.9 728)" d="m3278 754c0 39.6-59.4 39.6-59.4 0s59.4-39.6 59.4 0"/><path transform="matrix(1 0 0 1 -11.9 728)" d="m3110 872c0 39.6-59.4 39.6-59.4 0s59.4-39.6 59.4 0"/><path transform="matrix(1 0 0 1 -11.9 728)" d="m2967 820c0 39.6-59.4 39.6-59.4 0 0-39.6 59.4-39.6 59.4 0"/><path transform="matrix(1 0 0 1 -11.9 728)" d="m3694 751c0 39.6-59.4 39.6-59.4 0 0-39.6 59.4-39.6 59.4 0"/><path transform="matrix(1 0 0 1 -11.9 728)" d="m3404 832c0 39.6-59.4 39.6-59.4 0 0-39.6 59.4-39.6 59.4 0"/><path transform="matrix(1 0 0 1 -11.9 728)" d="m3137 775c0 39.6-59.4 39.6-59.4 0 0-39.6 59.4-39.6 59.4 0"/><path transform="matrix(1 0 0 1 -11.9 728)" d="m2891 816c0 39.6-59.4 39.6-59.4 0 0-39.6 59.4-39.6 59.4 0"/><path transform="matrix(1 0 0 1 -11.9 728)" d="m3327 834c0 39.6-59.4 39.6-59.4 0 0-39.6 59.4-39.6 59.4 0"/><path transform="matrix(1 0 0 1 -11.9 728)" d="m3185 1173c0 39.6-59.4 39.6-59.4 0 0-39.6 59.4-39.6 59.4 0"/><path transform="matrix(1 0 0 1 -11.9 728)" d="m3618 754c0 39.6-59.4 39.6-59.4 0 0-39.6 59.4-39.6 59.4 0"/><path transform="matrix(1 0 0 1 -11.9 728)" d="m2749 753c0 39.6-59.4 39.6-59.4 0 0-39.6 59.4-39.6 59.4 0"/><path transform="matrix(1 0 0 1 -11.9 728)" d="m3061 766c0 39.6-59.4 39.6-59.4 0 0-39.6 59.4-39.6 59.4 0"/><path transform="matrix(1 0 0 1 -11.9 728)" d="m3185 1355c0 39.6-59.4 39.6-59.4 0 0-39.6 59.4-39.6 59.4 0"/><path transform="matrix(1 0 0 1 -11.9 728)" d="m3236 1104c0 39.6-59.4 39.6-59.4 0s59.4-39.6 59.4 0"/><path transform="matrix(1 0 0 1 -11.9 728)" d="m3549 793c0 39.6-59.4 39.6-59.4 0 0-39.6 59.4-39.6 59.4 0"/></g><g fill="none" stroke="#000" stroke-linecap="round" stroke-linejoin="round" stroke-miterlimit="10" stroke-width="8.25"><path transform="matrix(1 0 0 1 -11.9 728)" d="m649 2360h3099v-1711h-3099z"/><path transform="matrix(1 0 0 1 -11.9 728)" d="m1242 2360h1913"/><path transform="matrix(1 0 0 1 -11.9 728)" d="m1242 2360v79.2"/><path transform="matrix(1 0 0 1 -11.9 728)" d="m2199 2360v79.2"/><path transform="matrix(1 0 0 1 -11.9 728)" d="m3155 2360v79.2"/></g><path transform="matrix(1 0 0 1 1082 3357)" d="m8.68 0v-68.4h10.5v9.75c4.98-7.52 12.2-11.3 21.7-11.3 4.12 0 7.95 0.73 11.4 2.23 3.48 1.46 6.06 3.44 7.78 5.8 1.72 2.45 2.92 5.28 3.61 8.59 0.43 2.15 0.645 5.93 0.645 11.3v42.1h-11.6v-41.6c0-4.73-0.472-8.25-1.33-10.6-0.945-2.32-2.53-4.21-4.81-5.59-2.32-1.42-4.98-2.11-8.08-2.11-4.98 0-9.24 1.59-12.8 4.68-3.61 3.18-5.41 9.11-5.41 17.9v37.4z"/><path transform="matrix(1 0 0 1 1156 3357)" d="m69.7-55.6h-62.4v-10.8h62.4v10.8m0 28.7h-62.4v-10.8h62.4z"/><path transform="matrix(1 0 0 1 1233 3357)" d="m5.5-24.7 12.2-1.03c0.902 5.93 3.01 10.4 6.27 13.4 3.31 3.01 7.26 4.51 11.9 4.51 5.59 0 10.3-2.11 14.2-6.36 3.87-4.17 5.8-9.8 5.8-16.8 0-6.57-1.85-11.8-5.59-15.6-3.69-3.82-8.59-5.71-14.6-5.76-3.78 0.0428-7.13 0.859-10.1 2.58-3.01 1.68-5.37 3.87-7.09 6.62l-10.9-1.46 9.11-48.5h47v11.1h-37.7l-5.07 25.4c5.67-3.95 11.6-5.93 17.9-5.93 8.25 0 15.2 2.88 20.9 8.59 5.67 5.71 8.51 13.1 8.51 22 0 8.59-2.54 16-7.48 22.2-6.1 7.65-14.4 11.5-24.8 11.5-8.59 0-15.6-2.45-21.1-7.22-5.41-4.81-8.51-11.2-9.28-19.2z"/><path transform="matrix(1 0 0 1 1306 3357)" d="m5.5-46.6c0-11.2 1.12-20.2 3.44-27 2.28-6.83 5.71-12.1 10.2-15.8 4.55-3.7 10.2-5.54 17.1-5.54 5.07 0 9.54 1.03 13.4 3.05 3.82 2.06 6.96 4.98 9.5 8.85 2.45 3.82 4.43 8.51 5.84 14 1.42 5.5 2.15 13 2.15 22.3 0 11.1-1.16 20-3.44 26.8-2.28 6.83-5.67 12.1-10.2 15.8-4.51 3.69-10.3 5.59-17.2 5.59-9.11 0-16.2-3.31-21.4-9.8-6.23-7.91-9.32-20.7-9.32-38.4m11.9 0c0 15.5 1.8 25.8 5.46 30.9 3.61 5.16 8.08 7.73 13.4 7.73s9.84-2.58 13.4-7.73c3.65-5.16 5.46-15.5 5.46-30.9 0-15.6-1.8-25.9-5.46-31-3.61-5.11-8.12-7.65-13.5-7.65-5.37 0-9.62 2.23-12.8 6.75-3.95 5.76-5.97 16.4-5.97 31.9z"/><path transform="matrix(1 0 0 1 2039 3357)" d="m8.68 0v-68.4h10.5v9.75c4.98-7.52 12.2-11.3 21.7-11.3 4.12 0 7.95 0.73 11.4 2.23 3.48 1.46 6.06 3.44 7.78 5.8 1.72 2.45 2.92 5.28 3.61 8.59 0.43 2.15 0.645 5.93 0.645 11.3v42.1h-11.6v-41.6c0-4.73-0.472-8.25-1.33-10.6-0.945-2.32-2.53-4.21-4.81-5.59-2.32-1.42-4.98-2.11-8.08-2.11-4.98 0-9.24 1.59-12.8 4.68-3.61 3.18-5.41 9.11-5.41 17.9v37.4z"/><path transform="matrix(1 0 0 1 2112 3357)" d="m69.7-55.6h-62.4v-10.8h62.4v10.8m0 28.7h-62.4v-10.8h62.4z"/><path transform="matrix(1 0 0 1 2189 3357)" d="m42.7 0v-22.6h-41v-10.7l43.1-61.2h9.5v61.2h12.8v10.7h-12.8v22.6h-11.6m0-33.3v-42.6l-29.6 42.6z"/><path transform="matrix(1 0 0 1 2263 3357)" d="m6.27-82.1v-11.1h61.1v9.02c-6.02 6.4-12 14.9-17.9 25.5-5.93 10.6-10.5 21.5-13.7 32.7-2.32 7.91-3.78 16.5-4.47 26h-11.9c0.129-7.43 1.59-16.4 4.38-26.9 2.79-10.5 6.79-20.7 12-30.5 5.2-9.75 10.7-18 16.6-24.7z"/><path transform="matrix(1 0 0 1 3e3 3357)" d="m8.68 0v-68.4h10.5v9.75c4.98-7.52 12.2-11.3 21.7-11.3 4.12 0 7.95 0.73 11.4 2.23 3.48 1.46 6.06 3.44 7.78 5.8 1.72 2.45 2.92 5.28 3.61 8.59 0.43 2.15 0.645 5.93 0.645 11.3v42.1h-11.6v-41.6c0-4.73-0.472-8.25-1.33-10.6-0.945-2.32-2.53-4.21-4.81-5.59-2.32-1.42-4.98-2.11-8.08-2.11-4.98 0-9.24 1.59-12.8 4.68-3.61 3.18-5.41 9.11-5.41 17.9v37.4z"/><path transform="matrix(1 0 0 1 3069 3357)" d="m69.7-55.6h-62.4v-10.8h62.4v10.8m0 28.7h-62.4v-10.8h62.4z"/><path transform="matrix(1 0 0 1 3146 3357)" d="m66.4-11.2v11.2h-62.4c-0.0859-2.79 0.344-5.5 1.33-8.08 1.59-4.21 4.17-8.42 7.65-12.5 3.52-4.12 8.55-8.89 15.2-14.3 10.2-8.42 17.2-15.1 20.8-20 3.61-4.9 5.41-9.58 5.41-14 0-4.55-1.63-8.46-4.94-11.6-3.27-3.18-7.56-4.73-12.8-4.73-5.59 0-10.1 1.63-13.4 4.98-3.35 3.35-5.07 7.99-5.07 13.9l-11.9-1.2c0.816-8.89 3.91-15.7 9.19-20.3 5.33-4.68 12.5-7 21.5-7 9.07 0 16.2 2.49 21.5 7.56 5.28 4.98 7.95 11.3 7.95 18.6 0 3.82-0.816 7.52-2.32 11.2-1.59 3.65-4.12 7.52-7.73 11.5-3.57 4.08-9.54 9.62-17.9 16.7-6.96 5.84-11.4 9.8-13.4 11.9-1.98 2.11-3.61 4.21-4.9 6.27z"/><path transform="matrix(1 0 0 1 3220 3357)" d="m66.4-11.2v11.2h-62.4c-0.0859-2.79 0.344-5.5 1.33-8.08 1.59-4.21 4.17-8.42 7.65-12.5 3.52-4.12 8.55-8.89 15.2-14.3 10.2-8.42 17.2-15.1 20.8-20 3.61-4.9 5.41-9.58 5.41-14 0-4.55-1.63-8.46-4.94-11.6-3.27-3.18-7.56-4.73-12.8-4.73-5.59 0-10.1 1.63-13.4 4.98-3.35 3.35-5.07 7.99-5.07 13.9l-11.9-1.2c0.816-8.89 3.91-15.7 9.19-20.3 5.33-4.68 12.5-7 21.5-7 9.07 0 16.2 2.49 21.5 7.56 5.28 4.98 7.95 11.3 7.95 18.6 0 3.82-0.816 7.52-2.32 11.2-1.59 3.65-4.12 7.52-7.73 11.5-3.57 4.08-9.54 9.62-17.9 16.7-6.96 5.84-11.4 9.8-13.4 11.9-1.98 2.11-3.61 4.21-4.9 6.27z"/><g fill="none" stroke="#000" stroke-linecap="round" stroke-linejoin="round" stroke-miterlimit="10" stroke-width="8.25"><path transform="matrix(1 0 0 1 -11.9 728)" d="m649 2250v-1526"/><path transform="matrix(1 0 0 1 -11.9 728)" d="m649 2250h-79.2"/><path transform="matrix(1 0 0 1 -11.9 728)" d="m649 1868h-79.2"/><path transform="matrix(1 0 0 1 -11.9 728)" d="m649 1487h-79.2"/><path transform="matrix(1 0 0 1 -11.9 728)" d="m649 1105h-79.2"/><path transform="matrix(1 0 0 1 -11.9 728)" d="m649 724h-79.2"/></g><path transform="matrix(1 0 0 1 463 3069)" d="m-46.6-5.5c-11.2 0-20.2-1.12-27-3.44-6.83-2.28-12.1-5.71-15.8-10.2-3.7-4.55-5.54-10.2-5.54-17.1 0-5.03 1.03-9.5 3.05-13.3 2.06-3.82 4.98-6.96 8.85-9.5 3.82-2.45 8.51-4.43 14-5.84 5.5-1.42 13-2.15 22.3-2.15 11.1 0 20 1.16 26.8 3.44 6.83 2.28 12.1 5.67 15.8 10.2 3.69 4.51 5.59 10.3 5.59 17.2 0 9.11-3.31 16.2-9.8 21.4-7.91 6.23-20.7 9.32-38.4 9.32m0-11.9c15.5 0 25.8-1.8 30.9-5.46 5.16-3.61 7.73-8.08 7.73-13.4s-2.58-9.84-7.73-13.4c-5.16-3.65-15.5-5.46-30.9-5.46-15.6 0-25.9 1.8-31 5.46-5.11 3.61-7.65 8.12-7.65 13.5 0 5.37 2.23 9.62 6.75 12.8 5.76 4 16.4 6.02 31.9 6.02z"/><path transform="matrix(1 0 0 1 463 3e3)" d="m0-12h-13.2l0.0429-13.2h13.2z"/><path transform="matrix(1 0 0 1 463 2959)" d="m-11.1-66.4h11.1v62.4c-2.79 0.0859-5.5-0.344-8.08-1.37-4.21-1.55-8.42-4.12-12.5-7.6-4.12-3.52-8.89-8.55-14.3-15.2-8.42-10.2-15.1-17.2-20-20.8-4.9-3.61-9.58-5.41-14-5.41-4.55 0-8.46 1.63-11.6 4.94-3.18 3.27-4.73 7.56-4.73 12.8 0 5.59 1.63 10.1 4.98 13.4 3.35 3.35 7.99 5.07 13.9 5.07l-1.2 11.9c-8.89-0.816-15.7-3.91-20.3-9.24-4.68-5.28-7-12.5-7-21.4 0-9.07 2.49-16.2 7.56-21.5 4.98-5.28 11.3-7.95 18.6-7.95 3.82 0 7.52 0.816 11.2 2.32 3.65 1.59 7.52 4.12 11.5 7.73 4.08 3.57 9.62 9.54 16.7 17.9 5.84 6.96 9.8 11.4 11.9 13.4 2.11 1.98 4.21 3.61 6.32 4.9z"/><path transform="matrix(1 0 0 1 463 2688)" d="m-46.6-5.5c-11.2 0-20.2-1.12-27-3.44-6.83-2.28-12.1-5.71-15.8-10.2-3.7-4.55-5.54-10.2-5.54-17.1 0-5.03 1.03-9.5 3.05-13.3 2.06-3.82 4.98-6.96 8.85-9.5 3.82-2.45 8.51-4.43 14-5.84 5.5-1.42 13-2.15 22.3-2.15 11.1 0 20 1.16 26.8 3.44 6.83 2.28 12.1 5.67 15.8 10.2 3.69 4.51 5.59 10.3 5.59 17.2 0 9.11-3.31 16.2-9.8 21.4-7.91 6.23-20.7 9.32-38.4 9.32m0-11.9c15.5 0 25.8-1.8 30.9-5.46 5.16-3.61 7.73-8.08 7.73-13.4s-2.58-9.84-7.73-13.4c-5.16-3.65-15.5-5.46-30.9-5.46-15.6 0-25.9 1.8-31 5.46-5.11 3.61-7.65 8.12-7.65 13.5 0 5.37 2.23 9.62 6.75 12.8 5.76 4 16.4 6.02 31.9 6.02z"/><path transform="matrix(1 0 0 1 463 2615)" d="m0-12h-13.2l0.0429-13.2h13.2z"/><path transform="matrix(1 0 0 1 463 2578)" d="m0-42.7h-22.6v41h-10.7l-61.2-43.1v-9.45h61.2v-12.8h10.7v12.8h22.6v11.6m-33.3 0h-42.6l42.6 29.6z"/><path transform="matrix(1 0 0 1 463 2306)" d="m-46.6-5.5c-11.2 0-20.2-1.12-27-3.44-6.83-2.28-12.1-5.71-15.8-10.2-3.7-4.55-5.54-10.2-5.54-17.1 0-5.03 1.03-9.5 3.05-13.3 2.06-3.82 4.98-6.96 8.85-9.5 3.82-2.45 8.51-4.43 14-5.84 5.5-1.42 13-2.15 22.3-2.15 11.1 0 20 1.16 26.8 3.44 6.83 2.28 12.1 5.67 15.8 10.2 3.69 4.51 5.59 10.3 5.59 17.2 0 9.11-3.31 16.2-9.8 21.4-7.91 6.23-20.7 9.32-38.4 9.32m0-11.9c15.5 0 25.8-1.8 30.9-5.46 5.16-3.61 7.73-8.08 7.73-13.4s-2.58-9.84-7.73-13.4c-5.16-3.65-15.5-5.46-30.9-5.46-15.6 0-25.9 1.8-31 5.46-5.11 3.61-7.65 8.12-7.65 13.5 0 5.37 2.23 9.62 6.75 12.8 5.76 4 16.4 6.02 31.9 6.02z"/><path transform="matrix(1 0 0 1 463 2233)" d="m0-12h-13.2l0.0429-13.2h13.2z"/><path transform="matrix(1 0 0 1 463 2196)" d="m-71.3-65.7 0.86 11.5c-4.51 1.03-7.82 2.49-9.88 4.38-3.31 3.14-4.98 7-4.98 11.6 0 3.7 1.03 6.96 3.09 9.71 2.66 3.7 6.57 6.57 11.7 8.64 5.11 2.15 12.4 3.22 21.8 3.31-4.25-2.79-7.39-6.19-9.45-10.3-2.06-4-3.09-8.25-3.09-12.7 0-7.73 2.84-14.3 8.51-19.8 5.71-5.41 13.1-8.16 22.1-8.16 5.93 0 11.4 1.29 16.5 3.87 5.07 2.53 8.98 6.06 11.7 10.5 2.71 4.47 4.08 9.54 4.08 15.2 0 9.67-3.57 17.6-10.7 23.7-7.09 6.1-18.8 9.11-35.1 9.11-18.3 0-31.5-3.35-39.8-10.1-7.22-5.89-10.8-13.8-10.8-23.8 0-7.39 2.11-13.5 6.27-18.3 4.17-4.73 9.88-7.56 17.3-8.51m40.7 47.3c3.95 0 7.82-0.859 11.5-2.53 3.65-1.72 6.4-4.08 8.34-7.13 1.89-3.05 2.88-6.23 2.88-9.58 0-4.9-1.98-9.11-5.93-12.6-3.95-3.52-9.32-5.28-16.1-5.33-6.53 0.0431-11.7 1.76-15.5 5.24-3.74 3.48-5.63 7.86-5.63 13.1 0 5.24 1.89 9.71 5.63 13.3 3.78 3.7 8.72 5.5 14.8 5.5z"/><path transform="matrix(1 0 0 1 463 1925)" d="m-46.6-5.5c-11.2 0-20.2-1.12-27-3.44-6.83-2.28-12.1-5.71-15.8-10.2-3.7-4.55-5.54-10.2-5.54-17.1 0-5.03 1.03-9.5 3.05-13.3 2.06-3.82 4.98-6.96 8.85-9.5 3.82-2.45 8.51-4.43 14-5.84 5.5-1.42 13-2.15 22.3-2.15 11.1 0 20 1.16 26.8 3.44 6.83 2.28 12.1 5.67 15.8 10.2 3.69 4.51 5.59 10.3 5.59 17.2 0 9.11-3.31 16.2-9.8 21.4-7.91 6.23-20.7 9.32-38.4 9.32m0-11.9c15.5 0 25.8-1.8 30.9-5.46 5.16-3.61 7.73-8.08 7.73-13.4s-2.58-9.84-7.73-13.4c-5.16-3.65-15.5-5.46-30.9-5.46-15.6 0-25.9 1.8-31 5.46-5.11 3.61-7.65 8.12-7.65 13.5 0 5.37 2.23 9.62 6.75 12.8 5.76 4 16.4 6.02 31.9 6.02z"/><path transform="matrix(1 0 0 1 463 1852)" d="m0-12h-13.2l0.0429-13.2h13.2z"/><path transform="matrix(1 0 0 1 463 1815)" d="m-51.2-23.3c-1.76 4.81-4.3 8.38-7.56 10.7-3.27 2.32-7.18 3.48-11.7 3.48-6.87 0-12.6-2.49-17.3-7.43-4.68-4.9-7.05-11.5-7.05-19.7 0-8.25 2.41-14.9 7.18-19.9 4.81-5.03 10.7-7.56 17.5-7.56 4.43 0 8.21 1.16 11.5 3.48 3.22 2.28 5.76 5.8 7.52 10.4 1.89-5.76 4.94-10.2 9.15-13.2 4.21-3.01 9.24-4.55 15.1-4.55 8.08 0 14.9 2.88 20.4 8.59 5.46 5.71 8.25 13.2 8.25 22.6 0 9.32-2.79 16.8-8.29 22.6-5.54 5.71-12.4 8.55-20.7 8.55-6.14 0-11.3-1.55-15.4-4.64-4.17-3.14-6.96-7.56-8.46-13.3m-19.7 2.32c4.47 0 8.12-1.42 11-4.34 2.84-2.84 4.25-6.57 4.25-11.2 0-4.43-1.42-8.12-4.21-11-2.84-2.88-6.27-4.3-10.4-4.3-4.25 0-7.82 1.46-10.7 4.43-2.88 2.92-4.34 6.57-4.34 11 0 4.47 1.42 8.12 4.25 11 2.84 2.92 6.23 4.38 10.2 4.38m43.7 3.74c3.31 0 6.49-0.773 9.58-2.36 3.09-1.55 5.5-3.91 7.18-7 1.72-3.09 2.58-6.4 2.58-9.97 0-5.54-1.8-10.1-5.37-13.7-3.57-3.61-8.08-5.41-13.6-5.41-5.59 0-10.2 1.89-13.9 5.59-3.65 3.74-5.5 8.38-5.5 14 0 5.46 1.8 9.97 5.41 13.6 3.61 3.57 8.16 5.37 13.6 5.37z"/><path transform="matrix(1 0 0 1 463 1544)" d="m0-49.2v11.6l-73.9-0.0431c2.66 2.84 5.33 6.49 7.99 11 2.66 4.55 4.64 8.59 5.97 12.2h-11.2c-3.05-6.44-6.75-12.1-11.1-17-4.34-4.81-8.55-8.25-12.6-10.3v-7.48z"/><path transform="matrix(1 0 0 1 463 1470)" d="m0-12h-13.2l0.0429-13.2h13.2z"/><path transform="matrix(1 0 0 1 463 1434)" d="m-46.6-5.5c-11.2 0-20.2-1.12-27-3.44-6.83-2.28-12.1-5.71-15.8-10.2-3.7-4.55-5.54-10.2-5.54-17.1 0-5.03 1.03-9.5 3.05-13.3 2.06-3.82 4.98-6.96 8.85-9.5 3.82-2.45 8.51-4.43 14-5.84 5.5-1.42 13-2.15 22.3-2.15 11.1 0 20 1.16 26.8 3.44 6.83 2.28 12.1 5.67 15.8 10.2 3.69 4.51 5.59 10.3 5.59 17.2 0 9.11-3.31 16.2-9.8 21.4-7.91 6.23-20.7 9.32-38.4 9.32m0-11.9c15.5 0 25.8-1.8 30.9-5.46 5.16-3.61 7.73-8.08 7.73-13.4s-2.58-9.84-7.73-13.4c-5.16-3.65-15.5-5.46-30.9-5.46-15.6 0-25.9 1.8-31 5.46-5.11 3.61-7.65 8.12-7.65 13.5 0 5.37 2.23 9.62 6.75 12.8 5.76 4 16.4 6.02 31.9 6.02z"/><path transform="matrix(1 0 0 1 215 2306)" d="m0-10.4h-94.5v-41.9c0-8.38 0.859-14.8 2.53-19.2 1.72-4.38 4.73-7.86 9.02-10.5 4.3-2.62 9.02-3.95 14.2-3.95 6.7 0 12.4 2.19 17 6.53 4.6 4.34 7.52 11 8.76 20.1 1.59-3.31 3.14-5.8 4.68-7.56 3.35-3.61 7.56-7.09 12.6-10.4l25.7-16.5v15.7l-19.6 12.5c-5.67 3.65-10 6.66-13 9.02-3.01 2.36-5.11 4.47-6.32 6.32-1.2 1.89-2.06 3.78-2.53 5.71-0.301 1.42-0.43 3.74-0.43 6.96v14.5l41.9 0.043v12.5m-52.8-12.5v-26.9c0-5.71-0.602-10.2-1.8-13.4-1.16-3.22-3.05-5.67-5.67-7.35-2.58-1.68-5.41-2.53-8.46-2.53-4.47 0-8.12 1.63-11 4.9-2.84 3.22-4.3 8.38-4.3 15.3v29.9z"/><path transform="matrix(1 0 0 1 139 2211)" d="m-7.82-46.5h7.82v43.7c-1.93 0.043-3.82-0.258-5.63-0.945-3.01-1.12-5.93-2.92-8.81-5.37-2.88-2.45-6.23-5.97-10-10.6-5.89-7.18-10.6-12-14-14.6-3.44-2.54-6.7-3.78-9.75-3.78-3.22 0-5.97 1.16-8.16 3.44-2.19 2.32-3.31 5.33-3.31 9.02 0 3.91 1.16 7 3.52 9.37 2.32 2.36 5.59 3.52 9.75 3.57l-0.86 8.34c-6.23-0.559-11-2.71-14.3-6.44-3.27-3.74-4.9-8.72-4.9-15 0-6.32 1.76-11.3 5.28-15 3.52-3.7 7.91-5.54 13.1-5.54 2.62 0 5.24 0.516 7.78 1.59 2.58 1.12 5.28 2.88 8.08 5.41 2.84 2.49 6.7 6.66 11.6 12.5 4.08 4.9 6.87 7.99 8.34 9.41 1.46 1.37 2.92 2.49 4.38 3.39z"/></g></g></g></svg>
