<svg width="3840" height="2595" xmlns="http://www.w3.org/2000/svg" xmlns:xlink="http://www.w3.org/1999/xlink" xml:space="preserve" overflow="hidden"><defs><clipPath id="clip0"><rect x="0" y="861" width="3840" height="2595"/></clipPath><clipPath id="clip1"><rect x="22" y="1323" width="3761" height="2084"/></clipPath><clipPath id="clip2"><rect x="22" y="1323" width="3761" height="2084"/></clipPath></defs><g clip-path="url(#clip0)" transform="matrix(1 0 0 1 0 -861)"><path d="M0 0 9848.43 0 9848.43 8863.58 0 8863.58Z" fill="#FFFFFF" transform="matrix(1 0 0 1.00004 -2418.87 -1490.15)"/><path d="M494.03 406.758C490.634 404.929 486.651 401.436 476.366 391.313 470.883 385.893 465.722 381.028 464.907 380.44 463.014 379.168 459.487 377.96 455.438 377.209 453.119 376.783 450.575 376.652 445.022 376.622 440.975 376.622 437.253 376.752 436.73 376.883 435.391 377.273 432.878 379.722 426.64 386.906 414.07 401.336 407.248 406.789 401.762 406.822 399.41 406.822 398.138 406.168 396.701 404.178 392.359 398.171 391.151 377.699 393.272 346.321 393.567 342.338 393.859 336.852 393.99 334.11L394.188 329.147 393.272 327.285C392.031 324.738 388.571 321.343 382.205 316.38 373.29 309.46 371.723 307.695 367.968 300.545 364.441 293.853 362.384 291.37 357.847 288.465 354.616 286.343 351.153 284.971 344.003 282.881 316.349 274.817 294.602 263.781 276.384 248.501 272.435 245.203 264.076 236.976 260.549 232.96 248.403 219.051 238.935 202.627 232.372 184.115 221.597 153.848 218.724 117.28 224.177 80.1564 225.156 73.4956 226.919 64.8433 228.062 61.0559 228.519 59.5214 229.107 57.3992 229.401 56.3218 230.837 51.065 228.388 45.5145 223.589 43.0982 221.336 41.9882 220.259 41.923 216.961 42.576 210.855 43.8166 195.902 44.5022 174.516 44.535 152.02 44.535 142.453 43.98 130.927 41.9556 94.5225 35.5562 66.6392 32.4869 30.0383 30.8544 19.0678 30.3648 16.7496 30.0709 12.9295 28.7649 7.83605 26.969 3.29768 23.247 1.27336 19.1004 0.261201 17.0108 0.163251 16.5863 0.163251 13.8764 0.163251 11.3296 0.293853 10.7093 1.07746 9.10942 2.93853 5.28934 6.92186 2.44877 12.5703 0.914207 14.7906 0.326503 16.0639 0.228552 21.2227 0.195902 26.969 0.195902 27.6874 0.293853 35.9153 1.73046 81.6909 9.76241 153.162 14.6926 223.328 14.7253 244.942 14.7253 250.884 14.5947 296.464 13.3866 342.633 12.1459 365.095 12.1785 372.833 13.5172 374.988 13.909 375.87 14.2682 377.83 15.5415 381.225 17.7944 385.273 21.9083 386.447 24.3244 387.199 25.8916 387.363 26.6754 387.363 28.5689 387.363 31.3769 386.776 32.7483 383.608 37.6132 379.527 43.882 379.461 44.6981 382.792 49.0734 386.742 54.2974 388.635 58.9663 390.823 68.5981 392.88 77.9035 393.926 80.4829 396.473 82.8338 398.889 85.0867 399.051 85.0538 402.087 81.9194 408.912 74.867 414.822 63.0803 424.355 37.6132 428.469 26.5446 429.415 24.4224 430.951 22.3981 431.67 21.4839 433.008 19.329 433.955 17.6311 437.284 11.5582 439.472 9.14207 443.196 7.4769 451.978 3.59153 477.02 6.23621 481.46 11.5255 483.517 13.9743 481.591 17.174 471.339 28.4058 459.259 41.5965 458.736 42.4781 455.504 55.1789 450.605 74.4751 445.186 91.9105 440.092 104.807 435.914 115.451 435.555 116.855 435.555 122.994 435.555 140.723 447.179 169.063 462.981 189.829 464.353 191.657 466.081 194.171 466.8 195.444 474.473 208.602 476.04 227.866 471.373 250.754 470.457 255.26 470.359 256.402 470.359 261.201 470.359 265.512 470.524 267.274 471.078 269.919 473.691 282.032 480.48 294.374 490.147 304.561 493.053 307.598 493.899 308.773 495.14 311.255 497.851 316.741 498.244 320.365 497.754 335.972 497.492 345.439 497.721 347.855 499.549 353.341 501.311 358.63 501.737 362.025 501.181 366.565 500.529 371.854 500.432 375.444 500.855 380.702 502.063 396.406 501.509 404.275 498.993 406.889 497.818 408.097 496.513 408.063 494.03 406.758Z" transform="matrix(1.00213 0 0 -1 938.364 1323.42)"/><path d="M290.929 199.486C287.033 198.541 282.986 196.877 278.336 194.381 275.725 192.982 273.191 191.696 272.701 191.545 272.209 191.393 270.393 189.881 268.693 188.179 265.479 184.964 262.037 181.901 257.915 178.498 256.553 177.363 251.372 172.447 246.38 167.531 233.673 155.013 233.144 154.711 223.273 153.576 219.756 153.16 214.5 152.706 211.588 152.593 198.617 152.026 175.624 148.963 148.66 144.273 132.399 141.437 120.259 138.563 111.372 135.424 109.103 134.592 104.149 132.966 100.405 131.756 96.661 130.583 92.3876 129.184 90.8751 128.73 89.4001 128.238 85.5807 127.142 82.3662 126.272 79.1894 125.44 74.8783 124.154 72.7982 123.436 69.3571 122.226 54.7216 117.65 46.3263 115.154 39.746 113.187 30.3294 109.141 19.2868 103.582 7.71474 97.7578 3.89517 95.3374 1.62614 92.3499-0.718529 89.2488-0.453809 87.0934 2.79849 83.9166 5.89951 80.8912 7.07185 80.4752 13.9168 80.1728 19.665 79.9081 19.9675 79.8701 23.0686 78.5088 27.6066 76.5044 29.7623 75.2566 30.443 74.2733 30.9724 73.4412 30.9724 73.4035 29.2327 73.1386 26.7369 72.7605 13.7655 73.2522 11.9125 73.7816 10.8536 74.0842 9.75687 74.8783 8.31982 76.4287 7.18529 77.6767 6.01295 78.6601 5.7104 78.6601 5.40789 78.6601 4.57589 78.2061 3.89517 77.6767 0 74.6893 0.302538 70.6048 4.68936 66.672 7.10965 64.5542 6.58023 64.8189 16.4883 60.1674 25.5267 55.9696 29.9514 54.4949 39.5191 52.6039 46.8179 51.1668 48.8977 50.8265 57.4823 49.8811 62.8525 49.3137 64.6299 48.8221 74.311 45.5699 84.9377 41.9772 89.8161 40.7294 98.1738 39.5191 101.918 38.9517 109.027 37.855 114.019 37.0233 146.315 31.8044 162.274 30.6321 201.755 30.5187 224.711 30.443 247.514 31.0101 255.834 31.8421 262.15 32.4851 271.716 32.4851 273.571 31.8801 274.402 31.6154 275.915 30.6321 276.974 29.7623 279.244 27.8336 287.828 21.5181 291.042 19.4381 292.253 18.6439 294.71 17.2825 296.487 16.4127 298.265 15.5429 301.33 13.879 303.294 12.7066 305.261 11.5343 307.116 10.5888 307.38 10.5888 307.683 10.5888 309.044 10.0972 310.442 9.49216 314.148 7.82818 319.406 6.7693 324.661 6.58023 328.596 6.42896 329.653 6.50459 332.415 7.26092 335.403 8.09291 335.705 8.28199 336.688 9.75687L337.785 11.383 337.18 14.9379C336.159 20.8752 333.548 27.1906 331.166 29.611 330.448 30.2917 328.48 31.5774 326.78 32.4851 324.738 33.5439 323.754 34.2246 324.018 34.4895 324.7 35.1702 332.302 35.5862 350.945 35.8886 371.518 36.2669 370.307 36.1156 377.909 38.914 379.648 39.557 381.351 40.0864 381.728 40.0864 382.069 40.0864 385.585 37.061 389.481 33.3548 398.179 25.1863 399.541 23.9762 404.834 19.7785 413.531 12.8957 418.525 9.18962 420.908 7.90381 424.424 5.97514 429.908 3.85737 433.727 2.98757 435.504 2.60939 437.925 2.00432 439.059 1.7396 440.192 1.43706 443.18 0.907615 445.676 0.56726 449.875 0 450.518 0 453.391 0.529442 457.666 1.36142 458.272 1.70178 460.162 4.53809 464.776 11.4586 468.444 20.8374 470.865 31.9558 471.052 32.7875 471.316 38.6114 471.432 44.8892 471.734 57.4446 471.696 57.5957 469.387 58.7304 467.536 59.6757 462.847 60.1674 459.595 59.7135 457.969 59.5244 454.866 59.3731 452.673 59.4488L448.702 59.5624 451.349 60.3941C455.738 61.7558 464.284 62.8902 470.636 62.9279L476.31 62.9659 478.767 61.5665C489.357 55.5916 492.912 53.7006 498.054 51.2048 501.268 49.6541 507.736 46.4396 512.425 44.0572 517.113 41.7125 523.051 38.914 525.661 37.893 528.27 36.834 531.258 35.6239 532.279 35.2079 535.038 34.0735 549.827 28.8924 552.21 28.2117 553.305 27.9093 555.839 27.0393 557.845 26.3209 562.456 24.6569 569.945 23.3711 574.144 23.5224L577.28 23.6358 578.491 25.9426C580.42 29.611 580.874 31.9178 580.874 38.5737 580.874 49.692 580.156 61.7178 579.135 67.277 578.604 70.1134 577.85 74.311 577.432 76.58 577.016 78.8871 576.526 83.0469 576.337 85.8453 576.108 88.6438 575.77 92.3122 575.58 93.976 574.975 99.2328 575.165 104.187 576.147 109.859 578.491 123.02 578.453 122.566 577.699 130.583 576.411 144.689 576.298 145.786 575.957 146.542 575.77 146.958 575.542 147.866 575.503 148.584 575.429 149.454 575.088 150.097 574.446 150.551 573.574 151.194 573.31 151.194 571.23 150.74 566.162 149.605 561.776 148.206 558.298 146.618 554.628 144.916 543.51 140.567 535.115 137.466 526.039 134.138 517 130.092 508.68 125.629 500.285 121.091 488.298 117.234 479.713 116.288 476.648 115.948 458.156 117.461 455.548 118.255 455.017 118.406 455.812 118.935 458.572 120.259 460.616 121.242 462.809 122.604 463.414 123.209 464.435 124.343 464.473 124.495 464.322 127.18 464.171 129.524 463.942 130.243 463.034 131.529 461.408 133.76 458.951 135.273 454.45 136.747 449.005 138.487 447.076 138.449 439.703 136.483 430.513 134.025 429.228 133.646 425.558 132.209 422.08 130.848 420 130.394 413.306 129.676 409.977 129.298 408.843 129.373 399.125 130.621 385.434 132.399 373.823 133.76 370.043 134.062 368.378 134.176 363.803 134.63 359.832 135.008 355.898 135.424 347.201 136.18 340.545 136.71 333.89 137.239 325.457 137.995 321.825 138.411 318.196 138.827 314.489 139.168 313.62 139.168 311.917 139.168 311.425 139.773 312.863 140.113 313.317 140.227 314.828 140.454 316.19 140.681 317.59 140.87 319.442 141.399 320.35 141.777 321.296 142.193 324.169 142.76 326.931 143.101 332.869 143.819 335.439 144.538 337.065 145.937 337.709 146.504 338.578 147.109 338.958 147.223 339.978 147.601 340.468 149.114 340.204 150.967 339.827 153.387 337.406 157.698 335.78 158.833 335.023 159.362 333.171 161.215 331.658 162.993 330.145 164.77 328.48 166.396 327.914 166.623 327.385 166.85 326.364 167.758 325.682 168.628 324.661 169.913 324.207 170.178 323.148 170.178 321.522 170.178 320.312 171.275 320.312 172.75 320.312 173.392 319.822 174.527 319.104 175.472 317.401 177.666 317.401 177.742 316.757 179.33 316.305 180.464 315.774 180.956 314.11 181.788 312.22 182.695 311.994 182.922 311.994 184.019 311.994 184.662 311.576 185.759 311.048 186.477 310.555 187.196 309.686 188.595 309.157 189.578 308.626 190.562 307.795 191.545 307.303 191.734 306.813 191.923 306.092 192.49 305.638 193.02 305.223 193.549 304.769 194.003 304.618 194.003 304.43 194.003 303.71 194.646 302.956 195.44 301.404 197.028 299.891 197.936 296.715 199.184 294.256 200.167 293.766 200.167 290.929 199.486Z" transform="matrix(1.01061 0 0 -1 1874.55 1264.43)"/><path d="M419.338 357.554C405.05 335.616 398.507 326.032 391.901 317.522 383.145 306.153 374.881 297.305 366.064 289.777 364.035 288.059 362.284 286.646 362.161 286.646 361.486 286.646 363.238 289.441 365.602 292.175 374.05 301.882 384.681 319.456 391.87 335.647 394.453 341.484 397.953 350.24 397.769 350.455 397.492 350.701 394.453 346.831 392.27 343.482 391.103 341.699 388.767 337.491 387.048 334.11 370.673 301.667 358.137 285.232 334.88 265.784 323.757 256.475 313.159 248.855 287.32 231.589 277.459 225.014 268.211 218.716 266.736 217.61 265.261 216.474 261.789 213.34 258.993 210.636 256.198 207.902 252.512 204.645 250.852 203.355 245.599 199.422 237.396 194.537 219.976 184.952 201.573 174.844 198.255 172.847 183.262 162.985 172.816 156.103 166.027 152.017 160.435 149.221 156.134 147.071 156.011 147.04 155.55 147.624 154.905 148.515 152.969 152.416 151.618 155.612 150.112 159.145 149.006 161.142 147.562 162.801 146.641 163.907 146.425 164.367 146.425 165.566 146.395 166.672 146.149 167.286 145.319 168.454 143.599 170.819 142.247 173.031 142.401 173.277 142.493 173.4 143.23 173.584 144.09 173.646 144.951 173.738 145.811 173.953 145.964 174.107 146.395 174.537 142.769 179.33 141.448 180.098 140.557 180.62 140.465 180.835 140.281 182.74L140.066 184.829 138.007 186.181C136.871 186.918 133.675 189.775 130.879 192.479 128.084 195.182 124.919 198.193 123.813 199.176 122.031 200.713 121.908 200.928 122.584 200.928 123.015 200.928 124.336 201.389 125.503 201.942L127.623 202.956 125.565 204.952C124.397 206.028 123.199 207.38 122.83 207.933 122.492 208.455 120.987 209.776 119.451 210.82 117.085 212.418 115.211 214.2 115.211 214.845 115.211 214.938 117.116 214.999 119.451 214.968L123.66 214.907 123.598 216.228C123.445 219.577 120.403 222.772 114.689 225.567 112.599 226.612 111.002 227.534 111.125 227.657 111.248 227.779 112.384 228.517 113.613 229.316 116.01 230.852 117.023 232.327 117.054 234.293 117.054 235.122 116.839 235.337 115.579 236.044 113.859 236.966 110.572 237.918 106.916 238.563 102.584 239.301 94.7801 240.253 93.1518 240.253 91.032 240.253 90.694 240.745 91.5234 242.496 91.9535 243.387 92.1687 244.432 92.1687 245.66 92.1687 248.64 92.7216 251.191 94.0427 254.324 95.4561 257.703 95.8862 260.56 95.241 262.527 94.3808 265.107 91.5542 267.074 88.0519 267.475 85.9934 267.718 86.1163 267.78 80.494 263.143 78.2206 261.268 75.7013 259.27 74.8716 258.719 73.2741 257.642 71.3077 256.721 71.062 256.967 70.7856 257.244 72.4754 260.56 73.8578 262.496 77.1145 267.074 78.1283 270.393 78.1591 276.813 78.1898 280.408 78.067 281.575 77.6061 282.896 76.5 286.092 74.2879 287.689 71.953 286.92 68.7271 285.876 64.4567 281.391 59.4796 273.894 56.315 269.103 52.9048 264.83 52.229 264.83 52.1061 264.83 52.4747 266.428 53.0584 268.365 56.4994 280.378 56.868 291.131 54.0109 297.92 52.9971 300.408 50.2626 303.727 49.0031 304.034 47.9277 304.311 46.8831 303.419 45.7772 301.3 44.5482 298.933 43.3192 297.551 42.9507 298.074 42.8278 298.289 42.7047 298.964 42.7047 299.579 42.7047 301.913 40.7386 306.768 39.7248 306.984 39.4481 307.045 37.9429 306.953 36.4374 306.768 33.6724 306.46 33.6416 306.46 33.0271 305.355 31.5216 302.652 30.8458 302.56 30.5694 305.017 30.1085 308.889 28.603 314.296 27.9885 314.296 27.4048 314.296 24.8855 312.39 23.503 310.885 20.738 307.935 17.7886 302.96 16.5904 299.179 15.9145 297.03 14.9928 295.555 14.3169 295.555 14.1325 295.555 13.7946 296.076 13.6102 296.722 12.4428 300.777 11.5825 303.727 11.4904 303.819 11.4289 303.88 10.7837 303.573 10.0157 303.111 8.3259 302.129 6.9741 300.285 4.91567 296.199-0.368675 285.63-1.41325 274.356 2.02771 264.83 4.85422 256.875 10.4458 250.514 19.2633 245.138 21.9669 243.51 22.2434 243.233 23.0115 241.574 24.3325 238.84 26.3294 236.628 31.0915 232.695 36.4682 228.271 37.2668 227.442 38.373 225.23 39.4789 223.048 41.3531 221.297 47.344 216.812 53.6421 212.142 56.8067 208.608 63.8114 198.47 76.3463 180.374 82.2144 165.904 84.6108 147.316 85.0104 144.183 85.0104 143.906 84.5187 143.322 83.6891 142.37 82.7676 140.711 82.1838 139.021 81.8766 138.192 81.5386 137.393 81.4465 137.27 81.3542 137.178 80.3096 137.331 79.1116 137.639 75.2712 138.653 68.5427 138.253 61.4152 136.563 60.3398 136.318 58.6807 136.102 57.7285 136.102 54.1338 136.102 50.8771 134.29 49.464 131.494 48.6035 129.804 48.1429 126.978 48.3578 124.827 48.6959 121.448 50.3855 116.993 50.3855 119.451 50.3855 120.802 51.2457 123.353 51.8909 123.936 52.4747 124.458 52.567 124.458 54.103 123.598 57.1752 121.939 58.5579 118.99 59.08 113.06L59.3873 109.189 58.2814 107.223C56.3458 103.69 55.8542 100.894 56.9295 99.2042 57.6053 98.1291 60.1554 99.4501 63.5041 102.676 66.3307 105.379 67.621 106.086 69.9254 106.086 71.2772 106.086 72.0146 105.81 74.9945 104.212 76.9301 103.198 79.4801 102 80.6476 101.539 82.9212 100.71 88.3283 99.2042 91.3393 98.6204 93.0905 98.2519 93.2441 98.1596 98.4055 93.1212 109.957 81.9379 122.584 73.0284 133.952 68.1126 139.205 65.8393 141.663 65.0404 148.33 63.4121 155.089 61.753 157.178 61.0156 160.681 59.0187 164.705 56.7144 166.272 55.977 168.577 55.332 170.543 54.8096 170.727 54.8096 171.034 55.2397 171.311 55.7005 171.464 55.6698 172.632 54.9019 173.339 54.441 174.26 53.9186 174.69 53.765 175.09 53.6113 175.52 53.212 175.612 52.9356 176.349 50.6007 178.131 47.7433 179.852 46.0229 182.279 43.5957 188.823 39.018 189.867 39.018 190.298 39.018 191.619 38.8031 192.786 38.5266 193.984 38.2806 196.104 38.0657 197.548 38.0657L200.16 38.0965 202.679 36.2838C205.26 34.4403 207.41 33.488 208.977 33.488 209.622 33.488 209.929 33.3036 210.114 32.7506 210.267 32.3818 211.281 31.0302 212.387 29.7705 214.753 27.0362 215.06 26.5138 215.06 24.9777 215.06 23.9331 215.183 23.6874 216.074 23.2572 216.596 22.95 217.641 22.2434 218.378 21.6596 219.146 21.0452 220.222 20.4922 220.898 20.4 221.697 20.2771 222.157 20.0006 222.372 19.509 222.987 18.188 226.305 14.962 230.299 11.7976 233.893 8.9711 234.477 8.60242 235.583 8.60242 236.474 8.60242 237.242 8.2952 238.594 7.3735 239.884 6.48252 240.714 6.14457 241.513 6.14457 242.772 6.14457 245.722 4.39337 246.213 3.37952 246.398 2.9494 246.92 2.76505 248.21 2.61145 251.559 2.27349 254.816 1.56687 256.26 0.829517L257.734 0.122892 258.288 0.829517C259.116 1.93554 260.96 2.24277 264.648 1.84337 267.78 1.50542 269.285 1.68976 269.778 2.51928 269.901 2.70362 269.716 3.65602 269.378 4.63915 268.703 6.66687 268.734 8.51025 269.439 8.35662 273.127 7.4964 274.479 7.34277 276.843 7.46567 279.577 7.58855 280.808 8.01867 280.808 8.75602 280.808 9.00182 280.316 10.1385 279.7 11.3367 278.257 14.0711 278.38 14.4398 280.747 14.4398 281.729 14.4398 282.773 14.6241 283.081 14.8392 283.573 15.2078 283.604 15.3307 283.173 16.3446 282.927 16.959 282.222 17.9729 281.637 18.6181 280.347 20.0621 279.426 21.8133 279.793 22.1205 280.439 22.7042 284.309 23.7181 285.568 23.5952 287.351 23.4723 287.351 23.9024 285.599 25.3771 284.863 25.9916 284.125 26.7903 283.94 27.1591 283.758 27.62 282.773 28.1114 280.778 28.8487 274.448 31.1531 266.123 35.1776 259.763 39.018 257.918 40.1549 255.707 41.23 254.908 41.4452 252.757 41.9674 251.283 42.7047 244.247 46.7911 230.729 54.6559 224.769 58.5271 223.847 60.0326 223.14 61.1385 222.956 62.0602 223.448 62.0602 223.663 62.0602 224.031 62.3982 224.216 62.8283 224.615 63.7193 225.383 63.8114 226.182 63.074 226.551 62.7668 226.735 62.7055 226.735 62.9512 226.735 63.7806 225.936 64.7947 223.448 67.1296L220.806 69.5873 221.911 72.506C222.495 74.1035 223.171 76.0086 223.386 76.7459 223.663 77.6982 223.909 78.0054 224.246 77.9134 224.523 77.821 225.721 77.6982 226.889 77.5753L229.039 77.3602 230.483 78.6507C231.282 79.3573 232.91 81.1392 234.078 82.6447 235.952 85.0104 236.259 85.5633 236.413 87.0073 236.658 89.0965 237.119 90.2639 237.826 90.6325 238.656 91.0933 238.84 90.0487 238.287 88.1439 238.01 87.253 237.795 86.362 237.795 86.1471 237.795 85.4405 238.748 84.7952 239.731 84.7952 241.021 84.7952 241.759 85.3482 243.694 87.6525 246.213 90.694 246.213 90.694 250.791 90.4483 254.631 90.2639 254.724 90.2639 255.891 91.032 256.69 91.5542 257.395 92.476 258.226 94.0427 258.87 95.3025 259.701 96.7464 260.101 97.2994L260.837 98.2519 262.743 97.6374C267.872 96.0091 273.066 98.3748 275.399 103.383 275.861 104.396 276.354 105.441 276.477 105.687 276.597 105.933 277.12 106.209 277.613 106.332 279.149 106.639 280.655 107.499 282.496 109.128 284.032 110.51 284.432 110.725 285.384 110.633 285.999 110.602 287.289 110.848 288.243 111.217 289.195 111.555 290.454 111.831 291.07 111.77 292.421 111.678 293.496 112.599 295.463 115.579 296.907 117.761 296.999 117.822 299.395 118.13 303.911 118.683 304.034 118.744 305.694 121.171L307.199 123.414 309.779 123.567C311.377 123.69 312.882 123.967 313.742 124.366 315.555 125.165 317.43 126.886 318.104 128.33 318.627 129.466 318.658 129.497 320.379 129.528 323.941 129.62 327.445 132.108 328.612 135.396L329.166 136.963 330.948 137.116C333.128 137.301 336.17 138.683 337.922 140.25 338.596 140.895 339.181 141.51 339.181 141.633 339.181 141.786 338.812 141.94 338.352 142.001 337.091 142.155 337.06 142.861 338.322 142.861 339.581 142.861 340.594 143.507 340.317 144.183 340.194 144.49 339.55 144.736 338.383 144.889 336.385 145.135 336.662 145.442 339.15 145.719 340.348 145.872 340.994 146.118 341.576 146.702 342.007 147.132 343.42 148.054 344.71 148.729 348.552 150.727 348.888 151.28 347.444 153.338 347.139 153.768 346.954 154.229 347.078 154.352 347.17 154.444 347.998 154.536 348.888 154.536 350.027 154.536 350.548 154.659 350.671 154.997 350.855 155.519 350.424 156.84 349.965 157.148 349.442 157.455 349.565 157.824 350.212 158.008 350.763 158.131 350.794 158.254 350.486 159.268 350.027 160.742 350.332 161.019 352.638 161.326 356.539 161.879 360.196 164.091 361.424 166.641 361.732 167.317 362.191 167.747 362.622 167.808 363.053 167.87 363.484 168.3 363.82 169.007 364.22 169.836 364.62 170.174 365.572 170.451 366.31 170.697 367.631 171.587 368.89 172.755 370.057 173.799 371.44 175.028 371.994 175.489 372.73 176.104 372.976 176.503 372.822 176.933 372.73 177.271 372.853 177.978 373.16 178.531 373.866 179.944 373.561 181.603 371.87 185.259 370.673 187.901 370.519 188.423 370.888 188.854 371.624 189.745 373.866 190.513 377.677 191.127 381.762 191.803 383.822 192.633 384.773 193.954 385.297 194.66 385.327 194.906 385.02 195.336 384.281 196.381 384.281 196.627 385.173 197.487 385.848 198.101 386.156 198.716 386.31 199.853 386.433 200.713 386.741 201.696 386.987 202.095 387.384 202.71 387.384 202.771 386.802 202.771 385.297 202.771 386.464 203.724 390.118 205.505 397.402 209.069 400.472 211.466 402.347 215.091 403.452 217.211 403.514 219.976 402.501 222.219 402.162 223.048 401.857 223.847 401.857 224.001 401.857 224.154 403.147 224.246 404.714 224.185 407.448 224.124 407.633 224.154 409.905 225.291 411.226 225.936 413.439 227.288 414.821 228.333 418.017 230.668 424.221 236.843 425.36 238.809 426.096 240.1 426.157 240.438 425.942 241.574 425.696 242.65 425.449 242.957 424.283 243.633 423.085 244.308 422.531 244.401 419.982 244.401 416.604 244.401 415.834 244.124 410.305 240.96 408.461 239.915 406.894 239.116 406.832 239.178 406.555 239.454 410.397 245.077 411.841 246.551 414.113 248.794 417.063 250.054 420.135 250.084 421.118 250.084 422.072 250.545 425.052 252.419 430.674 255.983 435.467 259.67 439.153 263.263 442.564 266.613 445.482 270.024 445.482 270.668 445.482 270.945 444.682 271.006 442.348 270.914 439.676 270.791 438.694 270.606 436.049 269.655 426.834 266.336 426.65 266.274 423.916 266.123 422.41 266.031 421.21 266.061 421.21 266.182 421.21 266.797 422.562 268.857 423.3 269.408 423.793 269.747 425.48 270.637 427.078 271.375 428.737 272.142 431.351 273.771 433.192 275.153 434.975 276.505 437.157 277.921 438.078 278.287 438.968 278.687 440.997 280.008 442.594 281.267 444.192 282.496 446.005 283.696 446.618 283.909 447.265 284.094 448.77 285.109 449.937 286.153 451.135 287.197 452.917 288.733 453.93 289.564 457.588 292.575 459.798 294.663 460.996 296.168 461.673 297.03 462.809 298.012 463.517 298.382 464.746 298.995 467.141 301.054 466.895 301.3 466.682 301.485 460.935 299.395 455.898 297.305 453.287 296.199 446.157 292.973 440.107 290.085 434.023 287.228 427.54 284.217 425.696 283.419 421.764 281.729 415.311 279.241 415.157 279.364 415.098 279.426 417.401 280.96 420.228 282.773 433.9 291.529 447.326 301.575 458.908 311.685 463.733 315.893 471.381 323.205 471.165 323.421 470.983 323.605 462.686 319.733 458.385 317.46 452.794 314.511 447.049 311.1 434.328 303.173 428.124 299.302 420.751 294.817 417.955 293.219 413.193 290.485 403.085 285.263 403.085 285.538 403.085 285.599 405.111 287.382 407.633 289.472 427.201 306.03 438.601 318.535 447.449 333.19 450.981 339.027 456.695 351.163 455.959 351.163 455.467 351.163 445.667 340.871 438.293 332.574 425.39 318.104 418.353 311.439 403.914 300.072 400.228 297.151 396.633 294.324 395.927 293.742 394.36 292.514 391.839 291.193 391.226 291.313 390.98 291.375 393.406 293.834 396.786 297.03 413.99 313.19 427.293 329.381 436.757 345.695 439.399 350.24 445.328 362.161 445.082 362.407 444.836 362.684 437.893 355.649 435.067 352.238 433.654 350.578 430.428 346.431 427.878 343.02 423.085 336.632 420.751 333.836 413.1 325.355 407.876 319.579 387.969 299.672 384.958 297.243 383.145 295.768 380.411 294.142 380.195 294.386 380.165 294.447 381.701 296.291 383.637 298.474 388.061 303.511 395.281 312.267 399.428 317.676 402.87 322.162 408.615 330.117 408.615 330.394 408.615 330.487 408.338 330.579 408.03 330.579 406.832 330.579 407.109 331.161 408.492 331.561L409.905 331.961 413.285 337.798C417.217 344.618 421.179 352.607 423.177 357.644 424.652 361.455 426.588 367.693 426.342 367.936 426.28 367.998 423.116 363.33 419.338 357.554ZM38.0042 298.443C38.127 298.105 36.253 297.643 35.9457 297.92 35.7 298.166 36.9596 298.964 37.4512 298.872 37.6969 298.81 37.9429 298.628 38.0042 298.443ZM109.128 228.394C110.264 228.21 110.264 228.179 109.834 227.349 109.589 226.889 109.066 226.305 108.636 225.998 107.715 225.414 107.53 225.383 107.53 225.844 107.53 226.028 107.161 226.612 106.731 227.134 105.625 228.456 106.363 228.855 109.128 228.394Z" transform="matrix(1 0 0 -1.00178 2931.08 1290.08)"/><path d="M3523.89 4534.38 3882.95 4534.38 3882.95 4688.26 3523.89 4688.26Z" fill="#FFFFFF" transform="matrix(1 0 0 1.00004 -2418.87 -1490.15)"/><text font-family="Arial,Arial_MSFontService,sans-serif" font-weight="400" font-size="41.3333" transform="matrix(2.56469 0 0 2.56479 1136.49 3160)">n </text><text font-family="Arial,Arial_MSFontService,sans-serif" font-weight="400" font-size="41.3333" transform="matrix(2.56469 0 0 2.56479 1224.9 3160)">= </text><text font-family="Arial,Arial_MSFontService,sans-serif" font-weight="400" font-size="41.3333" transform="matrix(2.56469 0 0 2.56479 1316.25 3160)">50</text><path d="M4447.18 4536.94 4806.24 4536.94 4806.24 4690.83 4447.18 4690.83Z" fill="#FFFFFF" transform="matrix(1 0 0 1.00004 -2418.87 -1490.15)"/><text font-family="Arial,Arial_MSFontService,sans-serif" font-weight="400" font-size="41.3333" transform="matrix(2.56469 0 0 2.56479 2059.62 3162)">n </text><text font-family="Arial,Arial_MSFontService,sans-serif" font-weight="400" font-size="41.3333" transform="matrix(2.56469 0 0 2.56479 2148.03 3162)">= </text><text font-family="Arial,Arial_MSFontService,sans-serif" font-weight="400" font-size="41.3333" transform="matrix(2.56469 0 0 2.56479 2239.39 3162)">47</text><path d="M5370.47 4534.38 5729.53 4534.38 5729.53 4688.26 5370.47 4688.26Z" fill="#FFFFFF" transform="matrix(1 0 0 1.00004 -2418.87 -1490.15)"/><text font-family="Arial,Arial_MSFontService,sans-serif" font-weight="400" font-size="41.3333" transform="matrix(2.56469 0 0 2.56479 2981.22 3160)">n </text><text font-family="Arial,Arial_MSFontService,sans-serif" font-weight="400" font-size="41.3333" transform="matrix(2.56469 0 0 2.56479 3069.63 3160)">= </text><text font-family="Arial,Arial_MSFontService,sans-serif" font-weight="400" font-size="41.3333" transform="matrix(2.56469 0 0 2.56479 3160.99 3160)">22</text><g clip-path="url(#clip1)"><g clip-path="url(#clip2)"><path d="M-408.063-316.77 4488.69-316.77 4488.69 3484.47-408.063 3484.47Z" fill="#FFFFFF" transform="matrix(1.00037 0 0 1 -11.9397 727.957)"/><path d="M1417.63 1490.75C1417.63 1530.32 1358.2 1530.32 1358.2 1490.75 1358.2 1451.14 1417.63 1451.14 1417.63 1490.75" fill="#D95F02" transform="matrix(1.00037 0 0 1 -11.9397 727.957)"/><path d="M1383.42 1742.48C1383.42 1782.09 1324 1782.09 1324 1742.48 1324 1702.91 1383.42 1702.91 1383.42 1742.48" fill="#D95F02" transform="matrix(1.00037 0 0 1 -11.9397 727.957)"/><path d="M1055.73 1910.3C1055.73 1949.91 996.311 1949.91 996.311 1910.3 996.311 1870.73 1055.73 1870.73 1055.73 1910.3" fill="#D95F02" transform="matrix(1.00037 0 0 1 -11.9397 727.957)"/><path d="M1342.65 1947.25C1342.65 1986.83 1283.27 1986.83 1283.27 1947.25 1283.27 1907.64 1342.65 1907.64 1342.65 1947.25" fill="#D95F02" transform="matrix(1.00037 0 0 1 -11.9397 727.957)"/><path d="M1293.06 1266.69C1293.06 1306.26 1233.69 1306.26 1233.69 1266.69 1233.69 1227.07 1293.06 1227.07 1293.06 1266.69" fill="#D95F02" transform="matrix(1.00037 0 0 1 -11.9397 727.957)"/><path d="M1086.58 1733.15C1086.58 1772.73 1027.2 1772.73 1027.2 1733.15 1027.2 1693.55 1086.58 1693.55 1086.58 1733.15" fill="#D95F02" transform="matrix(1.00037 0 0 1 -11.9397 727.957)"/><path d="M1221.14 1235.97C1221.14 1275.59 1161.72 1275.59 1161.72 1235.97 1161.72 1196.36 1221.14 1196.36 1221.14 1235.97" fill="#D95F02" transform="matrix(1.00037 0 0 1 -11.9397 727.957)"/><path d="M1171.14 1323.78C1171.14 1363.4 1111.75 1363.4 1111.75 1323.78 1111.75 1284.22 1171.14 1284.22 1171.14 1323.78" fill="#D95F02" transform="matrix(1.00037 0 0 1 -11.9397 727.957)"/><path d="M1206.19 1934.79C1206.19 1974.41 1146.82 1974.41 1146.82 1934.79 1146.82 1895.18 1206.19 1895.18 1206.19 1934.79" fill="#D95F02" transform="matrix(1.00037 0 0 1 -11.9397 727.957)"/><path d="M1379.77 1639.07C1379.77 1678.68 1320.4 1678.68 1320.4 1639.07 1320.4 1599.5 1379.77 1599.5 1379.77 1639.07" fill="#D95F02" transform="matrix(1.00037 0 0 1 -11.9397 727.957)"/><path d="M1272.01 2106.35C1272.01 2145.92 1212.64 2145.92 1212.64 2106.35 1212.64 2066.73 1272.01 2066.73 1272.01 2106.35" fill="#D95F02" transform="matrix(1.00037 0 0 1 -11.9397 727.957)"/><path d="M1156.57 1629.09C1156.57 1668.71 1097.15 1668.71 1097.15 1629.09 1097.15 1589.49 1156.57 1589.49 1156.57 1629.09" fill="#D95F02" transform="matrix(1.00037 0 0 1 -11.9397 727.957)"/><path d="M1389.52 1321.39C1389.52 1360.99 1330.15 1360.99 1330.15 1321.39 1330.15 1281.77 1389.52 1281.77 1389.52 1321.39" fill="#D95F02" transform="matrix(1.00037 0 0 1 -11.9397 727.957)"/><path d="M1272.01 967.48C1272.01 1007.1 1212.64 1007.1 1212.64 967.48 1212.64 927.91 1272.01 927.91 1272.01 967.48" fill="#D95F02" transform="matrix(1.00037 0 0 1 -11.9397 727.957)"/><path d="M1028.4 1258.44C1028.4 1298.06 969.029 1298.06 969.029 1258.44 969.029 1218.86 1028.4 1218.86 1028.4 1258.44" fill="#D95F02" transform="matrix(1.00037 0 0 1 -11.9397 727.957)"/><path d="M1454.44 1621.23C1454.44 1660.85 1395.07 1660.85 1395.07 1621.23 1395.07 1581.67 1454.44 1581.67 1454.44 1621.23" fill="#D95F02" transform="matrix(1.00037 0 0 1 -11.9397 727.957)"/><path d="M1130.36 1928.26C1130.36 1967.83 1070.98 1967.83 1070.98 1928.26 1070.98 1888.65 1130.36 1888.65 1130.36 1928.26" fill="#D95F02" transform="matrix(1.00037 0 0 1 -11.9397 727.957)"/><path d="M1272.01 1433.95C1272.01 1473.57 1212.64 1473.57 1212.64 1433.95 1212.64 1394.37 1272.01 1394.37 1272.01 1433.95" fill="#D95F02" transform="matrix(1.00037 0 0 1 -11.9397 727.957)"/><path d="M1320.31 1360.61C1320.31 1400.23 1260.94 1400.23 1260.94 1360.61 1260.94 1321 1320.31 1321 1320.31 1360.61" fill="#D95F02" transform="matrix(1.00037 0 0 1 -11.9397 727.957)"/><path d="M1458.49 1727.49C1458.49 1767.05 1399.1 1767.05 1399.1 1727.49 1399.1 1687.87 1458.49 1687.87 1458.49 1727.49" fill="#D95F02" transform="matrix(1.00037 0 0 1 -11.9397 727.957)"/><path d="M1305.52 1659.43C1305.52 1699.05 1246.11 1699.05 1246.11 1659.43 1246.11 1619.85 1305.52 1619.85 1305.52 1659.43" fill="#D95F02" transform="matrix(1.00037 0 0 1 -11.9397 727.957)"/><path d="M1229.57 1655.6C1229.57 1695.22 1170.15 1695.22 1170.15 1655.6 1170.15 1615.99 1229.57 1615.99 1229.57 1655.6" fill="#D95F02" transform="matrix(1.00037 0 0 1 -11.9397 727.957)"/><path d="M1245.89 1341.11C1245.89 1380.71 1186.52 1380.71 1186.52 1341.11 1186.52 1301.53 1245.89 1301.53 1245.89 1341.11" fill="#D95F02" transform="matrix(1.00037 0 0 1 -11.9397 727.957)"/><path d="M1326.32 1093.2C1326.32 1132.81 1266.95 1132.81 1266.95 1093.2 1266.95 1053.63 1326.32 1053.63 1326.32 1093.2" fill="#D95F02" transform="matrix(1.00037 0 0 1 -11.9397 727.957)"/><path d="M1272.01 795.408C1272.01 835.021 1212.64 835.021 1212.64 795.408 1212.64 755.836 1272.01 755.836 1272.01 795.408" fill="#D95F02" transform="matrix(1.00037 0 0 1 -11.9397 727.957)"/><path d="M1010.83 1725.17C1010.83 1764.73 951.412 1764.73 951.412 1725.17 951.412 1685.55 1010.83 1685.55 1010.83 1725.17" fill="#D95F02" transform="matrix(1.00037 0 0 1 -11.9397 727.957)"/><path d="M1100.2 1289.76C1100.2 1329.33 1040.78 1329.33 1040.78 1289.76 1040.78 1250.15 1100.2 1250.15 1100.2 1289.76" fill="#D95F02" transform="matrix(1.00037 0 0 1 -11.9397 727.957)"/><path d="M1201.39 1504.88C1201.39 1544.5 1142 1544.5 1142 1504.88 1142 1465.32 1201.39 1465.32 1201.39 1504.88" fill="#D95F02" transform="matrix(1.00037 0 0 1 -11.9397 727.957)"/><path d="M1406.63 1141.32C1406.63 1180.88 1347.24 1180.88 1347.24 1141.32 1347.24 1101.7 1406.63 1101.7 1406.63 1141.32" fill="#D95F02" transform="matrix(1.00037 0 0 1 -11.9397 727.957)"/><path d="M1454.01 1271.06C1454.01 1310.64 1394.59 1310.64 1394.59 1271.06 1394.59 1231.46 1454.01 1231.46 1454.01 1271.06" fill="#D95F02" transform="matrix(1.00037 0 0 1 -11.9397 727.957)"/><path d="M1347.33 1526.92C1347.33 1566.54 1287.91 1566.54 1287.91 1526.92 1287.91 1487.36 1347.33 1487.36 1347.33 1526.92" fill="#D95F02" transform="matrix(1.00037 0 0 1 -11.9397 727.957)"/><path d="M1332.39 909.736C1332.39 949.349 1272.96 949.349 1272.96 909.736 1272.96 870.123 1332.39 870.123 1332.39 909.736" fill="#D95F02" transform="matrix(1.00037 0 0 1 -11.9397 727.957)"/><path d="M1131 1088.86C1131 1128.47 1071.63 1128.47 1071.63 1088.86 1071.63 1049.29 1131 1049.29 1131 1088.86" fill="#D95F02" transform="matrix(1.00037 0 0 1 -11.9397 727.957)"/><path d="M1272.01 1159.67C1272.01 1199.23 1212.64 1199.23 1212.64 1159.67 1212.64 1120.05 1272.01 1120.05 1272.01 1159.67" fill="#D95F02" transform="matrix(1.00037 0 0 1 -11.9397 727.957)"/><path d="M1272.01 1744.67C1272.01 1784.29 1212.64 1784.29 1212.64 1744.67 1212.64 1705.1 1272.01 1705.1 1272.01 1744.67" fill="#D95F02" transform="matrix(1.00037 0 0 1 -11.9397 727.957)"/><path d="M1272.01 1539.99C1272.01 1579.6 1212.64 1579.6 1212.64 1539.99 1212.64 1500.42 1272.01 1500.42 1272.01 1539.99" fill="#D95F02" transform="matrix(1.00037 0 0 1 -11.9397 727.957)"/><path d="M1130.01 1472.19C1130.01 1511.76 1070.64 1511.76 1070.64 1472.19 1070.64 1432.57 1130.01 1432.57 1130.01 1472.19" fill="#D95F02" transform="matrix(1.00037 0 0 1 -11.9397 727.957)"/><path d="M1532.94 1708.45C1532.94 1748.03 1473.57 1748.03 1473.57 1708.45 1473.57 1668.84 1532.94 1668.84 1532.94 1708.45" fill="#D95F02" transform="matrix(1.00037 0 0 1 -11.9397 727.957)"/><path d="M1523.49 1232.49C1523.49 1272.05 1464.06 1272.05 1464.06 1232.49 1464.06 1192.87 1523.49 1192.87 1523.49 1232.49" fill="#D95F02" transform="matrix(1.00037 0 0 1 -11.9397 727.957)"/><path d="M1162.58 1734.01C1162.58 1773.63 1103.21 1773.63 1103.21 1734.01 1103.21 1694.45 1162.58 1694.45 1162.58 1734.01" fill="#D95F02" transform="matrix(1.00037 0 0 1 -11.9397 727.957)"/><path d="M1207.7 1810.49C1207.7 1850.06 1148.27 1850.06 1148.27 1810.49 1148.27 1770.88 1207.7 1770.88 1207.7 1810.49" fill="#D95F02" transform="matrix(1.00037 0 0 1 -11.9397 727.957)"/><path d="M1272.01 1861.06C1272.01 1900.68 1212.64 1900.68 1212.64 1861.06 1212.64 1821.46 1272.01 1821.46 1272.01 1861.06" fill="#D95F02" transform="matrix(1.00037 0 0 1 -11.9397 727.957)"/><path d="M1353.91 1209.71C1353.91 1249.29 1294.53 1249.29 1294.53 1209.71 1294.53 1170.11 1353.91 1170.11 1353.91 1209.71" fill="#D95F02" transform="matrix(1.00037 0 0 1 -11.9397 727.957)"/><path d="M1414.88 1917.56C1414.88 1957.17 1355.49 1957.17 1355.49 1917.56 1355.49 1877.99 1414.88 1877.99 1414.88 1917.56" fill="#D95F02" transform="matrix(1.00037 0 0 1 -11.9397 727.957)"/><path d="M1348.03 792.7C1348.03 832.272 1288.64 832.272 1288.64 792.7 1288.64 753.087 1348.03 753.087 1348.03 792.7" fill="#D95F02" transform="matrix(1.00037 0 0 1 -11.9397 727.957)"/><path d="M1202.32 1121.72C1202.32 1161.34 1142.95 1161.34 1142.95 1121.72 1142.95 1082.15 1202.32 1082.15 1202.32 1121.72" fill="#D95F02" transform="matrix(1.00037 0 0 1 -11.9397 727.957)"/><path d="M1272.01 2281.05C1272.01 2320.65 1212.64 2320.65 1212.64 2281.05 1212.64 2241.47 1272.01 2241.47 1272.01 2281.05" fill="#D95F02" transform="matrix(1.00037 0 0 1 -11.9397 727.957)"/><path d="M1151.11 1199.07C1151.11 1238.63 1091.69 1238.63 1091.69 1199.07 1091.69 1159.45 1151.11 1159.45 1151.11 1199.07" fill="#D95F02" transform="matrix(1.00037 0 0 1 -11.9397 727.957)"/><path d="M1272.01 1982.31C1272.01 2021.92 1212.64 2021.92 1212.64 1982.31 1212.64 1942.74 1272.01 1942.74 1272.01 1982.31" fill="#D95F02" transform="matrix(1.00037 0 0 1 -11.9397 727.957)"/><path d="M1341.11 1821.37C1341.11 1860.97 1281.68 1860.97 1281.68 1821.37 1281.68 1781.79 1341.11 1781.79 1341.11 1821.37" fill="#D95F02" transform="matrix(1.00037 0 0 1 -11.9397 727.957)"/><path d="M2077.56 1522.28C2077.56 1561.86 2018.14 1561.86 2018.14 1522.28 2018.14 1482.67 2077.56 1482.67 2077.56 1522.28" fill="#7570B3" transform="matrix(1.00037 0 0 1 -11.9397 727.957)"/><path d="M2362.98 1673.91C2362.98 1713.48 2303.6 1713.48 2303.6 1673.91 2303.6 1634.29 2362.98 1634.29 2362.98 1673.91" fill="#7570B3" transform="matrix(1.00037 0 0 1 -11.9397 727.957)"/><path d="M2090.24 1118.5C2090.24 1158.07 2030.82 1158.07 2030.82 1118.5 2030.82 1078.89 2090.24 1078.89 2090.24 1118.5" fill="#7570B3" transform="matrix(1.00037 0 0 1 -11.9397 727.957)"/><path d="M2373.37 1116.53C2373.37 1156.14 2313.96 1156.14 2313.96 1116.53 2313.96 1076.91 2373.37 1076.91 2373.37 1116.53" fill="#7570B3" transform="matrix(1.00037 0 0 1 -11.9397 727.957)"/><path d="M1955.11 1230.38C1955.11 1270 1895.73 1270 1895.73 1230.38 1895.73 1190.82 1955.11 1190.82 1955.11 1230.38" fill="#7570B3" transform="matrix(1.00037 0 0 1 -11.9397 727.957)"/><path d="M2234.21 1358.03C2234.21 1397.64 2174.8 1397.64 2174.8 1358.03 2174.8 1318.42 2234.21 1318.42 2234.21 1358.03" fill="#7570B3" transform="matrix(1.00037 0 0 1 -11.9397 727.957)"/><path d="M2252.77 1452.9C2252.77 1492.51 2193.35 1492.51 2193.35 1452.9 2193.35 1413.33 2252.77 1413.33 2252.77 1452.9" fill="#7570B3" transform="matrix(1.00037 0 0 1 -11.9397 727.957)"/><path d="M2099.86 1282.15C2099.86 1321.73 2040.44 1321.73 2040.44 1282.15 2040.44 1242.54 2099.86 1242.54 2099.86 1282.15" fill="#7570B3" transform="matrix(1.00037 0 0 1 -11.9397 727.957)"/><path d="M1946.14 1062.86C1946.14 1102.43 1886.75 1102.43 1886.75 1062.86 1886.75 1023.25 1946.14 1023.25 1946.14 1062.86" fill="#7570B3" transform="matrix(1.00037 0 0 1 -11.9397 727.957)"/><path d="M2433.14 1242.12C2433.14 1281.72 2373.76 1281.72 2373.76 1242.12 2373.76 1202.54 2433.14 1202.54 2433.14 1242.12" fill="#7570B3" transform="matrix(1.00037 0 0 1 -11.9397 727.957)"/><path d="M2094.23 991.456C2094.23 1031.07 2034.81 1031.07 2034.81 991.456 2034.81 951.886 2094.23 951.886 2094.23 991.456" fill="#7570B3" transform="matrix(1.00037 0 0 1 -11.9397 727.957)"/><path d="M2030.43 1243.45C2030.43 1283.05 1971.01 1283.05 1971.01 1243.45 1971.01 1203.87 2030.43 1203.87 2030.43 1243.45" fill="#7570B3" transform="matrix(1.00037 0 0 1 -11.9397 727.957)"/><path d="M2095.69 1705.02C2095.69 1744.63 2036.27 1744.63 2036.27 1705.02 2036.27 1665.4 2095.69 1665.4 2095.69 1705.02" fill="#7570B3" transform="matrix(1.00037 0 0 1 -11.9397 727.957)"/><path d="M2439.5 943.379C2439.5 982.948 2380.08 982.948 2380.08 943.379 2380.08 903.765 2439.5 903.765 2439.5 943.379" fill="#7570B3" transform="matrix(1.00037 0 0 1 -11.9397 727.957)"/><path d="M2358.29 1258.73C2358.29 1298.35 2298.92 1298.35 2298.92 1258.73 2298.92 1219.17 2358.29 1219.17 2358.29 1258.73" fill="#7570B3" transform="matrix(1.00037 0 0 1 -11.9397 727.957)"/><path d="M2286.16 1288.73C2286.16 1328.35 2226.78 1328.35 2226.78 1288.73 2226.78 1249.11 2286.16 1249.11 2286.16 1288.73" fill="#7570B3" transform="matrix(1.00037 0 0 1 -11.9397 727.957)"/><path d="M2228.42 1542.86C2228.42 1582.43 2168.99 1582.43 2168.99 1542.86 2168.99 1503.25 2228.42 1503.25 2228.42 1542.86" fill="#7570B3" transform="matrix(1.00037 0 0 1 -11.9397 727.957)"/><path d="M2015.31 1102.26C2015.31 1141.87 1955.93 1141.87 1955.93 1102.26 1955.93 1062.69 2015.31 1062.69 2015.31 1102.26" fill="#7570B3" transform="matrix(1.00037 0 0 1 -11.9397 727.957)"/><path d="M2315.33 1050.7C2315.33 1090.32 2255.95 1090.32 2255.95 1050.7 2255.95 1011.13 2315.33 1011.13 2315.33 1050.7" fill="#7570B3" transform="matrix(1.00037 0 0 1 -11.9397 727.957)"/><path d="M2231.67 1070.73C2231.67 1110.34 2172.3 1110.34 2172.3 1070.73 2172.3 1031.11 2231.67 1031.11 2231.67 1070.73" fill="#7570B3" transform="matrix(1.00037 0 0 1 -11.9397 727.957)"/><path d="M2018.36 984.839C2018.36 1024.45 1958.97 1024.45 1958.97 984.839 1958.97 945.269 2018.36 945.269 2018.36 984.839" fill="#7570B3" transform="matrix(1.00037 0 0 1 -11.9397 727.957)"/><path d="M2361.43 885.119C2361.43 924.73 2302.06 924.73 2302.06 885.119 2302.06 845.547 2361.43 845.547 2361.43 885.119" fill="#7570B3" transform="matrix(1.00037 0 0 1 -11.9397 727.957)"/><path d="M2291.66 1706.69C2291.66 1746.27 2232.23 1746.27 2232.23 1706.69 2232.23 1667.07 2291.66 1667.07 2291.66 1706.69" fill="#7570B3" transform="matrix(1.00037 0 0 1 -11.9397 727.957)"/><path d="M2228.42 1878.68C2228.42 1918.29 2168.99 1918.29 2168.99 1878.68 2168.99 1839.06 2228.42 1839.06 2228.42 1878.68" fill="#7570B3" transform="matrix(1.00037 0 0 1 -11.9397 727.957)"/><path d="M2300.55 1143.85C2300.55 1183.43 2241.18 1183.43 2241.18 1143.85 2241.18 1104.24 2300.55 1104.24 2300.55 1143.85" fill="#7570B3" transform="matrix(1.00037 0 0 1 -11.9397 727.957)"/><path d="M2164.27 924.43C2164.27 964 2104.89 964 2104.89 924.43 2104.89 884.817 2164.27 884.817 2164.27 924.43" fill="#7570B3" transform="matrix(1.00037 0 0 1 -11.9397 727.957)"/><path d="M2165.86 1023.21C2165.86 1062.82 2106.48 1062.82 2106.48 1023.21 2106.48 983.592 2165.86 983.592 2165.86 1023.21" fill="#7570B3" transform="matrix(1.00037 0 0 1 -11.9397 727.957)"/><path d="M2303.05 945.956C2303.05 985.526 2243.66 985.526 2243.66 945.956 2243.66 906.343 2303.05 906.343 2303.05 945.956" fill="#7570B3" transform="matrix(1.00037 0 0 1 -11.9397 727.957)"/><path d="M2228.42 845.763C2228.42 885.376 2168.99 885.376 2168.99 845.763 2168.99 806.15 2228.42 806.15 2228.42 845.763" fill="#7570B3" transform="matrix(1.00037 0 0 1 -11.9397 727.957)"/><path d="M2518.34 1061.96C2518.34 1101.53 2458.95 1101.53 2458.95 1061.96 2458.95 1022.35 2518.34 1022.35 2518.34 1061.96" fill="#7570B3" transform="matrix(1.00037 0 0 1 -11.9397 727.957)"/><path d="M2233.95 1768.52C2233.95 1808.13 2174.58 1808.13 2174.58 1768.52 2174.58 1728.94 2233.95 1728.94 2233.95 1768.52" fill="#7570B3" transform="matrix(1.00037 0 0 1 -11.9397 727.957)"/><path d="M2169.42 1818.74C2169.42 1858.31 2110.05 1858.31 2110.05 1818.74 2110.05 1779.13 2169.42 1779.13 2169.42 1818.74" fill="#7570B3" transform="matrix(1.00037 0 0 1 -11.9397 727.957)"/><path d="M2166.24 1119.06C2166.24 1158.63 2106.87 1158.63 2106.87 1119.06 2106.87 1079.45 2166.24 1079.45 2166.24 1119.06" fill="#7570B3" transform="matrix(1.00037 0 0 1 -11.9397 727.957)"/><path d="M2153.48 1526.54C2153.48 1566.16 2094.11 1566.16 2094.11 1526.54 2094.11 1486.93 2153.48 1486.93 2153.48 1526.54" fill="#7570B3" transform="matrix(1.00037 0 0 1 -11.9397 727.957)"/><path d="M2180.12 1424.8C2180.12 1464.42 2120.74 1464.42 2120.74 1424.8 2120.74 1385.19 2180.12 1385.19 2180.12 1424.8" fill="#7570B3" transform="matrix(1.00037 0 0 1 -11.9397 727.957)"/><path d="M1870.51 1053.15C1870.51 1092.72 1811.14 1092.72 1811.14 1053.15 1811.14 1013.54 1870.51 1013.54 1870.51 1053.15" fill="#7570B3" transform="matrix(1.00037 0 0 1 -11.9397 727.957)"/><path d="M2171.31 1714.77C2171.31 1754.34 2111.89 1754.34 2111.89 1714.77 2111.89 1675.16 2171.31 1675.16 2171.31 1714.77" fill="#7570B3" transform="matrix(1.00037 0 0 1 -11.9397 727.957)"/><path d="M1974.49 907.331C1974.49 946.944 1915.07 946.944 1915.07 907.331 1915.07 867.758 1974.49 867.758 1974.49 907.331" fill="#7570B3" transform="matrix(1.00037 0 0 1 -11.9397 727.957)"/><path d="M2447.84 1097.41C2447.84 1136.98 2388.45 1136.98 2388.45 1097.41 2388.45 1057.79 2447.84 1057.79 2447.84 1097.41" fill="#7570B3" transform="matrix(1.00037 0 0 1 -11.9397 727.957)"/><path d="M2229.96 972.163C2229.96 1011.74 2170.58 1011.74 2170.58 972.163 2170.58 932.55 2229.96 932.55 2229.96 972.163" fill="#7570B3" transform="matrix(1.00037 0 0 1 -11.9397 727.957)"/><path d="M2228.42 2252.17C2228.42 2291.78 2168.99 2291.78 2168.99 2252.17 2168.99 2212.6 2228.42 2212.6 2228.42 2252.17" fill="#7570B3" transform="matrix(1.00037 0 0 1 -11.9397 727.957)"/><path d="M2297.07 1837.99C2297.07 1877.6 2237.69 1877.6 2237.69 1837.99 2237.69 1798.42 2297.07 1798.42 2297.07 1837.99" fill="#7570B3" transform="matrix(1.00037 0 0 1 -11.9397 727.957)"/><path d="M2174.67 1298.96C2174.67 1338.52 2115.28 1338.52 2115.28 1298.96 2115.28 1259.34 2174.67 1259.34 2174.67 1298.96" fill="#7570B3" transform="matrix(1.00037 0 0 1 -11.9397 727.957)"/><path d="M2228.42 1173.76C2228.42 1213.32 2168.99 1213.32 2168.99 1173.76 2168.99 1134.14 2228.42 1134.14 2228.42 1173.76" fill="#7570B3" transform="matrix(1.00037 0 0 1 -11.9397 727.957)"/><path d="M2228.42 728.252C2228.42 767.867 2168.99 767.867 2168.99 728.252 2168.99 688.682 2228.42 688.682 2228.42 728.252" fill="#7570B3" transform="matrix(1.00037 0 0 1 -11.9397 727.957)"/><path d="M2372.35 987.847C2372.35 1027.46 2312.92 1027.46 2312.92 987.847 2312.92 948.234 2372.35 948.234 2372.35 987.847" fill="#7570B3" transform="matrix(1.00037 0 0 1 -11.9397 727.957)"/><path d="M2303.82 1530.84C2303.82 1570.4 2244.4 1570.4 2244.4 1530.84 2244.4 1491.22 2303.82 1491.22 2303.82 1530.84" fill="#7570B3" transform="matrix(1.00037 0 0 1 -11.9397 727.957)"/><path d="M3210.58 798.501C3210.58 838.115 3151.2 838.115 3151.2 798.501 3151.2 758.929 3210.58 758.929 3210.58 798.501" fill="#1B9E77" transform="matrix(1.00037 0 0 1 -11.9397 727.957)"/><path d="M3184.78 1688C3184.78 1727.57 3125.38 1727.57 3125.38 1688 3125.38 1648.39 3184.78 1648.39 3184.78 1688" fill="#1B9E77" transform="matrix(1.00037 0 0 1 -11.9397 727.957)"/><path d="M3033.97 865.568C3033.97 905.184 2974.54 905.184 2974.54 865.568 2974.54 825.955 3033.97 825.955 3033.97 865.568" fill="#1B9E77" transform="matrix(1.00037 0 0 1 -11.9397 727.957)"/><path d="M3472.98 793.946C3472.98 833.56 3413.58 833.56 3413.58 793.946 3413.58 754.377 3472.98 754.377 3472.98 793.946" fill="#1B9E77" transform="matrix(1.00037 0 0 1 -11.9397 727.957)"/><path d="M2817.83 792.012C2817.83 831.585 2758.43 831.585 2758.43 792.012 2758.43 752.399 2817.83 752.399 2817.83 792.012" fill="#1B9E77" transform="matrix(1.00037 0 0 1 -11.9397 727.957)"/><path d="M3184.78 887.825C3184.78 927.439 3125.38 927.439 3125.38 887.825 3125.38 848.212 3184.78 848.212 3184.78 887.825" fill="#1B9E77" transform="matrix(1.00037 0 0 1 -11.9397 727.957)"/><path d="M3260.44 878.672C3260.44 918.287 3201.04 918.287 3201.04 878.672 3201.04 839.102 3260.44 839.102 3260.44 878.672" fill="#1B9E77" transform="matrix(1.00037 0 0 1 -11.9397 727.957)"/><path d="M3277.83 754.205C3277.83 793.818 3218.45 793.818 3218.45 754.205 3218.45 714.592 3277.83 714.592 3277.83 754.205" fill="#1B9E77" transform="matrix(1.00037 0 0 1 -11.9397 727.957)"/><path d="M3109.78 871.97C3109.78 911.583 3050.41 911.583 3050.41 871.97 3050.41 832.357 3109.78 832.357 3109.78 871.97" fill="#1B9E77" transform="matrix(1.00037 0 0 1 -11.9397 727.957)"/><path d="M2967.23 819.984C2967.23 859.597 2907.86 859.597 2907.86 819.984 2907.86 780.412 2967.23 780.412 2967.23 819.984" fill="#1B9E77" transform="matrix(1.00037 0 0 1 -11.9397 727.957)"/><path d="M3694.32 751.368C3694.32 790.94 3634.92 790.94 3634.92 751.368 3634.92 711.755 3694.32 711.755 3694.32 751.368" fill="#1B9E77" transform="matrix(1.00037 0 0 1 -11.9397 727.957)"/><path d="M3403.5 832.485C3403.5 872.101 3344.08 872.101 3344.08 832.485 3344.08 792.872 3403.5 792.872 3403.5 832.485" fill="#1B9E77" transform="matrix(1.00037 0 0 1 -11.9397 727.957)"/><path d="M3137 774.698C3137 814.267 3077.62 814.267 3077.62 774.698 3077.62 735.084 3137 735.084 3137 774.698" fill="#1B9E77" transform="matrix(1.00037 0 0 1 -11.9397 727.957)"/><path d="M2891.26 816.46C2891.26 856.073 2831.89 856.073 2831.89 816.46 2831.89 776.89 2891.26 776.89 2891.26 816.46" fill="#1B9E77" transform="matrix(1.00037 0 0 1 -11.9397 727.957)"/><path d="M3327.46 833.903C3327.46 873.475 3268.08 873.475 3268.08 833.903 3268.08 794.29 3327.46 794.29 3327.46 833.903" fill="#1B9E77" transform="matrix(1.00037 0 0 1 -11.9397 727.957)"/><path d="M3184.78 1173.37C3184.78 1212.98 3125.38 1212.98 3125.38 1173.37 3125.38 1133.8 3184.78 1133.8 3184.78 1173.37" fill="#1B9E77" transform="matrix(1.00037 0 0 1 -11.9397 727.957)"/><path d="M3618.33 754.205C3618.33 793.774 3558.95 793.774 3558.95 754.205 3558.95 714.592 3618.33 714.592 3618.33 754.205" fill="#1B9E77" transform="matrix(1.00037 0 0 1 -11.9397 727.957)"/><path d="M2748.66 752.528C2748.66 792.141 2689.29 792.141 2689.29 752.528 2689.29 712.914 2748.66 712.914 2748.66 752.528" fill="#1B9E77" transform="matrix(1.00037 0 0 1 -11.9397 727.957)"/><path d="M3061.28 766.277C3061.28 805.891 3001.86 805.891 3001.86 766.277 3001.86 726.664 3061.28 726.664 3061.28 766.277" fill="#1B9E77" transform="matrix(1.00037 0 0 1 -11.9397 727.957)"/><path d="M3184.78 1355.2C3184.78 1394.8 3125.38 1394.8 3125.38 1355.2 3125.38 1315.62 3184.78 1315.62 3184.78 1355.2" fill="#1B9E77" transform="matrix(1.00037 0 0 1 -11.9397 727.957)"/><path d="M3236.23 1103.51C3236.23 1143.12 3176.85 1143.12 3176.85 1103.51 3176.85 1063.9 3236.23 1063.9 3236.23 1103.51" fill="#1B9E77" transform="matrix(1.00037 0 0 1 -11.9397 727.957)"/><path d="M3548.98 793.131C3548.98 832.744 3489.6 832.744 3489.6 793.131 3489.6 753.559 3548.98 753.559 3548.98 793.131" fill="#1B9E77" transform="matrix(1.00037 0 0 1 -11.9397 727.957)"/><path d="M649.369 2359.93 3748.03 2359.93 3748.03 649.369 649.369 649.369Z" stroke="#000000" stroke-width="8.24924" stroke-linecap="round" stroke-linejoin="round" stroke-miterlimit="10" fill="none" transform="matrix(1.00037 0 0 1 -11.9397 727.957)"/><path d="M1242.33 2359.93 3155.08 2359.93" stroke="#000000" stroke-width="8.24924" stroke-linecap="round" stroke-linejoin="round" stroke-miterlimit="10" fill="none" transform="matrix(1.00037 0 0 1 -11.9397 727.957)"/><path d="M1242.33 2359.93 1242.33 2439.16" stroke="#000000" stroke-width="8.24924" stroke-linecap="round" stroke-linejoin="round" stroke-miterlimit="10" fill="none" transform="matrix(1.00037 0 0 1 -11.9397 727.957)"/><path d="M2198.67 2359.93 2198.67 2439.16" stroke="#000000" stroke-width="8.24924" stroke-linecap="round" stroke-linejoin="round" stroke-miterlimit="10" fill="none" transform="matrix(1.00037 0 0 1 -11.9397 727.957)"/><path d="M3155.08 2359.93 3155.08 2439.16" stroke="#000000" stroke-width="8.24924" stroke-linecap="round" stroke-linejoin="round" stroke-miterlimit="10" fill="none" transform="matrix(1.00037 0 0 1 -11.9397 727.957)"/><path d="M8.67889 0 8.67889-68.443 19.1623-68.443 19.1623-58.6898C24.1462-66.2088 31.4074-69.9895 40.9025-69.9895 45.0272-69.9895 48.8511-69.2593 52.2881-67.7556 55.7683-66.2947 58.3462-64.3183 60.0648-61.9551 61.7835-59.5062 62.9864-56.6706 63.6737-53.3623 64.1033-51.214 64.3183-47.4332 64.3183-42.1054L64.3183 0 52.7177 0 52.7177-41.633C52.7177-46.3588 52.2453-49.8821 51.3858-52.2453 50.4407-54.5654 48.8511-56.4557 46.5738-57.8306 44.2537-59.2485 41.5899-59.9358 38.4965-59.9358 33.5126-59.9358 29.2591-58.3462 25.693-55.2528 22.0839-52.0735 20.2794-46.1442 20.2794-37.3795L20.2794 0Z" transform="matrix(1.00037 0 0 1 1082.14 3357.15)"/><path d="M69.7318-55.5534 7.34697-55.5534 7.34697-66.3806 69.7318-66.3806 69.7318-55.5534M69.7318-26.8959 7.34697-26.8959 7.34697-37.7232 69.7318-37.7232Z" transform="matrix(1.00037 0 0 1 1155.57 3357.15)"/><path d="M5.4995-24.7477 17.6585-25.779C18.5608-19.8498 20.6661-15.3814 23.9314-12.4169 27.2396-9.40929 31.1925-7.90553 35.8327-7.90553 41.418-7.90553 46.1442-10.0108 50.0111-14.2644 53.8778-18.4319 55.8114-24.0603 55.8114-31.0206 55.8114-37.5942 53.9637-42.8358 50.2258-46.6597 46.5309-50.4835 41.633-52.3741 35.6608-52.4169 31.8798-52.3741 28.5287-51.5577 25.521-49.8393 22.5136-48.1637 20.1505-45.9723 18.4319-43.2226L7.5618-44.6833 16.6703-93.1906 63.6737-93.1906 63.6737-82.1056 25.9508-82.1056 20.8809-56.7134C26.5522-60.6663 32.4813-62.6427 38.7542-62.6427 47.0036-62.6427 53.9637-59.764 59.6352-54.0496 65.3065-48.3353 68.1421-40.9884 68.1421-32.0517 68.1421-23.4588 65.6071-16.0688 60.6663-9.88191 54.5654-2.23417 46.316 1.63267 35.8327 1.63267 27.2396 1.63267 20.2364-0.816332 14.7799-5.58542 9.36633-10.3975 6.27286-16.7992 5.4995-24.7477Z" transform="matrix(1.00037 0 0 1 1232.66 3357.15)"/><path d="M5.4995-46.5738C5.4995-57.7447 6.61657-66.7671 8.93668-73.5556 11.2138-80.3872 14.651-85.6289 19.1623-89.3237 23.7166-93.0188 29.3879-94.8662 36.2623-94.8662 41.3321-94.8662 45.8005-93.8352 49.6243-91.8159 53.4482-89.7536 56.5847-86.8318 59.1194-82.9651 61.5686-79.1412 63.545-74.4579 64.9628-68.9154 66.3806-63.416 67.1111-55.9401 67.1111-46.5738 67.1111-35.489 65.951-26.5522 63.6737-19.7639 61.3967-12.9324 58.0025-7.6907 53.4482-3.95275 48.937-0.25779 43.1795 1.63267 36.2623 1.63267 27.1537 1.63267 20.0216-1.67563 14.8229-8.16332 8.59297-16.0688 5.4995-28.8293 5.4995-46.5738M17.4007-46.5738C17.4007-31.0635 19.2052-20.752 22.8572-15.6392 26.4663-10.4834 30.9347-7.90553 36.2623-7.90553 41.5899-7.90553 46.1013-10.4834 49.7103-15.6392 53.3623-20.7949 55.1668-31.1065 55.1668-46.5738 55.1668-62.1272 53.3623-72.4815 49.7103-77.5944 46.1013-82.7073 41.5899-85.2421 36.1764-85.2421 30.8057-85.2421 26.5522-83.0082 23.3729-78.4967 19.42-72.7395 17.4007-62.0841 17.4007-46.5738Z" transform="matrix(1.00037 0 0 1 1306.09 3357.15)"/><path d="M8.67889 0 8.67889-68.443 19.1623-68.443 19.1623-58.6898C24.1462-66.2088 31.4074-69.9895 40.9025-69.9895 45.0272-69.9895 48.8511-69.2593 52.2881-67.7556 55.7683-66.2947 58.3462-64.3183 60.0648-61.9551 61.7835-59.5062 62.9864-56.6706 63.6737-53.3623 64.1033-51.214 64.3183-47.4332 64.3183-42.1054L64.3183 0 52.7177 0 52.7177-41.633C52.7177-46.3588 52.2453-49.8821 51.3858-52.2453 50.4407-54.5654 48.8511-56.4557 46.5738-57.8306 44.2537-59.2485 41.5899-59.9358 38.4965-59.9358 33.5126-59.9358 29.2591-58.3462 25.693-55.2528 22.0839-52.0735 20.2794-46.1442 20.2794-37.3795L20.2794 0Z" transform="matrix(1.00037 0 0 1 2038.85 3357.15)"/><path d="M69.7318-55.5534 7.34697-55.5534 7.34697-66.3806 69.7318-66.3806 69.7318-55.5534M69.7318-26.8959 7.34697-26.8959 7.34697-37.7232 69.7318-37.7232Z" transform="matrix(1.00037 0 0 1 2112.28 3357.15)"/><path d="M42.664 0 42.664-22.5995 1.67563-22.5995 1.67563-33.2548 44.7692-94.4794 54.2646-94.4794 54.2646-33.2548 67.0252-33.2548 67.0252-22.5995 54.2646-22.5995 54.2646 0 42.664 0M42.664-33.2548 42.664-75.8757 13.0613-33.2548Z" transform="matrix(1.00037 0 0 1 2189.37 3357.15)"/><path d="M6.27286-82.1056 6.27286-93.2335 67.4119-93.2335 67.4119-84.2111C61.3967-77.8093 55.4246-69.3022 49.5384-58.6898 43.6091-48.0775 39.0551-37.2074 35.8327-25.9508 33.5126-18.0451 32.0517-9.40929 31.3643 0L19.463 0C19.5919-7.43292 21.0527-16.4126 23.8455-26.939 26.6382-37.4652 30.6339-47.6048 35.8755-57.401 41.0743-67.1539 46.6169-75.4033 52.5031-82.1056Z" transform="matrix(1.00037 0 0 1 2262.8 3357.15)"/><path d="M8.67889 0 8.67889-68.443 19.1623-68.443 19.1623-58.6898C24.1462-66.2088 31.4074-69.9895 40.9025-69.9895 45.0272-69.9895 48.8511-69.2593 52.2881-67.7556 55.7683-66.2947 58.3462-64.3183 60.0648-61.9551 61.7835-59.5062 62.9864-56.6706 63.6737-53.3623 64.1033-51.214 64.3183-47.4332 64.3183-42.1054L64.3183 0 52.7177 0 52.7177-41.633C52.7177-46.3588 52.2453-49.8821 51.3858-52.2453 50.4407-54.5654 48.8511-56.4557 46.5738-57.8306 44.2537-59.2485 41.5899-59.9358 38.4965-59.9358 33.5126-59.9358 29.2591-58.3462 25.693-55.2528 22.0839-52.0735 20.2794-46.1442 20.2794-37.3795L20.2794 0Z" transform="matrix(1.00037 0 0 1 2995.58 3357.15)"/><path d="M69.7318-55.5534 7.34697-55.5534 7.34697-66.3806 69.7318-66.3806 69.7318-55.5534M69.7318-26.8959 7.34697-26.8959 7.34697-37.7232 69.7318-37.7232Z" transform="matrix(1.00037 0 0 1 3069.01 3357.15)"/><path d="M66.4235-11.1708 66.4235 0 3.99571 0C3.90979-2.7927 4.33945-5.4995 5.32763-8.07737 6.91732-12.288 9.49521-16.4985 12.9754-20.6231 16.4985-24.7477 21.5253-29.5169 28.185-34.9304 38.4106-43.3516 45.3709-50.0111 48.9798-54.9519 52.589-59.8499 54.3933-64.5332 54.3933-68.9154 54.3933-73.4697 52.7608-77.3797 49.4525-80.516 46.1873-83.6955 41.8907-85.2421 36.606-85.2421 31.0206-85.2421 26.5522-83.6093 23.201-80.2582 19.8498-76.907 18.1312-72.2668 18.1312-66.3375L6.18694-67.5407C7.00326-76.4343 10.0967-83.2228 15.3814-87.8631 20.709-92.5461 27.8841-94.8662 36.8637-94.8662 45.9292-94.8662 53.1045-92.3743 58.389-87.3044 63.6737-82.3205 66.3375-76.0476 66.3375-68.6576 66.3375-64.8338 65.5214-61.139 64.0174-57.487 62.4278-53.835 59.893-49.968 56.2838-45.9723 52.7177-41.8907 46.7456-36.3482 38.4106-29.302 31.4502-23.4588 26.9819-19.5061 25.0055-17.4437 23.0291-15.3384 21.3964-13.2331 20.1075-11.1708Z" transform="matrix(1.00037 0 0 1 3146.13 3357.15)"/><path d="M66.4235-11.1708 66.4235 0 3.99571 0C3.90979-2.7927 4.33945-5.4995 5.32763-8.07737 6.91732-12.288 9.49521-16.4985 12.9754-20.6231 16.4985-24.7477 21.5253-29.5169 28.185-34.9304 38.4106-43.3516 45.3709-50.0111 48.9798-54.9519 52.589-59.8499 54.3933-64.5332 54.3933-68.9154 54.3933-73.4697 52.7608-77.3797 49.4525-80.516 46.1873-83.6955 41.8907-85.2421 36.606-85.2421 31.0206-85.2421 26.5522-83.6093 23.201-80.2582 19.8498-76.907 18.1312-72.2668 18.1312-66.3375L6.18694-67.5407C7.00326-76.4343 10.0967-83.2228 15.3814-87.8631 20.709-92.5461 27.8841-94.8662 36.8637-94.8662 45.9292-94.8662 53.1045-92.3743 58.389-87.3044 63.6737-82.3205 66.3375-76.0476 66.3375-68.6576 66.3375-64.8338 65.5214-61.139 64.0174-57.487 62.4278-53.835 59.893-49.968 56.2838-45.9723 52.7177-41.8907 46.7456-36.3482 38.4106-29.302 31.4502-23.4588 26.9819-19.5061 25.0055-17.4437 23.0291-15.3384 21.3964-13.2331 20.1075-11.1708Z" transform="matrix(1.00037 0 0 1 3219.56 3357.15)"/><path d="M649.369 2249.63 649.369 723.915" stroke="#000000" stroke-width="8.24924" stroke-linecap="round" stroke-linejoin="round" stroke-miterlimit="10" fill="none" transform="matrix(1.00037 0 0 1 -11.9397 727.957)"/><path d="M649.369 2249.63 570.186 2249.63" stroke="#000000" stroke-width="8.24924" stroke-linecap="round" stroke-linejoin="round" stroke-miterlimit="10" fill="none" transform="matrix(1.00037 0 0 1 -11.9397 727.957)"/><path d="M649.369 1868.23 570.186 1868.23" stroke="#000000" stroke-width="8.24924" stroke-linecap="round" stroke-linejoin="round" stroke-miterlimit="10" fill="none" transform="matrix(1.00037 0 0 1 -11.9397 727.957)"/><path d="M649.369 1486.8 570.186 1486.8" stroke="#000000" stroke-width="8.24924" stroke-linecap="round" stroke-linejoin="round" stroke-miterlimit="10" fill="none" transform="matrix(1.00037 0 0 1 -11.9397 727.957)"/><path d="M649.369 1105.36 570.186 1105.36" stroke="#000000" stroke-width="8.24924" stroke-linecap="round" stroke-linejoin="round" stroke-miterlimit="10" fill="none" transform="matrix(1.00037 0 0 1 -11.9397 727.957)"/><path d="M649.369 723.915 570.186 723.915" stroke="#000000" stroke-width="8.24924" stroke-linecap="round" stroke-linejoin="round" stroke-miterlimit="10" fill="none" transform="matrix(1.00037 0 0 1 -11.9397 727.957)"/><path d="M-46.5738-5.4995C-57.7447-5.4995-66.7671-6.61657-73.5556-8.93668-80.3872-11.2138-85.6289-14.651-89.3237-19.1623-93.0188-23.7166-94.8662-29.3879-94.8662-36.3051-94.8662-41.3321-93.8352-45.8005-91.8159-49.6243-89.7536-53.4482-86.8318-56.5847-82.9651-59.1194-79.1412-61.5686-74.4579-63.545-68.9154-64.9628-63.416-66.3806-55.9401-67.1111-46.5738-67.1111-35.489-67.1111-26.5522-65.951-19.7639-63.6737-12.9324-61.3967-7.6907-58.0025-3.95275-53.4482-0.25779-48.937 1.63267-43.1795 1.63267-36.2623 1.63267-27.1537-1.67563-20.0216-8.16332-14.8229-16.0688-8.59297-28.8293-5.4995-46.5738-5.4995M-46.5738-17.4007C-31.0635-17.4007-20.752-19.2052-15.6392-22.8572-10.4834-26.4663-7.90553-30.9347-7.90553-36.2623-7.90553-41.5899-10.4834-46.1013-15.6392-49.7103-20.7949-53.3623-31.1065-55.1668-46.5738-55.1668-62.1272-55.1668-72.4815-53.3623-77.5944-49.7103-82.7073-46.1013-85.2421-41.5899-85.2421-36.1764-85.2421-30.8057-83.0082-26.5522-78.4967-23.4158-72.7395-19.42-62.0841-17.4007-46.5738-17.4007Z" transform="matrix(1.00037 0 0 1 463.383 3069.33)"/><path d="M0-11.9871-13.2331-11.9871-13.1902-25.1773 0-25.1773Z" transform="matrix(1.00037 0 0 1 463.383 2995.92)"/><path d="M-11.1279-66.4235 0-66.4235 0-3.99571C-2.7927-3.90979-5.4995-4.33945-8.07737-5.37059-12.288-6.91732-16.4985-9.49521-20.6231-12.9754-24.7477-16.4985-29.5169-21.5253-34.9304-28.185-43.3516-38.4106-50.0111-45.3709-54.9519-48.9798-59.8499-52.589-64.5332-54.3933-68.9154-54.3933-73.4697-54.3933-77.3797-52.7608-80.516-49.4525-83.6955-46.1873-85.2421-41.8907-85.2421-36.606-85.2421-31.0206-83.6093-26.5522-80.2582-23.201-76.907-19.8498-72.2668-18.1312-66.3375-18.1312L-67.5407-6.18694C-76.4343-7.00326-83.2228-10.0967-87.8631-15.4243-92.5461-20.709-94.8662-27.8841-94.8662-36.8637-94.8662-45.9292-92.3743-53.1045-87.3044-58.389-82.3205-63.6737-76.0476-66.3375-68.6576-66.3375-64.8338-66.3375-61.139-65.5214-57.487-64.0174-53.835-62.4278-49.968-59.893-45.9723-56.2838-41.8907-52.7177-36.3482-46.7456-29.302-38.4106-23.4588-31.4502-19.5061-26.9819-17.4437-25.0055-15.3384-23.0291-13.2331-21.3964-11.1279-20.1075Z" transform="matrix(1.00037 0 0 1 463.383 2959.24)"/><path d="M-46.5738-5.4995C-57.7447-5.4995-66.7671-6.61657-73.5556-8.93668-80.3872-11.2138-85.6289-14.651-89.3237-19.1623-93.0188-23.7166-94.8662-29.3879-94.8662-36.3051-94.8662-41.3321-93.8352-45.8005-91.8159-49.6243-89.7536-53.4482-86.8318-56.5847-82.9651-59.1194-79.1412-61.5686-74.4579-63.545-68.9154-64.9628-63.416-66.3806-55.9401-67.1111-46.5738-67.1111-35.489-67.1111-26.5522-65.951-19.7639-63.6737-12.9324-61.3967-7.6907-58.0025-3.95275-53.4482-0.25779-48.937 1.63267-43.1795 1.63267-36.2623 1.63267-27.1537-1.67563-20.0216-8.16332-14.8229-16.0688-8.59297-28.8293-5.4995-46.5738-5.4995M-46.5738-17.4007C-31.0635-17.4007-20.752-19.2052-15.6392-22.8572-10.4834-26.4663-7.90553-30.9347-7.90553-36.2623-7.90553-41.5899-10.4834-46.1013-15.6392-49.7103-20.7949-53.3623-31.1065-55.1668-46.5738-55.1668-62.1272-55.1668-72.4815-53.3623-77.5944-49.7103-82.7073-46.1013-85.2421-41.5899-85.2421-36.1764-85.2421-30.8057-83.0082-26.5522-78.4967-23.4158-72.7395-19.42-62.0841-17.4007-46.5738-17.4007Z" transform="matrix(1.00037 0 0 1 463.383 2687.92)"/><path d="M0-11.9871-13.2331-11.9871-13.1902-25.1773 0-25.1773Z" transform="matrix(1.00037 0 0 1 463.383 2614.51)"/><path d="M0-42.664-22.5995-42.664-22.5995-1.67563-33.2548-1.67563-94.4794-44.8123-94.4794-54.2646-33.2548-54.2646-33.2548-67.0252-22.5995-67.0252-22.5995-54.2646 0-54.2646 0-42.664M-33.2548-42.664-75.8757-42.664-33.2548-13.1043Z" transform="matrix(1.00037 0 0 1 463.383 2577.86)"/><path d="M-46.5738-5.4995C-57.7447-5.4995-66.7671-6.61657-73.5556-8.93668-80.3872-11.2138-85.6289-14.651-89.3237-19.1623-93.0188-23.7166-94.8662-29.3879-94.8662-36.3051-94.8662-41.3321-93.8352-45.8005-91.8159-49.6243-89.7536-53.4482-86.8318-56.5847-82.9651-59.1194-79.1412-61.5686-74.4579-63.545-68.9154-64.9628-63.416-66.3806-55.9401-67.1111-46.5738-67.1111-35.489-67.1111-26.5522-65.951-19.7639-63.6737-12.9324-61.3967-7.6907-58.0025-3.95275-53.4482-0.25779-48.937 1.63267-43.1795 1.63267-36.2623 1.63267-27.1537-1.67563-20.0216-8.16332-14.8229-16.0688-8.59297-28.8293-5.4995-46.5738-5.4995M-46.5738-17.4007C-31.0635-17.4007-20.752-19.2052-15.6392-22.8572-10.4834-26.4663-7.90553-30.9347-7.90553-36.2623-7.90553-41.5899-10.4834-46.1013-15.6392-49.7103-20.7949-53.3623-31.1065-55.1668-46.5738-55.1668-62.1272-55.1668-72.4815-53.3623-77.5944-49.7103-82.7073-46.1013-85.2421-41.5899-85.2421-36.1764-85.2421-30.8057-83.0082-26.5522-78.4967-23.4158-72.7395-19.42-62.0841-17.4007-46.5738-17.4007Z" transform="matrix(1.00037 0 0 1 463.383 2306.48)"/><path d="M0-11.9871-13.2331-11.9871-13.1902-25.1773 0-25.1773Z" transform="matrix(1.00037 0 0 1 463.383 2233.08)"/><path d="M-71.3217-65.6502-70.4622-54.1358C-74.9737-53.1045-78.2818-51.6436-80.3441-49.7533-83.6524-46.6169-85.328-42.7499-85.328-38.1528-85.328-34.4577-84.297-31.1925-82.2346-28.4428-79.5708-24.7477-75.6611-21.8691-70.5481-19.8067-65.4355-17.6585-58.1743-16.5844-48.722-16.4985-52.9757-19.2912-56.112-22.6854-58.1743-26.7669-60.2367-30.7629-61.2677-35.0163-61.2677-39.4416-61.2677-47.1752-58.4321-53.749-52.7608-59.2054-47.0465-64.6191-39.6996-67.3688-30.6769-67.3688-24.7477-67.3688-19.2482-66.0798-14.1355-63.5019-9.06559-60.9671-5.15577-57.4439-2.44899-52.9757 0.25779-48.5074 1.63267-43.4375 1.63267-37.766 1.63267-28.0991-1.93341-20.1935-9.06559-14.0924-16.1548-7.99145-27.8841-4.98393-44.2108-4.98393-62.4709-4.98393-75.747-8.33516-84.0392-15.0806-91.2573-20.9668-94.8662-28.8724-94.8662-38.8833-94.8662-46.2732-92.761-52.3741-88.5935-57.1433-84.4257-61.8694-78.7116-64.705-71.3217-65.6502M-30.591-18.303C-26.6382-18.303-22.7713-19.1623-19.1193-20.8379-15.4673-22.5565-12.7176-24.9195-10.7842-27.9701-8.89372-31.0206-7.90553-34.1999-7.90553-37.5511-7.90553-42.4493-9.88191-46.6597-13.8346-50.1829-17.7875-53.7059-23.158-55.4674-29.9465-55.5105-36.4772-55.4674-41.633-53.749-45.4137-50.2689-49.1516-46.7887-51.0422-42.4062-51.0422-37.1215-51.0422-31.8798-49.1516-27.4115-45.4137-23.8025-41.633-20.1075-36.6919-18.303-30.591-18.303Z" transform="matrix(1.00037 0 0 1 463.383 2196.4)"/><path d="M-46.5738-5.4995C-57.7447-5.4995-66.7671-6.61657-73.5556-8.93668-80.3872-11.2138-85.6289-14.651-89.3237-19.1623-93.0188-23.7166-94.8662-29.3879-94.8662-36.3051-94.8662-41.3321-93.8352-45.8005-91.8159-49.6243-89.7536-53.4482-86.8318-56.5847-82.9651-59.1194-79.1412-61.5686-74.4579-63.545-68.9154-64.9628-63.416-66.3806-55.9401-67.1111-46.5738-67.1111-35.489-67.1111-26.5522-65.951-19.7639-63.6737-12.9324-61.3967-7.6907-58.0025-3.95275-53.4482-0.25779-48.937 1.63267-43.1795 1.63267-36.2623 1.63267-27.1537-1.67563-20.0216-8.16332-14.8229-16.0688-8.59297-28.8293-5.4995-46.5738-5.4995M-46.5738-17.4007C-31.0635-17.4007-20.752-19.2052-15.6392-22.8572-10.4834-26.4663-7.90553-30.9347-7.90553-36.2623-7.90553-41.5899-10.4834-46.1013-15.6392-49.7103-20.7949-53.3623-31.1065-55.1668-46.5738-55.1668-62.1272-55.1668-72.4815-53.3623-77.5944-49.7103-82.7073-46.1013-85.2421-41.5899-85.2421-36.1764-85.2421-30.8057-83.0082-26.5522-78.4967-23.4158-72.7395-19.42-62.0841-17.4007-46.5738-17.4007Z" transform="matrix(1.00037 0 0 1 463.383 1925.04)"/><path d="M0-11.9871-13.2331-11.9871-13.1902-25.1773 0-25.1773Z" transform="matrix(1.00037 0 0 1 463.383 1851.64)"/><path d="M-51.214-23.3298C-52.9757-18.5178-55.5105-14.9518-58.7758-12.6317-62.041-10.3116-65.951-9.15151-70.5053-9.15151-77.3797-9.15151-83.1369-11.6434-87.8202-16.5844-92.5033-21.4824-94.8662-28.056-94.8662-36.3051-94.8662-44.5545-92.4602-51.1709-87.6912-56.1979-82.8792-61.2249-77.0358-63.7599-70.2045-63.7599-65.7792-63.7599-61.9982-62.5999-58.7329-60.2795-55.5105-58.0025-52.9757-54.4792-51.214-49.8393-49.3237-55.5965-46.2732-60.0217-42.0626-63.0723-37.8519-66.0798-32.8252-67.6266-26.9819-67.6266-18.9045-67.6266-12.116-64.7479-6.61657-59.0338-1.16005-53.3194 1.63267-45.8005 1.63267-36.4772 1.63267-27.1537-1.16005-19.635-6.65956-13.9205-12.2021-8.20628-19.0764-5.37059-27.3258-5.37059-33.4695-5.37059-38.6255-6.91732-42.7499-10.0108-46.9175-13.1472-49.7103-17.5726-51.214-23.3298M-70.8918-21.0098C-66.4235-21.0098-62.7715-22.4276-59.9358-25.3493-57.1002-28.185-55.6824-31.9229-55.6824-36.5631-55.6824-40.9884-57.1002-44.6833-59.893-47.5192-62.7286-50.3976-66.1657-51.8157-70.2476-51.8157-74.501-51.8157-78.0671-50.3548-80.9886-47.3901-83.8674-44.4686-85.328-40.8166-85.328-36.4341-85.328-31.9658-83.9102-28.3137-81.0746-25.3921-78.2389-22.4706-74.8447-21.0098-70.8918-21.0098M-27.2396-17.2718C-23.9314-17.2718-20.752-18.0451-17.6585-19.635-14.5651-21.1816-12.1591-23.5446-10.4834-26.6382-8.76481-29.7316-7.90553-33.0399-7.90553-36.606-7.90553-42.1485-9.71004-46.7456-13.2761-50.3548-16.8422-53.9637-21.3535-55.7683-26.8531-55.7683-32.4384-55.7683-37.0787-53.8778-40.7307-50.1829-44.3827-46.445-46.2301-41.8048-46.2301-36.2195-46.2301-30.7629-44.4255-26.2514-40.8166-22.6424-37.2074-19.0764-32.6531-17.2718-27.2396-17.2718Z" transform="matrix(1.00037 0 0 1 463.383 1814.96)"/><path d="M0-49.1516 0-37.5511-73.8996-37.5942C-71.2355-34.7586-68.572-31.1065-65.9079-26.5953-63.2441-22.041-61.2677-18.0023-59.9358-14.3932L-71.1496-14.3932C-74.2002-20.8379-77.8953-26.5094-82.2346-31.4074-86.574-36.2195-90.7846-39.6565-94.8662-41.7189L-94.8662-49.1947Z" transform="matrix(1.00037 0 0 1 463.383 1543.61)"/><path d="M0-11.9871-13.2331-11.9871-13.1902-25.1773 0-25.1773Z" transform="matrix(1.00037 0 0 1 463.383 1470.2)"/><path d="M-46.5738-5.4995C-57.7447-5.4995-66.7671-6.61657-73.5556-8.93668-80.3872-11.2138-85.6289-14.651-89.3237-19.1623-93.0188-23.7166-94.8662-29.3879-94.8662-36.3051-94.8662-41.3321-93.8352-45.8005-91.8159-49.6243-89.7536-53.4482-86.8318-56.5847-82.9651-59.1194-79.1412-61.5686-74.4579-63.545-68.9154-64.9628-63.416-66.3806-55.9401-67.1111-46.5738-67.1111-35.489-67.1111-26.5522-65.951-19.7639-63.6737-12.9324-61.3967-7.6907-58.0025-3.95275-53.4482-0.25779-48.937 1.63267-43.1795 1.63267-36.2623 1.63267-27.1537-1.67563-20.0216-8.16332-14.8229-16.0688-8.59297-28.8293-5.4995-46.5738-5.4995M-46.5738-17.4007C-31.0635-17.4007-20.752-19.2052-15.6392-22.8572-10.4834-26.4663-7.90553-30.9347-7.90553-36.2623-7.90553-41.5899-10.4834-46.1013-15.6392-49.7103-20.7949-53.3623-31.1065-55.1668-46.5738-55.1668-62.1272-55.1668-72.4815-53.3623-77.5944-49.7103-82.7073-46.1013-85.2421-41.5899-85.2421-36.1764-85.2421-30.8057-83.0082-26.5522-78.4967-23.4158-72.7395-19.42-62.0841-17.4007-46.5738-17.4007Z" transform="matrix(1.00037 0 0 1 463.383 1433.53)"/><path d="M0-10.3975-94.4794-10.3975-94.4794-52.2881C-94.4794-60.6663-93.6202-67.1111-91.9447-71.4935-90.226-75.8757-87.2185-79.3559-82.922-81.9769-78.6257-84.5978-73.8996-85.9297-68.7007-85.9297-61.9982-85.9297-56.3269-83.7384-51.7295-79.399-47.1324-75.0596-44.2108-68.357-42.9649-59.2913-41.3752-62.5999-39.8284-65.0916-38.2816-66.8531-34.9304-70.4622-30.7198-73.9424-25.693-77.2076L0-93.6631 0-77.9381-19.635-65.3924C-25.3062-61.7404-29.6456-58.7329-32.6531-56.3697-35.6608-54.0068-37.766-51.9014-38.9692-50.0539-40.1721-48.1637-41.0315-46.2732-41.504-44.3396-41.8048-42.9218-41.9336-40.6017-41.9336-37.3795L-41.9336-22.9002 0-22.8572 0-10.3975M-52.7608-22.9002-52.7608-49.7533C-52.7608-55.4674-53.3623-59.9358-54.5654-63.1582-55.7255-66.3806-57.6157-68.8295-60.2367-70.5053-62.8145-72.1809-65.6502-73.0401-68.7007-73.0401-73.1691-73.0401-76.8211-71.4076-79.7427-68.1421-82.5783-64.9197-84.0392-59.764-84.0392-52.8036L-84.0392-22.9002Z" transform="matrix(1.00037 0 0 1 214.736 2305.97)"/><path d="M-7.81961-46.5309 0-46.5309 0-2.7927C-1.93341-2.74974-3.82387-3.05051-5.62838-3.73795-8.63593-4.85502-11.5575-6.65956-14.4362-9.10855-17.3148-11.5575-20.6661-15.0806-24.447-19.7209-30.333-26.8959-35.0163-31.7511-38.4534-34.2859-41.8907-36.8209-45.156-38.0669-48.2065-38.0669-51.4289-38.0669-54.1786-36.9068-56.3697-34.6295-58.5611-32.3094-59.6781-29.302-59.6781-25.607-59.6781-21.6973-58.518-18.6038-56.1551-16.2407-53.835-13.8776-50.5697-12.7176-46.4019-12.6746L-47.2614-4.33945C-53.4913-4.89798-58.2602-7.04622-61.5255-10.7842-64.791-14.5221-66.4235-19.5061-66.4235-25.8218-66.4235-32.1376-64.662-37.1646-61.139-40.8594-57.6157-44.5545-53.2333-46.4019-48.0347-46.4019-45.4137-46.4019-42.7928-45.8864-40.258-44.8123-37.6801-43.6953-34.9735-41.9336-32.1807-39.3988-29.345-36.9068-25.4782-32.739-20.5372-26.8959-16.4555-21.998-13.6628-18.9045-12.2021-17.4866-10.7412-16.1118-9.28039-14.9947-7.81961-14.0924Z" transform="matrix(1.00037 0 0 1 139.223 2210.69)"/></g></g></g></svg>